<svg width="316" height="315" viewBox="0 0 316 315" fill="none" xmlns="http://www.w3.org/2000/svg">
<g clip-path="url(#clip0_432_507)">
<path d="M165.035 92.1094C164.784 92.1812 164.192 92.253 163.725 92.271C161.858 92.3069 155.827 93.8326 153.638 94.8018C153.44 94.8916 152.884 95.1249 152.381 95.3224C151.071 95.8249 147.607 97.4763 147.068 97.8712C146.817 98.0327 146.404 98.2481 146.135 98.302C145.865 98.3738 145.65 98.4994 145.65 98.5712C145.65 98.643 145.507 98.7507 145.345 98.8225C145.165 98.8763 144.789 99.0917 144.483 99.2892C144.196 99.4866 143.765 99.72 143.532 99.8277C143.299 99.9174 142.85 100.205 142.527 100.456C142.204 100.707 141.881 100.905 141.827 100.905C141.414 100.905 135.634 105.105 134.001 106.577C132.673 107.779 130.214 110.4 130.214 110.615C130.214 110.669 130.052 110.92 129.837 111.154C129.298 111.764 127.683 114.313 127.216 115.264C127.019 115.713 126.624 116.503 126.373 117.041C125.493 118.836 125.134 120.793 125.224 123.072C125.332 125.316 125.834 126.483 127.36 128.026C128.957 129.624 130.662 130.324 133.355 130.467C135.204 130.557 136.532 130.413 138.381 129.893C138.973 129.731 139.763 129.534 140.14 129.426C140.517 129.336 140.947 129.193 141.127 129.085C141.54 128.87 143.855 127.829 143.963 127.829C144.286 127.829 148.073 125.513 151.573 123.18C153.889 121.636 155.917 120.29 156.097 120.2C156.258 120.093 157.353 119.446 158.52 118.746C159.686 118.064 161.122 117.239 161.715 116.933C162.307 116.628 163.151 116.18 163.599 115.946C164.048 115.731 164.892 115.336 165.484 115.121C166.076 114.887 166.812 114.582 167.099 114.456C167.405 114.331 167.835 114.133 168.087 114.026C168.787 113.738 170.366 113.451 171.91 113.344C175.248 113.128 177.582 114.6 178.784 117.687C179.072 118.423 179.125 119.034 179.125 121.187C179.125 123.808 178.892 125.244 178.192 126.931C178.049 127.272 177.851 127.757 177.743 128.008C176.846 130.162 174.997 133.249 172.879 136.05C170.869 138.742 166.543 143.211 163.689 145.563C162.702 146.388 161.607 147.286 161.266 147.573C160.512 148.201 159.633 148.829 158.663 149.476C158.268 149.727 157.622 150.158 157.227 150.445C156.115 151.199 153.153 152.778 151.484 153.496C150.999 153.712 150.335 153.999 150.012 154.143C149.707 154.286 149.294 154.394 149.096 154.394C148.917 154.394 148.504 154.484 148.181 154.591C147.014 155.004 145.83 154.214 145.83 153.012C145.83 151.54 146.53 150.606 150.945 146.227C155.72 141.488 156.24 140.788 156.24 138.993C156.24 137.144 155.361 135.888 153.386 134.883C152.525 134.434 152.202 134.38 150.694 134.38C148.935 134.38 147.912 134.632 146.637 135.403C146.35 135.583 145.901 135.816 145.65 135.942C145.399 136.067 145.165 136.211 145.112 136.265C145.058 136.319 144.699 136.588 144.304 136.893C143.353 137.611 141.683 139.316 140.732 140.555C140.068 141.416 139.583 142.224 138.452 144.342C137.519 146.101 136.675 149.368 136.675 151.271C136.675 155.13 138.686 158.217 141.791 159.097C142.724 159.366 146.53 159.366 147.84 159.114C149.132 158.845 152.507 157.804 152.722 157.607C152.83 157.517 153.009 157.445 153.153 157.445C153.62 157.445 158.951 154.735 160.781 153.55C161.194 153.281 161.661 152.976 161.84 152.868C162.002 152.778 162.845 152.258 163.725 151.719C164.587 151.181 165.34 150.678 165.394 150.624C165.448 150.553 166.058 150.104 166.74 149.637C167.441 149.153 168.248 148.596 168.535 148.399C168.841 148.183 169.684 147.537 170.42 146.945C175.087 143.229 179.215 139.262 181.62 136.175C182.015 135.691 182.374 135.242 182.428 135.188C182.572 135.08 183.792 133.321 184.636 131.993C185.013 131.437 185.587 130.449 185.91 129.803C186.251 129.157 186.718 128.277 186.951 127.829C187.185 127.38 187.687 126.213 188.082 125.226C188.459 124.239 188.836 123.27 188.908 123.072C189.41 121.798 190.182 118.513 190.523 116.162C190.9 113.505 190.613 109.143 189.877 106.738C189.572 105.751 189.5 105.571 188.836 104.136C187.4 101.048 185.103 98.2481 182.464 96.4173C182.105 96.166 181.656 95.8249 181.459 95.6275C180.813 95.0531 177.528 93.5813 175.607 93.0248C174.584 92.7197 173.059 92.3966 172.215 92.271C170.276 92.0197 165.628 91.894 165.035 92.1094Z" fill="#FF0000"/>
<path d="M217.07 180.87C217.016 180.906 216.19 181.067 215.203 181.229C214.216 181.372 212.601 181.642 211.613 181.821L209.819 182.126V198.64C209.819 216.571 209.783 215.817 210.842 218.061C211.201 218.833 211.703 219.497 212.475 220.197C214.378 221.938 216.155 222.476 219.942 222.494C223.173 222.494 223.047 222.62 222.975 219.64L222.921 217.486L221.539 217.361C219.08 217.145 217.896 216.158 217.626 214.112C217.555 213.502 217.501 205.819 217.519 197.06C217.537 181.893 217.501 180.439 217.07 180.87Z" fill="#FF0000"/>
<path d="M167.369 181.229C163.384 181.821 162.056 182.073 161.894 182.27C161.768 182.414 161.75 188.14 161.804 199.089C161.894 214.382 161.93 215.764 162.217 216.5C162.899 218.241 163.258 218.851 164.174 219.766C166.058 221.651 168.463 222.423 172.412 222.423C174.602 222.423 174.907 222.387 175.051 222.1C175.23 221.759 175.32 218.636 175.176 217.918C175.069 217.469 174.997 217.451 173.651 217.343C171.946 217.235 170.94 216.661 170.24 215.423L169.792 214.615L169.738 205.317C169.702 198.389 169.738 195.948 169.899 195.75C170.061 195.553 170.671 195.499 172.592 195.499C175.553 195.499 175.302 195.786 175.23 192.358L175.176 190.024L172.664 189.934C171.281 189.881 170.043 189.773 169.935 189.701C169.756 189.593 169.702 188.499 169.702 185.25V180.96L169.307 180.978C169.074 180.996 168.212 181.103 167.369 181.229Z" fill="#FF0000"/>
<path d="M105.175 189.324C103.829 189.45 100.598 190.222 99.6105 190.652C99.413 190.742 99.0541 190.868 98.8028 190.94C98.013 191.155 95.3924 192.465 95.3924 192.645C95.3924 192.735 95.5539 193.147 95.7334 193.578C96.9181 196.181 97.3668 197.114 97.4566 197.114C97.5104 197.114 97.6899 197.042 97.8694 196.953C98.7848 196.486 99.8977 196.037 100.777 195.768C101.316 195.606 101.962 195.391 102.213 195.301C103.218 194.942 105.893 194.763 107.131 194.96C109.572 195.355 110.47 196.486 110.613 199.376C110.685 200.973 110.685 201.009 110.272 201.117C110.039 201.189 108.388 201.243 106.611 201.243C102.339 201.243 101.028 201.494 98.2643 202.84C95.895 203.989 94.136 206.161 93.2923 208.961C92.8616 210.451 92.9154 213.233 93.4 214.705C95.0155 219.587 98.8566 222.441 104.205 222.728C109.07 222.997 114.078 221.543 117.29 218.959L118.457 218.007L118.511 208.512C118.565 197.509 118.547 197.132 117.219 194.44C116.626 193.219 114.634 191.281 113.396 190.742C112.821 190.473 112.193 190.204 111.995 190.114C110.649 189.522 107.239 189.127 105.175 189.324ZM110.47 206.627C110.577 206.771 110.649 208.907 110.649 211.492C110.649 216.589 110.721 216.266 109.393 216.966C108.89 217.235 108.334 217.289 106.593 217.307H104.421L103.523 216.697C103.039 216.374 102.464 215.835 102.267 215.53C100.939 213.592 101.028 210.127 102.429 208.422C102.841 207.902 104.421 206.807 104.708 206.807C104.888 206.807 105.085 206.735 105.193 206.645C105.444 206.376 106.27 206.304 108.37 206.34C109.877 206.358 110.344 206.412 110.47 206.627Z" fill="#FF0000"/>
<path d="M149.958 189.755C146.386 190.598 143.532 192.124 140.66 194.745L139.906 195.427V208.53C139.906 215.727 139.906 221.758 139.906 221.938C139.906 222.225 140.175 222.243 143.819 222.207L147.714 222.153L147.768 209.643L147.804 197.15L148.486 196.611C149.294 195.965 149.689 195.768 150.73 195.409C151.968 194.996 153.907 194.798 155.361 194.96C156.079 195.032 156.761 195.068 156.868 195.014C156.994 194.978 157.317 194.368 157.604 193.65C157.873 192.932 158.304 191.998 158.52 191.568C159.112 190.437 159.058 190.15 158.268 189.97C157.891 189.88 157.209 189.719 156.725 189.611C155.45 189.288 151.555 189.378 149.958 189.755Z" fill="#FF0000"/>
<path d="M188.998 189.79C188.405 189.88 187.849 190.042 187.759 190.131C187.651 190.221 187.472 190.293 187.328 190.293C187.185 190.293 186.538 190.544 185.91 190.867C184.528 191.549 182.41 193.506 181.513 194.96C180.723 196.234 179.808 198.137 179.664 198.819C179.592 199.106 179.484 199.519 179.395 199.716C179.323 199.914 179.107 200.686 178.928 201.422C178.443 203.36 178.443 209.571 178.91 211.384C179.341 213.053 180.31 215.602 180.49 215.602C180.579 215.602 180.651 215.691 180.651 215.799C180.651 216.481 182.787 219.192 184.295 220.412C184.959 220.951 186.449 221.722 187.562 222.099C188.764 222.512 191.421 222.961 192.605 222.961C195.154 222.961 199.749 221.866 201.275 220.897C201.634 220.681 202.118 220.43 202.37 220.358C202.908 220.197 204.093 219.461 204.236 219.21C204.398 218.958 202.388 214.884 202.118 214.884C201.993 214.884 201.67 215.045 201.418 215.243C201.167 215.44 200.862 215.602 200.718 215.602C200.593 215.602 200.323 215.709 200.126 215.853C199.929 215.979 198.995 216.356 198.062 216.679C196.464 217.235 196.195 217.271 193.844 217.289C191.618 217.289 191.241 217.253 190.523 216.912C188.01 215.709 186.574 212.676 186.574 208.583C186.574 207.704 186.592 206.968 186.628 206.95C186.646 206.914 190.631 206.86 195.459 206.806L204.254 206.717L204.201 204.922C204.093 201.404 203.159 196.665 202.352 195.588C202.28 195.48 202.029 195.032 201.795 194.583C200.826 192.662 198.78 191.011 196.357 190.203C194.58 189.593 191.331 189.413 188.998 189.79ZM192.857 195.498C193.61 195.696 195.19 196.97 195.19 197.365C195.19 197.473 195.316 197.796 195.459 198.065C195.872 198.873 196.195 201.529 195.908 201.87C195.728 202.104 195.028 202.14 191.403 202.14H187.113L187.005 201.691C186.772 200.775 187.4 198.316 188.118 197.365C188.908 196.306 189.608 195.768 190.649 195.462C191.223 195.301 191.78 195.193 191.905 195.229C192.013 195.265 192.444 195.391 192.857 195.498Z" fill="#FF0000"/>
<path d="M127.163 177.155C125.798 177.855 125.386 178.196 124.793 179.075C124.219 179.955 124.201 180.027 124.201 181.857V183.76L124.883 184.693C125.691 185.788 126.229 186.183 127.414 186.596C129.011 187.117 130.393 186.919 131.991 185.914C133.911 184.693 134.576 181.57 133.409 179.273C132.996 178.465 132.637 178.088 131.56 177.406C130.591 176.778 128.132 176.634 127.163 177.155Z" fill="#FF0000"/>
<path d="M131.56 190.114C131.273 190.203 130.465 190.365 129.765 190.455C129.083 190.544 127.827 190.724 126.983 190.85C126.14 190.957 125.404 191.119 125.314 191.173C125.152 191.316 125.134 221.812 125.278 222.082C125.35 222.171 126.947 222.243 129.047 222.243C132.709 222.243 132.727 222.243 132.817 221.83C132.871 221.615 132.888 214.363 132.871 205.73C132.817 190.168 132.817 190.024 132.458 189.988C132.26 189.97 131.865 190.024 131.56 190.114Z" fill="#FF0000"/>
</g>
<defs>
<clipPath id="clip0_432_507">
<rect width="130" height="130.961" fill="white" transform="translate(93 92)"/>
</clipPath>
</defs>
</svg>
