<svg width="316" height="315" viewBox="0 0 316 315" fill="none" xmlns="http://www.w3.org/2000/svg">
<path d="M107.998 150.538C107.398 150.47 106.46 149.938 105.798 149.405C99.4726 143.205 107.598 136.08 116.993 131.948V120.16C119.193 121.56 120.393 121.625 120.458 121.825L127.653 114.7L125.253 108.568C146.31 101.305 154.768 98.505 171.89 95.6425L168.82 92.775L173.82 89.915C185.32 93.715 196.21 94.715 194.34 104.373C194.808 97.8425 186.68 95.31 174.29 91.8725L171.89 93.3375L176.485 97.1375C155.968 100.668 143.373 104.668 128.385 109.888L130.448 115.22L122.948 122.615C124.215 122.948 137.338 127.345 150.993 117.82C150.993 117.82 151.263 117.62 151.263 117.553C150.863 116.888 149.928 116.153 148.798 115.153C152.798 115.42 155.388 118.953 154.923 122.615H153.06C153.17 121.477 152.986 120.33 152.528 119.283C141.933 127.013 129.678 128.145 119.213 124.483V133.608C114.15 135.408 105.088 141 105.155 146.403C105.488 148.998 106.823 149.903 108.02 150.603" fill="black"/>
<path d="M150.837 148.202C139.502 153.932 128.647 158.527 111.925 159.195C90.1399 158.727 86.7424 144.27 97.0674 129.145C106.817 113.89 122.252 100.095 146.817 91.5C153.942 89 164.41 86.1075 174.532 86C189.032 85.865 203.182 90.4 202.25 104.325C201.715 114.985 186.325 130.042 178.2 140.837C174.735 145.587 174.135 148.632 180.062 148.367C201.562 146.967 221.107 139.505 239.23 131.775C226.972 140.105 163.605 171.482 163.345 150.1C163.41 147.365 164.675 144.5 166.74 141.437C168.74 138.372 171.54 135.172 174.405 131.907C178.735 126.977 189.455 115.157 193.055 108.12C199.117 94.73 185.555 94.0625 173.8 89.9325L168.8 92.7925L171.87 95.66C154.745 98.5225 146.287 101.322 125.232 108.585L127.632 114.717L120.437 121.842C120.237 121.642 119.17 121.577 116.972 120.177V131.97C107.572 136.1 99.4725 143.227 105.777 149.427C106.442 149.96 107.377 150.495 107.977 150.56C119.477 157.09 150.882 148.227 150.82 148.227M32.7625 181.11L28.655 171.76L24.305 181.11H32.7625ZM19.67 191.36H11.05L24.35 165.67H33.8925L46.585 191.36H37.01L35.0775 186.73H21.7425L19.67 191.36ZM47.845 165.67H56.095V191.357H47.845V165.67ZM61.1374 173.45H69.3875V191.332H61.1374V173.45ZM61.1374 165.7H69.3875V170.942H61.1374V165.7ZM90.625 182.457C90.625 180.877 90.2499 179.632 89.5099 178.72C88.7699 177.807 87.76 177.352 86.51 177.352C85.14 177.352 84.0924 177.792 83.3674 178.67C82.6424 179.547 82.2775 180.82 82.2775 182.495C82.2775 184.075 82.645 185.302 83.3775 186.18C84.11 187.057 85.1274 187.492 86.4399 187.492C87.7274 187.492 88.7524 187.042 89.5099 186.135C90.2674 185.227 90.65 184.005 90.65 182.46M74.075 165.647H82.3449V175.997C83.2788 175.019 84.4038 174.243 85.65 173.717C86.9198 173.202 88.2794 172.943 89.6499 172.957C92.4674 172.957 94.7324 173.857 96.4424 175.657C98.1524 177.457 99.0074 179.845 99.0074 182.82C99.0074 185.527 98.165 187.695 96.4775 189.327C94.79 190.96 92.5524 191.777 89.7274 191.777C88.1874 191.777 86.7899 191.497 85.5349 190.935C84.2839 190.37 83.1827 189.52 82.32 188.452L82.2499 190.072C82.2049 190.56 82.1249 190.982 81.9999 191.342H73.73C73.8225 191.007 73.895 190.585 73.9475 190.085C74 189.585 74.0274 189.002 74.0274 188.352V165.652M117.102 183.585C114.427 183.585 112.602 183.76 111.632 184.085C110.662 184.41 110.175 185.042 110.175 185.91C110.175 186.5 110.412 186.96 110.882 187.29C111.352 187.62 112.02 187.785 112.882 187.785C114.29 187.785 115.345 187.46 116.045 186.805C116.745 186.15 117.102 185.162 117.102 183.842V183.562V183.585ZM117.277 188.692C116.49 189.727 115.467 190.492 114.212 190.992C112.957 191.492 111.462 191.742 109.652 191.742C107.107 191.742 105.152 191.292 103.785 190.385C103.134 189.981 102.601 189.412 102.24 188.736C101.879 188.06 101.703 187.301 101.73 186.535C101.73 184.272 102.91 182.635 105.27 181.635C107.63 180.635 111.585 180.135 117.135 180.06C117.135 180.025 117.142 179.96 117.152 179.86C117.162 179.788 117.167 179.715 117.167 179.642C117.167 178.727 116.917 178.042 116.342 177.592C115.767 177.142 114.967 176.917 113.86 176.917C112.865 176.917 112.097 177.082 111.56 177.412C111.299 177.572 111.078 177.789 110.913 178.046C110.749 178.303 110.644 178.594 110.607 178.897H102.972C103.007 176.912 103.972 175.435 105.797 174.467C107.622 173.5 110.46 173.012 114.247 173.012C117.882 173.012 120.59 173.577 122.365 174.712C124.14 175.847 125.03 177.562 125.03 179.875V188.995C125.024 189.453 125.05 189.911 125.107 190.365C125.155 190.699 125.245 191.025 125.377 191.335H117.715C117.564 190.916 117.451 190.484 117.38 190.045C117.31 189.61 117.275 189.16 117.275 188.695L117.277 188.692ZM146.237 182.457C146.237 180.877 145.862 179.632 145.122 178.72C144.382 177.807 143.372 177.352 142.092 177.352C140.727 177.352 139.677 177.792 138.955 178.67C138.232 179.547 137.865 180.82 137.865 182.495C137.865 184.075 138.23 185.302 138.96 186.18C139.69 187.057 140.71 187.492 142.025 187.492C143.312 187.492 144.335 187.042 145.095 186.135C145.855 185.227 146.235 184.005 146.235 182.46M129.66 165.647H137.91V175.997C138.892 174.985 139.995 174.247 141.21 173.717C142.48 173.202 143.839 172.943 145.21 172.957C148.025 172.957 150.29 173.857 152.002 175.657C153.715 177.457 154.567 179.845 154.567 182.82C154.567 185.527 153.722 187.695 152.035 189.327C150.347 190.96 148.11 191.777 145.285 191.777C143.745 191.777 142.347 191.497 141.095 190.935C139.843 190.371 138.741 189.52 137.877 188.452L137.807 190.072C137.773 190.502 137.698 190.927 137.582 191.342H129.332C129.438 190.93 129.511 190.509 129.55 190.085C129.6 189.577 129.625 189.002 129.625 188.352V165.652M172.712 183.585C170.037 183.585 168.212 183.76 167.212 184.085C166.212 184.41 165.755 185.042 165.755 185.91C165.755 186.5 165.992 186.96 166.462 187.29C166.932 187.62 167.6 187.785 168.462 187.785C169.867 187.785 170.925 187.46 171.63 186.805C172.335 186.15 172.68 185.162 172.68 183.842L172.712 183.585ZM172.887 188.692C172.1 189.727 171.08 190.492 169.825 190.992C168.57 191.492 167.075 191.742 165.262 191.742C162.72 191.742 160.762 191.292 159.395 190.385C158.745 189.98 158.212 189.411 157.852 188.735C157.492 188.059 157.317 187.3 157.345 186.535C157.345 184.272 158.525 182.635 160.882 181.635C163.24 180.635 167.202 180.135 172.75 180.06C172.75 180.025 172.757 179.96 172.767 179.86L172.782 179.642C172.782 178.727 172.532 178.042 171.957 177.592C171.382 177.142 170.577 176.917 169.477 176.917C168.477 176.917 167.712 177.082 167.177 177.412C166.642 177.742 166.327 178.237 166.22 178.897H158.59C158.625 176.912 159.59 175.435 161.407 174.467C163.225 173.5 166.072 173.012 169.857 173.012C173.492 173.012 176.197 173.577 177.975 174.712C179.752 175.847 180.64 177.562 180.64 179.875V188.995C180.634 189.453 180.659 189.91 180.715 190.365C180.764 190.698 180.854 191.024 180.985 191.335H173.32C173.168 190.916 173.056 190.484 172.985 190.045C172.915 189.598 172.88 189.147 172.88 188.695L172.887 188.692ZM206.325 181.342V178.342H217.132V187.792C215.472 189.112 213.762 190.105 212 190.772C210.266 191.434 208.426 191.773 206.57 191.772C204.065 191.772 201.79 191.237 199.74 190.162C197.742 189.138 196.119 187.509 195.102 185.507C194.052 183.477 193.537 181.207 193.537 178.7C193.519 176.294 194.053 173.917 195.097 171.75C196.14 169.6 197.597 168 199.577 166.955C201.557 165.91 203.77 165.39 206.307 165.39C208.152 165.39 209.822 165.69 211.307 166.29C212.792 166.89 213.97 167.722 214.817 168.79C215.665 169.857 216.307 171.252 216.742 172.972L213.685 173.807C213.302 172.507 212.825 171.482 212.26 170.74C211.695 169.997 210.885 169.395 209.827 168.947C208.77 168.5 207.61 168.272 206.32 168.272C204.78 168.272 203.45 168.507 202.327 168.977C201.205 169.447 200.297 170.07 199.607 170.837C198.93 171.571 198.386 172.417 198 173.337C197.341 174.974 197.012 176.724 197.03 178.487C197.03 180.77 197.417 182.677 198.2 184.237C198.93 185.723 200.13 186.925 201.615 187.657C203.089 188.398 204.717 188.781 206.367 188.775C207.834 188.774 209.286 188.486 210.642 187.927C212.03 187.362 213.085 186.76 213.805 186.117V181.292H206.317M221.675 191.332V172.837H224.5V175.645C225.25 174.335 225.89 173.47 226.5 173.055C227.11 172.64 227.785 172.43 228.517 172.43C229.577 172.43 230.655 172.762 231.75 173.43L230.655 176.335C229.963 175.909 229.17 175.676 228.357 175.662C227.689 175.656 227.038 175.872 226.507 176.277C225.965 176.692 225.575 177.265 225.34 177.992C224.981 179.178 224.804 180.411 224.817 181.65V191.33H221.667M236.212 182.095C236.212 184.462 236.73 186.235 237.762 187.412C238.238 187.98 238.835 188.434 239.509 188.74C240.183 189.046 240.917 189.197 241.657 189.182C242.395 189.195 243.126 189.042 243.797 188.735C244.468 188.427 245.061 187.973 245.532 187.405C246.565 186.22 247.077 184.415 247.077 181.99C247.077 179.702 246.562 177.97 245.522 176.79C244.482 175.61 243.197 175.02 241.655 175.02C240.09 175.02 238.792 175.607 237.76 176.78C236.727 177.952 236.21 179.722 236.21 182.092M232.975 182.087C232.975 178.662 233.93 176.132 235.835 174.482C237.422 173.115 239.365 172.432 241.65 172.432C244.195 172.432 246.275 173.262 247.887 174.927C249.5 176.592 250.305 178.892 250.305 181.827C250.305 184.207 249.947 186.077 249.235 187.437C248.537 188.784 247.451 189.89 246.117 190.612C244.749 191.365 243.211 191.754 241.65 191.742C239.06 191.742 236.967 190.912 235.4 189.255C233.832 187.597 233 185.205 233 182.087M266.6 191.332V188.597C265.977 189.583 265.11 190.391 264.083 190.942C263.056 191.493 261.903 191.769 260.737 191.742C259.645 191.742 258.627 191.532 257.687 191.112C256.747 190.692 256.037 190.172 255.582 189.537C255.127 188.902 254.802 188.132 254.617 187.212C254.492 186.597 254.425 185.622 254.425 184.287V172.837H257.575V183.082C257.575 184.717 257.637 185.82 257.765 186.387C257.96 187.212 258.38 187.857 259.015 188.327C259.65 188.797 260.445 189.032 261.38 189.032C262.314 189.037 263.23 188.777 264.022 188.282C264.808 187.843 265.423 187.152 265.767 186.32C266.107 185.49 266.282 184.29 266.282 182.707V172.812H269.425V191.307H266.6M277.7 182.195C277.7 184.575 278.2 186.335 279.142 187.445C280.085 188.555 281.262 189.152 282.632 189.152C284.022 189.152 285.212 188.562 286.202 187.382C287.192 186.202 287.687 184.382 287.687 181.882C287.687 179.525 287.205 177.757 286.237 176.587C285.27 175.417 284.112 174.827 282.772 174.827C281.432 174.827 280.262 175.452 279.235 176.702C278.207 177.952 277.7 179.765 277.7 182.147M274.875 198.365V172.79H277.725V175.195C278.4 174.255 279.16 173.552 280.01 173.085C280.86 172.617 281.885 172.385 283.085 172.385C284.66 172.385 286.085 172.785 287.265 173.6C288.445 174.415 289.382 175.557 289.997 177.037C290.612 178.517 290.922 180.137 290.922 181.9C290.922 183.79 290.582 185.495 289.902 187.007C289.222 188.52 288.237 189.682 286.947 190.487C285.657 191.292 284.292 191.697 282.872 191.697C281.827 191.697 280.892 191.477 280.06 191.04C279.227 190.602 278.55 190.045 278.02 189.375V198.365H274.87M88.1299 199.965V202.625H97.35V221.737C98.38 221.737 100.607 220.742 100.607 218.672V202.622C101.27 202.622 101.82 200.685 101.82 199.962L88.1299 199.965ZM91.9474 206.865H93.58V215.157H91.9474V206.865ZM96.6049 214.065V204.315H88.9174V217.64H92.7324C93.4275 217.56 94.0922 217.31 94.6675 216.912C95.0187 216.685 95.3448 216.421 95.64 216.125C96.185 215.52 96.6049 214.797 96.6049 214.065ZM84.4999 207.165C84.4999 207.525 84.1999 208.135 83.8324 208.497L83.5925 208.742C83.5625 208.767 83.5324 208.8 83.4674 208.8H84.4999V215.05H83.2499V202.55H84.4999V207.092V207.165ZM80.0174 199.965V221.715C81.5299 221.715 83.2174 220.345 83.2174 218.83V217.69H85.0299C86.2449 217.627 87.6425 215.927 87.6425 215.075V210.23C87.6425 209.32 86.6125 208.66 86.125 208.295C86.6125 207.87 87.6425 207.145 87.6425 206.232V199.945L80.0174 199.965ZM107.732 202.422H112.347V205.247H107.732V202.422ZM107.732 207.722H112.347V210.572H107.732V207.722ZM116.227 207.722H117.89C118.157 207.725 118.417 207.637 118.627 207.472C118.935 207.29 120.412 205.442 120.597 205.252H116.227V202.427H120.967V210.552H116.227V207.72V207.722ZM116.227 219.232V217.195H122.692C123.627 217.195 124.472 215.6 124.942 214.737H116.2V212.987H121.06C122.442 212.987 124.69 211.077 124.752 210.092V199.942H103.952V212.987H112.32V214.737H103.952V217.195H112.32V219.232H103.71V221.745H123.217C124.017 221.745 124.755 220.15 125.372 219.225H116.197L116.227 219.232ZM131.622 202.765H136.232V210.015H131.622V202.765ZM140.032 202.765H144.42V210.015H140.032V202.765ZM131.592 218.925V212.79H144.892C146.092 212.79 148.252 210.802 148.31 209.805V199.965H127.667V218.705C127.667 220.205 128.567 221.755 130.252 221.755H146.012C147.202 221.755 148.63 219.855 148.875 218.92H131.625L131.592 218.925ZM155.417 202.765H160.017V210.015H155.417V202.765ZM163.822 202.765H168.212V210.015H163.822V202.765ZM155.377 218.925V212.79H168.677C169.882 212.79 172.04 210.802 172.102 209.805V199.965H151.457V218.705C151.457 220.205 152.357 221.755 154.04 221.755H169.795C170.982 221.755 172.41 219.855 172.662 218.92H155.372L155.377 218.925ZM186.327 214.405V213.722H187.877V214.307H197.252C197.252 214.307 197.02 215.572 195.002 215.572H188.002V218.96C188.002 221.535 186.352 221.835 186.352 221.835V215.67H175.182V214.405H186.352M179.585 217.635H181.255L178.992 220.46C178.492 221.042 177.772 221.972 176.742 221.972L175.992 221.987L179.562 217.637" fill="#FF6600"/>
<path d="M193.867 217.635H192.2L194.46 220.46C194.96 221.043 195.68 221.973 196.71 221.973L197.46 221.988L193.893 217.638M186.355 204.138H178.43L178.422 203.433L178.828 202.858L179.36 202.178H186.355V204.138ZM178.43 205.518H186.355V207.463H178.43V205.518ZM178.43 208.713H186.355V210.713H178.43V208.713ZM195 202.078C197 202.078 197.375 200.813 197.375 200.813H188.025L188.705 199.933H187.17L186.385 200.933H180.098L180.847 199.933H179.242L175.26 205.115H176.967V212.198C176.967 212.198 177.142 212.223 177.367 212.198C179.867 212.198 180.05 211.873 180.05 211.873H194.98C196.965 211.873 197.16 210.688 197.16 210.688H187.87V208.618H194.98C196.938 208.618 197.23 207.363 197.23 207.363H187.845V205.32H194.955C196.912 205.32 197.205 204.04 197.205 204.04H187.82V202.078H195ZM220.5 219.183C220.5 219.978 220.325 220.603 219.28 220.603H203.018V201.31H220.5V219.183ZM201.635 200.033V222.028H220.145C221.538 222.028 222.07 220.708 222 219.34V200.033H201.635ZM210.26 209.39L205.58 217.828C205.58 217.828 207.15 218.123 207.865 216.635L211.865 209.385L210.283 209.36M215.762 216.07C215.762 216.528 215.598 216.758 215.27 216.758H213.71V217.995H215.695C216.945 217.995 217.32 217.545 217.26 216.18V207.96C218.8 207.96 218.895 206.673 218.895 206.673L217.26 206.69V203.855H215.76V206.69H205.26V208.055H215.76V216.07" fill="#FF6600"/>
</svg>
