<svg width="315" height="84" viewBox="0 0 315 84" fill="none" xmlns="http://www.w3.org/2000/svg">
<g clip-path="url(#clip0_709_2)">
<path d="M315 0H0V83.3333H315V0Z" fill="#0071BB"/>
<path d="M117.025 37.8073V15.2656H136.959C141.067 15.2656 147.681 15.8212 147.681 21.1795C147.681 23.8128 145.37 25.6712 142.684 26.3434C146.031 27.349 147.681 29.199 147.681 31.7295C147.681 37.2545 141.403 37.7823 136.959 37.799H117.025V37.8073ZM124.345 28.3101L126.437 24.8545C126.975 24.0712 127.861 23.6045 128.809 23.599H136.956C138.412 23.599 139.598 22.9323 139.598 21.8045C139.598 20.674 138.423 19.9962 136.956 19.9962H124.342V28.3101H124.345ZM124.345 28.3101V37.7962L126.437 34.3351C126.975 33.5545 127.861 33.0851 128.809 33.0795H136.848C138.37 33.1045 139.575 32.024 139.575 30.7073C139.575 29.3878 138.395 28.3267 136.848 28.3267L124.345 28.3101ZM165.375 20.7073L155.495 37.824H146.889L160.667 15.2656H170.084L183.848 37.8073H175.25L172.939 33.7906H160.184L162.3 30.3351C162.842 29.5573 163.725 29.0906 164.673 29.0795H170.198L165.375 20.7073ZM225.22 20.7073L215.348 37.824H206.723L220.495 15.2656H229.912L243.673 37.8073H235.098L232.784 33.7906H220.031L222.123 30.3351C222.659 29.5573 223.542 29.0878 224.487 29.0795H230.02L225.198 20.7101H225.22V20.7073ZM197.181 33.0823C198.856 33.0823 200.189 32.274 200.189 30.6351V15.2656H207.475V31.3101C207.475 36.174 204.256 37.8045 200.042 37.8045H187.864C186.917 37.7934 186.037 37.3267 185.495 36.549L183.378 33.0767L197.181 33.0823ZM256.998 33.0823C258.673 33.0823 260.014 32.274 260.014 30.6351V15.2656H267.323V31.3101C267.323 36.174 264.111 37.8045 259.895 37.8045H247.717C246.77 37.799 245.884 37.3295 245.348 36.549L243.231 33.0767L256.998 33.0823Z" fill="white"/>
<path d="M116.984 45.3105H135.028V50.7883H123.234V56.1605H133.898V61.3467H123.234V67.8661H116.981V45.3105H116.984Z" fill="white"/>
<path d="M139.281 45.3105H145.559V67.8689H139.281V45.3105Z" fill="white"/>
<path d="M150.978 45.3105H156.811L166.095 57.2328V45.3105H172.281V67.8689H166.803L157.178 55.4967V67.8689H150.981V45.3105H150.978Z" fill="white"/>
<path d="M175.859 64.5156L179.336 60.3601C181.389 62.0795 183.975 63.0351 186.653 63.0684C188.328 63.0684 189.231 62.4879 189.231 61.5212V61.4573C189.231 60.524 188.489 60.0045 185.431 59.299C180.625 58.2018 176.923 56.8518 176.923 52.2101V52.1462C176.923 47.9601 180.242 44.9268 185.656 44.9268C189.489 44.9268 192.486 45.9573 194.934 47.924L191.809 52.3379C189.745 50.8851 187.495 50.1101 185.495 50.1101C183.981 50.1101 183.239 50.7545 183.239 51.5629V51.6268C183.239 52.6601 184.014 53.1073 187.139 53.8184C192.328 54.9434 195.548 56.6212 195.548 60.8462V60.9101C195.548 65.5129 191.906 68.2545 186.434 68.2545C182.428 68.2518 178.628 66.9962 175.859 64.5156Z" fill="white"/>
<path d="M199.864 45.3105H218.006V50.63H206.053V54.0439H216.881V58.9744H206.053V62.5578H218.17V67.8717H199.864V45.3105Z" fill="white"/>
<path d="M222.648 45.3105H233.314C236.761 45.3105 239.148 46.2133 240.659 47.7578C241.981 49.0467 242.659 50.7883 242.659 53.0105V53.0772C242.659 56.5244 240.823 58.8105 238.017 60.0022L243.398 67.8661H236.178L231.634 61.0355H228.898V67.8661H222.645V45.3105H222.648ZM233.003 56.1411C235.134 56.1411 236.35 55.1078 236.35 53.4633V53.3994C236.35 51.6244 235.061 50.7244 232.97 50.7244H228.878V56.1411H233.003Z" fill="white"/>
<path d="M244.656 45.3105H251.65L256.772 59.5855L261.884 45.3105H268.747L259.595 68.03H253.811L244.656 45.3105Z" fill="white"/>
<path d="M94.0614 49.2074C94.0614 57.2296 85.0975 57.9963 78.7559 58.0324H73.0531V50.8102H84.3947V45.2991H73.0531V37.8074H85.6086V31.9824H66.4031V58.0463H59.067V25.2852H78.767C84.6253 25.2852 94.0725 26.1213 94.0725 33.8741C94.0725 37.7074 90.7864 40.5269 86.9586 41.4963C91.7003 42.9602 94.0614 45.3102 94.0614 49.2074ZM75.6892 12.2324C59.4336 12.2324 46.2559 25.4102 46.2559 41.6658C46.2559 57.9213 59.4336 71.0991 75.6892 71.0991C91.9447 71.0991 105.123 57.9213 105.123 41.6658C105.123 25.413 91.9503 12.238 75.6975 12.2324H75.6892Z" fill="white"/>
</g>
<defs>
<clipPath id="clip0_709_2">
<rect width="315" height="83.3333" fill="white"/>
</clipPath>
</defs>
</svg>
