<svg width="316" height="315" viewBox="0 0 316 315" fill="none" xmlns="http://www.w3.org/2000/svg">
<g clip-path="url(#clip0_432_74)">
<path d="M316 116H1V199.333H316V116Z" fill="#0071BB"/>
<path d="M118.025 153.807V131.266H137.959C142.067 131.266 148.681 131.821 148.681 137.18C148.681 139.813 146.37 141.671 143.684 142.343C147.031 143.349 148.681 145.199 148.681 147.73C148.681 153.255 142.403 153.782 137.959 153.799H118.025V153.807ZM125.345 144.31L127.437 140.855C127.975 140.071 128.861 139.605 129.809 139.599H137.956C139.412 139.599 140.598 138.932 140.598 137.805C140.598 136.674 139.423 135.996 137.956 135.996H125.342V144.31H125.345ZM125.345 144.31V153.796L127.437 150.335C127.975 149.555 128.861 149.085 129.809 149.08H137.848C139.37 149.105 140.575 148.024 140.575 146.707C140.575 145.388 139.395 144.327 137.848 144.327L125.345 144.31ZM166.375 136.707L156.495 153.824H147.889L161.667 131.266H171.084L184.848 153.807H176.25L173.939 149.791H161.184L163.3 146.335C163.842 145.557 164.725 145.091 165.673 145.08H171.198L166.375 136.707ZM226.22 136.707L216.348 153.824H207.723L221.495 131.266H230.912L244.673 153.807H236.098L233.784 149.791H221.031L223.123 146.335C223.659 145.557 224.542 145.088 225.487 145.08H231.02L226.198 136.71H226.22V136.707ZM198.181 149.082C199.856 149.082 201.189 148.274 201.189 146.635V131.266H208.475V147.31C208.475 152.174 205.256 153.805 201.042 153.805H188.864C187.917 153.793 187.037 153.327 186.495 152.549L184.378 149.077L198.181 149.082ZM257.998 149.082C259.673 149.082 261.014 148.274 261.014 146.635V131.266H268.323V147.31C268.323 152.174 265.111 153.805 260.895 153.805H248.717C247.77 153.799 246.884 153.33 246.348 152.549L244.231 149.077L257.998 149.082Z" fill="white"/>
<path d="M117.984 161.311H136.028V166.788H124.234V172.161H134.898V177.347H124.234V183.866H117.981V161.311H117.984Z" fill="white"/>
<path d="M140.281 161.311H146.559V183.869H140.281V161.311Z" fill="white"/>
<path d="M151.978 161.311H157.811L167.095 173.233V161.311H173.281V183.869H167.803L158.178 171.497V183.869H151.981V161.311H151.978Z" fill="white"/>
<path d="M176.858 180.516L180.336 176.36C182.389 178.08 184.975 179.035 187.653 179.068C189.328 179.068 190.231 178.488 190.231 177.521V177.457C190.231 176.524 189.489 176.005 186.431 175.299C181.625 174.202 177.922 172.852 177.922 168.21V168.146C177.922 163.96 181.242 160.927 186.656 160.927C190.489 160.927 193.486 161.957 195.933 163.924L192.808 168.338C190.745 166.885 188.495 166.11 186.495 166.11C184.981 166.11 184.239 166.755 184.239 167.563V167.627C184.239 168.66 185.014 169.107 188.139 169.818C193.328 170.943 196.547 172.621 196.547 176.846V176.91C196.547 181.513 192.906 184.255 187.433 184.255C183.428 184.252 179.628 182.996 176.858 180.516Z" fill="white"/>
<path d="M200.864 161.311H219.006V166.63H207.053V170.044H217.881V174.974H207.053V178.558H219.17V183.872H200.864V161.311Z" fill="white"/>
<path d="M223.647 161.311H234.314C237.761 161.311 240.147 162.213 241.658 163.758C242.981 165.047 243.658 166.788 243.658 169.011V169.077C243.658 172.524 241.822 174.811 239.017 176.002L244.397 183.866H237.178L232.633 177.036H229.897V183.866H223.645V161.311H223.647ZM234.003 172.141C236.133 172.141 237.35 171.108 237.35 169.463V169.399C237.35 167.624 236.061 166.724 233.97 166.724H229.878V172.141H234.003Z" fill="white"/>
<path d="M245.656 161.311H252.65L257.772 175.586L262.884 161.311H269.747L260.595 184.03H254.811L245.656 161.311Z" fill="white"/>
<path d="M95.0614 165.207C95.0614 173.23 86.0975 173.996 79.7559 174.032H74.0531V166.81H85.3947V161.299H74.0531V153.807H86.6086V147.982H67.4031V174.046H60.067V141.285H79.767C85.6253 141.285 95.0725 142.121 95.0725 149.874C95.0725 153.707 91.7864 156.527 87.9586 157.496C92.7003 158.96 95.0614 161.31 95.0614 165.207ZM76.6892 128.232C60.4336 128.232 47.2559 141.41 47.2559 157.666C47.2559 173.921 60.4336 187.099 76.6892 187.099C92.9447 187.099 106.123 173.921 106.123 157.666C106.123 141.413 92.9503 128.238 76.6975 128.232H76.6892Z" fill="white"/>
</g>
<defs>
<clipPath id="clip0_432_74">
<rect width="315" height="83.3333" fill="white" transform="translate(1 116)"/>
</clipPath>
</defs>
</svg>
