<svg width="316" height="315" viewBox="0 0 316 315" fill="none" xmlns="http://www.w3.org/2000/svg">
<g clip-path="url(#clip0_432_531)">
<path d="M69.3623 171.292V174.786H75.0482V177.835H69.3623V181.541H75.7673V184.776H65.2939V168.081H75.7673V171.292H69.3623Z" fill="#FC8403"/>
<path d="M88.2828 184.776L84.7374 179.578L81.6901 184.776H77.0253L82.4009 176.181L76.8538 168.081H81.6819L85.1294 173.108L88.103 168.081H92.7434L87.4331 176.489L93.1111 184.776H88.2828Z" fill="#FC8403"/>
<path fill-rule="evenodd" clip-rule="evenodd" d="M98.805 181.727H105.112L106.174 184.775H110.504L104.336 168.194H99.6464L93.4785 184.775H97.7594L98.805 181.727ZM101.975 172.516L104.067 178.654H99.8594L101.975 172.516Z" fill="#FC8403"/>
<path d="M130.985 168.194V184.775H126.916V174.405L123.297 184.775H119.776L116.132 174.389V184.775H112.064V168.194H117.039L121.581 179.74L126.034 168.194H130.985Z" fill="#FC8403"/>
<path fill-rule="evenodd" clip-rule="evenodd" d="M142.618 184.776V178.922H145.135C146.45 178.922 147.569 178.686 148.492 178.224C149.415 177.762 150.11 177.122 150.575 176.311C151.041 175.5 151.278 174.576 151.278 173.538C151.278 171.868 150.755 170.538 149.709 169.557C148.664 168.576 147.144 168.081 145.143 168.081H138.55V184.776H142.618ZM144.694 171.332C146.327 171.332 147.144 172.062 147.144 173.53C147.144 174.965 146.327 175.678 144.694 175.678H142.627V171.332H144.694Z" fill="#FC8403"/>
<path fill-rule="evenodd" clip-rule="evenodd" d="M158.279 178.467L161.923 184.776V184.784H166.416L162.421 178.216C163.712 177.9 164.684 177.316 165.362 176.465C166.04 175.614 166.375 174.584 166.375 173.368C166.375 172.346 166.139 171.438 165.681 170.643C165.224 169.849 164.537 169.216 163.614 168.762C162.691 168.308 161.564 168.081 160.232 168.081H153.28V184.776H157.348V178.467H158.279ZM159.881 175.703H157.364V171.47H159.889C160.681 171.47 161.27 171.657 161.662 172.038C162.046 172.411 162.242 172.93 162.242 173.594C162.242 174.292 162.054 174.811 161.67 175.168C161.286 175.524 160.69 175.703 159.881 175.703Z" fill="#FC8403"/>
<path d="M172.486 171.292V174.786H178.172V177.835H172.486V181.541H178.891V184.776H168.417V168.081H178.891V171.292H172.486Z" fill="#FC8403"/>
<path fill-rule="evenodd" clip-rule="evenodd" d="M185.271 184.776V178.922H187.787C189.103 178.922 190.222 178.686 191.145 178.224C192.068 177.762 192.763 177.122 193.228 176.311C193.694 175.5 193.931 174.576 193.931 173.538C193.931 171.868 193.408 170.538 192.362 169.557C191.316 168.576 189.797 168.081 187.795 168.081H181.203V184.776H185.271ZM187.346 171.332C188.98 171.332 189.797 172.062 189.797 173.53C189.797 174.965 188.972 175.678 187.346 175.678H185.279V171.332H187.346Z" fill="#FC8403"/>
<path fill-rule="evenodd" clip-rule="evenodd" d="M83.4465 145.338C85.8972 143.757 87.1635 141.568 87.1635 139.014C87.1635 133.987 83.6099 130.419 76.4207 130.419H68.2511C66.4947 130.419 65.3101 131.554 65.3101 133.297V158.838C65.3101 160.541 66.4947 161.716 68.2511 161.716L76.3798 161.797C85.6931 161.878 88.7566 157.905 88.7566 153.041C88.7566 149.554 86.7551 146.797 83.4465 145.46C83.4465 145.46 83.4055 145.443 83.4055 145.403C83.4055 145.362 83.4465 145.338 83.4465 145.338ZM149.464 161.554C142.275 161.554 138.109 157.257 138.109 148.703V134.23C138.109 132.122 139.293 130.865 141.05 130.865C142.765 130.865 143.991 132.122 143.991 134.23V148.257C143.991 154.014 145.87 155.838 149.464 155.838C153.059 155.838 154.938 154.014 154.938 148.257V134.23C154.938 132.122 156.163 130.865 157.879 130.865C159.635 130.865 160.82 132.122 160.82 134.23V148.703C160.82 157.257 156.654 161.554 149.464 161.554ZM96.4442 132.608L103.021 143.473L109.597 132.608C110.251 131.554 110.945 130.865 112.211 130.865C113.886 130.865 115.193 132 115.193 133.5C115.193 134.433 114.907 135.122 114.417 135.892L105.962 149.352V158.352C105.962 160.46 104.736 161.717 102.98 161.717C101.428 161.717 100.08 160.46 100.08 158.352V149.352L91.6241 135.892C91.134 135.122 90.8482 134.433 90.8482 133.5C90.8482 132 92.1552 130.865 93.83 130.865C95.0963 130.865 95.7907 131.554 96.4442 132.608ZM167.192 141.608C167.887 141.608 168.745 141.244 169.235 140.19C170.011 138.527 170.787 135.365 170.787 133.946C170.787 132 169.888 130.784 167.764 130.784C165.599 130.865 164.701 132.244 164.701 134.798V137.108C164.701 139.987 165.518 141.608 167.192 141.608ZM121.933 161.595C115.071 161.595 112.579 156.325 112.579 153.527C112.579 151.46 114.213 150.446 115.765 150.568C117.355 150.696 117.79 151.83 118.249 153.025C118.803 154.47 119.392 156.004 122.096 155.96C124.996 155.919 126.263 154.176 126.263 150.487V134.23C126.263 132.122 127.366 130.865 129.204 130.865C130.919 130.865 132.145 132.122 132.145 134.23V150.365C132.145 157.581 128.714 161.595 121.933 161.595ZM78.3406 142.622C76.4207 142.987 75.1954 143.757 75.1954 145.581C75.1954 147.446 76.38 148.46 78.2998 148.703C81.6084 149.068 82.7522 150.203 82.7522 152.717C82.7522 155.027 80.8324 156.284 77.1562 156.284H71.1514V135.771H77.6463C80.097 135.771 81.3226 137.23 81.3226 139.419C81.3226 141.325 80.1787 142.298 78.3406 142.622ZM175.411 152.108C176.473 152.108 177.412 152.96 178.147 153.811C179.741 155.351 181.375 156.365 183.662 156.365C186.235 156.365 187.951 155.27 187.951 153.081C187.951 150.393 185.142 149.226 182.006 147.923C178.049 146.279 173.573 144.42 173.573 139.014C173.573 133.014 178.147 130.5 182.804 130.419C185.582 130.419 187.624 131.108 189.176 132C191.014 133.054 193.139 135.041 193.139 137.149C193.139 138.608 191.831 139.581 190.361 139.581C189.107 139.581 188.332 138.775 187.605 138.019C187.313 137.716 187.029 137.421 186.726 137.189C185.786 136.419 184.479 136.014 182.845 136.014C180.721 136.014 179.455 137.068 179.455 138.933C179.455 140.847 181.758 141.827 184.521 143.002C188.661 144.762 193.833 146.962 193.833 153.406C193.833 158.919 189.217 162 183.703 162C179.046 162 175.738 160.014 173.736 157.581C173.001 156.73 172.633 155.757 172.633 154.987C172.633 152.919 174.103 152.108 175.411 152.108Z" fill="#813588"/>
<path d="M141.049 131.408C142.765 131.408 143.99 132.664 143.99 134.772V134.229C143.99 132.121 142.765 130.864 141.049 130.864C139.293 130.864 138.108 132.121 138.108 134.229V134.772C138.108 132.664 139.293 131.408 141.049 131.408Z" fill="white"/>
<path d="M143.99 148.8C143.99 154.557 145.869 156.381 149.464 156.381C153.058 156.381 154.937 154.557 154.937 148.8V148.257C154.937 154.014 153.058 155.838 149.464 155.838C145.869 155.838 143.99 154.014 143.99 148.257V148.8Z" fill="white"/>
<path d="M179.47 139.176C179.462 139.273 179.454 139.379 179.454 139.484C179.454 144.219 193.555 143.238 193.824 153.657C193.824 153.576 193.833 153.495 193.833 153.414C193.833 142.849 179.944 143.684 179.47 139.176Z" fill="white"/>
<path d="M93.8299 131.408C95.0962 131.408 95.7907 132.097 96.4442 133.151L103.021 144.016L109.597 133.151C110.251 132.097 110.945 131.408 112.211 131.408C113.796 131.408 115.054 132.429 115.177 133.816C115.185 133.71 115.193 133.605 115.193 133.5C115.193 132 113.886 130.864 112.211 130.864C110.945 130.864 110.251 131.553 109.597 132.607L103.021 143.472L96.4442 132.607C95.7907 131.553 95.0962 130.864 93.8299 130.864C92.1552 130.864 90.8481 132 90.8481 133.5C90.8481 133.605 90.8561 133.71 90.8643 133.816C90.987 132.437 92.2369 131.408 93.8299 131.408Z" fill="white"/>
<path d="M175.41 152.652C176.472 152.652 177.412 153.503 178.147 154.355C179.74 155.895 181.374 156.909 183.662 156.909C186.235 156.909 187.951 155.814 187.951 153.625C187.951 153.528 187.942 153.422 187.934 153.325C187.804 155.344 186.129 156.357 183.662 156.357C181.374 156.357 179.74 155.344 178.147 153.803C177.412 152.952 176.472 152.101 175.41 152.101C174.103 152.101 172.633 152.911 172.633 154.979C172.633 155.06 172.641 155.133 172.649 155.214C172.788 153.39 174.169 152.652 175.41 152.652Z" fill="white"/>
<path d="M182.804 130.962C185.582 130.962 187.624 131.651 189.176 132.543C190.933 133.549 192.95 135.414 193.122 137.424C193.13 137.335 193.138 137.246 193.138 137.149C193.138 135.041 191.014 133.054 189.176 132C187.624 131.108 185.582 130.419 182.804 130.419C178.147 130.5 173.572 133.013 173.572 139.014C173.572 139.111 173.572 139.2 173.58 139.289C173.711 133.484 178.221 131.043 182.804 130.962Z" fill="white"/>
<path d="M112.579 153.527C112.579 153.632 112.587 153.738 112.587 153.843C112.701 151.929 114.27 150.989 115.765 151.111C119.278 151.394 117.154 156.584 122.096 156.502C124.996 156.462 126.263 154.719 126.263 151.03V150.486C126.263 154.175 124.996 155.919 122.096 155.959C117.154 156.04 119.278 150.851 115.765 150.567C114.213 150.446 112.579 151.459 112.579 153.527Z" fill="white"/>
<path d="M157.879 130.864C156.163 130.864 154.938 132.121 154.938 134.229V134.772C154.938 132.664 156.163 131.408 157.879 131.408C159.635 131.408 160.82 132.664 160.82 134.772V134.229C160.82 132.121 159.635 130.864 157.879 130.864Z" fill="white"/>
<path d="M167.764 130.784C165.599 130.865 164.701 132.243 164.701 134.798V135.341C164.701 132.787 165.599 131.409 167.764 131.327C169.782 131.327 170.697 132.43 170.779 134.214C170.787 134.116 170.787 134.027 170.787 133.946C170.787 132 169.888 130.784 167.764 130.784Z" fill="white"/>
<path d="M129.204 130.864C127.366 130.864 126.263 132.121 126.263 134.229V134.772C126.263 132.664 127.366 131.408 129.204 131.408C130.919 131.408 132.145 132.664 132.145 134.772V134.229C132.145 132.121 130.919 130.864 129.204 130.864Z" fill="white"/>
<path d="M68.2511 130.962H76.4207C83.4547 130.962 87.0083 134.384 87.1553 139.241C87.1553 139.168 87.1635 139.086 87.1635 139.014C87.1635 133.987 83.6099 130.419 76.4207 130.419H68.2511C66.4947 130.419 65.3101 131.554 65.3101 133.297V133.841C65.3101 132.097 66.4947 130.962 68.2511 130.962Z" fill="white"/>
<path d="M78.3407 142.622C76.4209 142.987 75.1953 143.757 75.1953 145.581C75.1953 145.678 75.2035 145.768 75.2035 145.865C75.3179 144.227 76.5105 143.514 78.3407 143.173C80.1788 142.849 81.3225 141.876 81.3225 139.97C81.3225 139.873 81.3143 139.784 81.3143 139.687C81.208 141.414 80.0889 142.314 78.3407 142.622Z" fill="white"/>
<path d="M77.1561 156.827C80.8324 156.827 82.7522 155.571 82.7522 153.26C82.7522 153.138 82.744 153.025 82.744 152.911C82.6377 155.092 80.7261 156.284 77.1561 156.284H71.1514V156.827H77.1561Z" fill="white"/>
<path d="M83.4464 145.46C83.4464 145.46 83.4055 145.443 83.4055 145.403C83.4055 145.354 83.4464 145.338 83.4464 145.338C83.4464 145.338 83.4546 145.338 83.4546 145.33C83.3811 145.387 83.2421 145.492 83.1278 145.581C83.0216 145.663 83.0462 145.825 83.1604 145.873L83.4464 145.995C86.6897 147.308 88.6748 149.984 88.7485 153.381C88.7485 153.268 88.7565 153.146 88.7565 153.033C88.7565 152.141 88.6095 151.265 88.348 150.43C87.5964 148.2 85.8728 146.449 83.4464 145.46Z" fill="white"/>
<path d="M50.6215 130.2C53.5626 130.2 55.948 132.568 55.948 135.495V179.506C55.948 182.433 53.5626 184.8 50.6215 184.8H6.32652C3.38549 184.8 1 182.433 1 179.506V135.495C1 132.568 3.38549 130.2 6.32652 130.2H50.6215Z" fill="white"/>
<path d="M50.6227 130.2C53.5637 130.2 55.9491 132.568 55.9491 135.495V153.397C55.9491 155.141 54.5276 156.56 52.7712 156.56H4.18722C2.43077 156.56 1.00928 155.141 1.00928 153.397V135.495C1.00928 132.568 3.39476 130.2 6.33579 130.2H50.6227Z" fill="white"/>
<path d="M6.33457 184.792C3.39354 184.792 1.00806 182.424 1.00806 179.498V161.595C1.00806 159.852 2.42955 158.433 4.186 158.433H52.77C54.5265 158.433 55.948 159.852 55.948 161.595V179.498C55.948 182.424 53.5623 184.792 50.6215 184.792H6.33457Z" fill="white"/>
<path d="M50.7281 131.943C52.6397 131.943 54.1918 133.484 54.1918 135.389V179.603C54.1918 181.5 52.6397 183.049 50.7281 183.049H6.22875C4.3171 183.049 2.76489 181.508 2.76489 179.603V135.389C2.76489 133.492 4.3171 131.943 6.22875 131.943H50.7281Z" fill="white"/>
<path d="M36.5944 171.568L25.917 174.633C25.0102 174.892 24.0625 174.373 23.801 173.473L15.7214 145.671C15.46 144.771 15.9828 143.83 16.8896 143.571L27.9349 140.4C30.4837 139.67 33.2613 140.4 35.026 142.37C38.302 146.027 37.5258 150.779 34.5358 153.341C38.3918 153.568 41.8556 156.154 42.9912 160.046C44.4289 164.984 41.5616 170.149 36.5944 171.568Z" fill="#4C205B"/>
<path fill-rule="evenodd" clip-rule="evenodd" d="M36.9945 141.486C39.6823 144.891 39.7804 148.921 38.1464 152.051C42.6723 153.811 46.0136 158.408 45.3683 164.311C44.9353 168.235 41.3735 172.329 37.5582 173.424L26.1617 176.692C24.3481 177.21 22.4611 176.173 21.9381 174.373L13.6624 145.889C13.1396 144.097 14.1771 142.216 15.9908 141.697L27.3381 138.446C30.5488 137.521 34.9277 138.867 36.9945 141.486ZM25.9166 174.633L36.5941 171.568C41.5612 170.149 44.4287 164.984 42.9991 160.046C41.8634 156.154 38.3996 153.568 34.5436 153.341C37.5418 150.787 38.318 146.027 35.0256 142.362C33.2691 140.408 30.5078 139.67 27.9671 140.4L16.8975 143.57C15.9907 143.83 15.4678 144.77 15.7292 145.67L23.8088 173.473C24.0703 174.373 25.0098 174.892 25.9166 174.633Z" fill="white"/>
<path d="M39.9197 164.157C39.9197 159.446 36.1044 155.627 31.3743 155.578C34.2419 153.13 35.0017 148.597 31.9298 145.07C30.2143 143.1 27.4856 142.338 24.9693 143.059L15.7297 145.711L23.7931 173.473C24.0544 174.373 25.0021 174.892 25.9007 174.632L33.4821 172.459C33.5147 172.451 33.5556 172.435 33.5884 172.427C37.2482 171.413 39.9197 168.097 39.9197 164.157Z" fill="#813488"/>
<path d="M206.926 184.415C206.713 184.415 206.538 184.21 206.538 183.96V131.039C206.538 130.789 206.713 130.584 206.926 130.584C207.139 130.584 207.313 130.789 207.313 131.039V183.96C207.313 184.21 207.139 184.415 206.926 184.415Z" fill="#808080"/>
<path fill-rule="evenodd" clip-rule="evenodd" d="M223.241 149.545V141.622H231.95V139.546H223.241V134.257H233.147V132.122H220.839V149.545H223.241ZM240.356 150.007C242.49 150.007 244.065 149.339 245.079 148.002C246.093 146.666 246.601 144.974 246.601 142.926C246.601 140.807 246.024 139.202 244.873 138.111C243.722 137.02 242.313 136.475 240.646 136.475C238.785 136.475 237.305 137.107 236.202 138.372C235.098 139.637 234.547 141.337 234.547 143.472C234.547 145.464 235.07 147.052 236.116 148.234C237.164 149.416 238.577 150.007 240.356 150.007ZM237.687 146.816C238.292 147.718 239.249 148.168 240.562 148.168C242.002 148.168 242.991 147.632 243.527 146.561C244.062 145.49 244.329 144.298 244.329 142.985C244.329 141.799 244.136 140.835 243.75 140.092C243.139 138.921 242.084 138.336 240.585 138.336C239.258 138.336 238.292 138.835 237.687 139.831C237.082 140.827 236.782 142.029 236.782 143.436C236.782 144.788 237.082 145.915 237.687 146.816ZM251.419 149.545V142.239C251.419 141.337 251.713 140.541 252.301 139.849C252.889 139.157 253.731 138.811 254.825 138.811C254.955 138.811 255.073 138.815 255.182 138.823C255.291 138.831 255.409 138.847 255.539 138.87V136.617C255.304 136.593 255.14 136.578 255.043 136.57C254.947 136.562 254.877 136.558 254.838 136.558C253.977 136.558 253.214 136.864 252.555 137.477C251.896 138.09 251.48 138.61 251.312 139.037V136.842H249.245V149.545H251.419ZM259.596 142.808V149.545H257.423V136.842H259.571V138.645C260.088 138.021 260.554 137.566 260.974 137.281C261.69 136.799 262.503 136.558 263.412 136.558C264.443 136.558 265.272 136.807 265.9 137.305C266.255 137.59 266.577 138.009 266.866 138.562C267.349 137.882 267.919 137.378 268.57 137.05C269.223 136.722 269.955 136.558 270.768 136.558C272.507 136.558 273.691 137.174 274.319 138.408C274.657 139.072 274.825 139.966 274.825 141.088V149.545H272.568V140.721C272.568 139.875 272.352 139.294 271.921 138.977C271.491 138.661 270.966 138.503 270.346 138.503C269.491 138.503 268.756 138.783 268.141 139.345C267.526 139.906 267.217 140.843 267.217 142.156V149.545H265.008V141.254C265.008 140.393 264.903 139.764 264.693 139.369C264.363 138.776 263.746 138.479 262.845 138.479C262.024 138.479 261.276 138.791 260.604 139.416C259.932 140.041 259.596 141.171 259.596 142.808ZM283.076 149.995C283.736 149.995 284.328 149.932 284.851 149.805C285.825 149.584 286.642 149.157 287.304 148.525C287.698 148.161 288.053 147.692 288.372 147.119C288.69 146.546 288.876 146.026 288.933 145.56H286.795C286.634 146.121 286.361 146.615 285.974 147.042C285.298 147.777 284.393 148.145 283.257 148.145C282.041 148.145 281.142 147.756 280.563 146.977C279.983 146.198 279.674 145.164 279.634 143.875H289.114C289.114 142.595 289.051 141.662 288.921 141.076C288.776 140.223 288.486 139.475 288.051 138.835C287.602 138.163 286.944 137.615 286.083 137.192C285.222 136.769 284.332 136.558 283.414 136.558C281.594 136.558 280.12 137.194 278.994 138.467C277.866 139.74 277.303 141.397 277.303 143.437C277.303 145.508 277.862 147.119 278.981 148.27C280.101 149.42 281.466 149.995 283.076 149.995ZM279.693 142.179H286.879C286.791 141.254 286.585 140.515 286.264 139.962C285.668 138.934 284.674 138.42 283.28 138.42C282.283 138.42 281.445 138.774 280.768 139.481C280.092 140.189 279.735 141.088 279.693 142.179ZM294.017 149.545V142.239C294.017 141.337 294.311 140.541 294.899 139.849C295.487 139.157 296.329 138.811 297.424 138.811C297.554 138.811 297.671 138.815 297.781 138.823C297.89 138.831 298.007 138.847 298.138 138.87V136.617C297.902 136.593 297.738 136.578 297.642 136.57C297.545 136.562 297.476 136.558 297.436 136.558C296.575 136.558 295.813 136.864 295.153 137.477C294.494 138.09 294.078 138.61 293.91 139.037V136.842H291.844V149.545H294.017ZM302.256 132.122V149.545H300.082V132.122H302.256ZM306.664 154.751C307.919 154.751 308.806 154.395 309.32 153.684C309.837 152.972 310.723 150.995 311.979 147.754C312.51 146.378 313.169 144.599 313.959 142.417C315.013 139.515 315.694 137.657 316 136.842H313.596L310.105 147.184L306.64 136.842H304.175L308.959 149.912C308.845 150.197 308.665 150.632 308.415 151.217C308.165 151.802 308.02 152.126 307.98 152.189C307.852 152.379 307.692 152.539 307.503 152.67C307.314 152.8 307.018 152.865 306.615 152.865C306.487 152.865 306.338 152.853 306.168 152.83C306 152.806 305.725 152.743 305.347 152.64V154.585C305.588 154.648 305.792 154.692 305.958 154.715C306.122 154.739 306.357 154.751 306.664 154.751ZM231.841 177.398C230.786 177.983 229.447 178.275 227.819 178.275C225.717 178.275 223.911 177.607 222.397 176.271C220.746 174.595 219.921 172.294 219.921 169.369C219.921 166.451 220.725 164.13 222.336 162.407C223.867 160.762 225.847 159.94 228.279 159.94C229.944 159.94 231.387 160.256 232.603 160.888C234.365 161.798 235.444 163.391 235.839 165.668H233.46C233.17 164.395 232.569 163.468 231.66 162.887C230.751 162.306 229.602 162.015 228.218 162.015C226.576 162.015 225.192 162.62 224.068 163.83C222.945 165.04 222.384 166.842 222.384 169.238C222.384 171.31 222.848 172.996 223.772 174.296C224.698 175.597 226.208 176.247 228.302 176.247C229.904 176.247 231.232 175.791 232.282 174.877C233.334 173.964 233.871 172.488 233.894 170.448H228.338V168.491H236.129V177.813H234.583L234.004 175.571C233.191 176.449 232.468 177.058 231.841 177.398ZM241.792 177.813V170.507C241.792 169.606 242.086 168.809 242.674 168.117C243.262 167.425 244.105 167.08 245.199 167.08C245.329 167.08 245.446 167.083 245.556 167.091C245.665 167.099 245.782 167.115 245.913 167.139V164.885C245.677 164.862 245.514 164.846 245.417 164.838C245.32 164.83 245.251 164.826 245.211 164.826C244.35 164.826 243.588 165.132 242.929 165.745C242.269 166.358 241.853 166.878 241.685 167.305V165.111H239.619V177.813H241.792ZM254.017 177.611C253.187 178.03 252.274 178.24 251.274 178.24C250.075 178.24 249.094 177.882 248.334 177.167C247.572 176.451 247.192 175.556 247.192 174.48C247.192 173.302 247.567 172.389 248.315 171.741C249.065 171.092 250.047 170.693 251.263 170.543L254.728 170.116C255.228 170.053 255.562 169.847 255.732 169.499C255.829 169.309 255.877 169.037 255.877 168.681C255.877 167.953 255.612 167.426 255.085 167.098C254.558 166.769 253.802 166.605 252.82 166.605C251.686 166.605 250.879 166.906 250.404 167.507C250.14 167.839 249.966 168.333 249.886 168.989H247.857C247.897 167.424 248.414 166.334 249.409 165.722C250.402 165.109 251.555 164.803 252.868 164.803C254.39 164.803 255.627 165.087 256.576 165.657C257.519 166.226 257.99 167.111 257.99 168.313V175.631C257.99 175.852 258.036 176.03 258.128 176.165C258.221 176.299 258.416 176.366 258.714 176.366C258.811 176.366 258.92 176.36 259.04 176.348C259.161 176.337 259.29 176.319 259.426 176.295V177.872C259.088 177.967 258.832 178.026 258.653 178.05C258.477 178.074 258.235 178.086 257.929 178.086C257.181 178.086 256.637 177.825 256.299 177.303C256.123 177.026 255.997 176.635 255.925 176.129C255.482 176.698 254.846 177.192 254.017 177.611ZM251.782 176.425C251.154 176.425 250.61 176.247 250.15 175.892C249.693 175.536 249.464 175.05 249.464 174.433C249.464 173.618 249.798 173.026 250.465 172.654C250.86 172.433 251.452 172.271 252.24 172.168L253.557 172.002C253.96 171.954 254.371 171.875 254.789 171.764C255.207 171.654 255.55 171.515 255.816 171.349V173.069C255.816 174.382 255.211 175.326 254.004 175.904C253.288 176.251 252.546 176.425 251.782 176.425ZM268.341 177.741C267.648 178.089 266.856 178.263 265.961 178.263C264.521 178.263 263.271 177.668 262.217 176.478C261.163 175.288 260.636 173.705 260.636 171.728C260.636 169.878 261.117 168.275 262.078 166.919C263.04 165.563 264.416 164.885 266.203 164.885C267.194 164.885 268.023 165.091 268.691 165.502C269.078 165.739 269.517 166.154 270.008 166.747V160.331H272.097V177.813H270.14V176.045C269.632 176.828 269.034 177.393 268.341 177.741ZM266.638 176.401C265.342 176.401 264.399 175.943 263.811 175.025C263.223 174.108 262.929 172.97 262.929 171.61C262.929 170.013 263.269 168.803 263.949 167.981C264.63 167.158 265.518 166.747 266.614 166.747C267.595 166.747 268.42 167.133 269.09 167.904C269.758 168.674 270.092 169.862 270.092 171.467C270.092 173.057 269.769 174.276 269.12 175.126C268.471 175.976 267.643 176.401 266.638 176.401ZM282.133 178.074C281.611 178.2 281.018 178.263 280.359 178.263C278.748 178.263 277.383 177.688 276.264 176.538C275.145 175.387 274.584 173.776 274.584 171.705C274.584 169.665 275.149 168.009 276.276 166.736C277.402 165.463 278.876 164.826 280.697 164.826C281.615 164.826 282.503 165.038 283.366 165.461C284.227 165.884 284.882 166.431 285.334 167.103C285.769 167.744 286.058 168.491 286.203 169.345C286.333 169.93 286.396 170.863 286.396 172.144H276.915C276.957 173.432 277.266 174.466 277.845 175.245C278.425 176.024 279.324 176.413 280.539 176.413C281.676 176.413 282.581 176.046 283.257 175.31C283.643 174.883 283.916 174.389 284.078 173.828H286.216C286.159 174.294 285.972 174.814 285.655 175.387C285.336 175.961 284.979 176.429 284.586 176.793C283.925 177.425 283.108 177.852 282.133 178.074ZM284.162 170.448H276.976C277.016 169.357 277.375 168.457 278.051 167.75C278.727 167.042 279.565 166.688 280.563 166.688C281.957 166.688 282.95 167.202 283.547 168.23C283.868 168.783 284.074 169.523 284.162 170.448ZM296.348 177.161C295.521 177.825 294.513 178.157 293.331 178.157C291.487 178.157 290.229 177.552 289.561 176.342C289.2 175.694 289.017 174.828 289.017 173.745V165.111H291.241V173.544C291.241 174.192 291.344 174.721 291.554 175.133C291.94 175.892 292.661 176.271 293.717 176.271C295.229 176.271 296.26 175.607 296.808 174.279C297.106 173.567 297.256 172.591 297.256 171.349V165.111H299.429V177.813H297.375L297.4 175.939C297.119 176.421 296.768 176.829 296.348 177.161ZM304.828 182.877V176.39C305.303 176.967 305.733 177.374 306.12 177.611C306.781 178.03 307.598 178.24 308.572 178.24C309.811 178.24 310.899 177.864 311.834 177.113C313.306 175.927 314.043 173.951 314.043 171.183C314.043 169.135 313.533 167.56 312.51 166.457C311.487 165.354 310.242 164.803 308.778 164.803C307.787 164.803 306.926 165.04 306.193 165.514C305.677 165.83 305.202 166.277 304.767 166.854V165.17H302.655V182.877H304.828ZM305.191 174.409C305.754 175.721 306.785 176.378 308.283 176.378C309.297 176.378 310.141 175.961 310.813 175.126C311.485 174.292 311.821 173.045 311.821 171.385C311.821 170.373 311.672 169.503 311.374 168.775C310.811 167.376 309.78 166.676 308.283 166.676C306.777 166.676 305.746 167.415 305.191 168.894C304.893 169.685 304.744 170.689 304.744 171.906C304.744 172.887 304.893 173.721 305.191 174.409Z" fill="#813588"/>
</g>
<defs>
<clipPath id="clip0_432_531">
<rect width="315" height="105" fill="white" transform="translate(1 105)"/>
</clipPath>
</defs>
</svg>
