<svg width="316" height="315" viewBox="0 0 316 315" fill="none" xmlns="http://www.w3.org/2000/svg">
<g clip-path="url(#clip0_451_43)">
<path fill-rule="evenodd" clip-rule="evenodd" d="M209.953 171.065C207.469 172.633 204.547 172.829 202.324 171.575C199.502 169.982 197.948 166.256 197.948 161.057V145.528C197.948 138.029 194.983 132.693 190.026 131.251C181.627 128.804 175.306 139.09 172.929 142.945L158.111 166.97V137.606C157.943 130.848 155.751 126.805 151.583 125.588C148.828 124.781 144.701 125.106 140.695 131.237L107.496 184.542C103.051 176.105 100.734 166.71 100.746 157.174C100.746 125.061 126.479 98.9449 158.111 98.9449C189.743 98.9449 215.473 125.07 215.473 157.174C215.473 157.23 215.487 157.278 215.49 157.328C215.493 157.379 215.49 157.435 215.49 157.491C215.789 163.708 213.777 168.655 209.961 171.065H209.953ZM228.219 157.18V157.02V156.861C228.037 117.749 196.66 86 158.108 86C119.453 86 88 117.928 88 157.177C88 196.426 119.453 228.352 158.111 228.352C175.842 228.355 192.9 221.562 205.776 209.371C207.02 208.194 207.752 206.576 207.815 204.864C207.879 203.153 207.268 201.485 206.114 200.219C204.99 198.981 203.42 198.239 201.749 198.158C200.078 198.076 198.443 198.662 197.204 199.785L197.108 199.872C186.575 209.848 172.619 215.407 158.111 215.404C141.174 215.404 125.936 207.907 115.427 196.02L145.365 147.956V170.116C145.365 180.755 149.494 184.203 152.954 185.209C156.415 186.214 161.714 185.528 167.274 176.502L183.743 149.806C184.273 148.944 184.757 148.202 185.202 147.566V161.066C185.202 171.018 189.188 178.982 196.137 182.902C202.399 186.435 210.274 186.116 216.691 182.062C224.465 177.14 228.656 168.09 228.219 157.18Z" fill="#17181B"/>
</g>
<defs>
<clipPath id="clip0_451_43">
<rect width="140.25" height="142.352" fill="white" transform="translate(88 86)"/>
</clipPath>
</defs>
</svg>
