<svg width="316" height="315" viewBox="0 0 316 315" fill="none" xmlns="http://www.w3.org/2000/svg">
<path fill-rule="evenodd" clip-rule="evenodd" d="M42.7597 115.059C41.6886 115.095 39.7014 115.223 37.0495 115.429C36.5084 115.47 35.6908 115.557 35.234 115.621C34.7764 115.685 34.3259 115.708 34.2329 115.672C34.14 115.637 33.1255 115.756 31.9795 115.938C30.8335 116.119 29.6001 116.302 29.2394 116.346C28.8779 116.388 28.258 116.505 27.861 116.605C27.4633 116.706 26.8726 116.823 26.5481 116.865C25.6825 116.98 24.0544 117.381 24.0544 117.481C24.0537 117.529 23.9363 117.536 23.793 117.499C23.6504 117.462 23.4283 117.476 23.3007 117.531C23.1739 117.586 22.9809 117.648 22.8722 117.669C22.5249 117.734 21.1316 118.138 20.0502 118.487C19.4728 118.673 18.9412 118.832 18.8687 118.84C18.7435 118.853 18.5356 118.927 17.9496 119.167C17.3841 119.399 17.158 119.47 17.0603 119.45C17.0044 119.437 16.7264 119.546 16.4421 119.691C16.1577 119.836 15.8348 119.954 15.7237 119.954C15.6119 119.954 15.5213 120.014 15.5213 120.086C15.5213 120.158 15.4268 120.218 15.3118 120.218C15.1968 120.218 14.9393 120.333 14.7392 120.476C14.5392 120.618 14.3352 120.694 14.2863 120.645C14.054 120.412 14.2848 148.466 14.5266 149.884C14.6565 150.643 14.7794 151.489 14.8007 151.764C14.8495 152.407 15.3457 154.445 15.7017 155.464C15.8529 155.897 15.9852 156.295 15.9947 156.35C16.0049 156.403 16.0254 156.462 16.0404 156.481C16.0545 156.499 16.0861 156.602 16.1097 156.711C16.1341 156.818 16.2483 157.129 16.3641 157.399C16.4799 157.67 16.5791 157.935 16.5838 157.99C16.5893 158.044 16.6547 158.163 16.7303 158.253C16.8052 158.343 16.8304 158.417 16.787 158.417C16.7429 158.417 16.8241 158.625 16.9674 158.88C17.1108 159.136 17.2281 159.425 17.2281 159.526C17.2281 159.626 17.2722 159.728 17.3266 159.752C17.3801 159.776 17.6841 160.297 18.0008 160.911C18.3174 161.525 18.6584 162.075 18.7585 162.133C18.8585 162.192 18.9057 162.296 18.864 162.363C18.8215 162.431 18.8498 162.486 18.9262 162.486C19.0034 162.486 19.0656 162.585 19.0656 162.704C19.0656 162.823 19.2129 163.115 19.3941 163.351C19.5744 163.588 19.7217 163.822 19.7217 163.872C19.7217 163.95 20.1187 164.466 20.6944 165.135C20.7984 165.255 20.9512 165.482 21.0347 165.637C21.1182 165.793 21.2993 166.033 21.4387 166.172C21.5774 166.311 21.6908 166.483 21.6908 166.556C21.6908 166.628 21.7798 166.687 21.8877 166.687C21.9964 166.687 22.0704 166.74 22.0523 166.804C22.0177 166.926 22.8218 167.906 23.726 168.844C24.0143 169.143 24.4427 169.61 24.6775 169.88C24.9122 170.151 25.1044 170.336 25.1044 170.292C25.1044 170.247 25.5053 170.614 25.9959 171.108C27.101 172.218 28.8338 173.778 29.2417 174.03C29.4095 174.134 29.6096 174.355 29.686 174.522C29.7616 174.689 29.8884 174.826 29.9664 174.826C30.1026 174.826 30.3295 175.013 31.3534 175.974C31.603 176.209 31.8535 176.401 31.9102 176.401C31.9661 176.401 32.1433 176.578 32.3032 176.795C32.4631 177.012 32.6435 177.189 32.7041 177.189C32.8097 177.189 33.4839 177.776 34.8299 179.039C35.1828 179.371 35.4947 179.619 35.5223 179.591C35.5506 179.563 35.7247 179.72 35.909 179.94C36.0941 180.16 36.2847 180.339 36.3319 180.339C36.38 180.339 36.584 180.502 36.7848 180.7C37.4795 181.386 38.0773 181.915 38.1584 181.915C38.2033 181.915 38.416 182.095 38.631 182.315C38.8626 182.551 39.0894 182.677 39.1847 182.622C39.2737 182.571 39.3021 182.579 39.2469 182.638C39.143 182.753 39.6368 183.358 39.8353 183.358C39.9668 183.358 40.5835 184.03 40.5898 184.179C40.5985 184.388 40.2992 184.261 39.8975 183.884C39.6667 183.668 39.4029 183.491 39.3099 183.491C39.2178 183.49 39.1075 183.401 39.0666 183.293C39.0248 183.184 38.9106 183.096 38.813 183.096C38.7153 183.096 38.5294 182.988 38.4002 182.857C38.2711 182.725 37.9584 182.476 37.7063 182.304C37.4535 182.131 37.1684 181.899 37.0731 181.788C36.9266 181.618 36.9148 181.618 36.9998 181.783C37.0558 181.892 36.888 181.803 36.6281 181.586C35.6097 180.739 35.1647 180.398 34.8662 180.237C34.6953 180.144 34.5558 180.008 34.5558 179.934C34.5558 179.86 34.5039 179.83 34.4401 179.87C34.3771 179.909 34.1849 179.807 34.0132 179.642C33.8423 179.478 33.3815 179.117 32.99 178.84C32.5986 178.564 32.2142 178.286 32.1371 178.224C32.0591 178.161 31.7298 177.901 31.4053 177.646C31.0801 177.39 30.6768 177.065 30.5082 176.923C30.3389 176.78 30.1656 176.663 30.1215 176.663C30.0774 176.663 29.8663 176.501 29.6529 176.303C29.4386 176.104 29.3071 176.03 29.3599 176.139C29.4127 176.247 29.3481 176.218 29.2165 176.073C28.8582 175.68 27.861 174.92 27.861 175.039C27.861 175.096 27.6586 174.929 27.4121 174.668C27.1656 174.406 26.9395 174.216 26.9104 174.245C26.8812 174.274 26.6883 174.122 26.4811 173.906C26.274 173.69 26.0519 173.513 25.9865 173.513C25.881 173.513 25.5809 173.268 24.835 172.573C24.7066 172.452 24.5774 172.377 24.5483 172.406C24.5199 172.435 24.1482 172.137 23.7229 171.744C23.2975 171.351 22.9281 171.051 22.9029 171.076C22.8777 171.101 22.7242 170.996 22.5627 170.841C22.009 170.31 21.4309 169.838 21.3356 169.838C21.2403 169.838 20.9355 169.56 20.288 168.886C20.0974 168.687 19.8769 168.525 19.7973 168.525C19.7186 168.525 19.58 168.407 19.4902 168.263C19.3996 168.118 19.2594 168 19.1783 168C19.0964 168 18.8955 167.867 18.7317 167.704C18.5679 167.542 18.1473 167.149 17.7976 166.832C16.8414 165.963 15.1472 164.325 15.2055 164.325C15.2338 164.325 15.0708 164.147 14.844 163.931C14.6179 163.714 14.3871 163.537 14.3328 163.537C14.2785 163.537 14.0776 163.271 13.887 162.946C13.6972 162.621 13.4916 162.355 13.431 162.355C13.3703 162.355 13.2876 162.231 13.2482 162.08C13.2089 161.928 13.1175 161.84 13.0458 161.884C12.9734 161.929 12.8733 161.834 12.8221 161.674C12.7717 161.514 12.6591 161.312 12.5717 161.224C12.485 161.138 12.2141 160.751 11.9699 160.365C11.7258 159.98 11.495 159.634 11.4564 159.599C11.2855 159.438 10.8294 158.681 10.4671 157.957C10.2505 157.524 10.0292 157.15 9.97409 157.126C9.91974 157.102 9.90872 157.028 9.94889 156.962C9.98984 156.896 9.9607 156.842 9.8843 156.842C9.8079 156.842 9.74568 156.735 9.74568 156.604C9.74568 156.473 9.58894 156.045 9.39834 155.652C9.20694 155.26 9.0313 154.82 9.00767 154.676C8.98405 154.531 8.84936 154.015 8.70759 153.529C8.5666 153.043 8.42089 152.394 8.38545 152.086C8.24368 150.869 8.17201 150.33 8.10821 150.016C7.88846 148.933 7.77898 146.211 7.77347 141.698L7.76638 136.565L8.12947 136.3C8.32953 136.154 8.51698 136.055 8.54613 136.079C8.57606 136.104 8.6367 136.073 8.68081 136.012C8.76824 135.89 9.86461 135.307 11.3532 134.59L11.8455 134.353V130.567C11.8455 128.13 11.799 126.781 11.7147 126.781C11.6423 126.781 11.5832 126.85 11.5832 126.934C11.5832 127.018 11.5462 127.05 11.5013 127.005C11.4564 126.96 11.1925 127.039 10.9161 127.18C10.6388 127.322 10.3214 127.437 10.2104 127.437C10.0985 127.437 10.008 127.5 10.008 127.576C10.008 127.653 9.94889 127.679 9.87642 127.634C9.80475 127.59 9.74568 127.625 9.74568 127.714C9.74568 127.802 9.70945 127.839 9.66534 127.794C9.62123 127.75 9.2668 127.894 8.87772 128.113C8.48863 128.332 8.17043 128.473 8.17043 128.425C8.17043 128.377 7.99321 128.465 7.77662 128.618C7.56002 128.773 7.38281 128.862 7.38281 128.816C7.38281 128.71 6.29903 129.296 6.17065 129.472C6.11709 129.544 6.07299 129.555 6.0722 129.496C6.07062 129.437 5.90758 129.499 5.7091 129.634C5.51062 129.768 5.18533 129.948 4.98685 130.034C4.78837 130.119 4.62612 130.242 4.62612 130.307C4.62612 130.422 4.13701 130.631 3.93695 130.602C3.8826 130.594 3.8385 130.646 3.8385 130.719C3.8385 130.791 3.74949 130.85 3.64159 130.85C3.5329 130.85 3.4439 130.895 3.4439 130.949C3.4439 131.002 3.12176 131.221 2.72952 131.433C2.3365 131.644 2.05059 131.875 2.09391 131.945C2.13723 132.015 2.10809 132.033 2.02932 131.984C1.95056 131.935 1.73711 132.044 1.55517 132.226C1.37323 132.408 1.16451 132.556 1.09126 132.556C0.913259 132.556 1.0188 146.087 1.20941 147.784C1.28659 148.47 1.4134 149.386 1.49216 149.819C1.57093 150.252 1.65756 150.872 1.68513 151.197C1.71191 151.522 1.88598 152.32 2.07107 152.969C2.25616 153.619 2.42235 154.21 2.44046 154.282C2.69802 155.306 3.39113 156.955 3.63923 157.135C3.71248 157.188 3.72271 157.233 3.66128 157.234C3.60063 157.235 3.69751 157.486 3.87788 157.794C4.05746 158.101 4.21025 158.41 4.21734 158.483C4.22443 158.555 4.32525 158.725 4.44182 158.862C4.5576 158.997 4.72379 159.263 4.80964 159.452C5.06719 160.015 5.47203 160.647 5.57757 160.648C5.63192 160.649 5.67602 160.731 5.67602 160.831C5.67602 160.932 5.76424 161.049 5.87293 161.09C5.98162 161.131 6.06984 161.251 6.06984 161.356C6.06984 161.46 6.11631 161.565 6.17301 161.589C6.22894 161.614 6.55737 162.003 6.90235 162.454C7.24733 162.905 7.57499 163.274 7.63169 163.274C7.6884 163.274 7.80182 163.422 7.88373 163.602C7.96565 163.783 8.12317 163.931 8.23265 163.931C8.34292 163.931 8.43271 163.989 8.43271 164.061C8.43271 164.293 9.98197 165.983 10.1505 165.934C10.2088 165.918 10.3813 166.08 10.5349 166.296C10.6877 166.511 10.8641 166.687 10.9263 166.687C10.9885 166.687 11.2587 166.894 11.5265 167.147C11.7943 167.399 12.0589 167.606 12.1149 167.606C12.1708 167.606 12.4134 167.785 12.6544 168.003C13.7208 168.968 14.154 169.311 14.3068 169.312C14.3974 169.313 14.4714 169.372 14.4714 169.446C14.4714 169.52 14.6778 169.678 14.9306 169.799C15.1834 169.919 15.3898 170.105 15.3898 170.212C15.3898 170.319 15.4308 170.366 15.4796 170.317C15.5292 170.267 15.7655 170.417 16.0049 170.648C16.2444 170.881 16.4405 171.03 16.4405 170.979C16.4405 170.929 16.5484 170.991 16.6815 171.118C16.8138 171.244 17.0596 171.436 17.2281 171.544C17.3959 171.653 17.6424 171.845 17.7747 171.971C17.907 172.097 18.0638 172.201 18.1221 172.201C18.1803 172.201 18.3434 172.304 18.4828 172.43C18.8884 172.796 19.7792 173.447 19.8753 173.447C19.9241 173.448 20.1014 173.567 20.2691 173.712C20.9654 174.315 21.5222 174.688 21.6041 174.606C21.6522 174.559 21.6908 174.583 21.6908 174.66C21.6908 174.787 22.1791 175.155 23.6591 176.148C23.9355 176.333 24.3301 176.615 24.5349 176.775C25.2816 177.359 26.9419 178.496 26.9419 178.424C26.9419 178.384 27.1238 178.532 27.3467 178.755C27.5696 178.977 27.798 179.131 27.8547 179.096C27.9122 179.06 28.143 179.207 28.3683 179.423C28.5927 179.638 28.8219 179.815 28.8771 179.815C28.9314 179.815 29.1835 179.992 29.4363 180.208C29.6883 180.424 29.9632 180.602 30.0459 180.602C30.1278 180.602 30.231 180.695 30.2743 180.807C30.3176 180.92 30.4019 180.982 30.461 180.945C30.5208 180.909 30.728 181.025 30.9217 181.205C31.1155 181.384 31.2738 181.497 31.2738 181.455C31.2738 181.413 31.4353 181.529 31.6338 181.712C31.8315 181.896 32.0425 182.046 32.1024 182.046C32.163 182.046 32.6364 182.358 33.1539 182.74C33.6721 183.122 34.2589 183.516 34.4574 183.616C34.6559 183.715 34.8181 183.839 34.8181 183.89C34.8181 183.941 34.9953 184.056 35.2119 184.146C35.4285 184.236 35.6057 184.361 35.6057 184.425C35.6057 184.488 35.664 184.54 35.7357 184.54C35.8578 184.54 36.2012 184.789 36.5958 185.164C36.6903 185.254 36.8061 185.327 36.8526 185.327C36.8982 185.327 37.1298 185.475 37.3661 185.656C37.6032 185.836 37.8379 185.984 37.8891 185.984C37.9395 185.984 38.1183 186.131 38.2852 186.312C38.4522 186.493 38.6476 186.64 38.7184 186.64C38.7885 186.64 39.0185 186.788 39.228 186.968C39.4375 187.149 39.6557 187.296 39.7124 187.296C39.7691 187.296 39.7526 187.415 39.6754 187.559C39.5982 187.704 39.4627 187.822 39.3753 187.822C39.2871 187.822 38.9642 188.051 38.6578 188.331C38.3506 188.612 38.1002 188.805 38.1002 188.762C38.1002 188.718 38.008 188.813 37.8954 188.974C37.7835 189.135 37.6063 189.265 37.5016 189.265C37.3976 189.265 37.3125 189.317 37.3125 189.38C37.3125 189.442 36.751 189.922 36.0649 190.447C35.3789 190.971 34.8181 191.452 34.8181 191.515C34.8181 191.577 34.7543 191.628 34.6763 191.628C34.5984 191.628 34.3014 191.865 34.0147 192.154C33.7288 192.443 33.4516 192.679 33.398 192.679C33.3453 192.679 33.2035 192.782 33.0838 192.908C32.9633 193.035 32.7073 193.256 32.5135 193.4C31.8889 193.866 31.1423 194.613 31.1423 194.772C31.1423 194.856 31.0919 194.895 31.0304 194.857C30.969 194.818 30.7808 194.933 30.6138 195.111C30.446 195.289 30.3641 195.437 30.4303 195.44C30.4972 195.442 30.4484 195.503 30.3224 195.577C30.1956 195.651 30.0924 195.8 30.0924 195.909C30.0924 196.018 30.0341 196.071 29.9624 196.027C29.8852 195.979 29.8679 196.038 29.9191 196.172C29.979 196.327 29.9569 196.367 29.849 196.301C29.7624 196.247 29.7041 196.252 29.719 196.312C29.734 196.371 29.6765 196.657 29.5922 196.945C29.5072 197.234 29.4371 198.253 29.4371 199.209L29.4363 200.949H44.743H60.0497L60.0016 198.882C59.9756 197.744 59.8969 196.725 59.8276 196.617C59.7582 196.508 59.6992 196.356 59.6976 196.279C59.6929 196.102 59.0462 195.28 58.4468 194.689C57.46 193.716 57.3237 193.597 57.1969 193.597C57.1252 193.597 56.989 193.474 56.8944 193.323C56.7991 193.171 56.6928 193.076 56.6574 193.111C56.6219 193.147 56.4597 193.049 56.2974 192.895C55.5098 192.146 54.7348 191.48 54.4095 191.273C54.211 191.148 53.9535 190.94 53.8369 190.812C53.7203 190.683 53.5557 190.578 53.4722 190.578C53.3879 190.578 53.2848 190.489 53.2438 190.382C53.2021 190.273 53.1178 190.185 53.0563 190.185C52.9941 190.185 52.7035 189.949 52.4105 189.662C51.9064 189.167 51.2267 188.969 51.2267 189.316C51.2267 189.384 51.1873 189.401 51.1393 189.353C51.0912 189.305 50.9581 189.344 50.8439 189.441C50.7297 189.538 50.0279 189.874 49.2836 190.188C48.5401 190.501 47.9013 190.806 47.8651 190.865C47.8281 190.924 47.684 190.972 47.5438 190.972C47.4036 190.972 47.2886 191.041 47.2886 191.125C47.2886 191.209 47.2492 191.239 47.2012 191.19C47.1523 191.142 46.9901 191.182 46.8396 191.279C46.69 191.376 45.9465 191.735 45.1888 192.077C43.037 193.05 42.6952 193.208 41.6445 193.712C41.1026 193.972 40.63 194.19 40.5938 194.197C40.5583 194.204 40.0054 194.456 39.3667 194.757C38.7279 195.058 38.1521 195.304 38.0868 195.304C38.0222 195.304 37.9686 195.354 37.9686 195.414C37.9686 195.474 37.8796 195.523 37.7717 195.523C37.4724 195.523 37.537 195.333 37.8702 195.233C38.0324 195.184 38.3223 194.996 38.5144 194.817C38.7058 194.638 38.9027 194.502 38.9516 194.516C39.0004 194.529 39.2123 194.387 39.4226 194.2C39.6337 194.012 39.8329 193.874 39.8676 193.893C39.9014 193.911 40.0495 193.823 40.1976 193.696C40.3449 193.57 40.5245 193.467 40.5953 193.467C40.667 193.467 40.7253 193.417 40.7253 193.356C40.7253 193.296 40.8765 193.177 41.0608 193.093C41.2451 193.009 41.3609 192.882 41.3168 192.811C41.2711 192.737 41.3239 192.715 41.4405 192.76C41.5523 192.803 41.6445 192.78 41.6445 192.708C41.6445 192.636 41.7476 192.54 41.8737 192.495C42.2021 192.377 42.6534 192.1 42.9338 191.847C43.0661 191.727 43.215 191.628 43.2638 191.628C43.3127 191.628 43.5245 191.476 43.7348 191.288C43.9451 191.101 44.1467 190.968 44.183 190.993C44.2192 191.018 44.3862 190.913 44.5547 190.761C44.7225 190.609 45.0525 190.375 45.2872 190.241C45.5219 190.107 45.7133 189.951 45.7133 189.894C45.7133 189.837 45.8023 189.791 45.9102 189.791C46.0189 189.791 46.1071 189.732 46.1071 189.659C46.1071 189.588 46.1702 189.529 46.2473 189.529C46.4001 189.529 47.3272 188.867 47.3981 188.708C47.4225 188.653 47.5233 188.609 47.6233 188.609C47.7233 188.609 47.999 188.442 48.2361 188.238C48.4732 188.033 48.8591 187.754 49.0938 187.619C49.3285 187.482 49.5207 187.322 49.5207 187.261C49.5207 187.2 49.5687 187.18 49.627 187.216C49.6861 187.252 49.8996 187.139 50.1028 186.965C50.3052 186.791 50.5824 186.613 50.7179 186.569C50.8534 186.527 50.9644 186.449 50.9644 186.397C50.9644 186.346 51.1566 186.192 51.3913 186.057C51.626 185.922 51.9064 185.73 52.0143 185.631C52.123 185.532 52.7429 185.115 53.3927 184.703C54.0425 184.291 54.6883 183.85 54.8269 183.723C54.9663 183.596 55.1877 183.458 55.3192 183.417C55.4515 183.375 55.5586 183.286 55.5586 183.218C55.5586 183.151 55.6476 183.096 55.7555 183.096C55.8642 183.096 55.9524 183.05 55.9524 182.995C55.9524 182.939 56.2187 182.749 56.5432 182.571C56.8684 182.393 57.1339 182.199 57.1339 182.139C57.1339 182.079 57.1843 182.061 57.2457 182.099C57.3072 182.137 57.4694 182.067 57.6065 181.941C57.9569 181.624 59.8772 180.339 60.0016 180.339C60.0583 180.339 60.2718 180.164 60.4773 179.95C60.6821 179.736 60.8964 179.589 60.9531 179.625C61.0098 179.66 61.1169 179.584 61.1917 179.456C61.2658 179.328 61.3288 179.27 61.3311 179.327C61.3327 179.384 61.4619 179.312 61.617 179.167C61.7722 179.023 61.9494 178.936 62.0108 178.974C62.0723 179.011 62.1227 178.95 62.1227 178.837C62.1227 178.725 62.1668 178.645 62.2211 178.66C62.3818 178.704 63.0883 178.288 63.3577 177.99C63.4947 177.838 63.6593 177.714 63.7239 177.714C63.7877 177.714 63.9114 177.656 63.9988 177.585C64.7841 176.944 65.0109 176.787 65.0141 176.882C65.0164 176.942 65.0794 176.887 65.1535 176.76C65.2283 176.631 65.3449 176.561 65.4126 176.603C65.4803 176.645 65.5355 176.63 65.5355 176.571C65.5355 176.511 65.7718 176.317 66.0608 176.139C66.3491 175.96 66.5854 175.769 66.5854 175.714C66.5854 175.658 66.6303 175.628 66.6838 175.645C66.798 175.68 68.048 174.846 68.1913 174.638C68.2449 174.56 68.289 174.542 68.2898 174.595C68.2922 174.686 68.6206 174.449 69.0191 174.071C69.1144 173.981 69.2286 173.907 69.2727 173.907C69.3885 173.907 70.1218 173.376 70.5857 172.956C70.8039 172.758 71.0425 172.594 71.1142 172.592C71.1867 172.591 71.4812 172.383 71.7695 172.132C72.0578 171.881 72.3634 171.675 72.4492 171.675C72.5351 171.675 72.721 171.528 72.8635 171.347C73.0053 171.167 73.1778 171.019 73.2471 171.019C73.3164 171.019 73.533 170.871 73.7275 170.691C73.9221 170.511 74.1292 170.362 74.1867 170.362C74.2442 170.362 74.4774 170.185 74.705 169.968C74.9326 169.75 75.1185 169.614 75.1185 169.665C75.1185 169.715 75.2303 169.641 75.3682 169.502C75.5052 169.361 75.8155 169.099 76.0573 168.92C76.2991 168.739 76.6536 168.429 76.845 168.23C77.0364 168.031 77.2561 167.869 77.3341 167.869C77.4113 167.869 77.5719 167.721 77.6901 167.54C77.8082 167.36 77.9658 167.212 78.039 167.212C78.113 167.212 78.3013 167.08 78.4588 166.917C78.6155 166.754 79.0952 166.298 79.5237 165.902C79.9529 165.506 80.2885 165.135 80.2696 165.077C80.2507 165.02 80.3239 164.939 80.4326 164.898C80.5413 164.856 80.5964 164.767 80.5555 164.701C80.5145 164.635 80.5334 164.596 80.5972 164.617C80.735 164.659 81.5502 163.917 81.5502 163.75C81.5502 163.685 81.6857 163.508 81.8519 163.355C82.0173 163.202 82.3843 162.782 82.6679 162.421C82.9506 162.06 83.2436 161.721 83.3185 161.668C83.3925 161.615 83.4067 161.571 83.3492 161.569C83.2909 161.569 83.424 161.376 83.6437 161.141C83.8635 160.906 84.0439 160.645 84.0439 160.56C84.0446 160.475 84.1242 160.326 84.2211 160.229C84.4889 159.96 85.1552 158.89 85.1229 158.778C85.1071 158.724 85.1639 158.68 85.2481 158.68C85.3324 158.68 85.3623 158.64 85.3143 158.593C85.2662 158.545 85.3781 158.309 85.5616 158.068C85.7451 157.827 85.8617 157.63 85.8192 157.63C85.7774 157.63 85.9239 157.304 86.1452 156.907C86.3658 156.51 86.5138 156.185 86.4737 156.185C86.4335 156.185 86.4926 156.008 86.6044 155.791C86.888 155.244 87.7197 152.554 87.7803 151.99C87.8079 151.734 87.9284 151.082 88.0481 150.541C88.1679 149.999 88.2742 149.187 88.2836 148.736C88.2939 148.285 88.3419 147.915 88.39 147.915C88.4388 147.915 88.4876 144.485 88.4994 140.292L88.5207 132.667L88.0875 132.286C87.8497 132.076 87.6039 131.904 87.5425 131.903C87.4803 131.901 87.2511 131.75 87.0313 131.565C86.7974 131.368 86.5477 131.262 86.4256 131.31C86.3122 131.353 86.2594 131.349 86.3083 131.299C86.4107 131.197 85.9168 130.78 85.308 130.454C85.0827 130.334 84.5731 130.064 84.1762 129.854C83.7784 129.644 83.424 129.438 83.3885 129.396C83.294 129.289 82.8152 129.098 82.6994 129.123C82.645 129.134 82.6009 129.091 82.6009 129.026C82.6009 128.961 82.3056 128.801 81.944 128.671C81.5833 128.542 81.288 128.378 81.288 128.308C81.288 128.238 81.2525 128.216 81.21 128.259C81.1667 128.302 80.8792 128.196 80.5704 128.024C80.2617 127.851 79.9718 127.747 79.9262 127.792C79.8813 127.838 79.8442 127.802 79.8442 127.714C79.8442 127.625 79.7852 127.59 79.7127 127.634C79.6402 127.679 79.5812 127.653 79.5812 127.576C79.5812 127.5 79.4906 127.437 79.3803 127.437C79.2693 127.437 78.8967 127.294 78.551 127.119C77.579 126.626 77.6034 126.53 77.6428 130.662L77.6783 134.329L78.9251 134.949C79.6111 135.29 80.2877 135.66 80.4287 135.77C80.5696 135.879 80.7539 135.97 80.8374 135.97C80.9217 135.97 81.1375 136.086 81.3187 136.228C81.499 136.37 81.6841 136.449 81.7298 136.403C81.7897 136.343 81.8692 142.059 81.8432 144.502C81.8141 147.279 81.2793 151.515 80.7256 153.363C80.5736 153.869 80.4428 154.341 80.4342 154.413C80.3861 154.814 80.0356 155.791 79.9403 155.791C79.8789 155.791 79.8647 155.85 79.9096 155.923C79.9545 155.995 79.9285 156.054 79.8521 156.054C79.7749 156.054 79.7127 156.128 79.7119 156.218C79.7119 156.523 78.2753 159.205 78.113 159.205C78.054 159.205 78.0059 159.268 78.0059 159.344C78.0059 159.464 77.7531 159.843 77.1529 160.622C77.0805 160.716 76.8749 160.937 76.6945 161.114C76.5149 161.291 76.4055 161.436 76.4504 161.436C76.496 161.436 76.2771 161.695 75.9652 162.013C75.6525 162.33 75.4225 162.615 75.454 162.647C75.4855 162.679 75.3642 162.784 75.1839 162.88C75.0035 162.977 74.8554 163.102 74.8554 163.158C74.8554 163.292 72.1618 166.031 72.0302 166.031C71.9743 166.031 71.716 166.25 71.456 166.518C71.1961 166.786 71.0662 166.954 71.1678 166.891C71.2938 166.814 71.3221 166.826 71.2583 166.929C71.2071 167.013 71.0929 167.081 71.0047 167.081C70.9165 167.081 70.6763 167.273 70.4707 167.507C70.2644 167.742 70.0682 167.913 70.0344 167.886C69.9997 167.86 69.5783 168.192 69.0963 168.623C68.6151 169.054 67.6313 169.877 66.9107 170.452C66.1908 171.027 65.5197 171.597 65.4213 171.718C65.322 171.839 65.1613 171.938 65.0645 171.938C64.9676 171.938 64.825 172.056 64.7478 172.201C64.6707 172.345 64.5352 172.463 64.447 172.463C64.358 172.463 64.2123 172.581 64.1217 172.725C64.0319 172.87 63.8972 172.988 63.8224 172.988C63.6712 172.988 62.0817 174.273 62.0132 174.45C61.9888 174.512 61.8856 174.564 61.7832 174.564C61.6808 174.564 61.5973 174.623 61.5973 174.694C61.5973 174.767 61.5194 174.826 61.4241 174.826C61.3288 174.826 61.1303 174.959 60.9822 175.121C60.8349 175.284 60.523 175.565 60.2891 175.745C60.0552 175.925 59.785 176.147 59.6897 176.237C59.5936 176.327 59.4676 176.401 59.4078 176.401C59.3487 176.401 59.0636 176.606 58.7753 176.856C58.057 177.479 58.0861 177.456 57.2 178.107C56.7668 178.426 56.2651 178.822 56.0856 178.988C55.9052 179.154 55.6886 179.289 55.6043 179.289C55.5192 179.289 55.4295 179.337 55.4058 179.395C55.3814 179.454 55.0073 179.764 54.5741 180.083C54.1409 180.404 53.7392 180.74 53.6817 180.831C53.6242 180.921 53.5014 180.995 53.4092 180.995C53.317 180.995 53.1028 181.143 52.9335 181.324C52.7641 181.504 52.5601 181.652 52.4806 181.652C52.401 181.652 52.238 181.755 52.1183 181.881C51.8166 182.201 51.5165 182.44 51.4149 182.44C51.3094 182.44 49.9964 183.517 49.9358 183.654C49.9122 183.708 49.8176 183.752 49.7255 183.752C49.6341 183.752 49.4049 183.895 49.2175 184.069C48.9095 184.354 48.8599 184.364 48.7063 184.174C48.5661 184.002 48.5669 183.983 48.7087 184.069C48.8252 184.139 48.9056 184.082 48.9536 183.897C48.9938 183.745 49.1033 183.621 49.197 183.621C49.2915 183.621 49.6341 183.355 49.9594 183.031C50.2839 182.705 50.6124 182.44 50.6888 182.44C50.7644 182.44 50.9243 182.292 51.0424 182.111C51.1605 181.931 51.3244 181.782 51.4063 181.781C51.5362 181.778 52.1553 181.256 53.4966 180.02C53.6983 179.835 53.9196 179.683 53.9889 179.683C54.0582 179.683 54.1149 179.593 54.1149 179.483C54.1149 179.373 54.248 179.23 54.4103 179.167C54.771 179.025 55.1758 178.56 55.0561 178.426C55.0073 178.372 55.0459 178.373 55.1412 178.428C55.2483 178.49 55.4476 178.399 55.6657 178.188C56.032 177.835 56.2368 177.653 57.3883 176.663C57.7671 176.339 58.2586 175.91 58.4823 175.712C58.7052 175.514 58.932 175.351 58.9864 175.351C59.0407 175.351 59.1187 175.246 59.1596 175.117C59.2006 174.988 59.4077 174.78 59.6204 174.654C59.8331 174.529 60.2426 174.206 60.5317 173.937C60.8208 173.668 61.3658 173.181 61.7431 172.857C62.1211 172.532 62.5527 172.141 62.7032 171.987C62.8528 171.835 63.2325 171.494 63.5459 171.233C63.8594 170.971 64.0729 170.756 64.0209 170.756C63.9681 170.756 64.0784 170.636 64.2666 170.488C64.7163 170.134 65.7985 169.05 65.7017 169.05C65.6607 169.05 65.8426 168.841 66.1057 168.584C66.3696 168.328 66.5854 168.096 66.5854 168.067C66.5854 168.04 66.8366 167.74 67.1438 167.403C67.4502 167.066 67.7014 166.749 67.7014 166.698C67.7014 166.646 67.8495 166.46 68.0299 166.283C68.2102 166.108 68.4166 165.87 68.4891 165.756C68.6403 165.516 69.2223 164.695 69.8249 163.869C70.0541 163.555 70.2061 163.263 70.1635 163.22C70.121 163.178 70.1415 163.143 70.2092 163.143C70.277 163.143 70.4786 162.862 70.6574 162.519C70.837 162.177 71.0866 161.754 71.2127 161.583C71.3395 161.41 71.4426 161.159 71.4426 161.025C71.4426 160.89 71.4938 160.78 71.5561 160.78C71.7246 160.78 72.4343 159.287 72.3823 159.04C72.3713 158.987 72.424 158.942 72.5004 158.942C72.5768 158.942 72.606 158.888 72.565 158.822C72.5248 158.756 72.5508 158.682 72.6249 158.658C72.6981 158.633 72.7816 158.492 72.81 158.344C72.8383 158.196 72.9643 157.842 73.0904 157.556C73.2164 157.272 73.3337 156.969 73.3526 156.884C73.3708 156.798 73.5377 156.266 73.7236 155.702C74.2127 154.216 74.727 152.226 74.6522 152.105C74.6168 152.049 74.6522 151.718 74.731 151.37C75.0295 150.048 75.2406 147.775 75.1602 146.737C75.1027 145.985 75.1224 145.684 75.2303 145.684C75.3422 145.684 75.3808 142.496 75.3808 133.147C75.3808 122.22 75.3564 120.611 75.1886 120.611C75.0823 120.611 74.8019 120.529 74.5648 120.43C73.6047 120.027 71.9877 119.443 71.2457 119.232C70.8126 119.109 70.3699 118.976 70.2612 118.937C70.1525 118.897 69.9462 118.843 69.802 118.816C69.6571 118.789 69.2286 118.65 68.8498 118.509C68.4702 118.367 68.1307 118.251 68.0945 118.25C68.059 118.249 68.0149 118.242 67.9968 118.234C67.9787 118.226 67.8164 118.21 67.6361 118.197C67.4557 118.185 66.9185 118.041 66.4428 117.879C65.9679 117.718 65.4063 117.562 65.196 117.532C64.9857 117.503 64.4296 117.377 63.9602 117.251C63.4908 117.125 62.9591 117.011 62.7788 116.998C62.5984 116.985 62.3621 116.943 62.2534 116.903C61.9274 116.784 59.9977 116.398 59.366 116.324C59.0407 116.286 58.0074 116.119 57.0685 115.951C56.1297 115.784 55.1254 115.645 54.8372 115.642C54.5481 115.64 53.514 115.546 52.5397 115.434C51.5646 115.322 49.7042 115.171 48.4046 115.1C46.1449 114.977 45.4188 114.972 42.7597 115.059ZM50.5706 124.201C51.3244 124.246 52.7704 124.546 53.3273 124.772C53.4352 124.815 53.614 124.869 53.7235 124.891C53.9944 124.946 55.8052 125.818 56.2281 126.096C57.1205 126.684 57.3765 126.893 57.9877 127.529C58.869 128.447 59.1029 128.73 59.1029 128.876C59.1029 128.944 59.1864 129.047 59.288 129.104C59.3896 129.162 59.6763 129.607 59.9252 130.093C60.1733 130.579 60.4057 130.948 60.4403 130.913C60.475 130.879 60.5065 130.924 60.5104 131.014C60.5238 131.325 60.6798 132.018 60.8192 132.386C61.2547 133.531 61.3099 157.686 60.8798 158.877C60.8278 159.021 60.7176 159.316 60.6349 159.533C60.5522 159.749 60.4766 159.971 60.4663 160.025C60.4569 160.079 60.434 160.153 60.4159 160.189C60.3978 160.225 60.3742 160.299 60.3631 160.353C60.3104 160.619 59.5842 161.959 59.3668 162.192C59.2305 162.339 59.1494 162.489 59.1872 162.526C59.2242 162.564 58.7186 163.138 58.0633 163.803C57.408 164.468 56.8716 164.973 56.8716 164.925C56.8716 164.846 56.7353 164.941 56.3029 165.324C56.2116 165.405 55.9973 165.515 55.8256 165.57C55.6539 165.625 55.3964 165.778 55.2538 165.911C55.1113 166.044 54.9443 166.122 54.8828 166.084C54.8214 166.046 54.771 166.078 54.771 166.154C54.771 166.231 54.6387 166.295 54.4756 166.298C54.3134 166.3 54.0661 166.388 53.9259 166.494C53.7857 166.601 53.5604 166.687 53.4257 166.687C53.2737 166.687 53.2162 166.745 53.2745 166.839C53.3273 166.925 53.3108 166.955 53.2351 166.908C53.1619 166.863 52.7177 166.936 52.2475 167.071C51.778 167.205 50.9573 167.353 50.4241 167.399C49.8909 167.445 49.2561 167.518 49.0143 167.562C48.7717 167.605 48.2991 167.654 47.9636 167.67C46.8853 167.721 29.2614 167.738 29.2118 167.688C29.1598 167.636 30.5382 166.131 31.5889 165.092C31.9425 164.742 32.1804 164.455 32.1174 164.455C32.0543 164.455 32.1347 164.364 32.2946 164.251L32.5868 164.046V145.875V127.703L32.0614 127.209C31.7732 126.938 31.5369 126.667 31.5369 126.608C31.5361 126.485 30.6232 125.599 30.4964 125.599C30.45 125.599 30.3121 125.431 30.1908 125.225C30.0687 125.02 29.7758 124.661 29.5387 124.427L29.1078 124.003L39.4123 124.076C45.0801 124.116 50.1012 124.172 50.5706 124.201ZM42.4321 145.7V160.024L45.2872 159.965C48.3038 159.903 48.7189 159.826 49.3561 159.215C49.5191 159.059 49.6515 158.973 49.6515 159.023C49.6515 159.281 50.2414 158.524 50.5801 157.831L50.9676 157.039L50.9621 145.412C50.9558 132.329 51.0715 133.702 49.8759 132.532C49.5215 132.185 49.1836 131.931 49.1245 131.967C49.0662 132.004 48.9977 131.989 48.9741 131.934C48.804 131.551 47.5548 131.374 45.0242 131.375H42.4321V145.7ZM245.624 136.155C245.597 136.181 243.801 136.237 241.635 136.28C238.723 136.337 237.27 136.423 236.057 136.61C235.154 136.75 234.386 136.845 234.348 136.822C234.31 136.799 233.748 136.894 233.1 137.034C232.452 137.174 231.832 137.307 231.724 137.331C231.55 137.368 231.523 139.862 231.494 158.659L231.461 179.945H236.515H241.569V162.7V145.454L241.996 145.356C242.696 145.195 246.209 145.168 246.397 145.321C246.489 145.397 246.599 145.423 246.643 145.38C246.859 145.164 248.658 146.443 248.658 146.813C248.658 146.914 248.717 146.997 248.79 146.997C248.861 146.997 248.91 147.041 248.897 147.095C248.883 147.149 248.942 147.43 249.028 147.718C249.142 148.108 249.182 152.33 249.183 164.095L249.183 179.945H253.649H258.115L258.106 163.051L258.098 146.156L259.121 145.844C261.941 144.982 264.903 145.648 265.28 147.229C265.327 147.426 265.401 147.647 265.444 147.718C265.487 147.791 265.531 147.894 265.541 147.948C265.551 148.003 265.567 155.224 265.575 163.996L265.592 179.945H270.716H275.838L275.797 162.519C275.759 146.697 275.735 145.021 275.536 144.305C275.414 143.872 275.311 143.371 275.307 143.189C275.301 143.009 275.183 142.625 275.044 142.336C274.904 142.047 274.788 141.755 274.785 141.687C274.78 141.535 274.098 140.515 273.961 140.455C273.906 140.431 273.862 140.352 273.862 140.279C273.862 140.17 273.183 139.487 272.188 138.595C271.832 138.277 270.786 137.622 270.679 137.65C270.625 137.664 270.58 137.622 270.58 137.555C270.58 137.489 270.404 137.396 270.188 137.348C269.972 137.301 269.762 137.207 269.721 137.141C269.68 137.074 269.514 137.02 269.351 137.02C269.19 137.02 269.002 136.972 268.933 136.913C268.799 136.798 267.788 136.534 267.036 136.418C266.077 136.271 264.843 136.241 260.407 136.257C259.805 136.26 258.23 136.496 257.716 136.661C257.463 136.742 257.124 136.792 256.963 136.773C256.802 136.754 256.597 136.784 256.506 136.84C256.416 136.896 256.252 136.953 256.143 136.967C255.823 137.008 253.593 137.823 253.462 137.946C253.394 138.01 253.195 137.954 253.003 137.818C252.59 137.527 251.328 136.976 251.073 136.976C250.972 136.976 250.889 136.94 250.889 136.895C250.889 136.851 250.786 136.807 250.66 136.799C250.533 136.792 249.988 136.687 249.446 136.566C248.905 136.445 247.881 136.321 247.171 136.291C246.461 136.26 245.834 136.206 245.779 136.172C245.722 136.137 245.653 136.129 245.624 136.155ZM99.1828 137.021C99.2056 137.171 99.3773 137.47 99.5648 137.682C99.7514 137.896 99.8782 138.07 99.846 138.07C99.8129 138.07 99.9365 138.232 100.12 138.43C100.304 138.627 100.453 138.837 100.453 138.895C100.453 138.953 100.598 139.156 100.775 139.347C100.951 139.537 101.066 139.741 101.03 139.8C100.993 139.859 101.018 139.908 101.085 139.908C101.152 139.908 101.362 140.143 101.552 140.43L101.898 140.953L101.897 158.513L101.896 176.073L101.47 176.528C101.236 176.778 101.044 177.016 101.044 177.056C101.044 177.096 100.905 177.275 100.734 177.454C100.563 177.633 100.34 177.972 100.24 178.206C100.139 178.441 99.9877 178.633 99.905 178.633C99.8215 178.633 99.7892 178.669 99.8334 178.713C99.8775 178.757 99.7396 178.94 99.527 179.118C98.5078 179.976 98.2061 179.946 107.64 179.941C117.262 179.934 119.789 179.838 121.051 179.429C121.514 179.278 122.046 179.128 122.233 179.094C122.539 179.039 123.438 178.655 123.951 178.36C124.059 178.298 124.489 178.058 124.907 177.828C125.904 177.279 127.435 175.979 127.411 175.701C127.401 175.58 127.454 175.482 127.527 175.482C127.678 175.482 128.282 174.819 128.282 174.653C128.283 174.594 128.425 174.358 128.598 174.128C128.988 173.611 129.592 172.187 129.666 171.611C129.696 171.375 129.796 171.013 129.888 170.805C130.439 169.561 130.125 144.765 129.558 144.765C129.498 144.765 129.483 144.709 129.526 144.64C129.632 144.468 128.712 142.402 128.529 142.402C128.48 142.402 128.311 142.151 128.152 141.844C127.84 141.244 126.117 139.514 125.831 139.514C125.735 139.514 125.656 139.469 125.653 139.416C125.649 139.294 125.039 138.842 124.828 138.804C124.743 138.789 124.466 138.646 124.213 138.486C123.961 138.327 123.606 138.16 123.426 138.115C123.245 138.071 123.038 137.99 122.967 137.937C122.805 137.82 121.858 137.495 121.588 137.465C121.48 137.452 120.792 137.318 120.06 137.166C118.427 136.827 119.819 136.871 108.625 136.803L99.141 136.746L99.1828 137.021ZM135.328 136.845C135.28 136.893 135.24 146.61 135.24 158.439V179.945H140.294H145.348V172.451V164.957L148.531 165.018C150.282 165.051 151.833 165.111 151.977 165.151C152.121 165.191 152.269 165.228 152.306 165.233C152.493 165.263 153.081 165.888 153.275 166.263C153.474 166.648 153.495 167.358 153.489 173.318L153.482 179.945H158.674H163.864L163.821 173.152C163.796 169.416 163.743 166.212 163.701 166.031C163.658 165.85 163.559 165.426 163.48 165.089C163.321 164.417 162.854 163.537 162.655 163.537C162.586 163.537 162.571 163.468 162.623 163.386C162.674 163.302 162.628 163.169 162.52 163.09C162.412 163.011 162.254 162.814 162.168 162.652C162.082 162.49 161.969 162.371 161.917 162.387C161.865 162.403 161.456 162.166 161.008 161.859C160.56 161.554 159.896 161.235 159.533 161.15L158.873 160.998L159.56 160.539C159.938 160.287 160.295 160.002 160.352 159.905C160.41 159.809 160.521 159.73 160.6 159.73C160.759 159.73 161.363 159.118 161.363 158.956C161.363 158.899 161.482 158.745 161.626 158.614C161.77 158.483 161.888 158.302 161.888 158.211C161.888 158.12 161.953 158.024 162.03 157.998C162.161 157.954 162.553 156.992 162.768 156.185C163.043 155.16 162.926 143.802 162.628 142.533C162.5 141.987 161.866 140.564 161.751 140.564C161.692 140.564 161.61 140.459 161.569 140.331C161.481 140.055 160.24 138.727 160.069 138.727C160.005 138.727 159.875 138.635 159.781 138.521C159.579 138.279 158.052 137.545 157.568 137.459C157.381 137.426 156.933 137.317 156.571 137.215C156.211 137.114 155.342 136.97 154.641 136.895C153.242 136.744 135.474 136.699 135.328 136.845ZM177.017 136.903C176.493 136.963 175.696 137.11 175.244 137.228C174.794 137.346 174.365 137.456 174.293 137.474C174.221 137.491 173.999 137.573 173.801 137.656C173.197 137.91 172.722 138.089 172.652 138.089C172.616 138.089 172.54 138.173 172.481 138.276C172.424 138.379 172.297 138.464 172.2 138.464C172.103 138.464 171.843 138.633 171.621 138.84C171.399 139.047 171.194 139.194 171.165 139.165C171.137 139.136 170.944 139.336 170.737 139.609C170.53 139.881 170.239 140.223 170.091 140.367C169.845 140.608 169.577 141.091 169.511 141.417C169.496 141.49 169.393 141.649 169.283 141.77C169.173 141.892 169.121 142.054 169.169 142.131C169.216 142.208 169.195 142.271 169.121 142.271C168.951 142.271 168.506 143.727 168.438 144.502C168.35 145.522 168.382 171.702 168.472 172.498C168.565 173.313 169.184 175.202 169.43 175.417C169.512 175.489 169.654 175.73 169.744 175.953C169.925 176.395 171.201 177.801 171.372 177.746C171.431 177.727 171.513 177.801 171.554 177.909C171.596 178.018 171.684 178.108 171.75 178.108C171.815 178.108 172.182 178.316 172.565 178.57C172.949 178.825 173.395 179.059 173.558 179.089C173.721 179.121 174.19 179.273 174.599 179.426C175.706 179.842 177.644 179.937 185.157 179.942L191.822 179.945L191.787 175.844L191.752 171.741L185.615 171.715C182.239 171.7 179.403 171.641 179.312 171.583C179.22 171.526 178.984 171.282 178.787 171.042L178.428 170.605V166.48V162.355H184.332H190.235L190.272 158.319L190.309 154.282L184.368 154.313L178.428 154.344V150.302V146.261L178.783 145.714C179.316 144.893 179.286 144.896 185.865 144.896H191.818V140.827V136.758L184.894 136.774C181.085 136.784 177.54 136.841 177.017 136.903ZM196.762 136.845C196.714 136.893 196.675 146.61 196.675 158.439V179.945H201.794H206.914V172.463V164.981H211.179H215.445L215.479 172.43L215.513 179.88L220.734 179.914L225.957 179.949L225.914 163.44C225.874 148.221 225.853 146.864 225.642 146.082C225.516 145.614 225.397 145.129 225.378 145.002C225.359 144.875 225.302 144.731 225.252 144.681C225.202 144.631 225.159 144.496 225.156 144.382C225.154 144.268 225.037 143.938 224.898 143.649C224.758 143.36 224.643 143.05 224.64 142.96C224.638 142.87 224.577 142.796 224.504 142.796C224.432 142.796 224.385 142.751 224.399 142.697C224.454 142.497 223.558 141.222 223.423 141.306C223.342 141.356 223.32 141.331 223.371 141.248C223.468 141.093 222.146 139.645 221.91 139.645C221.832 139.645 221.75 139.601 221.726 139.547C221.607 139.28 220.375 138.524 220.14 138.575C220.085 138.586 220.041 138.542 220.041 138.475C220.041 138.337 218.048 137.546 217.523 137.475C217.328 137.449 216.924 137.362 216.623 137.281C216.322 137.2 216.043 137.167 216.003 137.207C215.963 137.248 215.865 137.226 215.786 137.161C215.376 136.82 197.091 136.517 196.762 136.845ZM284.953 137.517C284.823 137.93 284.604 138.604 284.468 139.016C284.331 139.427 284.197 139.87 284.17 140C284.142 140.13 283.878 140.975 283.581 141.876C283.285 142.779 283.013 143.686 282.977 143.894C282.94 144.101 282.824 144.438 282.718 144.642C282.613 144.847 282.502 145.15 282.47 145.316C282.439 145.482 282.405 145.618 282.394 145.618C282.383 145.618 282.355 145.722 282.331 145.848C282.29 146.059 282.463 146.078 284.507 146.078H286.726V163.012V179.945H291.846H296.965V158.349V136.752L291.078 136.76L285.19 136.768L284.953 137.517ZM304.261 136.921C304.135 137.363 303.757 138.429 303.642 138.668C303.57 138.816 303.527 138.994 303.545 139.062C303.563 139.13 303.49 139.392 303.383 139.645C303.276 139.898 303.109 140.37 303.013 140.696C302.917 141.02 302.729 141.597 302.595 141.976C302.461 142.355 302.354 142.681 302.358 142.698C302.37 142.757 302.261 143.116 302.031 143.78C301.82 144.386 301.719 144.747 301.485 145.717L301.398 146.078H303.645H305.892V163.012V179.945H310.946H316V158.351V136.758H310.154C305.591 136.758 304.298 136.793 304.261 136.921ZM151.321 144.568C151.79 144.858 152.054 145.151 152.329 145.682L152.7 146.402L152.667 150.67L152.633 154.938L152.253 155.63C152.043 156.01 151.844 156.293 151.81 156.259C151.776 156.225 151.665 156.281 151.564 156.384C151.183 156.764 150.369 156.886 147.875 156.94L145.348 156.993V150.537V144.082L148.017 144.128L150.686 144.174L151.321 144.568ZM213.647 144.532C214.025 144.743 214.269 144.817 214.275 144.723C214.281 144.638 214.319 144.657 214.36 144.765C214.401 144.873 214.594 145.169 214.789 145.422C215.427 146.249 215.446 146.438 215.446 151.873V156.973H211.181H206.914V150.525V144.075L209.972 144.131C212.981 144.187 213.04 144.193 213.647 144.532ZM116.346 144.635C116.738 144.707 117.198 144.794 117.368 144.827C117.538 144.859 117.76 144.954 117.861 145.039C117.961 145.122 118.044 145.143 118.044 145.084C118.044 145.025 118.131 145.092 118.236 145.232C118.343 145.372 118.431 145.443 118.433 145.388C118.44 145.221 118.919 145.76 119.411 146.49L119.88 147.187L119.848 158.348C119.818 168.994 119.804 169.526 119.571 169.87C119.437 170.069 119.363 170.232 119.408 170.232C119.537 170.232 118.819 170.92 118.26 171.334C117.523 171.881 117.051 171.968 114.467 172.032L112.137 172.091V158.297V144.502H113.885C114.846 144.502 115.954 144.562 116.346 144.635Z" fill="#EC1C24"/>
<path fill-rule="evenodd" clip-rule="evenodd" d="M8.28505 128.312C8.12044 128.512 8.13304 128.516 8.43312 128.36C8.87341 128.131 8.90649 128.094 8.66784 128.094C8.55678 128.094 8.38429 128.191 8.28505 128.312ZM60.3738 130.949C60.3084 131.06 60.503 131.638 60.6061 131.638C60.6424 131.638 60.6187 131.496 60.5526 131.323C60.4872 131.15 60.4683 130.973 60.5124 130.929C60.5557 130.886 60.5557 130.85 60.5116 130.85C60.4675 130.85 60.4061 130.895 60.3738 130.949ZM239.804 136.215C239.431 136.295 244.51 136.266 245.311 136.183C245.528 136.161 244.464 136.141 242.948 136.138C241.432 136.135 240.017 136.169 239.804 136.215ZM245.781 136.149C245.811 136.176 246.161 136.231 246.558 136.272C247.024 136.32 247.164 136.307 246.952 136.237C246.626 136.128 245.677 136.057 245.781 136.149ZM260.408 136.233C260.238 136.306 260.379 136.32 260.801 136.271C261.162 136.229 261.482 136.174 261.512 136.148C261.626 136.05 260.658 136.124 260.408 136.233ZM261.983 136.183C262.836 136.272 265.964 136.293 265.752 136.209C265.629 136.16 264.641 136.124 263.558 136.131C262.475 136.138 261.766 136.161 261.983 136.183ZM1.00661 140.63C1.00661 142.146 1.02552 142.748 1.04836 141.969C1.07199 141.188 1.07199 139.948 1.04836 139.212C1.02552 138.475 1.00583 139.113 1.00661 140.63ZM75.1591 146.406C75.1599 146.839 75.1843 147.001 75.2134 146.764C75.2434 146.528 75.2426 146.174 75.2126 145.977C75.1827 145.78 75.1583 145.973 75.1591 146.406ZM88.4101 146.668C88.4116 146.957 88.4384 147.06 88.4699 146.897C88.5014 146.733 88.4999 146.497 88.4676 146.371C88.4345 146.246 88.4085 146.379 88.4101 146.668ZM178.593 154.307C178.719 154.34 178.926 154.34 179.052 154.307C179.178 154.274 179.075 154.247 178.822 154.247C178.569 154.247 178.466 154.274 178.593 154.307ZM179.909 154.313C180.255 154.34 180.787 154.34 181.091 154.312C181.395 154.285 181.113 154.263 180.464 154.263C179.814 154.263 179.564 154.286 179.909 154.313ZM182.465 154.314C182.916 154.339 183.655 154.339 184.106 154.314C184.558 154.288 184.188 154.267 183.286 154.267C182.383 154.267 182.014 154.288 182.465 154.314ZM185.747 154.314C186.198 154.339 186.936 154.339 187.388 154.314C187.839 154.288 187.47 154.267 186.568 154.267C185.665 154.267 185.296 154.288 185.747 154.314ZM188.505 154.309C188.668 154.341 188.905 154.34 189.031 154.307C189.156 154.274 189.022 154.248 188.734 154.249C188.445 154.251 188.342 154.278 188.505 154.309ZM190.011 154.299C190.22 154.36 190.243 154.7 190.277 158.328L190.314 162.289L190.311 158.287C190.309 154.383 190.303 154.285 190.046 154.259C189.846 154.238 189.837 154.248 190.011 154.299ZM160.97 161.836C161.425 162.146 161.684 162.236 161.364 161.973C161.183 161.825 160.976 161.704 160.904 161.704C160.832 161.703 160.861 161.763 160.97 161.836Z" fill="#F01C24"/>
<path fill-rule="evenodd" clip-rule="evenodd" d="M8.28505 128.312C8.12044 128.512 8.13304 128.516 8.43312 128.36C8.87341 128.131 8.90649 128.094 8.66784 128.094C8.55678 128.094 8.38429 128.191 8.28505 128.312ZM60.3738 130.949C60.3084 131.06 60.503 131.638 60.6061 131.638C60.6424 131.638 60.6187 131.496 60.5526 131.323C60.4872 131.15 60.4683 130.973 60.5124 130.929C60.5557 130.886 60.5557 130.85 60.5116 130.85C60.4675 130.85 60.4061 130.895 60.3738 130.949ZM239.804 136.215C239.431 136.295 244.51 136.266 245.311 136.183C245.528 136.161 244.464 136.141 242.948 136.138C241.432 136.135 240.017 136.169 239.804 136.215ZM245.781 136.149C245.811 136.176 246.161 136.231 246.558 136.272C247.024 136.32 247.164 136.307 246.952 136.237C246.626 136.128 245.677 136.057 245.781 136.149ZM260.408 136.233C260.238 136.306 260.379 136.32 260.801 136.271C261.162 136.229 261.482 136.174 261.512 136.148C261.626 136.05 260.658 136.124 260.408 136.233ZM261.983 136.183C262.836 136.272 265.964 136.293 265.752 136.209C265.629 136.16 264.641 136.124 263.558 136.131C262.475 136.138 261.766 136.161 261.983 136.183ZM1.00661 140.63C1.00661 142.146 1.02552 142.748 1.04836 141.969C1.07199 141.188 1.07199 139.948 1.04836 139.212C1.02552 138.475 1.00583 139.113 1.00661 140.63ZM75.1591 146.406C75.1599 146.839 75.1843 147.001 75.2134 146.764C75.2434 146.528 75.2426 146.174 75.2126 145.977C75.1827 145.78 75.1583 145.973 75.1591 146.406ZM88.4101 146.668C88.4116 146.957 88.4384 147.06 88.4699 146.897C88.5014 146.733 88.4999 146.497 88.4676 146.371C88.4345 146.246 88.4085 146.379 88.4101 146.668ZM178.593 154.307C178.719 154.34 178.926 154.34 179.052 154.307C179.178 154.274 179.075 154.247 178.822 154.247C178.569 154.247 178.466 154.274 178.593 154.307ZM179.909 154.313C180.255 154.34 180.787 154.34 181.091 154.312C181.395 154.285 181.113 154.263 180.464 154.263C179.814 154.263 179.564 154.286 179.909 154.313ZM182.465 154.314C182.916 154.339 183.655 154.339 184.106 154.314C184.558 154.288 184.188 154.267 183.286 154.267C182.383 154.267 182.014 154.288 182.465 154.314ZM185.747 154.314C186.198 154.339 186.936 154.339 187.388 154.314C187.839 154.288 187.47 154.267 186.568 154.267C185.665 154.267 185.296 154.288 185.747 154.314ZM188.505 154.309C188.668 154.341 188.905 154.34 189.031 154.307C189.156 154.274 189.022 154.248 188.734 154.249C188.445 154.251 188.342 154.278 188.505 154.309ZM190.011 154.299C190.22 154.36 190.243 154.7 190.277 158.328L190.314 162.289L190.311 158.287C190.309 154.383 190.303 154.285 190.046 154.259C189.846 154.238 189.837 154.248 190.011 154.299ZM160.97 161.836C161.425 162.146 161.684 162.236 161.364 161.973C161.183 161.825 160.976 161.704 160.904 161.704C160.832 161.703 160.861 161.763 160.97 161.836Z" fill="#F01C24"/>
<path fill-rule="evenodd" clip-rule="evenodd" d="M8.28505 128.312C8.12044 128.512 8.13304 128.516 8.43312 128.36C8.87341 128.131 8.90649 128.094 8.66784 128.094C8.55678 128.094 8.38429 128.191 8.28505 128.312ZM60.3738 130.949C60.3084 131.06 60.503 131.638 60.6061 131.638C60.6424 131.638 60.6187 131.496 60.5526 131.323C60.4872 131.15 60.4683 130.973 60.5124 130.929C60.5557 130.886 60.5557 130.85 60.5116 130.85C60.4675 130.85 60.4061 130.895 60.3738 130.949ZM239.804 136.215C239.431 136.295 244.51 136.266 245.311 136.183C245.528 136.161 244.464 136.141 242.948 136.138C241.432 136.135 240.017 136.169 239.804 136.215ZM245.781 136.149C245.811 136.176 246.161 136.231 246.558 136.272C247.024 136.32 247.164 136.307 246.952 136.237C246.626 136.128 245.677 136.057 245.781 136.149ZM260.408 136.233C260.238 136.306 260.379 136.32 260.801 136.271C261.162 136.229 261.482 136.174 261.512 136.148C261.626 136.05 260.658 136.124 260.408 136.233ZM261.983 136.183C262.836 136.272 265.964 136.293 265.752 136.209C265.629 136.16 264.641 136.124 263.558 136.131C262.475 136.138 261.766 136.161 261.983 136.183ZM1.00661 140.63C1.00661 142.146 1.02552 142.748 1.04836 141.969C1.07199 141.188 1.07199 139.948 1.04836 139.212C1.02552 138.475 1.00583 139.113 1.00661 140.63ZM75.1591 146.406C75.1599 146.839 75.1843 147.001 75.2134 146.764C75.2434 146.528 75.2426 146.174 75.2126 145.977C75.1827 145.78 75.1583 145.973 75.1591 146.406ZM88.4101 146.668C88.4116 146.957 88.4384 147.06 88.4699 146.897C88.5014 146.733 88.4999 146.497 88.4676 146.371C88.4345 146.246 88.4085 146.379 88.4101 146.668ZM178.593 154.307C178.719 154.34 178.926 154.34 179.052 154.307C179.178 154.274 179.075 154.247 178.822 154.247C178.569 154.247 178.466 154.274 178.593 154.307ZM179.909 154.313C180.255 154.34 180.787 154.34 181.091 154.312C181.395 154.285 181.113 154.263 180.464 154.263C179.814 154.263 179.564 154.286 179.909 154.313ZM182.465 154.314C182.916 154.339 183.655 154.339 184.106 154.314C184.558 154.288 184.188 154.267 183.286 154.267C182.383 154.267 182.014 154.288 182.465 154.314ZM185.747 154.314C186.198 154.339 186.936 154.339 187.388 154.314C187.839 154.288 187.47 154.267 186.568 154.267C185.665 154.267 185.296 154.288 185.747 154.314ZM188.505 154.309C188.668 154.341 188.905 154.34 189.031 154.307C189.156 154.274 189.022 154.248 188.734 154.249C188.445 154.251 188.342 154.278 188.505 154.309ZM190.011 154.299C190.22 154.36 190.243 154.7 190.277 158.328L190.314 162.289L190.311 158.287C190.309 154.383 190.303 154.285 190.046 154.259C189.846 154.238 189.837 154.248 190.011 154.299ZM160.97 161.836C161.425 162.146 161.684 162.236 161.364 161.973C161.183 161.825 160.976 161.704 160.904 161.704C160.832 161.703 160.861 161.763 160.97 161.836Z" fill="#F01C24"/>
<path fill-rule="evenodd" clip-rule="evenodd" d="M8.28505 128.312C8.12044 128.512 8.13304 128.516 8.43312 128.36C8.87341 128.131 8.90649 128.094 8.66784 128.094C8.55678 128.094 8.38429 128.191 8.28505 128.312ZM60.3738 130.949C60.3084 131.06 60.503 131.638 60.6061 131.638C60.6424 131.638 60.6187 131.496 60.5526 131.323C60.4872 131.15 60.4683 130.973 60.5124 130.929C60.5557 130.886 60.5557 130.85 60.5116 130.85C60.4675 130.85 60.4061 130.895 60.3738 130.949ZM239.804 136.215C239.431 136.295 244.51 136.266 245.311 136.183C245.528 136.161 244.464 136.141 242.948 136.138C241.432 136.135 240.017 136.169 239.804 136.215ZM245.781 136.149C245.811 136.176 246.161 136.231 246.558 136.272C247.024 136.32 247.164 136.307 246.952 136.237C246.626 136.128 245.677 136.057 245.781 136.149ZM260.408 136.233C260.238 136.306 260.379 136.32 260.801 136.271C261.162 136.229 261.482 136.174 261.512 136.148C261.626 136.05 260.658 136.124 260.408 136.233ZM261.983 136.183C262.836 136.272 265.964 136.293 265.752 136.209C265.629 136.16 264.641 136.124 263.558 136.131C262.475 136.138 261.766 136.161 261.983 136.183ZM1.00661 140.63C1.00661 142.146 1.02552 142.748 1.04836 141.969C1.07199 141.188 1.07199 139.948 1.04836 139.212C1.02552 138.475 1.00583 139.113 1.00661 140.63ZM75.1591 146.406C75.1599 146.839 75.1843 147.001 75.2134 146.764C75.2434 146.528 75.2426 146.174 75.2126 145.977C75.1827 145.78 75.1583 145.973 75.1591 146.406ZM88.4101 146.668C88.4116 146.957 88.4384 147.06 88.4699 146.897C88.5014 146.733 88.4999 146.497 88.4676 146.371C88.4345 146.246 88.4085 146.379 88.4101 146.668ZM178.593 154.307C178.719 154.34 178.926 154.34 179.052 154.307C179.178 154.274 179.075 154.247 178.822 154.247C178.569 154.247 178.466 154.274 178.593 154.307ZM179.909 154.313C180.255 154.34 180.787 154.34 181.091 154.312C181.395 154.285 181.113 154.263 180.464 154.263C179.814 154.263 179.564 154.286 179.909 154.313ZM182.465 154.314C182.916 154.339 183.655 154.339 184.106 154.314C184.558 154.288 184.188 154.267 183.286 154.267C182.383 154.267 182.014 154.288 182.465 154.314ZM185.747 154.314C186.198 154.339 186.936 154.339 187.388 154.314C187.839 154.288 187.47 154.267 186.568 154.267C185.665 154.267 185.296 154.288 185.747 154.314ZM188.505 154.309C188.668 154.341 188.905 154.34 189.031 154.307C189.156 154.274 189.022 154.248 188.734 154.249C188.445 154.251 188.342 154.278 188.505 154.309ZM190.011 154.299C190.22 154.36 190.243 154.7 190.277 158.328L190.314 162.289L190.311 158.287C190.309 154.383 190.303 154.285 190.046 154.259C189.846 154.238 189.837 154.248 190.011 154.299ZM160.97 161.836C161.425 162.146 161.684 162.236 161.364 161.973C161.183 161.825 160.976 161.704 160.904 161.704C160.832 161.703 160.861 161.763 160.97 161.836Z" fill="#F01C24"/>
</svg>
