<svg width="316" height="315" viewBox="0 0 316 315" fill="none" xmlns="http://www.w3.org/2000/svg">
<g clip-path="url(#clip0_451_36)">
<path d="M62.3827 109C59.9963 109 54.6672 109.616 49.1993 126.322C32.8446 118.459 29.2566 121.555 27.4667 123.347C25.7911 125.008 22.4565 129.191 30.4662 144.786C13.4659 150.525 13 156.32 13 157.974C13 159.514 13.6293 165.479 30.4172 171.015C22.481 187.016 26.2816 191.441 27.4503 192.616C28.5455 193.703 33.2533 197.48 49.0522 189.626C54.7654 206.485 60.0862 206.947 62.3747 206.947C64.7613 206.947 70.082 206.331 75.5336 189.699C91.5859 197.618 95.6807 194.213 97.2909 192.616C98.9663 190.947 102.301 186.772 94.2912 171.161C111.292 165.423 111.757 159.627 111.757 157.974C111.757 156.433 111.128 150.468 94.3403 144.932C102.277 128.94 98.476 124.506 97.2909 123.347C96.1875 122.261 91.4715 118.475 75.6234 126.37C69.6735 109.316 64.9248 109 62.3827 109ZM31.8312 127.675C32.3624 127.148 34.1523 124.871 47.9815 130.342C47.9162 130.577 47.8426 130.804 47.7854 131.055C45.7994 138.172 41.4674 141.552 35.3621 143.278C35.0515 143.367 34.7573 143.448 34.4631 143.538C28.6191 130.204 31.161 128.348 31.8312 127.675ZM72.9508 132.093C73.0979 132.02 73.237 131.955 73.3841 131.898C73.474 132.109 73.5475 132.311 73.6292 132.522C76.4571 139.647 80.9852 144.421 88.3083 147.08C88.4718 147.145 88.6189 147.193 88.766 147.25C88.6681 147.461 88.5782 147.655 88.48 147.874C85.268 154.845 85.0636 161.516 88.48 168.47C88.5536 168.616 88.6189 168.762 88.6925 168.908C88.48 168.997 88.2594 169.07 88.0468 169.151C80.8217 171.81 75.9096 176.373 73.3676 183.684C73.3186 183.846 73.2533 183.992 73.2042 184.146C72.9917 184.049 72.7874 183.96 72.5585 183.862C65.5049 180.726 58.8684 180.604 51.7903 183.862C51.6431 183.935 51.496 184 51.3572 184.057C51.2671 183.846 51.1936 183.644 51.1119 183.417C48.3575 176.268 43.7559 171.518 36.4328 168.859C36.2693 168.794 36.1222 168.746 35.9751 168.689C36.065 168.478 36.1629 168.284 36.2611 168.073C39.4731 161.102 39.6203 154.472 36.2611 147.477C36.1875 147.331 36.1222 147.185 36.0486 147.039C36.2611 146.95 36.4817 146.877 36.6943 146.796C43.9276 144.129 48.7662 139.534 51.3898 132.247C51.4388 132.101 51.5043 131.955 51.5533 131.809C51.7657 131.898 51.97 131.995 52.1989 132.076C59.2605 135.156 65.881 135.351 72.9508 132.093ZM19.1708 157.974C19.1708 157.114 18.7295 154.083 32.4523 148.474C32.5913 148.709 32.7221 148.952 32.861 149.187C36.5309 155.607 35.8606 161.037 32.7874 166.533C32.6403 166.792 32.5014 167.044 32.3543 167.303C18.8684 161.88 19.1708 158.76 19.1708 157.974ZM31.8312 188.28C31.21 187.664 28.7417 185.832 34.4465 172.239C34.7081 172.312 34.9616 172.385 35.2393 172.458C42.4156 174.428 45.8074 178.724 47.5647 184.779C47.6546 185.07 47.7364 185.354 47.81 185.638C34.3976 191.263 32.387 188.839 31.8312 188.28ZM62.3827 200.828C61.6554 200.828 58.7049 201.565 52.8283 187.64C53.049 187.518 53.286 187.38 53.523 187.259C59.9963 183.619 65.4723 184.284 71.0138 187.332C71.2998 187.494 71.5777 187.648 71.8638 187.794C66.6085 201.208 63.0857 200.828 62.3827 200.828ZM92.9426 188.28C92.4277 188.791 90.8584 191.376 76.784 185.662C76.8576 185.419 76.9311 185.159 76.9966 184.9C78.9826 177.783 83.3146 174.403 89.4199 172.677C89.7388 172.588 90.0493 172.49 90.3599 172.409C96.1873 185.597 93.4494 187.786 92.9426 188.28ZM105.595 157.974C105.595 158.833 106.036 161.864 92.3132 167.473C92.1744 167.238 92.0516 167.011 91.9211 166.76C88.2511 160.34 88.9214 154.91 91.9946 149.414C92.1417 149.147 92.2888 148.887 92.4277 148.628C105.905 154.067 105.595 157.195 105.595 157.974ZM92.9426 127.675C93.5639 128.291 96.0321 130.123 90.3272 143.716C90.0656 143.643 89.8123 143.57 89.5344 143.497C82.3582 141.527 79.0645 137.191 77.209 131.177C77.1192 130.893 77.0375 130.617 76.9477 130.334C90.3762 124.7 92.3868 127.124 92.9426 127.675ZM71.9047 128.332C71.6921 128.453 71.4715 128.567 71.2508 128.696C64.7776 132.336 59.3506 131.582 53.76 128.623C53.474 128.478 53.2042 128.332 52.9182 128.186C58.3126 114.658 61.4348 115.12 62.391 115.12C63.1266 115.12 66.0118 114.755 71.9047 128.332Z" fill="url(#paint0_linear_451_36)"/>
<path fill-rule="evenodd" clip-rule="evenodd" d="M144.557 172.839C144.557 173.691 145.227 174.388 146.053 174.388H171.079C171.194 174.388 171.284 174.29 171.284 174.177V171.964C171.284 171.851 171.194 171.753 171.079 171.753H148.039C147.769 171.753 147.549 171.526 147.549 171.243V158.809C147.549 158.525 147.769 158.306 148.039 158.306H169.551C169.665 158.306 169.755 158.209 169.755 158.096V155.948C169.755 155.834 169.665 155.737 169.551 155.737H148.039C147.769 155.737 147.549 155.51 147.549 155.234V144.713C147.549 144.43 147.769 144.211 148.039 144.211H170.736C170.851 144.211 170.94 144.113 170.94 144V141.779C170.94 141.666 170.851 141.568 170.736 141.568H146.053C145.227 141.568 144.557 142.266 144.557 143.116V172.839Z" fill="#042132"/>
<path fill-rule="evenodd" clip-rule="evenodd" d="M186.183 174.38H211.16C211.275 174.38 211.373 174.282 211.373 174.169V171.956C211.373 171.834 211.275 171.745 211.16 171.745H187.957C187.679 171.745 187.45 171.518 187.45 171.235V141.779C187.45 141.666 187.352 141.568 187.238 141.568H184.851C184.737 141.568 184.639 141.666 184.639 141.779V172.839C184.647 173.691 185.333 174.38 186.183 174.38Z" fill="#042132"/>
<path fill-rule="evenodd" clip-rule="evenodd" d="M275.216 162.318L284.116 144.98C284.214 144.802 284.409 144.737 284.557 144.737C284.713 144.737 284.909 144.802 284.999 144.98L293.883 162.318C293.964 162.472 293.956 162.666 293.866 162.812C293.776 162.966 293.613 163.064 293.434 163.064H275.648C275.477 163.064 275.314 162.974 275.224 162.82C275.133 162.666 275.133 162.48 275.216 162.318ZM273.777 165.641H295.322C295.51 165.641 295.673 165.747 295.764 165.909L300.029 174.265C300.062 174.338 300.135 174.379 300.217 174.379H302.791C302.866 174.379 302.931 174.338 302.971 174.274C303.004 174.209 303.012 174.128 302.979 174.063L287.098 143.156C287.018 142.994 286.232 141.56 284.54 141.56C282.815 141.56 282.024 143.084 281.992 143.148L266.118 174.071C266.086 174.136 266.086 174.217 266.126 174.282C266.168 174.346 266.234 174.387 266.307 174.387H268.88C268.963 174.387 269.028 174.346 269.068 174.274L273.336 165.925C273.426 165.747 273.589 165.641 273.777 165.641Z" fill="#042132"/>
<path fill-rule="evenodd" clip-rule="evenodd" d="M252.019 162.861C251.545 162.026 250.9 161.272 250.099 160.624C249.296 159.983 248.349 159.408 247.27 158.922C246.2 158.435 245.048 157.998 243.846 157.6C242.643 157.211 241.393 156.839 240.118 156.506C238.843 156.166 237.602 155.833 236.4 155.501C235.23 155.185 234.087 154.828 232.983 154.439C231.921 154.066 230.972 153.645 230.179 153.183C229.388 152.729 228.758 152.194 228.291 151.602C227.826 151.011 227.598 150.338 227.598 149.544C227.598 148.595 227.834 147.801 228.333 147.12C228.823 146.439 229.541 145.864 230.475 145.418C231.381 144.98 232.509 144.745 233.922 144.518C235.222 144.316 236.719 144.202 238.37 144.202H250.041C250.089 144.202 250.139 144.178 250.18 144.137C250.212 144.097 250.237 144.048 250.237 143.991V141.77C250.237 141.657 250.147 141.56 250.049 141.56H249.861H238.386C237.241 141.56 233.899 141.641 232.011 142.127C231.013 142.362 230.056 142.694 229.182 143.1C228.301 143.505 227.523 144.024 226.87 144.623C226.215 145.223 225.685 145.945 225.309 146.78C224.932 147.606 224.736 148.571 224.736 149.641C224.736 150.727 224.973 151.692 225.447 152.518C225.921 153.337 226.567 154.066 227.367 154.691C228.161 155.307 229.109 155.858 230.189 156.328C231.258 156.79 232.411 157.211 233.596 157.576C234.781 157.941 236.031 158.289 237.306 158.605C238.581 158.922 239.824 159.246 241.009 159.57C242.211 159.902 243.356 160.267 244.41 160.648C245.48 161.029 246.419 161.475 247.212 161.969C248.005 162.464 248.635 163.047 249.1 163.696C249.567 164.352 249.788 165.09 249.788 165.957C249.788 167.043 249.502 167.935 248.922 168.681C248.349 169.426 247.531 170.034 246.494 170.496C245.422 170.975 244.114 171.193 242.766 171.396C241.451 171.599 239.914 171.704 238.067 171.72H225.095C224.99 171.72 224.907 171.818 224.907 171.931V174.152C224.907 174.274 224.99 174.363 225.095 174.363L237.976 174.371C239.096 174.371 240.258 174.322 241.41 174.217C242.57 174.12 243.707 173.941 244.794 173.698L245.038 173.641C246.027 173.422 246.968 173.204 247.867 172.814C248.831 172.393 249.672 171.85 250.393 171.21C251.111 170.569 251.683 169.791 252.108 168.908C252.534 168.016 252.745 166.962 252.745 165.771C252.73 164.677 252.492 163.696 252.019 162.861Z" fill="#042132"/>
</g>
<defs>
<linearGradient id="paint0_linear_451_36" x1="62.3787" y1="206.947" x2="62.3787" y2="109" gradientUnits="userSpaceOnUse">
<stop stop-color="#007DF7"/>
<stop offset="0.5028" stop-color="#46DF83"/>
<stop offset="1" stop-color="#F8DA49"/>
</linearGradient>
<clipPath id="clip0_451_36">
<rect width="290" height="97.9471" fill="white" transform="translate(13 109)"/>
</clipPath>
</defs>
</svg>
