<svg width="316" height="315" viewBox="0 0 316 315" fill="none" xmlns="http://www.w3.org/2000/svg">
<g clip-path="url(#clip0_463_503)">
<path d="M63.9104 193.814C83.7431 193.814 99.8207 177.737 99.8207 157.905C99.8207 138.073 83.7431 121.996 63.9104 121.996C44.0776 121.996 28 138.073 28 157.905C28 177.737 44.0776 193.814 63.9104 193.814Z" fill="#EC4702"/>
<path d="M39.2664 152.263C39.4622 153.527 40.1012 154.681 41.0691 155.517C41.8958 156.274 42.87 156.851 43.9305 157.213C44.3129 157.35 44.6878 157.508 45.0536 157.685C45.2896 157.799 45.5329 157.914 45.7689 158.014L47.5644 158.779L49.5531 159.616L51.8208 160.603L53.6878 161.412L55.4833 162.191L56.12 162.47C56.7638 162.749 57.4219 163.035 58.123 163.279C59.3976 163.709 60.7102 164.018 62.0431 164.201C62.8296 164.316 63.6233 164.373 64.418 164.373C65.4846 164.374 66.5486 164.269 67.5942 164.058C69.0557 163.784 70.4796 163.337 71.8362 162.728C72.48 162.435 73.1381 162.163 73.7891 161.898L75.0696 161.362L76.1927 160.861L77.2728 160.382L78.9181 159.666L80.5277 158.987C81.3932 158.622 82.2445 158.271 83.1029 157.856L83.9685 157.492C85.01 157.107 86 156.596 86.9157 155.968C87.9292 155.269 88.6954 154.268 89.1047 153.107C89.2431 152.682 89.3578 152.25 89.4481 151.812V151.719C89.5198 151.384 89.5198 151.038 89.4481 150.703C89.408 150.515 89.3579 150.328 89.2978 150.145V150.052C89.2978 149.959 89.2478 149.866 89.2191 149.773C89.1364 149.414 89.0165 149.064 88.8615 148.729C88.0599 147.23 86.7479 146.068 85.1631 145.453C83.3247 144.645 81.4791 143.851 79.6335 143.057L77.652 142.248L75.9566 141.533C74.8263 141.046 73.6889 140.567 72.5587 140.059C71.073 139.356 69.5031 138.846 67.8875 138.543C67.0648 138.4 66.2565 138.314 65.534 138.242L64.7113 138.149H64.5611L63.5382 138.228C62.9087 138.271 62.3435 138.314 61.7855 138.378C61.3036 138.44 60.8258 138.53 60.3549 138.65L60.1832 138.693C59.1625 138.898 58.1636 139.2 57.2002 139.594C55.469 140.353 53.7331 141.104 51.9924 141.848L50.7549 142.377L44.889 144.866L44.4956 145.031C43.3317 145.45 42.2479 146.064 41.2908 146.848C40.305 147.616 39.613 148.699 39.3308 149.916C39.3308 149.995 39.2879 150.074 39.2664 150.152C39.1989 150.349 39.1463 150.549 39.109 150.753C39.0561 151.095 39.0561 151.442 39.109 151.783C39.1463 151.948 39.199 152.108 39.2664 152.263ZM83.8898 151.39C83.4744 151.766 82.9879 152.056 82.4591 152.241L81.2788 152.756C80.0412 153.293 78.8108 153.836 77.5733 154.366L72.0723 156.741L71.1137 157.155C70.2696 157.527 69.4684 157.871 68.6457 158.164C66.1024 159.006 63.3698 159.096 60.7769 158.422C59.8756 158.121 58.9528 157.742 58.0872 157.384L54.6607 155.911L52.4431 154.959L50.3328 154.065C49.1596 153.572 47.9865 153.078 46.8133 152.563L46.2983 152.348C45.8425 152.196 45.413 151.974 45.025 151.69C44.8795 151.555 44.7499 151.404 44.6387 151.24C45.1254 150.771 45.7125 150.418 46.3555 150.21L55.3975 146.333C56.5206 145.853 57.6437 145.374 58.7954 144.859C59.5825 144.471 60.4102 144.171 61.2634 143.965C61.929 143.828 62.6029 143.735 63.2806 143.686C64.3546 143.597 65.4355 143.638 66.4997 143.808C67.4652 143.968 68.4056 144.254 69.2967 144.659C70.6082 145.231 71.9244 145.799 73.2454 146.361L80.3989 149.416C81.3074 149.809 82.223 150.195 83.1244 150.603C83.4335 150.723 83.7068 150.92 83.9184 151.175L83.99 151.29C83.96 151.333 83.9265 151.374 83.8898 151.411V151.39Z" fill="white"/>
<path d="M64.4109 164.422C63.6158 164.424 62.8218 164.364 62.0359 164.244C60.6982 164.065 59.3807 163.758 58.1015 163.328C57.3862 163.092 56.771 162.806 56.1415 162.534L55.4261 162.241L53.788 161.525L51.7635 160.638L49.4959 159.658L47.9078 158.986L47.5072 158.814L45.7117 158.056L44.9963 157.727C44.6325 157.546 44.2573 157.388 43.8732 157.255C42.814 156.887 41.8405 156.308 41.0118 155.552C40.0461 154.703 39.4168 153.536 39.2378 152.262C39.1782 152.1 39.1351 151.932 39.109 151.761C39.0561 151.415 39.0561 151.063 39.109 150.717C39.1496 150.511 39.2022 150.308 39.2664 150.109V150.059C39.2864 150 39.3031 149.94 39.3165 149.88C39.5991 148.653 40.2965 147.562 41.2908 146.79C42.251 146.005 43.337 145.388 44.5027 144.966L44.8962 144.801L50.7334 142.305L51.971 141.775C53.9024 140.946 55.5477 140.259 57.1787 139.529C58.1433 139.129 59.1448 138.825 60.1689 138.621L60.3406 138.578C60.8115 138.458 61.2893 138.367 61.7712 138.306C62.3364 138.242 62.9158 138.199 63.531 138.156L64.5539 138.077H64.7113L65.534 138.17C66.2493 138.242 67.0577 138.328 67.8732 138.471C69.4924 138.772 71.0652 139.284 72.5515 139.994C73.6603 140.488 74.8049 140.974 75.9065 141.425H75.9494L77.6448 142.14L79.612 142.984C81.4147 143.757 83.2817 144.558 85.1416 145.381C86.7355 145.994 88.054 147.162 88.8543 148.671C89.0103 149.006 89.1325 149.356 89.2191 149.715C89.2191 149.808 89.2692 149.909 89.2978 150.002V150.087C89.3622 150.302 89.4123 150.474 89.448 150.652C89.5197 150.992 89.5197 151.343 89.448 151.683V151.776C89.3577 152.215 89.2431 152.65 89.1047 153.077C88.6903 154.24 87.9192 155.241 86.9014 155.939C85.9825 156.567 84.9904 157.081 83.947 157.469H83.8755L83.0815 157.806C82.2874 158.156 81.3861 158.557 80.5062 158.929L78.8967 159.608L77.2514 160.324L76.2857 160.753L76.1712 160.803C75.7921 160.967 75.4558 161.139 75.0481 161.296L73.9107 161.776L73.7175 161.854C73.088 162.112 72.4442 162.384 71.8147 162.663C70.4571 163.277 69.0304 163.726 67.5656 164C66.5306 164.245 65.4738 164.386 64.4109 164.422ZM64.5611 138.17L63.5453 138.249C62.9301 138.292 62.3507 138.335 61.7855 138.399C61.3036 138.461 60.8259 138.552 60.3549 138.671L60.1832 138.707C59.1652 138.916 58.1689 139.221 57.2073 139.615C55.5406 140.33 53.931 141.046 51.9996 141.861L50.762 142.391C48.8664 143.206 46.8992 144.05 44.9248 144.887L44.5314 145.052C43.3726 145.473 42.292 146.085 41.3338 146.861C40.3543 147.626 39.6674 148.705 39.388 149.916C39.388 149.98 39.3522 150.044 39.3379 150.102V150.152C39.2704 150.348 39.2178 150.549 39.1806 150.753C39.124 151.089 39.124 151.432 39.1806 151.768C39.2041 151.937 39.2448 152.102 39.3022 152.262C39.496 153.518 40.1299 154.664 41.0905 155.495C41.9184 156.25 42.8922 156.827 43.9519 157.19C44.3355 157.325 44.7106 157.483 45.075 157.663L45.7904 157.992L47.5859 158.75L47.9865 158.914L49.5746 159.594L51.8422 160.574L53.8666 161.461L55.5048 162.176L56.1844 162.477C56.8139 162.749 57.4577 163.027 58.1373 163.264C59.4124 163.693 60.7248 164.001 62.0574 164.186C63.8968 164.464 65.7706 164.418 67.5942 164.05C69.0528 163.77 70.474 163.321 71.829 162.713C72.4585 162.427 73.1095 162.162 73.7319 161.904L73.925 161.826L75.0624 161.346C75.4415 161.189 75.7778 161.017 76.1855 160.846L76.3 160.803L77.2657 160.374L78.911 159.658L80.5205 158.979C81.4004 158.607 82.3017 158.206 83.0958 157.856C83.3533 157.734 83.6251 157.627 83.8898 157.52L83.9613 157.484C85.0004 157.102 85.9879 156.593 86.9014 155.967C87.9013 155.264 88.6526 154.263 89.0475 153.106C89.185 152.683 89.2996 152.253 89.3908 151.818V151.718C89.4624 151.388 89.4624 151.047 89.3908 150.717C89.355 150.545 89.305 150.366 89.2406 150.159V150.066C89.2406 149.973 89.1905 149.88 89.1619 149.787C89.08 149.432 88.9601 149.086 88.8042 148.757C88.0104 147.263 86.7051 146.105 85.1273 145.495C83.2674 144.672 81.4004 143.871 79.5977 143.099L77.6305 142.255C77.0725 142.011 76.5074 141.768 75.9351 141.539H75.8922C74.7906 141.067 73.646 140.581 72.5372 140.109C71.054 139.405 69.4864 138.896 67.8732 138.592C67.0648 138.449 66.2565 138.363 65.5411 138.292L64.7185 138.199L64.5611 138.17ZM64.2821 158.914C63.0975 158.946 61.9151 158.794 60.7769 158.464C59.8827 158.17 58.9885 157.798 58.0801 157.419C56.9355 156.94 55.7766 156.439 54.6535 155.953L52.4359 155.002L50.3257 154.107C49.0738 153.578 47.9436 153.099 46.8062 152.605L46.3698 152.419H46.2911C45.831 152.265 45.3987 152.038 45.0107 151.747C44.8629 151.612 44.7309 151.461 44.6172 151.296C45.1045 150.817 45.6975 150.46 46.3484 150.252L55.3903 146.375C56.492 145.91 57.6294 145.423 58.7882 144.908C59.5758 144.514 60.4064 144.211 61.2634 144.007C61.9313 143.87 62.6076 143.777 63.2878 143.728C64.3642 143.639 65.4474 143.68 66.514 143.85C67.4805 144.016 68.4225 144.302 69.3182 144.701C70.6416 145.288 71.9721 145.853 73.2669 146.403L80.4204 149.458C81.3146 149.844 82.2302 150.238 83.1458 150.645C83.46 150.77 83.7379 150.972 83.9542 151.232L84.0329 151.353V151.389L83.9256 151.518C83.5055 151.89 83.0205 152.181 82.4949 152.376L81.0642 152.992L77.5804 154.408L72.1152 156.754L71.1566 157.169C70.3053 157.541 69.5041 157.884 68.6886 158.185C67.2793 158.704 65.7836 158.95 64.2821 158.907V158.914ZM44.6887 151.246C44.7954 151.401 44.9202 151.543 45.0607 151.668C45.4396 151.952 45.8625 152.172 46.3126 152.319L46.3984 152.355L46.8348 152.541C47.9722 153.034 49.1024 153.514 50.3543 154.043L52.4646 154.937L54.6821 155.889C55.8052 156.375 56.9641 156.876 58.1087 157.355C59.0172 157.734 59.9042 158.07 60.7984 158.392C61.9291 158.723 63.1045 158.875 64.2821 158.843C65.7761 158.888 67.2648 158.645 68.6672 158.128C69.4827 157.841 70.2767 157.491 71.1208 157.119L72.0865 156.704L77.5518 154.358L81.0213 152.848L82.452 152.233C82.9793 152.048 83.4653 151.761 83.8826 151.389L83.9685 151.289L83.9112 151.196C83.7012 150.947 83.4335 150.753 83.1315 150.631C82.2159 150.223 81.3002 149.83 80.406 149.451L73.2526 146.389C71.9578 145.838 70.6273 145.273 69.3039 144.687C68.416 144.288 67.4808 144.005 66.5211 143.843C65.4593 143.673 64.3809 143.632 63.3092 143.721C62.6314 143.77 61.9575 143.863 61.292 144C60.4411 144.206 59.6158 144.506 58.8312 144.894C57.6723 145.409 56.5349 145.896 55.4333 146.368L46.3913 150.238C45.7578 150.444 45.1769 150.786 44.6887 151.239V151.246Z" fill="white"/>
<path d="M87.2967 161.76L85.9519 162.34L83.8058 163.255L81.6598 164.228L79.8285 165.043L78.2976 165.716L76.3662 166.567L74.771 167.282C73.7123 167.733 72.6249 168.184 71.5805 168.62C71.1942 168.777 70.8151 168.956 70.436 169.128C69.7581 169.462 69.0519 169.735 68.3257 169.943L67.732 170.094C67.2371 170.238 66.7327 170.348 66.2226 170.423C63.9589 170.775 61.6421 170.505 59.5198 169.643C58.3323 169.128 57.1377 168.627 55.943 168.126L53.8328 167.239L53.7111 167.182C52.4521 166.653 51.1931 166.114 49.9341 165.566C48.7538 165.043 47.5806 164.514 46.4003 163.978L45.592 163.613L44.1756 162.99L42.6662 162.275L41.6504 161.832L38.2954 160.401L39.1395 163.634C39.1896 163.82 39.2254 163.978 39.2754 164.128C39.3255 164.278 39.347 164.342 39.3756 164.457C39.4851 164.875 39.6386 165.28 39.8334 165.666C40.5424 166.932 41.6413 167.936 42.9666 168.527C43.5389 168.813 44.1183 169.042 44.6763 169.242L45.5061 169.579L46.6006 170.051L47.6092 170.494L49.0972 171.116L50.7997 171.832L52.5666 172.604L54.0617 173.255L54.5266 173.456C55.242 173.77 55.9573 174.085 56.7156 174.378L57.0017 174.493C57.7007 174.788 58.4175 175.038 59.1478 175.244C60.135 175.501 61.1365 175.666 62.1523 175.83C62.8624 175.939 63.5799 175.992 64.2983 175.988C65.1724 175.985 66.0451 175.919 66.9093 175.788C67.5603 175.687 68.1898 175.537 68.7263 175.408L68.8551 175.373C69.4636 175.238 70.0632 175.066 70.6506 174.858C71.2443 174.643 71.8094 174.393 72.3603 174.142L79.435 171.116L82.3465 169.865L83.1906 169.493L84.8574 168.777C86.1865 168.277 87.3574 167.43 88.2481 166.324C88.7736 165.694 89.1152 164.932 89.2353 164.121C89.2558 164.031 89.2821 163.942 89.314 163.856L89.4141 163.527L90.2869 160.365L87.2967 161.76Z" fill="white"/>
<path d="M64.2899 176.033C63.5716 176.036 62.8541 175.983 62.1438 175.876C61.1281 175.711 60.1337 175.546 59.1394 175.289C58.4086 175.085 57.6918 174.834 56.9934 174.538L56.7144 174.423C55.999 174.137 55.2837 173.823 54.5683 173.522L54.0533 173.3L52.5582 172.649L50.7913 171.884L49.0888 171.169L47.6009 170.539L46.7496 170.167L46.5422 170.081L45.4978 169.624L44.6751 169.295C44.0912 169.085 43.5182 168.846 42.9583 168.579C41.6267 167.989 40.5206 166.986 39.8036 165.718C39.6104 165.329 39.457 164.922 39.3458 164.502C39.31 164.395 39.2814 164.287 39.2456 164.187C39.2099 164.087 39.1598 163.901 39.1169 163.701L38.2441 160.389H38.3157L41.6706 161.82L42.7437 162.277L44.017 162.857L44.3174 162.993L45.605 163.586L46.5851 164.023C47.6867 164.523 48.8241 165.038 49.9472 165.532C51.0703 166.026 52.4223 166.598 53.6241 167.113L53.8458 167.206L55.6485 167.964L55.9847 168.107C57.1507 168.594 58.3597 169.101 59.5615 169.609C61.6763 170.472 63.9862 170.741 66.2428 170.389C66.7531 170.315 67.2575 170.205 67.7522 170.06L68.3459 169.91C69.0712 169.705 69.7755 169.432 70.449 169.094C70.821 168.923 71.2073 168.751 71.5936 168.594C72.5307 168.207 73.5107 167.792 74.784 167.249L76.2791 166.598L76.3792 166.555L78.5825 165.604L79.8701 165.038L81.3867 164.359L81.7014 164.216L83.8475 163.243L85.8361 162.385L85.9649 162.335L87.3097 161.748L90.3571 160.317V160.396L89.4772 163.558C89.4772 163.672 89.4129 163.787 89.3842 163.887C89.3814 163.911 89.3814 163.935 89.3842 163.958C89.3642 164.019 89.3475 164.081 89.3342 164.144C89.2117 164.96 88.8678 165.727 88.3398 166.362C87.4461 167.473 86.27 168.323 84.9348 168.822L83.268 169.538L82.4239 169.903L79.5125 171.162L72.4019 174.195C71.8654 174.431 71.3074 174.674 70.728 174.91C70.1393 175.114 69.5399 175.286 68.9325 175.425L68.7966 175.461C68.2529 175.589 67.6234 175.74 66.9796 175.84C66.0892 175.972 65.19 176.036 64.2899 176.033ZM38.3729 160.468L39.2027 163.636C39.2528 163.837 39.2885 163.98 39.3386 164.123C39.3887 164.266 39.403 164.33 39.4316 164.438C39.5405 164.852 39.6915 165.255 39.8823 165.639C40.592 166.891 41.6854 167.882 43.0012 168.465C43.5735 168.751 44.1529 168.98 44.7109 169.18L45.5407 169.509L46.5851 169.96L46.7925 170.053L47.6438 170.425L49.1317 171.054L50.8342 171.77L52.6011 172.535L54.0962 173.186L54.6113 173.408C55.3266 173.708 56.0419 174.023 56.7573 174.309L57.0577 174.431C57.7573 174.714 58.4741 174.953 59.2038 175.146C60.191 175.403 61.1853 175.568 62.2011 175.732C62.9112 175.841 63.6288 175.894 64.3471 175.89C65.2188 175.887 66.0891 175.82 66.951 175.69C67.5948 175.589 68.2243 175.439 68.768 175.31L68.8967 175.275C69.5013 175.137 70.0983 174.967 70.6851 174.767C71.2645 174.552 71.8225 174.309 72.359 174.051H72.3948L79.4695 171.026C80.3923 170.632 81.3008 170.246 82.381 169.774L83.2251 169.409L84.8919 168.694C86.2149 168.197 87.3807 167.354 88.2683 166.255C88.7901 165.629 89.1292 164.872 89.2483 164.066C89.2641 164 89.2832 163.936 89.3055 163.873V163.801L89.4057 163.472L90.257 160.382L87.3455 161.719L85.8719 162.356L83.8832 163.222L81.7372 164.187L81.4224 164.33L79.9059 165.01L78.6183 165.575L78.3751 165.675L76.3149 166.569C75.8284 166.791 75.3205 167.013 74.8198 167.22C73.5465 167.771 72.5665 168.179 71.6293 168.565C71.2431 168.722 70.8568 168.901 70.4848 169.066C69.8084 169.405 69.1019 169.68 68.3745 169.888L67.7808 170.039C67.2804 170.181 66.7715 170.29 66.2571 170.368C63.9887 170.72 61.6673 170.451 59.54 169.588C58.3597 169.073 57.1579 168.565 55.9633 168.079L55.6199 168L53.7815 167.285L53.5597 167.192C52.3579 166.684 51.1061 166.154 49.8828 165.611C48.6596 165.067 47.6223 164.602 46.5207 164.101L45.5407 163.665L44.2459 163.071L43.9454 162.935L42.6793 162.356L41.6706 161.92L38.3729 160.468Z" fill="white"/>
<path d="M189.046 144.441C191.62 144.438 194.129 145.245 196.219 146.747C198.309 148.249 199.874 150.37 200.692 152.811L206.121 150.986C204.759 146.937 202.001 143.504 198.341 141.3C194.68 139.096 190.356 138.265 186.139 138.955C181.923 139.646 178.089 141.812 175.322 145.069C172.556 148.325 171.037 152.458 171.037 156.73C171.037 161.003 172.556 165.136 175.322 168.392C178.089 171.649 181.923 173.815 186.139 174.506C190.356 175.196 194.68 174.365 198.341 172.161C202.001 169.957 204.759 166.524 206.121 162.474L200.692 160.65C199.971 162.793 198.672 164.696 196.94 166.148C195.207 167.601 193.107 168.547 190.871 168.883C188.635 169.219 186.349 168.932 184.266 168.053C182.183 167.174 180.383 165.737 179.063 163.901C177.744 162.065 176.957 159.9 176.789 157.645C176.62 155.391 177.077 153.133 178.109 151.121C179.141 149.11 180.708 147.422 182.638 146.243C184.568 145.064 186.785 144.441 189.046 144.441Z" fill="#1D1D1B"/>
<path d="M222.91 169.019C222.267 169.022 221.63 168.898 221.035 168.654C220.44 168.411 219.9 168.052 219.444 167.599C218.988 167.145 218.626 166.607 218.379 166.013C218.131 165.42 218.004 164.784 218.003 164.141V146.258H223.511V140.536H218.003V132.953H212.28V140.536H208.989V146.258H212.28V164.141C212.284 166.951 213.402 169.646 215.389 171.633C217.376 173.62 220.071 174.738 222.881 174.742C224.126 174.741 225.36 174.523 226.53 174.098L224.591 168.719C224.053 168.919 223.484 169.021 222.91 169.019Z" fill="#1D1D1B"/>
<path d="M129.622 126.174C126.813 126.176 124.119 127.292 122.133 129.279C120.146 131.265 119.029 133.959 119.028 136.768V140.53H113.863V146.253H119.028V173.621H124.75V146.253H130.473V140.53H124.75V136.768C124.75 135.476 125.264 134.237 126.177 133.323C127.091 132.41 128.33 131.896 129.622 131.896C130.195 131.896 130.764 131.995 131.303 132.19L133.27 126.818C132.102 126.389 130.866 126.171 129.622 126.174Z" fill="#1D1D1B"/>
<path d="M275.703 143.576V139.735H269.98V173.626H275.703V156.73C275.707 153.472 277.003 150.349 279.307 148.045C281.611 145.741 284.735 144.445 287.993 144.441V138.719C283.428 138.717 279.033 140.453 275.703 143.576Z" fill="#1D1D1B"/>
<path d="M166.262 148.798C164.425 145.053 161.345 142.063 157.548 140.336C153.752 138.609 149.473 138.253 145.444 139.33C141.414 140.406 137.883 142.847 135.452 146.237C133.022 149.626 131.843 153.754 132.118 157.916C132.392 162.078 134.102 166.015 136.956 169.057C139.81 172.098 143.631 174.055 147.768 174.593C151.904 175.131 156.098 174.217 159.636 172.007C163.173 169.797 165.833 166.428 167.163 162.475L161.741 160.651C161.01 162.823 159.685 164.748 157.918 166.207C156.15 167.667 154.009 168.603 151.737 168.909C149.465 169.216 147.153 168.881 145.061 167.942C142.97 167.004 141.182 165.499 139.901 163.598L167.578 151.48L166.262 148.798ZM137.884 158.226C137.824 157.729 137.793 157.23 137.791 156.731C137.792 154.213 138.566 151.757 140.008 149.693C141.45 147.63 143.491 146.059 145.855 145.192C148.218 144.325 150.791 144.205 153.225 144.847C155.659 145.49 157.838 146.863 159.466 148.783L137.884 158.226Z" fill="#1D1D1B"/>
<path d="M258.435 143.576C255.871 141.177 252.661 139.581 249.201 138.982C245.741 138.384 242.182 138.81 238.961 140.207C235.74 141.605 232.998 143.914 231.071 146.849C229.145 149.785 228.119 153.219 228.119 156.73C228.119 160.242 229.145 163.676 231.071 166.612C232.998 169.547 235.74 171.856 238.961 173.254C242.182 174.651 245.741 175.077 249.201 174.479C252.661 173.88 255.871 172.284 258.435 169.885V173.626H264.158V139.735H258.435V143.576ZM246.138 169.02C243.708 169.018 241.333 168.296 239.312 166.945C237.292 165.594 235.718 163.674 234.789 161.428C233.86 159.183 233.618 156.712 234.093 154.329C234.568 151.945 235.739 149.756 237.458 148.038C239.177 146.32 241.367 145.151 243.75 144.677C246.134 144.203 248.605 144.447 250.85 145.377C253.095 146.308 255.014 147.883 256.364 149.904C257.715 151.924 258.435 154.3 258.435 156.73C258.431 159.99 257.134 163.114 254.829 165.419C252.523 167.723 249.398 169.018 246.138 169.02Z" fill="#1D1D1B"/>
</g>
<defs>
<clipPath id="clip0_463_503">
<rect width="260" height="71.8251" fill="white" transform="translate(28 122)"/>
</clipPath>
</defs>
</svg>
