<svg width="316" height="315" viewBox="0 0 316 315" fill="none" xmlns="http://www.w3.org/2000/svg">
<path d="M200.005 158.904C200.005 165.569 200.005 172.285 200.005 178.95C200.005 181.74 199.488 184.427 198.403 187.01C196.956 190.472 194.528 193.159 191.325 195.122C188.741 196.672 185.951 197.654 182.955 198.222C181.456 198.532 180.01 198.687 178.46 198.739C178.305 198.739 178.201 198.739 178.046 198.739C177.633 198.739 177.581 198.739 177.581 198.325C177.581 197.344 177.581 196.414 177.633 195.432C177.685 193.882 177.685 192.332 177.736 190.834C177.736 190.214 177.685 190.214 178.356 190.214C180.785 190.162 183.161 189.749 185.383 188.767C188.121 187.527 190.136 185.564 191.015 182.67C191.376 181.43 191.531 180.139 191.48 178.899C191.48 178.485 191.48 178.485 191.015 178.485C190.085 178.485 189.155 178.485 188.225 178.485C186.158 178.485 184.143 178.33 182.128 177.762C181.301 177.555 180.475 177.245 179.751 176.832C177.426 175.54 176.083 173.577 175.773 170.942C175.67 170.219 175.67 169.495 175.67 168.772C175.67 158.645 175.67 148.519 175.67 138.392C175.67 137.514 175.566 137.617 176.445 137.617C178.77 137.617 181.095 137.617 183.42 137.617C183.575 137.617 183.678 137.617 183.833 137.617C184.04 137.617 184.143 137.669 184.143 137.875C184.143 138.03 184.143 138.237 184.143 138.392C184.143 148.364 184.143 158.387 184.143 168.359C184.143 168.72 184.143 169.03 184.246 169.392C184.453 170.477 185.073 171.097 186.106 171.355C187.243 171.614 188.38 171.614 189.516 171.355C190.705 171.097 191.428 170.167 191.48 168.927C191.48 168.617 191.48 168.307 191.48 168.049C191.48 158.18 191.48 148.26 191.48 138.392C191.48 137.514 191.376 137.617 192.255 137.617C194.58 137.617 196.956 137.617 199.281 137.617C199.436 137.617 199.54 137.617 199.695 137.617C199.901 137.617 200.005 137.72 200.005 137.927C200.005 138.082 200.005 138.237 200.005 138.392C200.005 145.212 200.005 152.032 200.005 158.904Z" fill="black"/>
<path d="M252.085 137.823C252.24 137.616 252.137 137.358 252.137 137.151C252.137 133.896 252.137 130.641 252.137 127.438C252.137 127.283 252.137 127.128 252.137 126.973C252.137 126.766 252.24 126.663 252.447 126.663C252.705 126.663 252.912 126.663 253.17 126.663C255.495 126.663 257.769 126.663 260.094 126.663C260.714 126.663 260.714 126.611 260.714 127.283C260.714 132.811 260.714 138.34 260.714 143.868C260.714 155.131 260.714 166.395 260.714 177.71C260.714 178.588 260.765 178.485 259.939 178.485C255.185 178.485 250.432 178.485 245.679 178.485C244.387 178.485 243.147 178.381 241.907 177.968C240.254 177.451 239.065 176.418 238.187 175.023C236.947 173.111 236.43 170.941 236.43 168.72C236.43 161.538 236.43 154.356 236.43 147.175C236.43 145.005 236.947 142.99 238.239 141.181C239.634 139.218 241.545 138.03 243.922 137.513C246.247 136.996 248.572 136.996 250.897 137.616C251.31 137.565 251.672 137.771 252.085 137.823ZM252.189 158.025C252.189 155.906 252.189 153.84 252.189 151.721C252.189 150.223 252.189 148.776 252.189 147.278C252.189 146.09 251.672 145.315 250.639 144.798C249.657 144.281 248.572 144.23 247.539 144.436C245.627 144.798 244.852 145.831 244.955 147.588C244.955 147.64 244.955 147.691 244.955 147.691C244.955 154.563 244.955 161.383 244.955 168.255C244.955 168.461 244.955 168.668 244.955 168.875C245.007 169.908 245.472 170.683 246.402 171.148C247.435 171.613 248.469 171.768 249.554 171.561C251.155 171.251 252.292 170.373 252.189 168.513C252.189 168.41 252.189 168.255 252.189 168.151C252.189 164.793 252.189 161.435 252.189 158.025Z" fill="black"/>
<path d="M205.533 157.974C205.533 151.464 205.533 144.954 205.533 138.444C205.533 138.34 205.533 138.185 205.533 138.082C205.533 137.565 205.533 137.565 206.05 137.565C210.752 137.565 215.453 137.565 220.155 137.565C222.48 137.565 224.702 138.134 226.768 139.27C229.145 140.562 230.385 142.629 230.953 145.212C231.108 145.935 231.108 146.659 231.108 147.382C231.108 157.509 231.108 167.635 231.108 177.762C231.108 177.865 231.108 178.02 231.108 178.124C231.108 178.382 231.005 178.434 230.798 178.434C230.54 178.434 230.333 178.434 230.075 178.434C227.75 178.434 225.477 178.434 223.152 178.434C222.428 178.434 222.48 178.537 222.48 177.762C222.48 167.894 222.48 157.974 222.48 148.105C222.48 147.795 222.48 147.485 222.48 147.124C222.428 146.349 222.067 145.729 221.447 145.315C219.69 144.075 216.848 144.075 215.195 145.419C214.627 145.832 214.317 146.4 214.265 147.124C214.265 147.434 214.265 147.744 214.265 148.105C214.265 157.974 214.265 167.842 214.265 177.71C214.265 178.589 214.368 178.485 213.49 178.485C211.113 178.485 208.737 178.485 206.308 178.485C206.205 178.485 206.05 178.485 205.947 178.485C205.637 178.537 205.585 178.382 205.585 178.072C205.585 177.917 205.585 177.762 205.585 177.607C205.533 170.994 205.533 164.484 205.533 157.974Z" fill="black"/>
<path d="M136.197 137.1C136.197 137.668 136.248 138.236 136.248 138.753C136.248 149.086 136.248 159.42 136.248 169.805C136.248 170.425 136.093 170.786 135.628 171.2C129.222 176.47 122.867 181.791 116.512 187.113C116.357 187.268 116.202 187.423 115.995 187.526C115.943 187.475 115.892 187.423 115.84 187.371C115.943 187.32 115.995 187.216 115.995 187.113C115.995 176.16 115.995 165.258 115.995 154.305C115.995 154.15 115.995 154.046 115.84 153.943C115.84 153.84 115.84 153.788 115.892 153.685H115.943H115.995C116.15 153.685 116.253 153.581 116.408 153.478C116.977 153.013 117.545 152.548 118.113 152.083C118.992 151.36 119.87 150.636 120.748 149.913C121.523 149.241 122.298 148.621 123.073 148.001C123.9 147.33 124.778 146.606 125.605 145.935C126.432 145.263 127.258 144.54 128.085 143.868C128.963 143.145 129.893 142.37 130.772 141.646C131.34 141.181 131.908 140.716 132.477 140.251C133.355 139.528 134.233 138.805 135.112 138.081C135.422 137.668 135.732 137.203 136.197 137.1Z" fill="#00919B"/>
<path d="M75.1267 187.32C73.7833 186.183 72.3883 185.098 71.045 183.961C65.8267 179.621 60.6083 175.281 55.4417 170.993C55.1317 170.735 55.0283 170.476 55.0283 170.115C55.0283 159.265 55.0283 148.415 55.0283 137.565C55.0283 137.41 55.0283 137.255 55.0283 137.1C55.4933 137.255 55.855 137.668 56.2167 137.978C57.3017 138.856 58.3867 139.735 59.4717 140.613C60.5567 141.543 61.6417 142.421 62.7267 143.351C64.07 144.436 65.3617 145.521 66.705 146.606C67.9967 147.691 69.2883 148.776 70.5283 149.81C71.9233 150.998 73.37 152.135 74.765 153.323C74.92 153.426 75.075 153.53 75.23 153.53C75.23 153.633 75.23 153.685 75.23 153.736C75.23 164.638 75.23 175.54 75.23 186.441C75.23 186.596 75.23 186.803 75.23 186.958C75.2817 187.113 75.23 187.216 75.1267 187.32Z" fill="#D32385"/>
<path d="M115.84 187.32C115.892 187.372 115.944 187.424 115.995 187.475C114.497 188.715 112.999 190.007 111.449 191.247C107.522 194.502 103.595 197.757 99.6686 201.012C98.8936 201.684 98.0152 202.252 96.9819 202.459C95.2769 202.82 93.6752 202.562 92.2286 201.477C91.2469 200.754 90.3169 199.927 89.3869 199.152C84.8402 195.38 80.2936 191.609 75.7469 187.837C75.6436 187.734 75.4886 187.63 75.3853 187.527C75.8503 186.959 76.4702 186.597 76.9869 186.132C79.0536 184.427 81.0686 182.67 83.1353 180.965C85.3569 179.105 87.6302 177.245 89.9036 175.385C91.8152 173.784 93.6752 172.234 95.5869 170.632C95.6386 170.632 95.6903 170.632 95.7419 170.632C96.0003 170.994 96.4136 171.2 96.7236 171.51C98.7386 173.164 100.754 174.817 102.717 176.47C104.525 177.969 106.334 179.519 108.142 181.017C110.002 182.567 111.862 184.117 113.722 185.667C114.342 186.184 114.859 186.7 115.53 187.114C115.634 187.165 115.737 187.269 115.84 187.32Z" fill="#764D99"/>
<path d="M151.025 152.445C151.025 144.075 151.025 135.705 151.025 127.335C151.025 126.508 150.921 126.612 151.748 126.612C157.896 126.612 164.045 126.612 170.245 126.612C170.296 126.612 170.348 126.612 170.348 126.612C171.02 126.612 170.968 126.56 170.968 127.232C170.968 129.195 170.968 131.21 170.968 133.173C170.968 133.328 170.968 133.535 170.968 133.69C170.968 134.207 170.968 134.207 170.451 134.207C167.816 134.207 165.13 134.207 162.495 134.207C161.875 134.207 161.255 134.207 160.635 134.207C159.808 134.207 159.911 134.155 159.911 134.93C159.911 137.875 159.911 140.82 159.911 143.765C159.911 145.522 159.911 147.278 159.911 149.035C159.911 149.603 159.911 149.603 160.48 149.603C163.683 149.603 166.886 149.603 170.09 149.603C170.245 149.603 170.348 149.603 170.503 149.603C170.968 149.603 170.968 149.603 170.968 150.068C170.968 152.29 170.968 154.512 170.968 156.733C170.968 157.25 170.968 157.25 170.4 157.25C167.196 157.25 163.941 157.25 160.686 157.25C159.705 157.25 159.86 157.147 159.86 158.077C159.86 164.587 159.86 171.148 159.86 177.658C159.86 178.485 159.963 178.382 159.136 178.382C156.656 178.382 154.176 178.382 151.696 178.382C151.593 178.382 151.438 178.382 151.335 178.382C151.076 178.382 150.973 178.278 150.973 178.02C150.973 177.865 150.973 177.71 150.973 177.555C151.025 169.185 151.025 160.815 151.025 152.445Z" fill="black"/>
<path d="M95.5865 170.631C93.6748 172.233 91.8148 173.835 89.9031 175.385C87.6815 177.245 85.4081 179.105 83.1348 180.965C81.0681 182.67 79.0531 184.375 76.9865 186.131C76.4181 186.596 75.8498 187.01 75.3848 187.526C75.2815 187.526 75.1781 187.475 75.1265 187.32C75.2298 187.268 75.2815 187.113 75.2815 187.01C75.2815 186.855 75.2815 186.648 75.2815 186.493C75.2815 175.591 75.2815 164.69 75.2815 153.788C75.3331 153.788 75.3848 153.788 75.3848 153.788C75.7981 154.15 76.2115 154.46 76.6248 154.821C80.6031 158.128 84.5815 161.435 88.5598 164.741C90.9365 166.705 93.2615 168.668 95.5865 170.631Z" fill="#DC408F"/>
<path d="M75.3851 153.788C75.3334 153.788 75.2817 153.788 75.2817 153.788C75.2817 153.685 75.2817 153.633 75.2817 153.581C75.2817 153.426 75.2817 153.323 75.2817 153.168C75.2817 142.731 75.2817 132.295 75.2817 121.858C76.7284 121.755 77.9167 122.22 79.0017 123.098C81.4301 125.113 83.8584 127.128 86.2867 129.143C89.3351 131.675 92.3834 134.206 95.4317 136.738C95.5351 136.79 95.5867 136.841 95.6901 136.893C95.6901 136.945 95.7417 136.996 95.7417 137.048C95.5351 137.048 95.4317 137.151 95.2767 137.306C92.4351 139.683 89.5417 142.06 86.7001 144.436C83.7551 146.916 80.7584 149.345 77.7617 151.825C76.9867 152.445 76.1601 153.065 75.3851 153.788Z" fill="#E05E9C"/>
<path d="M95.7416 136.996C95.7416 136.945 95.6899 136.893 95.6899 136.841C98.1183 134.826 100.495 132.811 102.923 130.796C105.972 128.265 108.968 125.785 112.017 123.253C112.792 122.581 113.67 122.065 114.703 121.858C115.117 121.755 115.53 121.755 115.943 121.806C115.943 132.398 115.943 143.041 115.943 153.633H115.892H115.84C115.633 153.478 115.478 153.375 115.272 153.22C109.898 148.725 104.473 144.281 99.0999 139.786C98.0149 138.856 96.8783 137.926 95.7416 136.996Z" fill="#00ACAB"/>
<path d="M115.943 153.634C115.943 143.042 115.943 132.399 115.943 121.807C117.39 121.704 118.63 122.22 119.715 123.15C120.903 124.132 122.143 125.165 123.332 126.147C127.465 129.609 131.65 133.019 135.783 136.48C135.938 136.635 136.3 136.739 136.248 137.049C135.732 137.204 135.473 137.617 135.06 137.927C134.182 138.599 133.303 139.374 132.425 140.097C131.857 140.562 131.288 141.027 130.72 141.492C129.842 142.215 128.912 142.939 128.033 143.714C127.207 144.385 126.38 145.109 125.553 145.78C124.727 146.504 123.848 147.175 123.022 147.847C122.247 148.519 121.472 149.139 120.697 149.759C119.818 150.482 118.94 151.205 118.062 151.929C117.493 152.394 116.925 152.859 116.357 153.324C116.253 153.53 116.15 153.685 115.943 153.634Z" fill="#049EA4"/>
<path d="M75.2816 121.807C75.2816 132.243 75.2816 142.68 75.2816 153.117C75.2816 153.272 75.2816 153.375 75.2816 153.53C75.0749 153.53 74.9199 153.427 74.8166 153.323C73.4216 152.135 71.9749 150.998 70.5799 149.81C69.2883 148.725 67.9966 147.64 66.7566 146.607C65.4133 145.522 64.1216 144.437 62.7783 143.352C61.6933 142.473 60.6083 141.543 59.5233 140.613C58.4383 139.735 57.3533 138.857 56.2683 137.978C55.9066 137.668 55.5449 137.255 55.0799 137.1C55.0283 136.842 55.2349 136.79 55.3383 136.687C58.0249 134.465 60.6599 132.243 63.3466 130.073C66.0333 127.8 68.7716 125.578 71.4583 123.305C72.2333 122.633 73.1116 122.117 74.1449 121.91C74.5066 121.807 74.8683 121.807 75.2816 121.807Z" fill="#DC408F"/>
<path d="M95.7417 170.58C97.24 169.34 98.7384 168.049 100.237 166.809C105.197 162.675 110.157 158.594 115.065 154.46C115.22 154.357 115.323 154.15 115.53 154.099C115.685 154.15 115.788 154.254 115.943 154.254C115.943 165.207 115.943 176.109 115.943 187.062C115.788 187.062 115.685 187.062 115.53 187.062C114.858 186.649 114.29 186.08 113.722 185.615C111.862 184.065 110.002 182.515 108.142 180.965C106.333 179.467 104.525 177.917 102.717 176.419C100.702 174.765 98.6867 173.112 96.7234 171.459C96.3617 171.2 96 170.942 95.7417 170.58Z" fill="#049EA4"/>
<path d="M115.943 154.253C115.788 154.253 115.685 154.15 115.53 154.098C115.581 153.995 115.685 153.892 115.788 153.892C115.995 153.995 115.943 154.15 115.943 154.253Z" fill="#717070"/>
<path d="M115.582 187.062C115.737 187.062 115.84 187.062 115.995 187.062C115.995 187.165 115.995 187.268 115.84 187.32C115.737 187.268 115.633 187.165 115.582 187.062Z" fill="#717070"/>
</svg>
