<svg width="316" height="315" viewBox="0 0 316 315" fill="none" xmlns="http://www.w3.org/2000/svg">
<path d="M15.2871 126.737C22.5166 119.68 32.3281 116.065 42.1395 115.205C57.2871 114.86 72.2625 123.123 79.8363 136.205C69.8527 145.328 60.3854 154.623 50.9182 163.918C42.3117 161.164 33.8772 157.721 25.4428 154.623C18.2133 159.442 10.8117 164.09 3.58217 168.737C-1.06537 153.934 4.09856 137.065 15.2871 126.737Z" fill="#5367FF" stroke="#5367FF" stroke-width="0.161373"/>
<path d="M79.8361 136.205C81.0411 138.787 82.0738 141.369 83.2788 143.951C71.9181 151.869 64.1722 164.262 52.123 171.492C43.5165 170.459 36.1148 164.435 27.3361 163.402C19.9345 167.016 13.7378 172.525 5.99187 175.279C5.13121 173.213 4.27056 170.975 3.58203 168.738C10.8115 164.09 18.2132 159.443 25.4427 154.623C33.8771 157.721 42.3115 161.164 50.9181 163.918C60.3853 154.623 69.8525 145.328 79.8361 136.205Z" fill="#00FFC4" stroke="#00FFC4" stroke-width="0.161373"/>
<path d="M116.672 139.991C124.935 133.45 137.5 134.483 145.59 141.196C144.213 142.917 142.664 144.639 141.287 146.36C136.123 143.261 129.41 140.507 123.558 143.778C114.09 148.598 113.402 163.917 122.353 169.597C127.689 173.212 134.574 171.835 139.91 169.081C139.91 166.327 139.91 163.745 139.91 160.991C136.467 160.991 133.025 160.991 129.41 160.991C129.41 159.442 129.41 156.171 129.41 154.622C135.262 154.622 141.115 154.622 146.967 154.622C146.967 160.475 146.967 166.499 146.967 172.352C138.533 178.72 126.312 181.13 117.361 174.761C105.656 167.188 105.484 148.253 116.672 139.991Z" fill="#444444" stroke="#444444" stroke-width="0.161373"/>
<path d="M52.1228 171.492C64.172 164.263 71.9179 151.869 83.2786 143.951C83.9671 146.877 84.4835 149.804 85.172 152.902C75.0163 159.959 66.2376 168.91 57.4589 177.517C55.9097 178.722 54.3606 180.443 52.295 180.959C43.5163 180.443 36.1146 174.246 27.336 173.558C21.3114 175.795 16.3196 180.099 10.9835 183.369C9.26219 180.787 7.54088 178.033 5.9917 175.279C13.7376 172.525 19.9343 167.017 27.336 163.402C36.1146 164.435 43.5163 170.459 52.1228 171.492Z" fill="#00EBB4" stroke="#00EBB4" stroke-width="0.161373"/>
<path d="M155.229 146.36C156.951 146.36 160.566 146.36 162.287 146.36C162.287 148.598 162.287 150.664 162.287 152.901C164.869 149.114 168.484 145.672 173.475 145.672C173.475 147.393 173.648 151.008 173.648 152.729C170.205 153.934 165.902 154.623 164.008 158.41C161.254 164.434 162.631 171.319 162.287 177.688C160.049 177.86 157.639 177.86 155.229 178.032C155.229 167.532 155.229 156.86 155.229 146.36Z" fill="#444444" stroke="#444444" stroke-width="0.161373"/>
<path d="M187.59 147.393C199.123 141.197 214.443 152.729 210.828 165.639C208.762 177.688 192.238 182.68 183.459 174.246C174.852 167.188 177.09 151.697 187.59 147.393ZM191.033 152.729C183.975 155.311 183.459 166.156 189.139 170.459C194.475 174.59 203.771 170.975 203.771 164.09C205.664 156.688 198.09 149.803 191.033 152.729Z" fill="#444444" stroke="#444444" stroke-width="0.161373"/>
<path d="M216.336 146.36C218.057 146.36 221.672 146.36 223.393 146.36C225.631 153.417 227.524 160.474 229.762 167.532C232.172 160.474 234.41 153.417 236.647 146.36C238.197 146.36 241.123 146.188 242.672 146.188C245.082 153.245 246.975 160.646 250.074 167.532C251.967 160.302 253.861 153.073 256.615 146.188C258.164 146.188 261.262 146.36 262.811 146.532C260.229 157.204 256.27 167.532 252.828 178.204C251.279 178.204 248.352 178.032 246.803 178.032C244.393 171.491 242.5 164.778 240.09 158.237C236.131 164.089 235.442 171.663 232.344 178.204C230.795 178.204 227.869 178.032 226.32 178.032C223.049 167.532 219.434 157.032 216.336 146.36Z" fill="#444444" stroke="#444444" stroke-width="0.161373"/>
<path d="M266.599 146.36C268.492 146.36 271.935 146.36 273.656 146.36C276.066 153.417 277.959 160.474 280.025 167.704C283.123 160.819 283.984 152.901 287.771 146.188C288.976 146.188 291.386 146.188 292.59 146.188C296.205 152.901 297.238 160.819 300.336 167.704C302.23 160.474 304.295 153.417 306.705 146.36C308.427 146.36 311.869 146.36 313.59 146.36C310.148 157.032 307.049 167.876 303.09 178.204C301.541 178.204 298.443 178.032 297.066 178.032C294.828 170.802 292.418 163.745 290.181 156.687C287.254 163.745 286.222 171.663 282.263 178.204C281.058 178.204 278.648 178.204 277.443 178.204C272.623 168.048 270.386 156.86 266.599 146.36Z" fill="#444444" stroke="#444444" stroke-width="0.161373"/>
<path d="M57.4591 177.516C66.2377 168.91 75.0164 159.959 85.1722 152.901C85.3443 156.344 85.1722 159.787 85 163.229C75.8771 169.598 67.6148 177 60.041 185.262C57.6312 187.5 55.3935 190.254 52.2951 191.287C43.8607 190.598 36.8033 185.09 28.541 183.713C24.0656 184.573 20.2787 186.983 16.3197 189.049C14.5984 187.155 12.705 185.262 10.9836 183.369C16.3197 180.098 21.3115 175.795 27.3361 173.557C36.1148 174.246 43.5164 180.442 52.2951 180.959C54.3607 180.442 55.9099 178.721 57.4591 177.516Z" fill="#00D8A5" stroke="#00D8A5" stroke-width="0.161373"/>
<path d="M60.0411 185.261C67.6149 176.999 75.8772 169.597 85.0002 163.229C82.4182 183.196 64.0002 199.204 43.8608 199.204C33.8772 199.204 24.0657 195.245 16.3198 189.048C20.2788 186.983 24.0657 184.573 28.5411 183.712C36.8034 185.089 43.8608 190.597 52.2952 191.286C55.3936 190.253 57.6313 187.499 60.0411 185.261Z" fill="#00C798" stroke="#00C798" stroke-width="0.161373"/>
</svg>
