<svg width="316" height="315" viewBox="0 0 316 315" fill="none" xmlns="http://www.w3.org/2000/svg">
<path d="M1 131.031H316V183.527H1V131.031Z" fill="#004C8F"/>
<path d="M53.5022 131.031H316V183.527H53.5022V131.031Z" fill="#004C8F"/>
<path d="M70.1956 169.698V144.859H78.3672V153.243H86.0244V144.859H94.2082V169.698H86.0244V160.061H78.3672V169.698H70.1956ZM107.14 151.031H109.258C110.783 151.031 111.899 151.189 112.612 151.506C113.139 151.736 113.568 152.081 113.945 152.595C114.288 153.103 114.566 153.744 114.77 154.549C114.955 155.348 115.054 156.193 115.054 157.083C115.054 158.536 114.856 159.75 114.426 160.734C114.01 161.717 113.41 162.424 112.638 162.859C111.866 163.302 110.717 163.513 109.199 163.513L107.14 163.526V151.031ZM110.295 169.698C112.222 169.698 113.82 169.54 115.126 169.19C116.44 168.853 117.509 168.405 118.327 167.869C119.16 167.321 119.911 166.582 120.605 165.664C121.291 164.714 121.893 163.52 122.36 162.055C122.843 160.596 123.073 158.952 123.073 157.091C123.073 154.358 122.552 152.048 121.497 150.121C120.427 148.233 118.974 146.866 117.119 146.062C115.272 145.255 113.067 144.859 110.505 144.859H99.1459V169.698H110.295ZM126.817 169.698V144.859H146.196V150.985H134.882V154.965H143.933V160.925H134.882V169.698H126.817ZM173.562 154.358H165.847C165.701 153.123 165.252 152.147 164.506 151.447C163.754 150.76 162.81 150.423 161.648 150.423C160.203 150.423 159.028 150.985 158.124 152.094C157.213 153.216 156.757 155.031 156.757 157.527C156.757 159.269 156.962 160.576 157.338 161.467C157.728 162.384 158.275 163.045 158.955 163.487C159.655 163.929 160.506 164.134 161.555 164.134C162.81 164.134 163.813 163.816 164.546 163.091C165.298 162.41 165.734 161.395 165.88 160.034H173.734C173.562 161.579 173.252 162.872 172.803 163.929C172.375 164.979 171.608 166.022 170.573 167.071C169.509 168.142 168.232 168.977 166.823 169.52C165.377 170.094 163.708 170.365 161.793 170.365C159.906 170.365 158.143 170.094 156.553 169.54C154.942 168.972 153.582 168.166 152.499 167.156C151.397 166.107 150.539 164.932 149.926 163.605C149.04 161.738 148.625 159.684 148.625 157.394C148.625 155.479 148.935 153.664 149.563 152.002C150.189 150.351 151.055 148.946 152.156 147.81C153.265 146.68 154.473 145.836 155.82 145.268C157.523 144.542 159.397 144.193 161.476 144.193C163.285 144.193 164.961 144.457 166.546 144.991C168.123 145.526 169.418 146.305 170.427 147.342C171.443 148.365 172.244 149.581 172.783 150.918C173.179 151.863 173.43 153.005 173.562 154.358ZM199.735 150.451C200.89 150.451 201.636 150.503 202.006 150.609C202.46 150.738 202.864 151.006 203.16 151.374C203.45 151.744 203.603 152.173 203.603 152.669C203.603 153.302 203.352 153.823 202.87 154.219C202.354 154.636 201.477 154.827 200.215 154.827H197.14V150.45L199.735 150.451ZM201.786 169.698C203.721 169.698 205.081 169.606 205.879 169.435C206.714 169.231 207.526 168.943 208.302 168.576C209.108 168.153 209.729 167.757 210.137 167.322C210.771 166.734 211.239 166.022 211.583 165.163C211.926 164.298 212.098 163.322 212.098 162.272C212.098 160.774 211.727 159.54 210.976 158.536C210.223 157.527 209.213 156.86 207.939 156.496C210.097 155.136 211.173 153.381 211.173 151.242C211.173 149.031 210.223 147.342 208.342 146.193C206.889 145.308 204.625 144.859 201.556 144.859H189.233V169.698H201.786ZM200.474 159.295C202.091 159.295 203.14 159.492 203.669 159.909C204.157 160.312 204.421 160.866 204.421 161.612C204.421 162.364 204.157 162.959 203.623 163.375C203.114 163.817 202.052 164.001 200.474 164.001H197.14V159.295H200.474ZM230.045 161.349H224.85L227.411 152.311L230.045 161.349ZM222.408 169.698L223.351 166.438H231.484L232.435 169.698H240.56L231.649 144.859H223.351L214.434 169.698H222.408ZM243.992 169.698V144.859H251.603L260.19 158.159V144.859H268.019V169.698H260.243L251.84 156.728V169.698H243.992ZM273.464 169.698V144.859H281.379V153.051L288.765 144.859H298.362L289.26 154.212L299.307 169.698H289.525L283.55 159.803L281.378 161.949V169.698H273.464Z" fill="white"/>
<path d="M1 131.031H53.4956V183.527H1V131.031Z" fill="#ED232A"/>
<path d="M10.1875 140.219H44.3135V174.345H10.1875V140.219Z" fill="white"/>
<path d="M24.6233 131.031H29.8714V183.527H24.6233V131.031Z" fill="white"/>
<path d="M1 154.661H53.4956V159.909H1V154.661Z" fill="white"/>
<path d="M19.3762 149.406H35.125V165.156H19.3762V149.406Z" fill="#004C8F"/>
</svg>
