<svg width="316" height="315" viewBox="0 0 316 315" fill="none" xmlns="http://www.w3.org/2000/svg">
<path fill-rule="evenodd" clip-rule="evenodd" d="M54.4376 171.749C54.4376 173.787 52.7862 175.437 50.7497 175.437H22.7825C20.7452 175.437 19.0938 173.787 19.0938 171.749V143.782C19.0938 141.745 20.7452 140.094 22.7825 140.094H50.7497C52.7862 140.094 54.4376 141.745 54.4376 143.782V171.749Z" fill="#FFDC00"/>
<path fill-rule="evenodd" clip-rule="evenodd" d="M36.765 150.308L24.8901 162.183C24.8901 162.183 27.3017 164.593 27.6513 164.943C28.0008 165.293 28.4616 165.336 28.8474 164.952C29.1638 164.635 36.2272 157.462 36.2272 157.462C36.6053 157.053 36.7365 156.753 36.765 156.64C36.7952 156.753 36.9263 157.053 37.3037 157.462C37.3037 157.462 44.3671 164.635 44.6842 164.952C45.0693 165.337 45.5308 165.294 45.8804 164.943C46.2307 164.593 48.6407 162.183 48.6407 162.183L36.765 150.308Z" fill="#7323DC"/>
<path d="M71.7374 161.509C71.7374 162.463 72.2915 163.031 73.2198 163.031H80.6204C80.9098 163.031 81.21 163 81.4925 162.946C81.4531 163.2 81.433 163.486 81.433 163.802V171.372C81.433 172.312 81.9731 172.853 82.9154 172.853H87.5402V157.046H71.7373L71.7374 161.509Z" fill="black"/>
<path d="M63.5986 144.199V171.413C63.5986 172.33 64.1535 172.854 65.1212 172.854H69.7059V142.677H65.1212C64.1535 142.677 63.5986 143.232 63.5986 144.199Z" fill="black"/>
<path d="M82.9163 142.677C81.9733 142.677 81.4331 143.218 81.4331 144.161V153.534C81.4331 154.477 81.9733 155.019 82.9163 155.019H87.5396V142.677H82.9163Z" fill="black"/>
<path d="M104.658 142.233C97.3271 142.233 92.9492 146.489 92.9492 153.617V162.032C92.9492 169.087 97.3271 173.298 104.658 173.298C111.879 173.298 116.366 168.935 116.366 161.912V153.497C116.366 146.55 111.879 142.233 104.658 142.233ZM99.0557 153.617C99.0557 149.846 100.939 147.935 104.658 147.935C108.376 147.935 110.26 149.846 110.26 153.617V161.912C110.26 165.682 108.376 167.595 104.658 167.595C100.939 167.595 99.0557 165.682 99.0557 161.912V153.617Z" fill="black"/>
<path d="M139.684 142.676C138.73 142.676 138.161 143.231 138.161 144.16V162.074C138.161 165.738 136.397 167.596 132.921 167.596C129.469 167.596 127.721 165.738 127.721 162.074V142.676H123.097C122.155 142.676 121.615 143.217 121.615 144.16V162.314C121.615 169.192 125.841 173.298 132.921 173.298C139.919 173.298 144.266 169.09 144.266 162.314V142.676H139.684Z" fill="black"/>
<path d="M162.03 155.136C156.955 153.283 155.581 152.519 155.581 150.68C155.581 148.862 157.074 147.775 159.574 147.775C161.696 147.775 163.024 148.593 163.885 150.436C164.188 151.044 164.595 151.339 165.129 151.339C165.356 151.339 165.599 151.284 165.854 151.176L169.722 149.769L169.614 149.442C168.012 144.592 164.741 142.233 159.613 142.233C153.549 142.233 149.476 145.627 149.476 150.68C149.476 155.93 152.83 158.198 158.244 160.154C162.509 161.693 163.929 162.54 163.929 164.529C163.929 166.489 162.234 167.756 159.613 167.756C156.814 167.756 155.161 166.734 154.554 164.61C154.264 163.788 153.701 163.614 153.281 163.614C153.068 163.614 152.828 163.66 152.571 163.749L148.723 165.106L148.801 165.418C150.102 170.721 153.6 173.298 159.493 173.298C165.798 173.298 170.034 169.693 170.034 164.327C170.034 159.991 167.565 157.157 162.03 155.136Z" fill="black"/>
<path d="M176.443 142.676C175.49 142.676 174.92 143.231 174.92 144.16V171.374C174.92 172.302 175.49 172.856 176.443 172.856H181.026V142.676H176.443Z" fill="black"/>
<path d="M206.678 142.676C205.736 142.676 205.195 143.217 205.195 144.16V158.771C205.195 160.69 205.249 162.574 205.362 164.483C204.553 162.329 203.681 160.139 202.731 158.095L195.307 142.676H189.045C188.041 142.676 187.441 143.275 187.441 144.279V171.374C187.441 172.302 188.01 172.856 188.965 172.856H193.347V156.678C193.347 154.655 193.284 152.727 193.155 150.834C193.943 152.907 194.879 155.253 195.972 157.441L202.975 171.527C203.423 172.47 204.006 172.856 204.988 172.856H211.058V142.676H206.678Z" fill="black"/>
<path d="M227.98 155.841L227.936 159.738C227.936 160.68 228.476 161.22 229.418 161.22H232.64C232.953 161.22 233.228 161.203 233.469 161.16C233.431 161.378 233.411 161.616 233.411 161.871V163.24C233.411 166.009 231.5 167.596 228.171 167.596C224.453 167.596 222.568 165.656 222.568 161.831V153.698C222.568 149.821 224.401 147.935 228.171 147.935C230.682 147.935 232.284 149.005 233.072 151.209C233.387 152.047 234.118 152.351 235.008 152.024L239.117 150.625L239.018 150.297C237.401 144.871 233.853 142.232 228.172 142.232H228.073C220.802 142.232 216.462 146.443 216.462 153.497V162.032C216.462 169.088 220.839 173.298 228.171 173.298C234.733 173.298 239.316 169.063 239.316 163V155.841L227.98 155.841Z" fill="black"/>
<path d="M272.431 161.084V166.2C272.431 168.713 271.122 170.042 268.646 170.042C266.171 170.042 264.862 168.713 264.862 166.2V161.084C264.862 158.571 266.171 157.243 268.646 157.243C271.122 157.243 272.431 158.571 272.431 161.084ZM268.646 154.097C264.129 154.097 261.432 156.731 261.432 161.141V166.313C261.432 170.654 264.129 173.244 268.646 173.244C273.163 173.244 275.86 170.611 275.86 166.2V161.027C275.86 156.687 273.163 154.097 268.646 154.097Z" fill="black"/>
<path d="M252.433 157.449C254.118 157.449 255.236 158.182 255.765 159.651C255.952 160.087 256.26 160.217 256.747 160.056L259.149 159.255L258.994 158.824C257.905 155.781 255.756 154.303 252.43 154.303L252.29 154.302C247.863 154.302 245.219 156.892 245.219 161.232V166.108C245.219 170.448 247.863 173.039 252.29 173.039L252.433 173.039C255.758 173.039 257.905 171.559 258.995 168.517L259.149 168.086L256.746 167.286C256.267 167.126 255.957 167.245 255.765 167.69C255.239 169.152 254.118 169.892 252.433 169.892C249.922 169.892 248.649 168.581 248.649 165.995V161.347C248.649 158.76 249.922 157.449 252.433 157.449Z" fill="black"/>
<path d="M294.07 154.487C293.692 154.487 293.359 154.715 293.221 155.067L287.995 168.196L282.54 154.487H279.994C279.491 154.487 279.082 154.896 279.082 155.399V171.942C279.082 172.444 279.491 172.852 279.994 172.852H282.313V162.839L285.967 172.246C286.097 172.609 286.442 172.852 286.826 172.852H289.795L293.674 162.838V171.942C293.674 172.444 294.083 172.852 294.586 172.852H296.906V154.487H294.07Z" fill="black"/>
<path d="M242.652 170.158H240.854C240.607 170.158 240.407 170.359 240.407 170.607V172.404C240.407 172.652 240.607 172.852 240.854 172.852H242.652C242.9 172.852 243.101 172.652 243.101 172.404V170.607C243.101 170.359 242.9 170.158 242.652 170.158Z" fill="black"/>
</svg>
