<svg width="316" height="315" viewBox="0 0 316 315" fill="none" xmlns="http://www.w3.org/2000/svg">
<g clip-path="url(#clip0_433_791)">
<path d="M164.161 178.448H89.0488V103.336H164.161V178.448Z" fill="#FFCB04"/>
<path d="M94.8042 176.914H19.6924V101.798H94.8042V176.914Z" fill="#BC8CBF"/>
<path d="M226.705 175.621H151.598V100.514H226.705V175.621Z" fill="#F16669"/>
<path d="M296.967 176.914H221.859V101.798H296.967V176.914Z" fill="#F79448"/>
<path d="M89.0542 176.914H94.8051V103.333H89.0542V176.914Z" fill="#C9749C"/>
<path d="M151.595 175.621H164.161V103.336H151.595V175.621Z" fill="#F04E30"/>
<path d="M226.705 101.803H221.862V175.621H226.705V101.803Z" fill="#F04E29"/>
<path d="M178.634 169.716V108.996H205.529V117.481H188.563V133.686H200.971V142.465H188.563V169.716H178.634Z" fill="#231F20"/>
<path d="M51.1504 169.716H60.4723V108.996H51.1504V169.716Z" fill="#231F20"/>
<path d="M128.906 150.892C128.906 154.467 128.047 157.211 126.911 158.527C125.779 159.848 124 161.088 120.993 161.088H118.272V117.621H120.993C124 117.621 125.779 118.863 126.911 120.189C128.047 121.501 128.906 124.249 128.906 127.816V150.892ZM134.22 114.332C130.716 110.66 127.168 108.996 118.867 108.996H108.955V169.716H118.867C127.168 169.716 130.716 168.054 134.22 164.386C136.844 161.645 138.395 157.193 138.395 150.558V128.154C138.395 121.524 136.844 117.076 134.22 114.332Z" fill="#231F20"/>
<path d="M275.723 150.197C275.723 156.604 274.442 161.465 271.875 164.767C269.307 168.07 265.547 169.716 260.585 169.716C255.222 169.716 251.36 167.96 248.993 164.45C246.628 160.928 245.438 155.186 245.438 147.221V131.461C245.438 123.487 246.628 117.754 248.993 114.251C251.36 110.75 255.222 108.998 260.585 108.998C265.547 108.998 269.307 110.648 271.875 113.933C274.442 117.231 275.723 122.017 275.723 128.314V131.461H266.239V126.481C266.239 123.167 265.79 120.753 264.877 119.251C263.975 117.745 262.539 116.997 260.585 116.997C258.63 116.997 257.194 117.745 256.292 119.251C255.377 120.753 254.926 123.167 254.926 126.481V152.197C254.926 155.511 255.377 157.925 256.292 159.431C257.194 160.928 258.63 161.686 260.585 161.686C262.539 161.686 263.975 160.928 264.877 159.431C265.79 157.925 266.239 155.511 266.239 152.197V146.196H275.723V150.197Z" fill="#231F20"/>
<path d="M79.4319 215.022H76.2036V196.654H79.4319V215.022Z" fill="#4C4D4F"/>
<path d="M93.2935 199.595H89.6707V212.086H93.2935C97.1508 212.086 99.6733 209.489 99.6733 205.864C99.6733 202.241 97.1508 199.595 93.2935 199.595ZM93.2935 215.028H86.4424V196.653H93.2935C99.067 196.653 103.055 200.611 103.055 205.812C103.055 211.006 99.067 215.028 93.2935 215.028Z" fill="#4C4D4F"/>
<path d="M122.222 199.595H111.777V204.606H121.043V207.541H111.777V215.028H108.547V196.653H122.222V199.595Z" fill="#4C4D4F"/>
<path d="M135.876 215.341C130.522 215.341 126.536 211.166 126.536 205.866C126.536 200.613 130.443 196.332 136.009 196.332C139.395 196.332 141.442 197.522 143.198 199.199L141.124 201.584C139.654 200.221 138.083 199.305 135.982 199.305C132.463 199.305 129.922 202.189 129.922 205.811C129.922 209.432 132.463 212.379 135.982 212.379C138.241 212.379 139.679 211.456 141.262 209.987L143.331 212.088C141.411 214.081 139.314 215.341 135.876 215.341Z" fill="#4C4D4F"/>
<path d="M171.92 209.621C171.92 208.041 170.687 207.125 168.142 207.125H163.026V212.166H168.376C170.585 212.166 171.92 211.298 171.92 209.621ZM170.899 201.875C170.899 200.378 169.744 199.512 167.661 199.512H163.026V204.395H167.434C169.508 204.395 170.899 203.579 170.899 201.875ZM174.127 201.352C174.127 203.606 172.867 204.765 171.501 205.473C173.656 206.208 175.148 207.445 175.148 209.959C175.148 213.266 172.447 215.022 168.353 215.022H159.848V196.654H168.085C171.787 196.654 174.127 198.468 174.127 201.352Z" fill="#4C4D4F"/>
<path d="M187.807 200.378L184.66 207.728H190.981L187.807 200.378ZM197.435 215.027H194.029L192.167 210.588H183.474L181.58 215.027H178.277L186.362 196.521H189.353L197.435 215.027Z" fill="#4C4D4F"/>
<path d="M214.212 196.654H217.39V215.027H214.687L204.556 201.956V215.027H201.382V196.654H204.376L214.212 209.358V196.654Z" fill="#4C4D4F"/>
<path d="M240.498 215.028H236.58L230.313 206.759L227.443 209.701V215.028H224.219V196.655H227.443V205.891L236.197 196.655H240.151L232.516 204.554L240.498 215.028Z" fill="#4C4D4F"/>
</g>
<defs>
<clipPath id="clip0_433_791">
<rect width="280" height="119.626" fill="white" transform="translate(18 98)"/>
</clipPath>
</defs>
</svg>
