<svg width="316" height="315" viewBox="0 0 316 315" fill="none" xmlns="http://www.w3.org/2000/svg">
<g clip-path="url(#clip0_437_921)">
<path fill-rule="evenodd" clip-rule="evenodd" d="M245.29 210.195V191.489H222.875V210.195H211.435V161.394H222.863V180.104H245.278V161.39H256.705V203.801C256.704 205.497 256.028 207.122 254.825 208.321C253.621 209.52 251.989 210.194 250.288 210.195H245.29Z" fill="#030305"/>
<path d="M259.474 150.34C259.466 150.337 259.458 150.335 259.449 150.335C259.441 150.335 259.432 150.337 259.424 150.34H256C255.992 150.34 255.985 150.343 255.979 150.346C255.972 150.35 255.966 150.354 255.961 150.36C255.957 150.366 255.953 150.373 255.951 150.38C255.949 150.387 255.949 150.395 255.95 150.402V151.291C255.95 151.291 255.95 151.32 255.95 151.328C255.96 151.332 255.97 151.332 255.979 151.328H257.091C257.112 151.328 257.125 151.349 257.125 151.366V154.695C257.123 154.702 257.123 154.709 257.125 154.716C257.125 154.716 257.145 154.736 257.154 154.736H258.225C258.245 154.736 258.254 154.711 258.258 154.699V151.353C258.262 151.352 258.266 151.35 258.27 151.35C258.275 151.35 258.279 151.352 258.283 151.353H259.387C259.399 151.358 259.412 151.358 259.424 151.353C259.428 151.337 259.428 151.32 259.424 151.304V150.369C259.426 150.359 259.426 150.35 259.424 150.34H259.474ZM264.576 150.307H263.621C263.598 150.304 263.575 150.309 263.555 150.321C263.535 150.331 263.519 150.348 263.509 150.369L262.513 152.681H262.484L261.458 150.369C261.45 150.348 261.434 150.331 261.415 150.32C261.395 150.309 261.373 150.304 261.35 150.307H260.383C260.333 150.307 260.313 150.307 260.313 150.369V154.666C260.313 154.707 260.313 154.728 260.383 154.728H261.288C261.334 154.728 261.354 154.707 261.354 154.666V152.387H261.384L262.098 154.041C262.109 154.066 262.126 154.087 262.148 154.102C262.17 154.117 262.195 154.126 262.222 154.128H262.733C262.76 154.129 262.786 154.121 262.808 154.106C262.83 154.09 262.845 154.067 262.853 154.041L263.567 152.387H263.6V154.666C263.6 154.707 263.621 154.728 263.667 154.728H264.576C264.584 154.729 264.593 154.729 264.601 154.726C264.609 154.723 264.617 154.719 264.623 154.713C264.629 154.707 264.634 154.699 264.636 154.691C264.639 154.683 264.64 154.674 264.638 154.666V150.369C264.64 150.361 264.639 150.352 264.636 150.344C264.634 150.335 264.629 150.328 264.623 150.322C264.617 150.316 264.609 150.312 264.601 150.309C264.593 150.306 264.584 150.305 264.576 150.307ZM264.576 150.307H263.621C263.598 150.304 263.575 150.309 263.555 150.321C263.535 150.331 263.519 150.348 263.509 150.369L262.513 152.681H262.484L261.458 150.369C261.45 150.348 261.434 150.331 261.415 150.32C261.395 150.309 261.373 150.304 261.35 150.307H260.383C260.333 150.307 260.313 150.307 260.313 150.369V154.666C260.313 154.707 260.313 154.728 260.383 154.728H261.288C261.334 154.728 261.354 154.707 261.354 154.666V152.387H261.384L262.098 154.041C262.109 154.066 262.126 154.087 262.148 154.102C262.17 154.117 262.195 154.126 262.222 154.128H262.733C262.76 154.129 262.786 154.121 262.808 154.106C262.83 154.09 262.845 154.067 262.853 154.041L263.567 152.387H263.6V154.666C263.6 154.707 263.621 154.728 263.667 154.728H264.576C264.584 154.729 264.593 154.729 264.601 154.726C264.609 154.723 264.617 154.719 264.623 154.713C264.629 154.707 264.634 154.699 264.636 154.691C264.639 154.683 264.64 154.674 264.638 154.666V150.369C264.64 150.361 264.639 150.352 264.636 150.344C264.634 150.335 264.629 150.328 264.623 150.322C264.617 150.316 264.609 150.312 264.601 150.309C264.593 150.306 264.584 150.305 264.576 150.307ZM259.474 150.34C259.466 150.337 259.458 150.335 259.449 150.335C259.441 150.335 259.432 150.337 259.424 150.34H256C255.992 150.34 255.985 150.343 255.979 150.346C255.972 150.35 255.966 150.354 255.961 150.36C255.957 150.366 255.953 150.373 255.951 150.38C255.949 150.387 255.949 150.395 255.95 150.402V151.291C255.95 151.291 255.95 151.32 255.95 151.328C255.96 151.332 255.97 151.332 255.979 151.328H257.091C257.112 151.328 257.125 151.349 257.125 151.366V154.695C257.123 154.702 257.123 154.709 257.125 154.716C257.125 154.716 257.145 154.736 257.154 154.736H258.225C258.245 154.736 258.254 154.711 258.258 154.699V151.353C258.262 151.352 258.266 151.35 258.27 151.35C258.275 151.35 258.279 151.352 258.283 151.353H259.387C259.399 151.358 259.412 151.358 259.424 151.353C259.428 151.337 259.428 151.32 259.424 151.304V150.369C259.426 150.359 259.426 150.35 259.424 150.34H259.474ZM259.474 150.34C259.466 150.337 259.458 150.335 259.449 150.335C259.441 150.335 259.432 150.337 259.424 150.34H256C255.992 150.34 255.985 150.343 255.979 150.346C255.972 150.35 255.966 150.354 255.961 150.36C255.957 150.366 255.953 150.373 255.951 150.38C255.949 150.387 255.949 150.395 255.95 150.402V151.291C255.95 151.291 255.95 151.32 255.95 151.328C255.96 151.332 255.97 151.332 255.979 151.328H257.091C257.112 151.328 257.125 151.349 257.125 151.366V154.695C257.123 154.702 257.123 154.709 257.125 154.716C257.125 154.716 257.145 154.736 257.154 154.736H258.225C258.245 154.736 258.254 154.711 258.258 154.699V151.353C258.262 151.352 258.266 151.35 258.27 151.35C258.275 151.35 258.279 151.352 258.283 151.353H259.387C259.399 151.358 259.412 151.358 259.424 151.353C259.428 151.337 259.428 151.32 259.424 151.304V150.369C259.426 150.359 259.426 150.35 259.424 150.34H259.474ZM264.576 150.307H263.621C263.598 150.304 263.575 150.309 263.555 150.321C263.535 150.331 263.519 150.348 263.509 150.369L262.513 152.681H262.484L261.458 150.369C261.45 150.348 261.434 150.331 261.415 150.32C261.395 150.309 261.373 150.304 261.35 150.307H260.383C260.333 150.307 260.313 150.307 260.313 150.369V154.666C260.313 154.707 260.313 154.728 260.383 154.728H261.288C261.334 154.728 261.354 154.707 261.354 154.666V152.387H261.384L262.098 154.041C262.109 154.066 262.126 154.087 262.148 154.102C262.17 154.117 262.195 154.126 262.222 154.128H262.733C262.76 154.129 262.786 154.121 262.808 154.106C262.83 154.09 262.845 154.067 262.853 154.041L263.567 152.387H263.6V154.666C263.6 154.707 263.621 154.728 263.667 154.728H264.576C264.584 154.729 264.593 154.729 264.601 154.726C264.609 154.723 264.617 154.719 264.623 154.713C264.629 154.707 264.634 154.699 264.636 154.691C264.639 154.683 264.64 154.674 264.638 154.666V150.369C264.64 150.361 264.639 150.352 264.636 150.344C264.634 150.335 264.629 150.328 264.623 150.322C264.617 150.316 264.609 150.312 264.601 150.309C264.593 150.306 264.584 150.305 264.576 150.307ZM264.576 150.307H263.621C263.598 150.304 263.575 150.309 263.555 150.321C263.535 150.331 263.519 150.348 263.509 150.369L262.513 152.681H262.484L261.458 150.369C261.45 150.348 261.434 150.331 261.415 150.32C261.395 150.309 261.373 150.304 261.35 150.307H260.383C260.333 150.307 260.313 150.307 260.313 150.369V154.666C260.313 154.707 260.313 154.728 260.383 154.728H261.288C261.334 154.728 261.354 154.707 261.354 154.666V152.387H261.384L262.098 154.041C262.109 154.066 262.126 154.087 262.148 154.102C262.17 154.117 262.195 154.126 262.222 154.128H262.733C262.76 154.129 262.786 154.121 262.808 154.106C262.83 154.09 262.845 154.067 262.853 154.041L263.567 152.387H263.6V154.666C263.6 154.707 263.621 154.728 263.667 154.728H264.576C264.584 154.729 264.593 154.729 264.601 154.726C264.609 154.723 264.617 154.719 264.623 154.713C264.629 154.707 264.634 154.699 264.636 154.691C264.639 154.683 264.64 154.674 264.638 154.666V150.369C264.64 150.361 264.639 150.352 264.636 150.344C264.634 150.335 264.629 150.328 264.623 150.322C264.617 150.316 264.609 150.312 264.601 150.309C264.593 150.306 264.584 150.305 264.576 150.307ZM259.474 150.34C259.466 150.337 259.458 150.335 259.449 150.335C259.441 150.335 259.432 150.337 259.424 150.34H256C255.992 150.34 255.985 150.343 255.979 150.346C255.972 150.35 255.966 150.354 255.961 150.36C255.957 150.366 255.953 150.373 255.951 150.38C255.949 150.387 255.949 150.395 255.95 150.402V151.291C255.95 151.291 255.95 151.32 255.95 151.328C255.96 151.332 255.97 151.332 255.979 151.328H257.091C257.112 151.328 257.125 151.349 257.125 151.366V154.695C257.123 154.702 257.123 154.709 257.125 154.716C257.125 154.716 257.145 154.736 257.154 154.736H258.225C258.245 154.736 258.254 154.711 258.258 154.699V151.353C258.262 151.352 258.266 151.35 258.27 151.35C258.275 151.35 258.279 151.352 258.283 151.353H259.387C259.399 151.358 259.412 151.358 259.424 151.353C259.428 151.337 259.428 151.32 259.424 151.304V150.369C259.426 150.359 259.426 150.35 259.424 150.34H259.474ZM259.474 150.34C259.466 150.337 259.458 150.335 259.449 150.335C259.441 150.335 259.432 150.337 259.424 150.34H256C255.992 150.34 255.985 150.343 255.979 150.346C255.972 150.35 255.966 150.354 255.961 150.36C255.957 150.366 255.953 150.373 255.951 150.38C255.949 150.387 255.949 150.395 255.95 150.402V151.291C255.95 151.291 255.95 151.32 255.95 151.328C255.96 151.332 255.97 151.332 255.979 151.328H257.091C257.112 151.328 257.125 151.349 257.125 151.366V154.695C257.123 154.702 257.123 154.709 257.125 154.716C257.125 154.716 257.145 154.736 257.154 154.736H258.225C258.245 154.736 258.254 154.711 258.258 154.699V151.353C258.262 151.352 258.266 151.35 258.27 151.35C258.275 151.35 258.279 151.352 258.283 151.353H259.387C259.399 151.358 259.412 151.358 259.424 151.353C259.428 151.337 259.428 151.32 259.424 151.304V150.369C259.426 150.359 259.426 150.35 259.424 150.34H259.474ZM264.58 150.34H263.625C263.602 150.338 263.579 150.343 263.559 150.354C263.539 150.364 263.523 150.381 263.513 150.402L262.517 152.714H262.488L261.458 150.369C261.45 150.348 261.434 150.331 261.415 150.32C261.395 150.309 261.373 150.304 261.35 150.307H260.383C260.333 150.307 260.313 150.307 260.313 150.369V154.666C260.313 154.707 260.313 154.728 260.383 154.728H261.288C261.334 154.728 261.354 154.707 261.354 154.666V152.387H261.384L262.098 154.041C262.109 154.066 262.126 154.087 262.148 154.102C262.17 154.117 262.195 154.126 262.222 154.128H262.733C262.76 154.129 262.786 154.121 262.808 154.106C262.83 154.09 262.845 154.067 262.853 154.041L263.567 152.387H263.6V154.666C263.6 154.707 263.621 154.728 263.667 154.728H264.576C264.584 154.729 264.593 154.729 264.601 154.726C264.609 154.723 264.617 154.719 264.623 154.713C264.629 154.707 264.634 154.699 264.636 154.691C264.639 154.683 264.64 154.674 264.638 154.666V150.369C264.64 150.361 264.639 150.352 264.636 150.344C264.634 150.335 264.629 150.328 264.623 150.322C264.617 150.316 264.609 150.312 264.601 150.309C264.593 150.306 264.584 150.305 264.576 150.307L264.58 150.34ZM260.3 158.562C259.107 158.563 257.941 158.211 256.948 157.551C255.956 156.891 255.182 155.953 254.725 154.855C254.268 153.757 254.148 152.549 254.38 151.383C254.613 150.217 255.187 149.146 256.03 148.305C256.873 147.464 257.948 146.891 259.118 146.659C260.288 146.427 261.501 146.546 262.603 147C263.706 147.455 264.648 148.225 265.311 149.213C265.974 150.202 266.327 151.364 266.327 152.553C266.327 154.146 265.693 155.673 264.562 156.8C263.432 157.927 261.899 158.561 260.3 158.562ZM260.3 145.108C258.822 145.108 257.378 145.545 256.149 146.363C254.921 147.181 253.963 148.344 253.397 149.704C252.832 151.064 252.684 152.561 252.972 154.005C253.261 155.449 253.972 156.776 255.017 157.817C256.062 158.857 257.393 159.567 258.843 159.854C260.292 160.141 261.794 159.994 263.159 159.43C264.525 158.867 265.692 157.912 266.513 156.688C267.334 155.464 267.772 154.025 267.772 152.553C267.772 150.578 266.985 148.685 265.583 147.289C264.182 145.893 262.282 145.108 260.3 145.108ZM259.47 150.361C259.462 150.357 259.454 150.355 259.445 150.355C259.437 150.355 259.428 150.357 259.42 150.361H255.996C255.988 150.361 255.981 150.363 255.974 150.367C255.968 150.37 255.962 150.375 255.957 150.381C255.952 150.387 255.949 150.393 255.947 150.4C255.945 150.408 255.945 150.415 255.946 150.423V151.312C255.946 151.312 255.946 151.341 255.946 151.349C255.955 151.352 255.965 151.352 255.975 151.349H257.087C257.108 151.349 257.121 151.37 257.121 151.386V154.716C257.118 154.722 257.118 154.73 257.121 154.736C257.121 154.736 257.141 154.757 257.15 154.757H258.221C258.241 154.757 258.25 154.732 258.254 154.72V151.374C258.258 151.372 258.262 151.371 258.266 151.371C258.271 151.371 258.275 151.372 258.279 151.374H259.383C259.395 151.379 259.408 151.379 259.42 151.374C259.424 151.358 259.424 151.34 259.42 151.324V150.369C259.422 150.359 259.422 150.35 259.42 150.34L259.47 150.361ZM264.576 150.361H263.621C263.598 150.358 263.575 150.363 263.555 150.374C263.535 150.385 263.519 150.402 263.509 150.423L262.513 152.735H262.484L261.458 150.369C261.45 150.348 261.434 150.331 261.415 150.32C261.395 150.309 261.373 150.304 261.35 150.307H260.383C260.333 150.307 260.313 150.307 260.313 150.369V154.666C260.313 154.707 260.313 154.728 260.383 154.728H261.288C261.334 154.728 261.354 154.707 261.354 154.666V152.387H261.384L262.098 154.041C262.109 154.066 262.126 154.087 262.148 154.102C262.17 154.117 262.195 154.126 262.222 154.128H262.733C262.76 154.129 262.786 154.121 262.808 154.106C262.83 154.09 262.845 154.067 262.853 154.041L263.567 152.387H263.6V154.666C263.6 154.707 263.621 154.728 263.667 154.728H264.576C264.584 154.729 264.593 154.729 264.601 154.726C264.609 154.723 264.617 154.719 264.623 154.713C264.629 154.707 264.634 154.699 264.636 154.691C264.639 154.683 264.64 154.674 264.638 154.666V150.369C264.64 150.361 264.639 150.352 264.636 150.344C264.634 150.335 264.629 150.328 264.623 150.322C264.617 150.316 264.609 150.312 264.601 150.309C264.593 150.306 264.584 150.305 264.576 150.307V150.361ZM264.576 150.361H263.621C263.598 150.358 263.575 150.363 263.555 150.374C263.535 150.385 263.519 150.402 263.509 150.423L262.513 152.735H262.484L261.458 150.369C261.45 150.348 261.434 150.331 261.415 150.32C261.395 150.309 261.373 150.304 261.35 150.307H260.383C260.333 150.307 260.313 150.307 260.313 150.369V154.666C260.313 154.707 260.313 154.728 260.383 154.728H261.288C261.334 154.728 261.354 154.707 261.354 154.666V152.387H261.384L262.098 154.041C262.109 154.066 262.126 154.087 262.148 154.102C262.17 154.117 262.195 154.126 262.222 154.128H262.733C262.76 154.129 262.786 154.121 262.808 154.106C262.83 154.09 262.845 154.067 262.853 154.041L263.567 152.387H263.6V154.666C263.6 154.707 263.621 154.728 263.667 154.728H264.576C264.584 154.729 264.593 154.729 264.601 154.726C264.609 154.723 264.617 154.719 264.623 154.713C264.629 154.707 264.634 154.699 264.636 154.691C264.639 154.683 264.64 154.674 264.638 154.666V150.369C264.64 150.361 264.639 150.352 264.636 150.344C264.634 150.335 264.629 150.328 264.623 150.322C264.617 150.316 264.609 150.312 264.601 150.309C264.593 150.306 264.584 150.305 264.576 150.307V150.361ZM259.474 150.394C259.466 150.39 259.458 150.388 259.449 150.388C259.441 150.388 259.432 150.39 259.424 150.394H256C255.992 150.394 255.985 150.396 255.979 150.4C255.972 150.403 255.966 150.408 255.961 150.414C255.957 150.42 255.953 150.426 255.951 150.434C255.949 150.441 255.949 150.448 255.95 150.456V151.345C255.95 151.345 255.95 151.374 255.95 151.382C255.96 151.386 255.97 151.386 255.979 151.382H257.091C257.112 151.382 257.125 151.403 257.125 151.419V154.749C257.123 154.755 257.123 154.763 257.125 154.769C257.125 154.769 257.145 154.79 257.154 154.79H258.225C258.245 154.79 258.254 154.765 258.258 154.753V151.407C258.262 151.405 258.266 151.404 258.27 151.404C258.275 151.404 258.279 151.405 258.283 151.407H259.387C259.399 151.412 259.412 151.412 259.424 151.407C259.428 151.391 259.428 151.374 259.424 151.357V150.369C259.426 150.359 259.426 150.35 259.424 150.34L259.474 150.394ZM259.474 150.394C259.466 150.39 259.458 150.388 259.449 150.388C259.441 150.388 259.432 150.39 259.424 150.394H256C255.992 150.394 255.985 150.396 255.979 150.4C255.972 150.403 255.966 150.408 255.961 150.414C255.957 150.42 255.953 150.426 255.951 150.434C255.949 150.441 255.949 150.448 255.95 150.456V151.345C255.95 151.345 255.95 151.374 255.95 151.382C255.96 151.386 255.97 151.386 255.979 151.382H257.091C257.112 151.382 257.125 151.403 257.125 151.419V154.749C257.123 154.755 257.123 154.763 257.125 154.769C257.125 154.769 257.145 154.79 257.154 154.79H258.225C258.245 154.79 258.254 154.765 258.258 154.753V151.407C258.262 151.405 258.266 151.404 258.27 151.404C258.275 151.404 258.279 151.405 258.283 151.407H259.387C259.399 151.412 259.412 151.412 259.424 151.407C259.428 151.391 259.428 151.374 259.424 151.357V150.369C259.426 150.359 259.426 150.35 259.424 150.34L259.474 150.394ZM264.576 150.361H263.621C263.598 150.358 263.575 150.363 263.555 150.374C263.535 150.385 263.519 150.402 263.509 150.423L262.513 152.735H262.484L261.458 150.369C261.45 150.348 261.434 150.331 261.415 150.32C261.395 150.309 261.373 150.304 261.35 150.307H260.383C260.333 150.307 260.313 150.307 260.313 150.369V154.666C260.313 154.707 260.313 154.728 260.383 154.728H261.288C261.334 154.728 261.354 154.707 261.354 154.666V152.387H261.384L262.098 154.041C262.109 154.066 262.126 154.087 262.148 154.102C262.17 154.117 262.195 154.126 262.222 154.128H262.733C262.76 154.129 262.786 154.121 262.808 154.106C262.83 154.09 262.845 154.067 262.853 154.041L263.567 152.387H263.6V154.666C263.6 154.707 263.621 154.728 263.667 154.728H264.576C264.584 154.729 264.593 154.729 264.601 154.726C264.609 154.723 264.617 154.719 264.623 154.713C264.629 154.707 264.634 154.699 264.636 154.691C264.639 154.683 264.64 154.674 264.638 154.666V150.369C264.64 150.361 264.639 150.352 264.636 150.344C264.634 150.335 264.629 150.328 264.623 150.322C264.617 150.316 264.609 150.312 264.601 150.309C264.593 150.306 264.584 150.305 264.576 150.307V150.361ZM264.576 150.361H263.621C263.598 150.358 263.575 150.363 263.555 150.374C263.535 150.385 263.519 150.402 263.509 150.423L262.513 152.735H262.484L261.458 150.369C261.45 150.348 261.434 150.331 261.415 150.32C261.395 150.309 261.373 150.304 261.35 150.307H260.383C260.333 150.307 260.313 150.307 260.313 150.369V154.666C260.313 154.707 260.313 154.728 260.383 154.728H261.288C261.334 154.728 261.354 154.707 261.354 154.666V152.387H261.384L262.098 154.041C262.109 154.066 262.126 154.087 262.148 154.102C262.17 154.117 262.195 154.126 262.222 154.128H262.733C262.76 154.129 262.786 154.121 262.808 154.106C262.83 154.09 262.845 154.067 262.853 154.041L263.567 152.387H263.6V154.666C263.6 154.707 263.621 154.728 263.667 154.728H264.576C264.584 154.729 264.593 154.729 264.601 154.726C264.609 154.723 264.617 154.719 264.623 154.713C264.629 154.707 264.634 154.699 264.636 154.691C264.639 154.683 264.64 154.674 264.638 154.666V150.369C264.64 150.361 264.639 150.352 264.636 150.344C264.634 150.335 264.629 150.328 264.623 150.322C264.617 150.316 264.609 150.312 264.601 150.309C264.593 150.306 264.584 150.305 264.576 150.307V150.361ZM259.474 150.394C259.466 150.39 259.458 150.388 259.449 150.388C259.441 150.388 259.432 150.39 259.424 150.394H256C255.992 150.394 255.985 150.396 255.979 150.4C255.972 150.403 255.966 150.408 255.961 150.414C255.957 150.42 255.953 150.426 255.951 150.434C255.949 150.441 255.949 150.448 255.95 150.456V151.345C255.95 151.345 255.95 151.374 255.95 151.382C255.96 151.386 255.97 151.386 255.979 151.382H257.091C257.112 151.382 257.125 151.403 257.125 151.419V154.749C257.123 154.755 257.123 154.763 257.125 154.769C257.125 154.769 257.145 154.79 257.154 154.79H258.225C258.245 154.79 258.254 154.765 258.258 154.753V151.407C258.262 151.405 258.266 151.404 258.27 151.404C258.275 151.404 258.279 151.405 258.283 151.407H259.387C259.399 151.412 259.412 151.412 259.424 151.407C259.428 151.391 259.428 151.374 259.424 151.357V150.369C259.426 150.359 259.426 150.35 259.424 150.34L259.474 150.394ZM259.474 150.394C259.466 150.39 259.458 150.388 259.449 150.388C259.441 150.388 259.432 150.39 259.424 150.394H256C255.992 150.394 255.985 150.396 255.979 150.4C255.972 150.403 255.966 150.408 255.961 150.414C255.957 150.42 255.953 150.426 255.951 150.434C255.949 150.441 255.949 150.448 255.95 150.456V151.345C255.95 151.345 255.95 151.374 255.95 151.382C255.96 151.386 255.97 151.386 255.979 151.382H257.091C257.112 151.382 257.125 151.403 257.125 151.419V154.749C257.123 154.755 257.123 154.763 257.125 154.769C257.125 154.769 257.145 154.79 257.154 154.79H258.225C258.245 154.79 258.254 154.765 258.258 154.753V151.407C258.262 151.405 258.266 151.404 258.27 151.404C258.275 151.404 258.279 151.405 258.283 151.407H259.387C259.399 151.412 259.412 151.412 259.424 151.407C259.428 151.391 259.428 151.374 259.424 151.357V150.369C259.426 150.359 259.426 150.35 259.424 150.34L259.474 150.394ZM264.576 150.361H263.621C263.598 150.358 263.575 150.363 263.555 150.374C263.535 150.385 263.519 150.402 263.509 150.423L262.513 152.735H262.484L261.458 150.369C261.45 150.348 261.434 150.331 261.415 150.32C261.395 150.309 261.373 150.304 261.35 150.307H260.383C260.333 150.307 260.313 150.307 260.313 150.369V154.666C260.313 154.707 260.313 154.728 260.383 154.728H261.288C261.334 154.728 261.354 154.707 261.354 154.666V152.387H261.384L262.098 154.041C262.109 154.066 262.126 154.087 262.148 154.102C262.17 154.117 262.195 154.126 262.222 154.128H262.733C262.76 154.129 262.786 154.121 262.808 154.106C262.83 154.09 262.845 154.067 262.853 154.041L263.567 152.387H263.6V154.666C263.6 154.707 263.621 154.728 263.667 154.728H264.576C264.584 154.729 264.593 154.729 264.601 154.726C264.609 154.723 264.617 154.719 264.623 154.713C264.629 154.707 264.634 154.699 264.636 154.691C264.639 154.683 264.64 154.674 264.638 154.666V150.369C264.64 150.361 264.639 150.352 264.636 150.344C264.634 150.335 264.629 150.328 264.623 150.322C264.617 150.316 264.609 150.312 264.601 150.309C264.593 150.306 264.584 150.305 264.576 150.307V150.361ZM259.474 150.394C259.466 150.39 259.458 150.388 259.449 150.388C259.441 150.388 259.432 150.39 259.424 150.394H256C255.992 150.394 255.985 150.396 255.979 150.4C255.972 150.403 255.966 150.408 255.961 150.414C255.957 150.42 255.953 150.426 255.951 150.434C255.949 150.441 255.949 150.448 255.95 150.456V151.345C255.95 151.345 255.95 151.374 255.95 151.382C255.96 151.386 255.97 151.386 255.979 151.382H257.091C257.112 151.382 257.125 151.403 257.125 151.419V154.749C257.123 154.755 257.123 154.763 257.125 154.769C257.125 154.769 257.145 154.79 257.154 154.79H258.225C258.245 154.79 258.254 154.765 258.258 154.753V151.407C258.262 151.405 258.266 151.404 258.27 151.404C258.275 151.404 258.279 151.405 258.283 151.407H259.387C259.399 151.412 259.412 151.412 259.424 151.407C259.428 151.391 259.428 151.374 259.424 151.357V150.369C259.426 150.359 259.426 150.35 259.424 150.34L259.474 150.394ZM264.576 150.361H263.621C263.598 150.358 263.575 150.363 263.555 150.374C263.535 150.385 263.519 150.402 263.509 150.423L262.513 152.735H262.484L261.458 150.369C261.45 150.348 261.434 150.331 261.415 150.32C261.395 150.309 261.373 150.304 261.35 150.307H260.383C260.333 150.307 260.313 150.307 260.313 150.369V154.666C260.313 154.707 260.313 154.728 260.383 154.728H261.288C261.334 154.728 261.354 154.707 261.354 154.666V152.387H261.384L262.098 154.041C262.109 154.066 262.126 154.087 262.148 154.102C262.17 154.117 262.195 154.126 262.222 154.128H262.733C262.76 154.129 262.786 154.121 262.808 154.106C262.83 154.09 262.845 154.067 262.853 154.041L263.567 152.387H263.6V154.666C263.6 154.707 263.621 154.728 263.667 154.728H264.576C264.584 154.729 264.593 154.729 264.601 154.726C264.609 154.723 264.617 154.719 264.623 154.713C264.629 154.707 264.634 154.699 264.636 154.691C264.639 154.683 264.64 154.674 264.638 154.666V150.369C264.64 150.361 264.639 150.352 264.636 150.344C264.634 150.335 264.629 150.328 264.623 150.322C264.617 150.316 264.609 150.312 264.601 150.309C264.593 150.306 264.584 150.305 264.576 150.307V150.361Z" fill="#231F20"/>
<path fill-rule="evenodd" clip-rule="evenodd" d="M191.042 180.145H178.111C173.097 180.145 172.553 177.482 172.553 176.336C172.553 172.813 176.737 172.813 178.111 172.813H207.787V161.386H184.151H185.811H178.431C166.842 161.386 161.412 166.109 161.362 176.241C161.362 186.634 166.759 191.473 178.381 191.473H191.042C195.882 191.473 196.6 193.681 196.6 194.997C196.6 196.146 196.06 198.818 191.042 198.818H159C157.801 202.093 154.194 206.82 148.241 210.179H191.087C202.664 210.195 208.061 205.373 208.061 194.997C208.002 184.872 202.59 180.158 191.042 180.158V180.145Z" fill="#030305"/>
<path d="M130.33 157.18V107.771C130.328 107.038 130.035 106.336 129.516 105.817C128.997 105.298 128.293 105.004 127.557 105H100.46L89.6673 120.612H119.94L99.7541 151.833H112.801C99.1024 181.887 84.0304 212.168 75.33 205.762C72.1877 203.446 74.3296 202.644 72.0092 200.464C71.7934 200.258 69.6681 203.43 69.4564 203.227C69.2447 203.024 70.9507 199.439 70.7515 199.24C58.859 187.412 52.4873 176.928 52.4873 176.957C52.4873 177.127 52.5205 177.292 52.5413 177.462C52.562 177.631 52.5869 177.838 52.6118 178.024C52.6118 178.136 52.6409 178.247 52.6575 178.355C52.6824 178.545 52.7115 178.731 52.7405 178.917C52.7862 179.211 52.836 179.509 52.8941 179.798C52.9273 179.972 52.9564 180.146 52.9937 180.319C53.0311 180.493 53.0601 180.659 53.0975 180.828C53.3507 181.999 54.7205 183.144 55.0858 184.265C55.1398 184.439 55.202 184.604 55.2601 184.778V184.827C55.3349 185.03 55.4054 185.241 55.4843 185.444C55.5632 185.646 55.6462 185.882 55.7292 186.097C55.7666 186.196 55.8081 186.3 55.8496 186.399C55.9326 186.61 56.0198 186.812 56.1028 187.019C56.1858 187.226 56.2813 187.433 56.3726 187.635L56.4888 187.896C56.5262 187.983 56.5677 188.07 56.6092 188.157C56.7213 188.396 56.8375 188.64 56.9537 188.88C57.07 189.12 57.2235 189.414 57.3688 189.679C57.5141 189.943 57.6469 190.208 57.7839 190.464C57.9209 190.721 58.1035 191.031 58.2696 191.291C58.4356 191.552 58.6017 191.837 58.7718 192.119C58.942 192.4 59.1579 192.722 59.3571 193.016C59.5564 193.31 59.7432 193.574 59.9383 193.843C60.1334 194.112 60.3534 194.389 60.5443 194.67C60.7352 194.952 60.9594 195.204 61.1711 195.464C61.5862 195.994 62.0345 196.507 62.4869 197.003C62.7152 197.251 62.9436 197.499 63.1802 197.743C63.7903 198.38 69.3734 200.568 70.1455 201.258C70.2409 201.341 69.4232 202.958 69.5187 203.041C69.6141 203.124 70.6643 201.651 70.7473 201.734C71.0877 202.028 70.1662 201.548 71.4156 202.346L71.9926 202.706C72.7647 203.182 71.7934 204.311 72.6028 204.72C72.9542 204.902 73.3112 205.08 73.6738 205.254C74.7555 205.767 75.864 206.223 76.9945 206.618L77.6504 206.842C78.0848 206.985 78.5248 207.123 78.9704 207.255L79.564 207.421L79.6926 207.458L80.1991 207.586L80.4689 207.652L80.996 207.772C81.4485 207.876 81.9051 207.971 82.3659 208.053L82.8432 208.136L83.2583 208.206L83.4908 208.24C83.6568 208.269 83.8228 208.289 83.993 208.314L84.4081 208.368C84.6447 208.397 84.8855 208.426 85.1304 208.446C85.3753 208.467 85.6077 208.496 85.8527 208.513H85.89C86.056 208.513 86.2304 208.541 86.4006 208.55H86.6455L87.1934 208.579H87.5047H87.9198C88.1896 208.579 88.4553 208.579 88.7251 208.579H89.1194H89.8126C90.7881 208.579 97.5749 208.504 98.5296 208.405C98.7372 208.384 98.9447 208.364 99.1564 208.335L99.5258 208.289L99.9409 208.235L100.485 208.153L100.858 208.091C101.095 208.053 102.228 207.4 102.461 207.359C108.654 205.436 112.107 202.967 112.074 202.913C97.853 181.916 112.601 165.439 120.878 162.002C123.825 160.534 127.02 159.625 130.301 159.322L130.33 157.18ZM130.33 114.045V107.804C130.329 107.073 130.038 106.372 129.52 105.855C129.002 105.337 128.299 105.045 127.566 105.041H100.464L89.6715 120.629H119.94L99.7749 151.816H112.801L69.6307 203.099L84.9893 168.603L69.5934 168.545L73.1549 159.674H55.1771C53.6579 159.674 52.6575 160.915 52.6575 162.424L52.6824 173.392C52.6824 183.831 62.9103 194.679 70.1953 201.126C70.299 201.213 69.3651 203.103 69.4855 203.194C69.6058 203.285 70.71 201.573 70.8096 201.66C76.9655 206.858 80.0911 208.537 88.7749 208.537H89.1651C105.769 199.025 85.2051 157.867 130.309 114.032L130.33 114.045Z" fill="#E8157C"/>
<path d="M69.5435 203.587L71.6189 197.971L81.1661 171.73L66.3763 171.928L69.8382 162.677L55.0649 162.896C55.0649 162.983 55.0649 163.256 55.0649 163.343V175.295C55.0704 180.744 56.3529 186.117 58.8103 190.986C61.2677 195.855 64.8321 200.085 69.2197 203.339C69.2737 203.38 69.531 203.546 69.585 203.587H69.5435Z" fill="white"/>
<path d="M100.036 175.096C101.702 171.072 104.261 167.476 107.522 164.579C110.782 161.682 114.659 159.558 118.861 158.367V113.536C118.857 112.806 118.566 112.106 118.048 111.589C117.53 111.072 116.829 110.779 116.096 110.773H91.1905L81.8717 125.517H110.426L90.3147 156.63H103.523L69.7011 203.239L77.9573 171.758H63.097L66.7 162.796H50.8019C50.0693 162.8 49.3676 163.091 48.8492 163.607C48.3308 164.122 48.0376 164.821 48.0332 165.551L48 177.631C48.8302 193.136 62.2834 206.052 83.6026 209.943C101.518 211.626 98.3011 208.173 104.071 204.062C100.867 200.035 98.8025 195.226 98.0931 190.135C97.3837 185.045 98.0545 179.858 100.036 175.112V175.096Z" fill="#26B6EA"/>
<path d="M123.51 112.216V158.416C104.262 165.484 97.6078 187.569 110.314 204.091C109.717 204.523 109.096 204.922 108.454 205.286C107.94 205.596 107.52 205.882 107.209 206.043C105.583 206.917 103.889 207.661 102.145 208.268C101.555 208.471 100.962 208.657 100.364 208.83C100.02 208.93 99.675 209.025 99.3305 209.112L98.8075 209.24C98.2844 209.368 97.7573 209.48 97.2259 209.579C96.9935 209.62 96.7652 209.666 96.5286 209.703L96.155 209.765L95.6154 209.844C95.4826 209.868 95.3456 209.885 95.2003 209.902L94.835 209.947L94.2124 210.017C93.266 210.112 92.3112 210.17 91.3399 210.187H90.6509H90.2565H89.4595C89.3142 210.187 89.1772 210.187 89.0444 210.187H88.7372L88.1893 210.158H87.9486L87.438 210.121H87.4048L86.6867 210.055C86.4418 210.034 86.2052 210.005 85.9686 209.972C85.8274 209.972 85.6863 209.943 85.5535 209.918C85.4207 209.893 85.2173 209.877 85.0512 209.848L84.8229 209.815L84.4078 209.744L83.9346 209.662C83.478 209.579 83.0214 209.484 82.5731 209.38C82.3946 209.347 82.2244 209.302 82.0501 209.261L81.7844 209.198L81.278 209.07L81.1493 209.033L80.5599 208.868C80.1199 208.739 79.6799 208.603 79.2482 208.454L78.6007 208.231C77.4701 207.838 76.3616 207.385 75.2799 206.874L74.2131 206.349C73.412 205.935 72.6275 205.493 71.8637 205.017L71.2909 204.662C70.7222 204.298 70.0913 203.983 69.5475 203.586L69.369 203.458C69.0411 203.218 69.4894 203.615 69.4894 203.615L109.127 153.788H95.4286L115.486 122.771H85.898L94.4863 109.536L95.4244 108.089H119.301C120.414 108.095 121.48 108.539 122.268 109.323C123.056 110.107 123.502 111.169 123.51 112.278V112.216Z" fill="#030305"/>
<path d="M69.5764 203.608L71.6518 198L81.199 171.622H66.3843L69.6801 162.797H55.0771C55.0771 162.88 55.0771 162.962 55.0771 163.049V174.985C55.0807 180.48 56.358 185.9 58.8097 190.823C61.2613 195.745 64.821 200.037 69.2111 203.364L69.5805 203.608H69.5764Z" fill="#030305"/>
<path fill-rule="evenodd" clip-rule="evenodd" d="M143.862 195.361C141.716 197.488 138.897 198.809 135.883 199.1C132.87 199.39 129.849 198.632 127.334 196.954C124.818 195.276 122.964 192.782 122.085 189.896C121.207 187.01 121.359 183.909 122.515 181.122C123.671 178.335 125.761 176.032 128.428 174.606C131.095 173.18 134.176 172.719 137.147 173.3C140.117 173.882 142.794 175.47 144.722 177.795C146.649 180.121 147.71 183.039 147.722 186.055C147.747 187.786 147.418 189.504 146.754 191.105C146.091 192.704 145.106 194.153 143.862 195.361ZM151.881 168.801C148.455 165.385 144.088 163.057 139.334 162.115C134.58 161.173 129.652 161.658 125.174 163.508C120.696 165.358 116.871 168.491 114.181 172.509C111.491 176.527 110.059 181.25 110.065 186.079C110.072 190.909 111.517 195.628 114.217 199.639C116.917 203.65 120.751 206.773 125.234 208.611C129.716 210.449 134.646 210.921 139.397 209.966C144.149 209.011 148.51 206.673 151.927 203.247C154.224 201.012 156.04 198.335 157.266 195.378C158.491 192.421 159.1 189.246 159.054 186.047C159.062 182.843 158.433 179.669 157.202 176.708C155.97 173.748 154.162 171.06 151.881 168.801Z" fill="#030305"/>
</g>
<defs>
<clipPath id="clip0_437_921">
<rect width="220" height="105.46" fill="white" transform="translate(48 105)"/>
</clipPath>
</defs>
</svg>
