<svg width="316" height="315" viewBox="0 0 316 315" fill="none" xmlns="http://www.w3.org/2000/svg">
<g clip-path="url(#clip0_432_2)">
<path fill-rule="evenodd" clip-rule="evenodd" d="M1.69775 157.141C1.69775 131.108 26.2362 110 56.5095 110C86.7828 110 111.319 131.108 111.319 157.141C111.319 183.174 86.7807 204.282 56.5095 204.282C26.2383 204.282 1.69775 183.177 1.69775 157.141Z" fill="#003874"/>
<path fill-rule="evenodd" clip-rule="evenodd" d="M49.8538 125.14L62.5882 120.933L62.6509 189.772L49.8088 194.075L49.8538 125.14ZM182.317 184.393C194.555 184.393 203.875 177.276 203.875 165.029C203.875 152.714 194.555 145.585 182.317 145.585C170.087 145.585 160.765 152.693 160.765 165.029C160.765 177.277 170.086 184.393 182.317 184.393ZM182.317 175.426C176.415 175.426 173.999 170.512 173.999 165.029C173.999 159.472 176.404 154.575 182.317 154.575C188.231 154.575 190.641 159.482 190.641 165.029C190.641 170.512 188.237 175.426 182.317 175.426ZM202.699 155.418H210.017V170.512C210.017 179.335 212.791 184.393 224.24 184.393C227.442 184.393 229.864 183.974 232.289 183.682L231.871 175.354C230.591 175.567 229.24 175.851 227.961 175.851C223.905 175.851 222.836 173.572 222.836 169.088V155.418H231.8V146.449H222.836L222.833 133.622L210.249 138.117V146.449H202.708V155.418M276.614 183.541H289.419V165.174H289.559L299.806 183.541H315.302L301.357 163.465L314.232 146.451H300.221L289.55 162.041H289.41V133.67L276.603 138.12V183.551" fill="#ED1C24"/>
<path fill-rule="evenodd" clip-rule="evenodd" d="M126.669 183.54H139.479V165.173H139.619L149.865 183.54H165.371L151.426 163.464L164.302 146.451H150.291L139.621 162.042H139.481V133.671L126.671 137.894V183.54M272.058 183.713C271.48 180.762 271.327 177.807 271.327 174.85V160.874C271.327 149.417 263.044 145.298 253.47 145.298C247.927 145.298 243.102 146.089 238.496 147.964L238.705 156.752C242.299 154.738 246.478 153.93 250.654 153.93C255.335 153.93 259.147 155.301 259.219 160.416C257.221 160.088 255.199 159.92 253.174 159.913C246.275 159.913 233.81 161.285 233.81 172.74C233.81 180.881 240.433 184.552 247.847 184.552C253.174 184.552 256.772 182.461 259.726 177.781H259.899C259.899 179.726 260.114 181.672 260.186 183.688H272.069L272.058 183.713ZM245.92 171.827C245.92 168.223 249.377 166.855 253.768 166.855C255.712 166.855 257.588 166.999 259.239 167.071C259.239 171.468 256.145 175.93 251.253 175.93C248.226 175.93 245.92 174.419 245.92 171.827Z" fill="#ED1C24"/>
<path fill-rule="evenodd" clip-rule="evenodd" d="M97.7296 161.886C96.5348 171.734 91.0112 181.682 78.95 181.701C71.9085 181.714 66.4079 176.892 62.5986 170.994V164.161C67.3654 166.528 71.8207 169.068 77.2262 169.145C83.885 169.244 89.9063 166.684 92.3963 161.885H97.7307L97.7296 161.886ZM57.4106 168.07C51.8775 174.739 46.5306 181.552 36.512 181.552C22.3611 181.552 15.6489 167.87 15.6489 156.432C15.6489 145.441 20.8945 132.431 34.6805 132.431C40.6599 132.431 46.4156 136.087 49.8464 139.955L49.836 149.285C46.9696 147.355 40.5491 145.462 36.3573 145.394C27.615 145.248 19.9077 149.037 20.0415 157.666C20.1324 163.607 26.0188 167.645 31.8748 167.645C40.8439 167.645 46.2776 159.452 50.8186 153.233C52.6392 150.859 54.439 148.469 56.2178 146.064C61.2616 139.016 67.0978 132.582 77.1164 132.582C88.9184 132.582 95.5438 142.095 97.4171 151.888H92.0858C89.9428 148.712 85.821 146.769 81.7609 146.769C72.4887 146.769 66.9483 155.299 62.3112 161.579L57.398 168.069" fill="white"/>
</g>
<defs>
<clipPath id="clip0_432_2">
<rect width="315" height="94.282" fill="white" transform="translate(1 110)"/>
</clipPath>
</defs>
</svg>
