<svg width="316" height="315" viewBox="0 0 316 315" fill="none" xmlns="http://www.w3.org/2000/svg">
<g clip-path="url(#clip0_453_319)">
<path d="M154.494 114C156.959 113.99 159.372 114.712 161.427 116.073C163.483 117.435 165.088 119.375 166.04 121.649C166.993 123.922 167.25 126.428 166.778 128.847C166.307 131.267 165.129 133.493 163.393 135.243C161.656 136.993 159.44 138.189 157.024 138.679C154.608 139.17 152.101 138.933 149.82 137.999C147.539 137.065 145.586 135.475 144.208 133.431C142.83 131.386 142.089 128.979 142.08 126.514C142.079 123.212 143.384 120.044 145.71 117.7C148.035 115.356 151.193 114.026 154.494 114Z" fill="#F99D1C"/>
<path d="M66.6636 199.975H36V190.03H38.2708C39.7625 190.03 40.2763 189.185 40.2763 187.809V157.095C40.2763 155.703 39.7625 154.874 38.2708 154.874H36V144.731H63.647V153.333C67.5918 147.78 72.7466 143.57 80.9678 143.57C91.8576 143.57 95.504 147.93 96.7637 154.377C98.5128 151.115 101.113 148.387 104.289 146.484C107.464 144.581 111.095 143.574 114.797 143.57C128.604 143.57 130.494 150.2 130.494 160.046V187.842C130.494 189.218 131.107 190.063 132.814 190.063H134.571V200.008H104.438V190.063H105.25C106.642 190.063 107.256 189.218 107.256 187.842V162.582C107.256 158.024 105.698 156.565 102.515 156.565C98.3052 156.565 96.9295 160.046 96.9295 165.416V187.743C96.9295 189.218 97.5593 190.063 98.9516 190.063H100.195V200.008H70.8903V190.063H71.7356C73.0781 190.063 73.708 189.218 73.708 187.842V162.582C73.708 158.024 72.1499 156.565 68.9676 156.565C64.7575 156.565 63.3984 160.046 63.3984 165.416V187.743C63.3984 189.218 63.9288 190.063 65.4039 190.063H66.6636V199.975Z" fill="#F99D1C"/>
<path d="M143.074 157.095C143.074 155.703 142.56 154.874 141.069 154.874H138.765V144.73H166.196V187.825C166.196 189.301 166.727 190.146 168.202 190.146H170.257V200.091H138.765V190.146H141.035C142.527 190.146 143.041 189.301 143.041 187.925L143.074 157.095Z" fill="#F99D1C"/>
<path d="M205.695 199.975H175.031V190.03H177.302C178.777 190.03 179.308 189.185 179.308 187.809V157.096C179.308 155.703 178.777 154.875 177.302 154.875H175.031V144.731H202.43V153.433C204.439 150.389 207.174 147.894 210.389 146.172C213.604 144.45 217.198 143.556 220.844 143.57C233.624 143.57 236.392 150.2 236.392 160.046V187.842C236.392 189.218 236.906 190.063 238.596 190.063H240.453V200.008H209.905V190.063H211.165C212.524 190.063 213.17 189.218 213.17 187.842V162.582C213.17 158.024 211.513 156.565 208.43 156.565C205.347 156.565 202.43 158.985 202.43 164.355V187.743C202.388 188.052 202.417 188.366 202.514 188.662C202.611 188.958 202.775 189.228 202.992 189.452C203.209 189.675 203.474 189.846 203.767 189.952C204.061 190.058 204.374 190.096 204.684 190.063H205.695V199.975Z" fill="#F99D1C"/>
<path d="M239.872 144.73L248.027 144.415L249.005 131.852H269.707V144.73H279.47V155.09H269.707V180.118C269.707 186.648 270.967 188.77 278.144 188.77H279.983V199.975C275.432 200.474 270.855 200.718 266.276 200.704C253.198 200.704 246.585 196.643 246.585 185.786V155.09H239.955L239.872 144.73Z" fill="#F99D1C"/>
</g>
<defs>
<clipPath id="clip0_453_319">
<rect width="244" height="86.7037" fill="white" transform="translate(36 114)"/>
</clipPath>
</defs>
</svg>
