<svg width="316" height="315" viewBox="0 0 316 315" fill="none" xmlns="http://www.w3.org/2000/svg">
<g clip-path="url(#clip0_451_59)">
<path d="M277.871 148.94C282.818 147.27 288.322 146.188 293.454 147.827C296.392 148.816 297.969 151.939 297.938 154.907C297.999 160.998 298.061 167.089 297.845 173.18C296.082 173.18 294.32 173.18 292.589 173.149C292.372 172.191 292.187 171.232 291.97 170.274C288.693 172.871 284.333 174.726 280.128 173.18C275.367 171.294 274.779 164.152 278.366 160.844C281.984 157.504 287.178 157.473 291.723 156.453C291.445 154.907 291.197 152.928 289.373 152.496C285.725 151.413 282.045 153.052 278.552 154.041C278.273 152.372 278.057 150.671 277.871 148.94ZM283.684 163.07C281.984 164.43 281.891 167.738 284.117 168.604C286.807 169.625 289.404 167.8 291.506 166.347C291.506 164.368 291.506 162.39 291.476 160.411C288.817 160.875 285.817 161.184 283.684 163.07Z" fill="#231F20"/>
<path d="M140.716 136.758C143.654 136.573 146.622 136.573 149.59 136.635C153.084 145.508 155.341 154.877 159.113 163.658C162.236 154.691 165.111 145.663 168.172 136.696C171.109 136.604 174.047 136.604 176.984 136.696C177.85 148.878 179.086 161.06 179.612 173.242C177.324 173.242 175.067 173.242 172.81 173.242C172.006 164.554 171.635 155.804 170.769 147.116C167.275 155.65 164.802 164.616 161.617 173.273C159.484 173.366 157.351 173.335 155.217 173.242C152.156 164.585 149.683 155.681 146.034 147.24C145.292 155.897 144.952 164.616 144.148 173.273C142.108 173.273 140.067 173.273 138.026 173.242C138.614 161.029 139.881 148.909 140.716 136.758Z" fill="#231F20"/>
<path d="M241.728 139.51C243.769 139.077 245.871 138.799 247.943 138.613C248.005 141.551 248.005 144.488 248.005 147.456C249.705 147.487 251.436 147.58 253.168 147.611C253.508 149.28 253.786 150.981 254.034 152.681C252.024 152.774 250.045 152.867 248.066 152.898C248.097 157.35 247.757 161.833 248.221 166.285C248.87 168.45 251.684 167.831 253.384 168.233C253.724 169.934 253.972 171.665 254.157 173.397C250.911 173.737 247.262 174.17 244.356 172.315C242.439 171.047 241.852 168.666 241.759 166.533C241.512 162.019 241.821 157.505 241.635 152.99C240.46 152.867 239.255 152.743 238.08 152.619C238.111 150.981 238.172 149.373 238.234 147.734C239.378 147.642 240.522 147.518 241.697 147.425C241.635 144.766 241.666 142.138 241.728 139.51Z" fill="#231F20"/>
<path d="M183.477 148.136C185.672 147.703 187.898 147.456 190.125 147.332C192.134 153.207 193.897 159.174 195.968 165.018C198.071 159.328 199.709 153.454 201.565 147.672C203.698 147.548 205.8 147.487 207.934 147.518C205.553 155.309 202.461 162.853 199.833 170.583C198.442 174.139 197.576 178.158 194.67 180.848C192.289 183.012 188.857 183.105 185.858 182.579C185.58 180.879 185.301 179.178 185.023 177.509C186.507 177.478 187.991 177.571 189.444 177.323C191.423 176.643 193.155 174.262 192.258 172.16C189.383 164.121 186.229 156.206 183.477 148.136Z" fill="#231F20"/>
<path d="M212.076 147.549C213.87 147.549 215.663 147.579 217.425 147.61C217.673 148.723 217.889 149.837 218.136 150.95C220.888 148.693 224.166 146.497 227.938 147.116C231.215 147.239 233.812 150.208 233.874 153.392C234.029 159.978 233.936 166.594 233.905 173.18C231.864 173.211 229.824 173.242 227.814 173.273C227.226 167.275 227.938 161.246 227.505 155.278C227.226 152.805 224.166 152.186 222.249 153.176C220.61 153.98 218.415 155.124 218.538 157.257C218.415 162.575 218.6 167.893 218.507 173.211C216.343 173.242 214.21 173.242 212.045 173.18C212.076 164.616 212.045 156.082 212.076 147.549Z" fill="#231F20"/>
<path d="M258.949 147.549C260.773 147.549 262.598 147.549 264.422 147.58C264.638 149.064 264.886 150.548 265.133 152.063C267.39 149.713 269.864 147.27 273.326 146.992C273.883 149.033 274.192 151.135 274.254 153.238C270.853 154.011 266.988 155.433 265.473 158.803C265.164 163.596 265.535 168.419 265.349 173.211C263.216 173.242 261.083 173.242 258.949 173.18C258.949 164.616 258.949 156.082 258.949 147.549Z" fill="#231F20"/>
<path d="M41.0652 126.74C43.2296 124.143 45.5794 121.36 48.9186 120.309C52.6598 119.32 55.8444 122.257 58.1942 124.762C64.347 131.811 68.8302 140.128 73.0043 148.476C75.2613 143.405 78.0749 138.582 80.9813 133.883C83.764 129.616 86.6394 125.287 90.6589 122.041C92.514 120.618 95.0802 119.258 97.3991 120.464C100.677 122.195 103.15 125.071 105.469 127.884C110.385 134.223 114.25 141.303 117.744 148.507C122.103 157.783 125.875 167.46 127.452 177.632C127.916 182.332 128.349 187.619 125.504 191.731C123.309 194.947 119.135 196.06 115.425 195.411C112.209 194.267 109.396 192.164 107.293 189.505C102.284 183.322 99.3161 175.839 96.5643 168.45C96.1624 167.151 95.6677 165.883 95.2348 164.616C94.9566 165.914 94.5855 167.213 94.1527 168.481C91.3391 175.963 88.34 183.6 83.1765 189.814C81.105 192.35 78.3841 194.298 75.2923 195.411C70.84 196.338 66.5423 194.019 63.6668 190.742C58.0396 184.62 54.9168 176.705 52.0414 169.006C51.4849 167.429 50.9283 165.852 50.5264 164.214C50.0626 165.852 49.5061 167.491 48.9186 169.068C46.3214 176.148 43.3532 183.291 38.6536 189.258C36.0873 192.319 32.7481 195.318 28.5741 195.534C24.7092 195.875 20.9681 193.37 19.484 189.845C17.3815 184.96 17.9999 179.457 18.9274 174.355C20.9372 164.616 24.6474 155.309 29.0379 146.436C32.408 139.541 36.2419 132.8 41.0652 126.74ZM43.2605 128.905C38.499 134.965 34.696 141.767 31.2949 148.662C27.0591 157.597 23.2251 166.904 21.5865 176.705C20.999 179.426 20.999 182.239 21.2773 184.991C21.6174 187.588 22.6377 190.371 25.0184 191.7C27.3064 193.03 30.2437 192.504 32.3153 191.02C36.0255 188.423 38.499 184.466 40.6324 180.539C45.2084 171.789 48.2075 162.297 50.4645 152.743C52.8762 162.544 55.9062 172.314 60.7295 181.25C62.6465 184.558 64.6562 187.99 67.779 190.278C69.3559 191.7 71.4274 192.69 73.5917 192.443C76.0034 192.195 78.0131 190.649 79.7136 189.011C82.5891 186.042 84.6915 182.394 86.5467 178.746C90.5043 170.645 93.2251 161.988 95.3585 153.269C98.0175 163.843 101.326 174.448 107.015 183.847C109.148 187.125 111.653 190.526 115.394 192.072C118.022 193.154 121.361 192.195 122.876 189.753C124.7 186.815 124.855 183.167 124.577 179.828C124.206 174.417 122.629 169.161 120.897 164.028C117.434 154.134 112.889 144.611 107.355 135.738C104.789 131.78 102.13 127.792 98.5431 124.638C97.2755 123.525 95.3894 122.443 93.7816 123.556C90.6898 125.442 88.5564 128.441 86.3921 131.285C81.1359 138.768 76.8073 146.93 73.2516 155.34C73.1589 155.464 72.9115 155.711 72.8188 155.835C72.5096 154.876 72.2004 153.949 71.7984 153.021C68.15 145.137 64.0997 137.376 58.9363 130.389C57.1739 128.07 55.3497 125.72 52.9689 124.019C51.9486 123.308 50.5882 122.659 49.3824 123.277C46.8161 124.452 45.0228 126.771 43.2605 128.905Z" fill="#FEFEFE"/>
<path d="M43.2603 128.905C45.0227 126.772 46.8469 124.484 49.4131 123.309C50.619 122.69 51.9794 123.309 52.9997 124.051C55.3805 125.751 57.2047 128.132 58.967 130.42C64.0995 137.439 68.1808 145.168 71.8292 153.053C72.2621 153.949 72.5713 154.908 72.8495 155.866C68.0881 147.796 63.7594 139.417 57.823 132.121C56.0916 130.08 54.2674 127.916 51.763 126.834C50.3407 126.215 48.8875 127.019 47.7126 127.792C43.4458 131.379 40.2921 136.047 37.3239 140.685C30.3363 151.816 25.0801 164.029 21.6172 176.705C23.2559 166.904 27.0589 157.598 31.3257 148.662C34.6958 141.767 38.4988 134.965 43.2603 128.905Z" fill="#9E242E"/>
<path d="M93.7815 123.525C95.3893 122.412 97.2753 123.494 98.543 124.607C102.13 127.73 104.789 131.719 107.355 135.707C112.889 144.612 117.465 154.104 120.897 163.998C122.629 169.13 124.206 174.355 124.577 179.797C123.989 176.025 123 172.315 121.732 168.728C118.455 158.865 113.91 149.404 108.406 140.592C105.994 136.82 103.428 133.079 100.336 129.863C99.0995 128.627 97.77 127.328 96.0695 126.772C94.74 126.37 93.5342 127.297 92.452 127.947C89.5766 130.204 87.3504 133.11 85.217 136.047C81.4449 141.396 78.0748 147.023 75.0448 152.805C74.5501 153.733 73.9317 154.598 73.2515 155.371C76.8071 146.931 81.1357 138.799 86.3919 131.317C88.5562 128.441 90.7205 125.411 93.7815 123.525Z" fill="#9E242E"/>
<path d="M47.7127 127.792C48.8876 127.019 50.3408 126.215 51.7631 126.833C54.2675 127.915 56.0917 130.08 57.8231 132.12C63.7595 139.417 68.0881 147.796 72.8187 155.866C69.8505 164.307 66.3258 172.778 66.1093 181.837C65.9548 184.744 66.7277 187.588 67.8099 190.278C64.6871 187.99 62.6464 184.558 60.7604 181.25C55.968 172.314 52.907 162.575 50.4954 152.743C48.7639 144.58 47.1562 136.232 47.7127 127.792Z" fill="#FF912E"/>
<path d="M92.4834 127.915C93.5655 127.266 94.7714 126.338 96.1009 126.74C97.8014 127.297 99.1309 128.595 100.368 129.832C103.46 133.079 106.026 136.789 108.437 140.561C113.941 149.373 118.486 158.834 121.763 168.697C123.062 172.283 124.021 175.994 124.608 179.766C124.886 183.105 124.732 186.753 122.907 189.691C121.392 192.164 118.084 193.092 115.425 192.009C111.684 190.494 109.18 187.062 107.046 183.785C101.357 174.417 98.0488 163.812 95.3898 153.207C93.5965 144.951 91.9268 136.48 92.4834 127.915Z" fill="#F41CB2"/>
<path d="M37.3239 140.684C40.2921 136.046 43.4458 131.378 47.7126 127.791C47.1561 136.201 48.7639 144.58 50.5262 152.742C48.2692 162.327 45.2391 171.788 40.6941 180.538C38.5607 184.465 36.0872 188.423 32.3769 191.02C30.3054 192.504 27.3681 193.029 25.0801 191.7C22.6994 190.37 21.6791 187.557 21.339 184.991C21.0298 182.239 21.0607 179.425 21.6481 176.704C25.0492 164.028 30.3363 151.815 37.3239 140.684Z" fill="#F41CB2"/>
<path d="M85.2481 136.016C87.3815 133.078 89.6076 130.172 92.4831 127.915C91.9265 136.449 93.5961 144.951 95.4203 153.237C93.2869 161.987 90.5352 170.614 86.6085 178.714C84.7534 182.394 82.6509 186.011 79.7755 188.979C78.1059 190.618 76.0652 192.164 73.6536 192.411C71.4892 192.659 69.4177 191.669 67.8408 190.247C66.7587 187.557 65.9857 184.713 66.1403 181.806C66.3567 172.747 69.8815 164.244 72.8497 155.835C72.9424 155.711 73.1898 155.464 73.2825 155.34C73.9627 154.536 74.5811 153.701 75.0758 152.774C78.1368 146.992 81.476 141.365 85.2481 136.016Z" fill="#F25511"/>
</g>
<defs>
<clipPath id="clip0_451_59">
<rect width="280" height="75.5962" fill="white" transform="translate(18 120)"/>
</clipPath>
</defs>
</svg>
