<svg width="316" height="315" viewBox="0 0 316 315" fill="none" xmlns="http://www.w3.org/2000/svg">
<path fill-rule="evenodd" clip-rule="evenodd" d="M32.249 157.659C32.249 144.75 42.7138 134.284 55.6237 134.284C61.8225 134.286 67.7669 136.749 72.1501 141.132C76.5333 145.516 78.9965 151.46 78.9983 157.659C78.9965 163.858 76.5333 169.802 72.1501 174.185C67.7669 178.568 61.8225 181.032 55.6237 181.034C42.7138 181.034 32.249 170.569 32.249 157.659Z" fill="#FD3753"/>
<mask id="mask0_453_223" style="mask-type:luminance" maskUnits="userSpaceOnUse" x="32" y="134" width="48" height="48">
<path d="M32.0176 134.053H79.2296V181.263H32.0176V134.053Z" fill="#D31831"/>
</mask>
<g mask="url(#mask0_453_223)">
<path fill-rule="evenodd" clip-rule="evenodd" d="M55.6236 134.515C42.8621 134.515 32.4801 144.897 32.4801 157.659C32.4801 170.42 42.8621 180.802 55.6236 180.802C68.3851 180.802 78.767 170.42 78.767 157.659C78.767 144.897 68.3838 134.515 55.6236 134.515ZM55.6236 181.265C42.6067 181.265 32.0176 170.675 32.0176 157.659C32.0176 144.642 42.6067 134.053 55.6236 134.053C68.6404 134.053 79.2296 144.642 79.2296 157.659C79.2296 170.675 68.6404 181.265 55.6236 181.265Z" fill="#D31831"/>
</g>
<path fill-rule="evenodd" clip-rule="evenodd" d="M52.6262 167.852C53.308 167.134 53.6489 166.249 53.6489 165.196C53.6489 164.693 53.5594 164.221 53.3802 163.779C53.2033 163.341 52.9478 162.94 52.6262 162.594C52.3027 162.248 51.9324 161.973 51.514 161.77C51.0956 161.566 50.6343 161.463 50.1317 161.463C49.6772 161.463 49.2347 161.56 48.8042 161.751C48.3762 161.941 47.9914 162.216 47.6732 162.56C47.3511 162.907 47.0931 163.307 46.9019 163.761C46.7112 164.216 46.6139 164.704 46.6158 165.197C46.6158 165.7 46.7054 166.178 46.8845 166.633C47.0636 167.088 47.315 167.483 47.6385 167.817C47.962 168.152 48.3323 168.422 48.7507 168.625C49.1692 168.828 49.629 168.93 50.1317 168.93C51.1129 168.93 51.9444 168.571 52.6262 167.854V167.852ZM48.0502 169.97C47.418 169.716 46.8396 169.344 46.3458 168.875C45.8548 168.409 45.4636 167.847 45.1961 167.225C44.9204 166.585 44.7802 165.894 44.7843 165.197C44.7789 164.506 44.9192 163.821 45.1961 163.188C45.4715 162.565 45.8551 162.021 46.3458 161.554C46.84 161.085 47.4183 160.714 48.0502 160.459C48.6973 160.196 49.3911 160.065 50.1317 160.065C50.8446 160.06 51.5517 160.194 52.2132 160.459C52.8602 160.723 53.4283 161.088 53.919 161.554C54.4096 162.021 54.7933 162.565 55.0673 163.188C55.3414 163.811 55.4804 164.479 55.4804 165.197C55.4804 165.915 55.3427 166.592 55.0673 167.225C54.8008 167.848 54.41 168.409 53.919 168.875C53.4248 169.344 52.8459 169.716 52.2132 169.97C51.5675 170.233 50.8736 170.364 50.1317 170.364C49.3897 170.364 48.6973 170.233 48.0502 169.97ZM63.5362 152.778C63.9546 152.587 64.3263 152.317 64.6484 151.97C64.9752 151.619 65.2364 151.212 65.4198 150.769C65.6123 150.315 65.7072 149.836 65.7072 149.333C65.7105 148.847 65.6187 148.365 65.4372 147.915C65.258 147.472 65.0067 147.078 64.6832 146.73C64.3597 146.383 63.984 146.108 63.5522 145.905C63.1262 145.703 62.6603 145.599 62.1887 145.6C61.7308 145.601 61.2783 145.699 60.8612 145.888C60.4332 146.078 60.0439 146.345 59.7128 146.677C59.3786 147.012 59.1153 147.407 58.9228 147.861C58.7303 148.316 58.6353 148.806 58.6353 149.332C58.6353 149.834 58.7249 150.307 58.904 150.749C59.0832 151.19 59.3345 151.587 59.658 151.934C59.9785 152.279 60.3625 152.56 60.789 152.759C61.2269 152.964 61.7052 153.068 62.1887 153.064C62.6529 153.067 63.1123 152.969 63.5349 152.777L63.5362 152.778ZM65.4198 170.149L55.6234 157.659L45.6453 145.456L46.9006 144.38L56.6261 156.834L66.6751 169.037L65.4198 170.149ZM60.0912 154.071C59.4558 153.822 58.876 153.45 58.3853 152.976C57.9068 152.509 57.5244 151.965 57.237 151.344C56.9483 150.713 56.8014 150.027 56.8065 149.333C56.8065 148.615 56.9509 147.945 57.237 147.324C57.5231 146.702 57.9068 146.158 58.3853 145.69C58.8787 145.215 59.4575 144.838 60.0912 144.578C60.7502 144.302 61.4494 144.166 62.19 144.166C62.9306 144.166 63.6258 144.304 64.2715 144.578C64.9021 144.843 65.4799 145.22 65.9773 145.69C66.4679 146.158 66.8502 146.702 67.1256 147.324C67.401 147.945 67.5387 148.616 67.5387 149.333C67.5387 150.049 67.401 150.721 67.1256 151.344C66.8502 151.966 66.4679 152.509 65.9773 152.976C65.4827 153.445 64.9039 153.816 64.2715 154.071C63.6101 154.337 62.9029 154.471 62.19 154.465C61.4715 154.47 60.7589 154.336 60.0912 154.071Z" fill="white"/>
<path fill-rule="evenodd" clip-rule="evenodd" d="M95.4012 154.071V170.401H90.4482V144.919H94.289L107.568 161.643V144.955H112.521V170.401H108.502L95.4012 154.071ZM121.349 157.66C121.347 158.743 121.51 159.821 121.833 160.854C122.134 161.84 122.608 162.764 123.233 163.583C123.838 164.368 124.603 165.016 125.476 165.485C126.361 165.964 127.366 166.203 128.491 166.203C129.639 166.203 130.65 165.958 131.523 165.468C132.396 164.977 133.132 164.325 133.73 163.512C134.327 162.699 134.783 161.783 135.093 160.766C135.402 159.76 135.559 158.714 135.56 157.662C135.562 156.577 135.393 155.498 135.057 154.467C134.722 153.439 134.25 152.528 133.639 151.74C133.028 150.951 132.287 150.323 131.414 149.855C130.541 149.387 129.553 149.154 128.453 149.154C127.305 149.154 126.294 149.4 125.421 149.891C124.548 150.381 123.806 151.027 123.195 151.828C122.585 152.629 122.125 153.539 121.815 154.556C121.505 155.562 121.349 156.608 121.349 157.66ZM128.419 170.581C126.624 170.581 124.984 170.217 123.502 169.486C122.048 168.779 120.749 167.791 119.68 166.578C118.615 165.371 117.795 163.989 117.221 162.433C116.648 160.877 116.36 159.287 116.36 157.66C116.36 155.961 116.665 154.334 117.275 152.78C117.884 151.225 118.734 149.849 119.823 148.653C120.909 147.458 122.22 146.489 123.681 145.8C125.165 145.094 126.778 144.741 128.527 144.741C130.321 144.741 131.96 145.118 133.444 145.872C134.894 146.6 136.186 147.606 137.247 148.833C138.305 150.062 139.132 151.473 139.688 152.996C140.255 154.512 140.546 156.116 140.549 157.734C140.556 159.398 140.245 161.049 139.635 162.597C139.047 164.104 138.189 165.49 137.104 166.688C136.022 167.876 134.717 168.84 133.263 169.524C131.779 170.229 130.164 170.581 128.419 170.581Z" fill="#222222"/>
<path fill-rule="evenodd" clip-rule="evenodd" d="M161.078 163.259C161.078 162.684 160.976 162.128 160.773 161.591C160.57 161.053 160.294 160.58 159.947 160.172C159.604 159.769 159.183 159.439 158.709 159.203C158.218 158.961 157.677 158.838 157.13 158.843H148.014V167.601H156.879C157.449 167.607 158.013 167.484 158.53 167.242C159.032 167.004 159.475 166.685 159.857 166.291C160.242 165.892 160.547 165.423 160.754 164.909C160.969 164.383 161.078 163.831 161.078 163.258V163.259ZM148.014 147.718V156.225H156.125C156.699 156.225 157.225 156.111 157.703 155.884C158.182 155.656 158.595 155.352 158.941 154.968C159.288 154.584 159.563 154.136 159.766 153.622C159.969 153.107 160.071 152.563 160.071 151.988C160.075 151.414 159.977 150.843 159.784 150.302C159.609 149.806 159.348 149.344 159.012 148.939C158.689 148.556 158.284 148.249 157.828 148.04C157.361 147.826 156.852 147.716 156.338 147.718H148.014ZM164.343 163.833C164.355 164.764 164.152 165.685 163.751 166.525C163.366 167.325 162.816 168.035 162.136 168.606C161.455 169.181 160.664 169.624 159.767 169.934C158.87 170.244 157.907 170.4 156.879 170.4H144.784V144.919H157.453C158.338 144.919 159.14 145.11 159.858 145.494C160.576 145.877 161.186 146.373 161.689 146.983C162.191 147.593 162.58 148.286 162.856 149.064C163.131 149.843 163.269 150.626 163.269 151.415C163.269 152.683 162.952 153.856 162.318 154.932C161.685 156.008 160.781 156.81 159.608 157.337C161.068 157.767 162.222 158.564 163.072 159.723C163.922 160.882 164.346 162.254 164.346 163.833H164.343Z" fill="#424242"/>
<path d="M172.132 158.377H179.848C180.518 158.377 181.122 158.233 181.661 157.946C182.2 157.66 182.66 157.271 183.043 156.781C183.427 156.29 183.725 155.722 183.942 155.075C184.158 154.428 184.264 153.759 184.264 153.066C184.268 152.372 184.14 151.684 183.887 151.039C183.636 150.405 183.3 149.843 182.883 149.352C182.466 148.861 181.973 148.479 181.411 148.204C180.859 147.931 180.251 147.789 179.634 147.79H172.133V158.378L172.132 158.377ZM168.902 170.399V144.919H179.812C180.937 144.919 181.971 145.152 182.916 145.619C183.846 146.074 184.675 146.708 185.358 147.486C186.037 148.26 186.578 149.147 186.955 150.106C187.332 151.048 187.527 152.053 187.529 153.067C187.531 153.936 187.404 154.801 187.152 155.632C186.9 156.459 186.542 157.206 186.075 157.876C185.614 158.541 185.043 159.123 184.388 159.599C183.729 160.077 182.994 160.425 182.181 160.639L188.355 170.4H184.694L178.881 161.248H172.133V170.4H168.904L168.902 170.399Z" fill="#424242"/>
<path fill-rule="evenodd" clip-rule="evenodd" d="M194.419 157.66C194.419 158.952 194.627 160.203 195.047 161.41C195.443 162.578 196.045 163.666 196.824 164.623C197.58 165.549 198.522 166.306 199.588 166.847C200.666 167.397 201.861 167.673 203.176 167.673C204.54 167.673 205.76 167.381 206.837 166.794C207.913 166.207 208.828 165.442 209.582 164.497C210.343 163.537 210.926 162.45 211.304 161.285C211.699 160.088 211.896 158.88 211.896 157.66C211.899 156.384 211.686 155.116 211.268 153.909C210.85 152.699 210.251 151.637 209.474 150.716C208.708 149.804 207.769 149.054 206.711 148.508C205.647 147.958 204.469 147.682 203.176 147.682C201.813 147.682 200.592 147.97 199.516 148.545C198.457 149.105 197.523 149.874 196.77 150.806C196.005 151.76 195.416 152.841 195.03 154C194.626 155.178 194.419 156.415 194.419 157.66ZM203.14 170.581C201.346 170.581 199.712 170.217 198.241 169.486C196.769 168.755 195.507 167.787 194.455 166.578C193.403 165.37 192.588 163.989 192.014 162.433C191.439 160.877 191.151 159.287 191.151 157.66C191.151 155.961 191.456 154.334 192.067 152.78C192.654 151.262 193.512 149.864 194.598 148.653C195.675 147.456 196.948 146.506 198.42 145.8C199.892 145.094 201.488 144.741 203.211 144.741C205.005 144.741 206.632 145.118 208.092 145.872C209.527 146.607 210.807 147.612 211.86 148.833C212.916 150.058 213.743 151.462 214.301 152.979C214.869 154.487 215.161 156.086 215.162 157.698C215.168 159.368 214.858 161.024 214.248 162.579C213.637 164.133 212.8 165.504 211.736 166.688C210.672 167.873 209.403 168.818 207.931 169.524C206.46 170.229 204.863 170.581 203.14 170.581ZM219.685 170.401V144.955H222.915V159.023L236.05 144.919H239.532L229.302 156.152L240.105 170.401H236.588L227.329 158.019L222.915 162.612V170.401H219.685ZM260.275 167.529V170.401H242.977V144.919H259.953V147.791H246.208V156.046H258.159V158.737H246.208V167.53L260.275 167.529Z" fill="#424242"/>
<path d="M268.1 158.377H275.816C276.486 158.377 277.09 158.233 277.629 157.946C278.168 157.66 278.628 157.271 279.011 156.781C279.395 156.29 279.693 155.722 279.91 155.075C280.126 154.428 280.232 153.759 280.232 153.066C280.236 152.372 280.108 151.684 279.855 151.039C279.603 150.405 279.268 149.843 278.851 149.352C278.434 148.861 277.94 148.479 277.379 148.204C276.826 147.931 276.218 147.789 275.602 147.79H268.101V158.378L268.1 158.377ZM264.87 170.399V144.919H275.78C276.904 144.919 277.939 145.152 278.884 145.619C279.813 146.074 280.643 146.708 281.325 147.486C282.005 148.26 282.545 149.147 282.923 150.106C283.3 151.048 283.494 152.053 283.496 153.067C283.499 153.936 283.372 154.801 283.119 155.632C282.868 156.459 282.51 157.206 282.043 157.876C281.582 158.541 281.011 159.123 280.356 159.599C279.697 160.077 278.962 160.425 278.149 160.639L284.322 170.4H280.662L274.848 161.248H268.101V170.4H264.871L264.87 170.399Z" fill="#424242"/>
</svg>
