<svg width="316" height="315" viewBox="0 0 316 315" fill="none" xmlns="http://www.w3.org/2000/svg">
<path d="M109.271 123.773C111.754 118.99 103.708 120.335 103.708 120.335C100.828 120.335 99.5364 123.823 98.9404 124.819L90.2487 142.009C88.6097 144.849 83.196 157.006 81.408 159.697C81.259 156.956 81.4577 151.476 81.5073 150.18C81.855 144.999 82.2027 141.062 82.749 136.329C83.1463 132.642 83.941 128.506 83.196 124.819C82.6993 122.528 81.9543 122.378 78.6763 122.029C75.2493 121.68 72.915 126.663 71.7726 129.005C67.6006 137.674 62.9319 146.144 59.2069 155.013C58.1143 157.604 56.7733 160.195 55.6309 162.736C54.2899 165.825 53.0482 168.865 51.6079 171.904C50.0682 175.093 45.2506 185.556 43.9095 188.844C42.4195 192.432 42.1215 195.322 48.0816 195.172C49.0252 195.172 51.1112 195.371 53.6939 192.581C55.7303 190.389 56.1276 188.346 57.3196 185.307C61.5909 174.545 64.6206 167.42 69.2893 156.757C69.7363 155.711 70.7793 152.672 71.8223 150.33C71.7726 153.668 71.2263 157.654 70.978 160.295C70.1833 169.961 69.637 179.278 68.7926 188.844C68.6933 190.14 68.3456 191.684 68.9416 192.88C69.5376 194.076 71.0276 194.375 72.2196 194.524C76.9877 195.122 77.4843 192.731 78.9743 189.442C80.3153 186.503 81.11 184.111 82.302 181.122C85.9773 171.904 89.8514 162.786 94.1227 153.818C95.2154 151.526 96.308 149.283 97.5 147.041C99.6854 142.906 101.473 139.02 103.857 134.436C105.645 131.147 107.384 127.41 109.271 123.773ZM272.923 149.732C272.377 144.201 264.828 146.992 260.308 147.839C258.619 148.137 253.404 149.134 247.395 150.28C247.146 144.052 247.246 145.297 247.196 141.511C247.047 136.03 246.749 131.745 246.451 126.912C246.252 123.873 245.805 119.638 240.342 120.435C233.984 121.332 232.941 124.521 231.253 128.357C226.832 138.372 226.981 138.422 221.965 149.582C221.568 150.429 219.73 154.914 219.432 155.811C219.233 155.86 218.836 155.96 218.339 156.109C216.303 156.558 213.82 157.106 211.088 157.704L211.138 157.455C211.783 152.373 212.578 147.29 213.273 142.208C213.919 137.575 214.614 130.001 215.161 125.368C215.757 120.385 209.995 120.485 209.995 120.485C206.469 120.285 205.128 121.332 202.893 124.222C199.069 129.204 194.45 134.585 190.377 140.066C182.977 149.981 177.563 157.455 170.858 167.42C168.921 170.31 165.941 174.694 163.358 178.132C161.62 174.694 160.13 170.907 158.69 167.42C156.604 162.437 155.064 159.348 154.071 156.06C153.177 153.17 154.269 152.771 156.405 151.127C162.564 146.443 169.517 143.205 175.825 138.721C180.295 135.532 185.659 131.994 190.029 128.706C190.029 128.706 192.562 127.211 193.953 125.318C195.691 122.926 190.774 120.435 190.774 120.435C187.993 119.986 186.453 120.634 184.516 121.531C182.53 122.428 179.947 124.471 178.258 125.816C174.533 128.706 169.815 132.144 166.14 135.034C161.62 138.571 158.541 140.763 153.574 143.703L166.189 124.77C170.312 119.438 159.385 117.944 155.213 123.574C151.339 128.606 148.707 133.041 145.677 137.624C138.376 148.536 132.366 159.996 126.356 172.004C124.072 176.587 121.837 181.371 119.751 186.104C118.757 188.396 115.827 193.677 119.85 194.225C128.442 195.322 129.833 191.236 131.77 186.303C134.949 178.182 135.992 176.687 138.028 171.655C140.015 166.772 141.455 163.982 143.69 159.797C143.74 159.747 144.386 158.7 144.386 158.7C144.783 159.547 147.415 168.317 147.763 169.313C149.551 174.046 152.68 185.108 154.468 190.14C155.759 194.325 156.107 195.521 161.719 195.371C164.501 195.322 165.693 194.225 167.53 190.738C169.368 187.25 177.315 172.402 177.315 172.402C179.699 172.004 183.126 171.406 185.361 171.007C185.758 170.957 186.652 170.758 187.894 170.509C188.738 170.409 189.433 170.26 189.98 170.11C190.029 170.11 190.029 170.11 190.079 170.06C192.264 169.612 195.046 169.064 198.075 168.466C197.529 171.206 195.84 177.235 195.493 178.78C195.493 178.78 191.817 193.129 196.585 193.877C199.565 194.325 201.105 193.827 201.105 193.827C206.668 193.179 206.767 185.656 206.767 185.656L209.797 166.174C211.982 165.726 214.167 165.277 216.303 164.879L209.747 187.101C208.803 190.24 208.108 194.275 213.72 194.275C218.29 194.524 218.588 191.635 218.588 191.635C218.687 191.186 222.313 179.477 223.207 175.292C223.803 172.602 225.938 165.676 226.783 162.886C229.167 162.437 230.955 162.088 231.799 161.939C232.792 161.79 234.729 161.441 237.263 161.042C237.213 163.633 237.263 167.22 237.312 167.719C237.859 175.591 237.263 183.762 238.902 191.485C239.15 192.731 239.647 194.325 241.236 194.325C243.123 194.325 243.719 194.126 245.706 193.976C251.467 193.478 250.424 187.649 250.077 183.962C249.679 179.876 249.282 176.438 248.736 172.352C248.289 169.014 247.991 164.63 247.941 159.348V159.248C257.378 157.654 267.559 155.91 269.049 155.661C271.433 155.013 273.42 155.213 272.923 149.732ZM199.168 160.195C199.168 160.245 199.118 160.245 199.118 160.295C192.513 161.74 186.304 163.135 182.828 163.932C186.304 158.102 201.602 136.877 203.936 134.386C202.645 140.963 200.559 153.17 199.168 160.195ZM237.312 151.825V152.173C234.133 152.771 231.153 153.369 228.769 153.818C231.799 145.945 234.978 136.279 236.865 131.396C236.716 135.034 237.461 148.237 237.312 151.825ZM144.684 128.357C145.677 126.513 147.912 122.876 145.131 121.481C143.492 120.684 141.306 120.186 139.618 121.033C138.227 121.78 137.184 123.225 136.489 124.57L125.86 141.361C124.121 143.753 122.482 146.742 118.956 147.141C116.622 147.39 114.933 146.394 114.983 144.301C115.032 142.159 116.274 139.318 117.218 137.475C119.999 132.194 120.347 130.4 123.029 125.168C125.611 120.136 117.168 118.99 115.082 122.627C113.592 125.218 110.711 130.101 110.066 131.745C108.874 134.735 99.9337 148.985 103.808 154.615C108.774 160.992 121.986 150.928 115.231 162.537C109.768 171.854 106.341 177.185 101.573 185.805C100.53 187.649 99.2384 189.492 98.8907 191.684C98.3941 194.774 102.616 194.724 104.453 194.624C107.682 194.375 109.221 192.88 110.513 189.941C111.208 188.396 112.152 186.503 112.847 184.958C119.105 171.256 125.76 159.348 134.005 146.095C137.929 139.817 141.406 134.436 144.684 128.357Z" fill="#FC2779"/>
</svg>
