<svg width="316" height="315" viewBox="0 0 316 315" fill="none" xmlns="http://www.w3.org/2000/svg">
<path d="M186.326 160.761H157.057V157.291H184.728L176.281 139.118H157.057V135.648H174.682L165.322 115.557H138.838V180.898H195.732L186.326 160.761Z" fill="#0077F5"/>
<path d="M240.891 115.557H170.344L179.431 135.648H200.298V180.852H220.206V135.648H240.891V115.557Z" fill="#0077F5"/>
<path d="M134.273 115.557H77.2876V135.648H104.73L77.2876 160.761V180.852H134.273V160.761H106.785L134.227 135.648V115.557H134.273Z" fill="#0077F5"/>
<path d="M81.2603 188.843C79.7535 190.532 78.9773 192.496 78.9773 194.687C78.9773 196.879 79.7078 198.843 81.2603 200.532H79.8905C78.4293 198.888 77.6074 196.833 77.6074 194.687C77.6074 192.496 78.3837 190.487 79.8905 188.843H81.2603Z" fill="#231F20"/>
<path d="M87.5617 188.843C89.9361 188.843 91.1689 189.939 91.1689 192.039C91.1689 194.139 89.9361 195.235 87.5617 195.235H84.6394V198.979H83.1782V188.843H87.5617ZM87.516 193.957C88.9772 193.957 89.7078 193.318 89.7078 192.039C89.7078 190.761 88.9772 190.121 87.516 190.121H84.6394V193.911H87.516V193.957Z" fill="#231F20"/>
<path d="M97.196 191.994V193.272H97.1503C96.8307 193.044 96.4654 192.953 96.0544 192.953C94.6846 192.953 93.9997 193.911 93.9997 195.784V199.026H92.7212V191.857H93.8171L93.8627 192.998H93.9084C94.3193 192.131 95.0956 191.72 96.1914 191.72C96.5567 191.72 96.922 191.811 97.196 191.994Z" fill="#231F20"/>
<path d="M99.0683 195.875C99.251 197.199 100.301 198.021 101.945 198.021C102.995 198.021 103.908 197.701 104.593 197.062H104.639V198.386C104 198.889 102.995 199.208 101.899 199.208C99.3879 199.208 97.7441 197.747 97.7441 195.464C97.7441 193.272 99.2966 191.72 101.488 191.72C103.68 191.72 105.096 193.09 105.096 195.144V195.875H99.0683ZM99.0683 194.779H103.908C103.726 193.637 102.813 192.861 101.488 192.861C100.255 192.861 99.2966 193.637 99.0683 194.779Z" fill="#231F20"/>
<path d="M108.565 199.025L105.552 191.856H106.967L109.25 197.655H109.296L111.579 191.856H112.903L109.89 199.025H108.565Z" fill="#231F20"/>
<path d="M115.552 189.62C115.552 190.122 115.186 190.487 114.684 190.487C114.182 190.487 113.816 190.122 113.816 189.62C113.816 189.117 114.182 188.752 114.684 188.752C115.186 188.752 115.552 189.117 115.552 189.62ZM114.045 191.857H115.323V199.026H114.045V191.857Z" fill="#231F20"/>
<path d="M124.455 195.418C124.455 197.61 122.903 199.162 120.665 199.162C118.428 199.162 116.875 197.61 116.875 195.418C116.875 193.226 118.474 191.674 120.665 191.674C122.857 191.674 124.455 193.226 124.455 195.418ZM118.2 195.418C118.2 196.925 119.204 197.975 120.665 197.975C122.126 197.975 123.131 196.925 123.131 195.418C123.131 193.911 122.126 192.861 120.665 192.861C119.204 192.861 118.2 193.911 118.2 195.418Z" fill="#231F20"/>
<path d="M131.396 199.025L131.35 197.884H131.305C130.802 198.706 129.935 199.162 128.748 199.162C126.921 199.162 125.825 197.975 125.825 196.012V191.856H127.104V195.875C127.104 197.199 127.834 198.021 129.067 198.021C130.391 198.021 131.213 197.107 131.213 195.601V191.902H132.492V199.071H131.396V199.025Z" fill="#231F20"/>
<path d="M139.25 192.268V193.638H139.204C138.702 193.136 137.971 192.862 136.967 192.862C136.054 192.862 135.46 193.272 135.46 193.912C135.46 194.414 135.825 194.688 137.012 194.734C138.976 194.825 139.706 195.51 139.706 196.925C139.706 198.295 138.611 199.163 136.875 199.163C135.688 199.163 134.729 198.889 134.136 198.432V197.017H134.181C134.775 197.656 135.643 198.021 136.784 198.021C137.743 198.021 138.382 197.61 138.382 196.971C138.382 196.377 137.971 196.103 136.693 196.058C134.821 195.921 134.136 195.327 134.136 194.049C134.136 192.679 135.232 191.766 136.921 191.766C137.88 191.72 138.748 191.903 139.25 192.268Z" fill="#231F20"/>
<path d="M141.122 188.295H142.401V198.98H141.122V188.295Z" fill="#231F20"/>
<path d="M145.094 201.902L146.556 198.751L143.542 191.856H144.957L147.241 197.381H147.286L149.569 191.856H150.893L146.419 201.902H145.094Z" fill="#231F20"/>
<path d="M165.961 193.911C165.961 196.97 163.77 199.162 160.619 199.162C157.469 199.162 155.277 196.97 155.277 193.911C155.277 190.852 157.469 188.66 160.619 188.66C163.77 188.66 165.961 190.852 165.961 193.911ZM157.56 193.911C157.56 195.829 158.793 197.107 160.619 197.107C162.446 197.107 163.678 195.783 163.678 193.911C163.678 191.993 162.446 190.715 160.619 190.715C158.793 190.715 157.56 192.039 157.56 193.911Z" fill="#231F20"/>
<path d="M174.135 194.733V198.979H172.126V194.961C172.126 193.957 171.624 193.409 170.802 193.409C169.889 193.409 169.341 194.048 169.341 195.144V198.979H167.332V191.811H169.021L169.112 192.815H169.158C169.569 192.085 170.345 191.628 171.395 191.628C173.085 191.674 174.135 192.815 174.135 194.733Z" fill="#231F20"/>
<path d="M177.377 195.92C177.605 196.879 178.473 197.427 179.705 197.427C180.756 197.427 181.623 197.108 182.217 196.56H182.308V198.477C181.715 198.888 180.756 199.162 179.614 199.162C177.057 199.162 175.368 197.655 175.368 195.418C175.368 193.226 176.92 191.674 179.112 191.674C181.349 191.674 182.719 192.998 182.719 195.098V195.92H177.377ZM177.377 194.733H180.938C180.801 193.866 180.116 193.409 179.158 193.409C178.29 193.409 177.559 193.866 177.377 194.733Z" fill="#231F20"/>
<path d="M192.217 189.482V191.948H192.125C191.486 191.126 190.436 190.715 189.203 190.715C187.24 190.715 185.961 191.993 185.961 193.911C185.961 195.829 187.24 197.107 189.203 197.107C190.436 197.107 191.486 196.696 192.125 195.874H192.217V198.34C191.395 198.888 190.482 199.116 189.112 199.116C185.87 199.116 183.678 196.925 183.678 193.865C183.678 190.806 185.87 188.614 189.112 188.614C190.482 188.706 191.395 188.934 192.217 189.482Z" fill="#231F20"/>
<path d="M201.12 195.418C201.12 197.61 199.522 199.162 197.285 199.162C195.002 199.162 193.449 197.61 193.449 195.418C193.449 193.226 195.047 191.674 197.285 191.674C199.522 191.674 201.12 193.226 201.12 195.418ZM195.413 195.418C195.413 196.56 196.143 197.381 197.239 197.381C198.289 197.381 199.065 196.56 199.065 195.418C199.065 194.277 198.335 193.455 197.239 193.455C196.189 193.455 195.413 194.231 195.413 195.418Z" fill="#231F20"/>
<path d="M208.015 199.025L207.969 198.067H207.924C207.467 198.752 206.645 199.162 205.595 199.162C203.54 199.162 202.079 197.564 202.079 195.418C202.079 193.272 203.54 191.674 205.595 191.674C206.463 191.674 207.193 191.948 207.65 192.45H207.695V188.341H209.705V199.025H208.015ZM207.741 195.418C207.741 194.277 207.01 193.455 205.915 193.455C204.819 193.455 204.088 194.277 204.088 195.418C204.088 196.56 204.819 197.382 205.915 197.382C206.965 197.382 207.741 196.56 207.741 195.418Z" fill="#231F20"/>
<path d="M213.038 195.92C213.266 196.879 214.134 197.427 215.367 197.427C216.417 197.427 217.284 197.108 217.878 196.56H217.969V198.477C217.376 198.888 216.417 199.162 215.275 199.162C212.718 199.162 211.029 197.655 211.029 195.418C211.029 193.226 212.581 191.674 214.773 191.674C217.01 191.674 218.38 192.998 218.38 195.098V195.92H213.038ZM213.038 194.733H216.599C216.462 193.866 215.778 193.409 214.819 193.409C213.951 193.409 213.221 193.866 213.038 194.733Z" fill="#231F20"/>
<path d="M219.614 200.578C221.121 198.888 221.897 196.925 221.897 194.733C221.897 192.542 221.166 190.578 219.614 188.889H220.984C222.445 190.532 223.267 192.587 223.267 194.733C223.267 196.925 222.49 198.934 220.984 200.578H219.614Z" fill="#231F20"/>
</svg>
