<svg width="316" height="315" viewBox="0 0 316 315" fill="none" xmlns="http://www.w3.org/2000/svg">
<path d="M234.465 198.602C256.815 198.602 275 180.297 275 157.801C275 135.292 256.815 117 234.465 117C212.111 117 193.931 135.292 193.931 157.801C193.931 180.297 212.111 198.602 234.465 198.602ZM234.465 143.252C242.43 143.252 248.917 149.778 248.917 157.797C248.917 165.815 242.426 172.332 234.461 172.332C226.492 172.332 220.014 165.815 220.014 157.792C220.014 149.765 226.496 143.243 234.461 143.243L234.465 143.252ZM81.5347 198.602C103.884 198.602 122.069 180.297 122.069 157.801C122.069 135.292 103.884 117 81.5347 117C59.1895 117 41 135.292 41 157.801C41 180.297 59.1895 198.602 81.5347 198.602ZM81.5347 143.252C89.504 143.252 95.986 149.778 95.986 157.797C95.986 165.815 89.504 172.332 81.5347 172.332C73.5698 172.332 67.0922 165.815 67.0922 157.792C67.0922 149.765 73.5742 143.243 81.5347 143.243V143.252ZM157.978 142.333L145.533 117.533H116.395L143.611 171.786V197.328H172.349V171.786L199.565 117.533H170.413L157.982 142.333H157.978Z" fill="#EE2E24"/>
</svg>
