<svg width="316" height="315" viewBox="0 0 316 315" fill="none" xmlns="http://www.w3.org/2000/svg">
<g clip-path="url(#clip0_433_767)">
<path d="M86.0127 157.505C86.0127 145.622 68.8394 125.975 54.2239 118.258C50.3429 116.214 46.6522 115 43.5052 115C39.7035 115 35.0885 116.758 30.3443 119.633C25.7111 122.427 20.9374 126.294 16.6328 130.606C12.2737 134.967 8.37458 139.79 5.56295 144.471C2.75132 149.152 1 153.719 1 157.489C1 172.522 28.4751 199.997 43.5052 199.997C47.3069 199.997 51.888 198.239 56.6458 195.38C61.2767 192.584 66.0708 188.703 70.3981 184.389C74.7254 180.075 78.6404 175.22 81.4362 170.569C84.2705 165.845 86.0127 161.275 86.0127 157.505Z" fill="#494949"/>
<path d="M57.4499 143.56C53.0798 138.949 48.4391 134.602 43.5526 130.542C39.4745 127.189 35.2785 124.185 31.0781 121.806C26.7168 124.441 22.2127 128.081 18.1392 132.155L43.4891 157.505L57.4499 143.56Z" fill="#40C9FF"/>
<path d="M53.6167 120.494C49.96 118.562 46.4778 117.429 43.5053 117.429C39.912 117.429 35.5756 119.089 31.0942 121.806C35.2947 124.169 39.4974 127.189 43.571 130.542L53.6167 120.494Z" fill="#9661BA"/>
<path d="M56.716 170.716L43.5052 157.505L18.1553 132.155C14.0341 136.261 10.3615 140.828 7.7085 145.239C16.191 159.902 32.3244 174.586 43.6185 183.814L56.716 170.716Z" fill="#FFA233"/>
<path d="M55.8845 193.223C54.8627 192.505 50.0075 189.022 43.6185 183.798C32.3244 174.586 16.1909 159.902 7.70846 145.239C5.05769 149.664 3.42871 153.969 3.42871 157.505C3.42871 171.674 29.3383 197.584 43.5052 197.584C47.0849 197.584 51.4122 195.923 55.8845 193.223Z" fill="#FF5A7E"/>
<path d="M83.5841 157.505C83.5841 146.309 67.3872 127.778 53.6168 120.494L43.5711 130.542C48.4513 134.603 53.0858 138.95 57.4502 143.56L43.5054 157.505L56.7162 170.716L43.6187 183.814C50.0235 189.038 54.8629 192.504 55.8847 193.239C60.2619 190.604 64.7659 186.945 68.8554 182.871C72.9448 178.798 76.6196 174.23 79.2772 169.821C81.9551 165.365 83.5841 161.069 83.5841 157.505Z" fill="#FFD91D"/>
<path d="M106.99 170.592C106.641 170.442 106.34 170.197 106.123 169.885C105.874 169.539 105.753 169.117 105.78 168.692C105.808 168.267 105.983 167.864 106.274 167.554C106.437 167.38 106.634 167.243 106.854 167.152C107.073 167.061 107.31 167.018 107.548 167.026C107.831 167.026 108.11 167.084 108.37 167.196C111.048 168.374 113.947 168.969 116.873 168.94C121.906 168.94 124.423 167.286 124.424 163.976C124.433 163.566 124.35 163.16 124.182 162.786C124.014 162.412 123.765 162.08 123.452 161.815C122.751 161.208 121.936 160.746 121.055 160.455C120.101 160.125 118.751 159.728 116.995 159.266C115.075 158.794 113.184 158.212 111.331 157.522C109.916 156.976 108.647 156.11 107.622 154.991C106.585 153.867 106.065 152.376 106.064 150.519C106.049 148.93 106.503 147.372 107.369 146.039C108.317 144.641 109.642 143.541 111.191 142.868C112.872 142.075 114.892 141.678 117.251 141.678C120.174 141.638 123.081 142.118 125.836 143.094C126.204 143.2 126.526 143.43 126.745 143.745C126.965 144.059 127.07 144.44 127.043 144.823C127.042 145.284 126.874 145.729 126.572 146.078C126.419 146.26 126.226 146.404 126.009 146.5C125.791 146.596 125.555 146.642 125.317 146.633C125.079 146.615 124.845 146.558 124.626 146.463C122.392 145.69 120.043 145.299 117.679 145.308C115.405 145.308 113.558 145.739 112.14 146.601C110.715 147.46 110.008 148.667 110.008 150.226C109.989 150.695 110.07 151.163 110.243 151.599C110.417 152.035 110.68 152.429 111.016 152.757C111.745 153.44 112.615 153.955 113.565 154.266C114.931 154.718 116.32 155.096 117.727 155.399C119.596 155.824 121.434 156.373 123.23 157.041C124.616 157.581 125.845 158.457 126.808 159.59C127.798 160.741 128.298 162.291 128.298 164.253C128.317 165.81 127.834 167.332 126.921 168.594C125.926 169.927 124.584 170.962 123.042 171.586C121.205 172.342 119.232 172.708 117.247 172.663C113.723 172.677 110.233 171.972 106.99 170.592Z" fill="#494949"/>
<path d="M133.794 171.885C133.611 171.707 133.467 171.492 133.371 171.255C133.275 171.018 133.231 170.763 133.239 170.507V142.504C133.234 142.245 133.28 141.987 133.375 141.745C133.471 141.503 133.613 141.283 133.794 141.097C133.972 140.91 134.186 140.761 134.423 140.661C134.661 140.56 134.916 140.51 135.174 140.513C135.7 140.513 136.204 140.722 136.576 141.093C136.948 141.465 137.157 141.969 137.157 142.495V153.753C138.173 152.604 139.368 151.626 140.696 150.858C142.066 150.112 143.608 149.741 145.168 149.781C146.623 149.746 148.057 150.136 149.294 150.903C150.457 151.651 151.383 152.714 151.965 153.968C152.594 155.305 152.917 156.766 152.907 158.244V170.496C152.912 170.754 152.863 171.01 152.762 171.247C152.662 171.485 152.512 171.698 152.323 171.874C152.138 172.054 151.92 172.196 151.681 172.292C151.441 172.388 151.185 172.435 150.927 172.431C150.418 172.436 149.927 172.239 149.562 171.883C149.198 171.527 148.989 171.042 148.981 170.532V158.672C148.981 155.16 147.402 153.404 144.243 153.404C142.875 153.388 141.534 153.783 140.392 154.537C139.164 155.364 138.074 156.38 137.163 157.548V170.489C137.168 170.747 137.118 171.003 137.017 171.241C136.916 171.478 136.766 171.691 136.577 171.867C136.391 172.048 136.172 172.191 135.93 172.287C135.689 172.382 135.431 172.429 135.172 172.424C134.917 172.436 134.663 172.394 134.426 172.301C134.188 172.208 133.973 172.067 133.794 171.885Z" fill="#494949"/>
<path d="M170.255 168.28C171.385 167.705 172.397 166.924 173.239 165.976V162.351H168.529C164.185 162.351 162.014 163.484 162.015 165.749C161.998 166.217 162.084 166.683 162.266 167.113C162.449 167.544 162.725 167.929 163.073 168.242C163.771 168.874 164.951 169.195 166.585 169.195C167.865 169.199 169.126 168.884 170.255 168.28ZM161.601 171.885C160.546 171.391 159.655 170.604 159.034 169.619C158.394 168.596 158.065 167.409 158.089 166.203C158.061 165.213 158.276 164.232 158.715 163.345C159.155 162.458 159.806 161.693 160.611 161.116C162.289 159.85 164.763 159.218 168.01 159.218H173.221V158.869C173.221 156.972 172.753 155.606 171.816 154.773C170.881 153.932 169.419 153.517 167.437 153.517C166.458 153.506 165.48 153.595 164.519 153.782C163.564 153.984 162.622 154.242 161.698 154.555C161.516 154.603 161.329 154.632 161.141 154.641C160.929 154.638 160.72 154.594 160.526 154.51C160.332 154.426 160.156 154.305 160.009 154.153C159.862 154.002 159.746 153.822 159.668 153.626C159.59 153.429 159.551 153.219 159.555 153.008C159.542 152.649 159.646 152.295 159.85 151.999C160.054 151.703 160.347 151.481 160.688 151.365C163.049 150.345 165.592 149.816 168.164 149.809C170.147 149.809 171.824 150.211 173.194 151.016C174.484 151.74 175.534 152.826 176.214 154.14C176.854 155.431 177.18 156.853 177.168 158.293V170.507C177.173 170.765 177.124 171.021 177.023 171.259C176.922 171.496 176.772 171.71 176.583 171.885C176.399 172.065 176.18 172.208 175.94 172.303C175.7 172.399 175.444 172.446 175.185 172.442C174.676 172.446 174.186 172.249 173.822 171.893C173.458 171.538 173.249 171.053 173.241 170.544V169.374C171.091 171.557 168.381 172.645 165.112 172.639C163.899 172.666 162.696 172.408 161.601 171.885Z" fill="#494949"/>
<path d="M184.318 171.885C184.135 171.706 183.99 171.492 183.894 171.255C183.798 171.017 183.753 170.763 183.761 170.507V151.999C183.756 151.74 183.802 151.481 183.898 151.24C183.994 150.998 184.136 150.778 184.318 150.592C184.494 150.405 184.708 150.256 184.945 150.155C185.182 150.054 185.438 150.004 185.695 150.008C185.956 150.008 186.213 150.059 186.454 150.158C186.694 150.257 186.913 150.403 187.097 150.587C187.281 150.771 187.427 150.989 187.527 151.23C187.627 151.47 187.678 151.728 187.678 151.988V153.83C189.69 151.129 191.953 149.77 194.454 149.77H194.681C194.934 149.764 195.185 149.811 195.419 149.907C195.653 150.003 195.864 150.146 196.04 150.327C196.39 150.7 196.579 151.194 196.568 151.705C196.577 151.955 196.532 152.204 196.436 152.436C196.34 152.667 196.196 152.875 196.013 153.046C195.822 153.223 195.598 153.361 195.353 153.452C195.109 153.543 194.849 153.584 194.588 153.574H194.361C193.03 153.564 191.722 153.916 190.576 154.594C189.409 155.284 188.42 156.238 187.687 157.378V170.507C187.692 170.765 187.643 171.021 187.542 171.259C187.442 171.496 187.292 171.709 187.102 171.885C186.917 172.066 186.697 172.209 186.455 172.305C186.213 172.401 185.955 172.447 185.695 172.442C185.44 172.452 185.184 172.407 184.947 172.311C184.71 172.215 184.495 172.07 184.318 171.885Z" fill="#494949"/>
<path d="M214.992 159.418C214.957 158.159 214.575 156.935 213.889 155.879C213.294 154.977 212.465 154.252 211.492 153.783C210.59 153.34 209.599 153.11 208.594 153.11C207.589 153.11 206.598 153.34 205.696 153.783C204.723 154.244 203.899 154.97 203.32 155.879C202.651 156.941 202.28 158.163 202.244 159.418H214.992ZM201.251 169.667C199.278 167.667 198.306 164.864 198.306 161.239C198.285 159.293 198.671 157.364 199.439 155.575C200.157 153.884 201.347 152.436 202.867 151.404C204.425 150.337 206.331 149.818 208.605 149.818C210.728 149.818 212.579 150.319 214.136 151.309C215.659 152.272 216.882 153.642 217.666 155.265C218.48 156.954 218.894 158.807 218.875 160.682C218.891 161.18 218.709 161.663 218.369 162.027C218.03 162.391 217.56 162.606 217.063 162.626H202.271C202.497 164.638 203.252 166.203 204.516 167.327C205.78 168.451 207.556 169.006 209.82 169.006C210.888 169.023 211.953 168.906 212.992 168.657C213.908 168.421 214.798 168.089 215.645 167.667C215.884 167.546 216.15 167.487 216.417 167.497C216.865 167.497 217.296 167.665 217.625 167.968C217.794 168.12 217.929 168.307 218.02 168.515C218.112 168.723 218.158 168.948 218.155 169.176C218.155 169.808 217.777 170.347 217.022 170.762C214.746 172.122 212.12 172.783 209.471 172.66C205.962 172.66 203.222 171.663 201.251 169.667Z" fill="#494949"/>
<path d="M230.16 170.79C227.884 169.547 226.013 167.677 224.77 165.401C223.458 163.06 222.804 160.312 222.804 157.181C222.804 154.05 223.454 151.311 224.766 148.959C226.008 146.683 227.879 144.813 230.156 143.571C232.537 142.298 235.204 141.652 237.904 141.693C239.677 141.663 241.445 141.892 243.151 142.373C244.752 142.86 246.294 143.524 247.748 144.353C248.048 144.507 248.297 144.743 248.466 145.034C248.635 145.326 248.717 145.659 248.702 145.996C248.7 146.218 248.653 146.437 248.564 146.64C248.475 146.844 248.346 147.027 248.185 147.18C248.023 147.332 247.833 147.451 247.625 147.528C247.417 147.605 247.195 147.639 246.973 147.629C246.706 147.634 246.441 147.576 246.201 147.459C245.018 146.834 243.775 146.328 242.492 145.948C241.129 145.58 239.721 145.403 238.31 145.42C235.837 145.42 233.729 145.93 231.986 146.949C230.288 147.919 228.92 149.376 228.06 151.132C227.192 153.019 226.743 155.071 226.743 157.148C226.743 159.225 227.192 161.277 228.06 163.164C228.92 164.92 230.288 166.376 231.986 167.344C233.722 168.364 235.838 168.874 238.31 168.874C239.721 168.893 241.129 168.715 242.492 168.346C243.775 167.966 245.018 167.46 246.201 166.835C246.441 166.718 246.706 166.661 246.973 166.667C247.203 166.657 247.433 166.694 247.649 166.775C247.864 166.856 248.062 166.98 248.228 167.138C248.383 167.289 248.504 167.469 248.586 167.669C248.667 167.869 248.707 168.083 248.702 168.298C248.719 168.635 248.638 168.97 248.469 169.261C248.3 169.553 248.049 169.789 247.748 169.941C246.296 170.774 244.754 171.439 243.151 171.923C241.444 172.402 239.677 172.631 237.904 172.603C235.209 172.679 232.541 172.054 230.16 170.79Z" fill="#494949"/>
<path d="M254.387 171.885C254.205 171.706 254.063 171.491 253.969 171.254C253.876 171.016 253.832 170.762 253.843 170.507V142.504C253.837 142.245 253.883 141.987 253.979 141.745C254.074 141.503 254.217 141.283 254.398 141.097C254.575 140.91 254.789 140.761 255.027 140.661C255.264 140.56 255.52 140.51 255.778 140.513C256.303 140.513 256.808 140.722 257.179 141.093C257.551 141.465 257.76 141.969 257.76 142.495V153.753C258.776 152.604 259.971 151.626 261.299 150.858C262.669 150.112 264.212 149.741 265.771 149.781C267.226 149.746 268.66 150.136 269.897 150.903C271.056 151.652 271.978 152.715 272.557 153.968C273.182 155.306 273.498 156.767 273.481 158.244V170.496C273.486 170.754 273.437 171.01 273.336 171.247C273.236 171.485 273.086 171.698 272.897 171.874C272.711 172.055 272.491 172.198 272.249 172.293C272.008 172.389 271.749 172.436 271.49 172.431C270.98 172.436 270.49 172.239 270.126 171.883C269.761 171.527 269.553 171.041 269.546 170.532V158.672C269.546 155.16 267.967 153.404 264.808 153.404C263.44 153.388 262.099 153.783 260.957 154.537C259.731 155.367 258.644 156.387 257.737 157.557V170.498C257.743 170.756 257.693 171.012 257.593 171.25C257.492 171.487 257.342 171.7 257.153 171.876C256.968 172.056 256.75 172.199 256.51 172.294C256.27 172.39 256.013 172.437 255.755 172.433C255.501 172.445 255.247 172.402 255.011 172.307C254.775 172.213 254.562 172.069 254.387 171.885Z" fill="#494949"/>
<path d="M290.838 168.28C291.968 167.706 292.979 166.925 293.82 165.976V162.351H289.121C284.785 162.351 282.616 163.484 282.616 165.75C282.598 166.217 282.683 166.684 282.866 167.114C283.049 167.545 283.325 167.93 283.674 168.242C284.372 168.874 285.553 169.196 287.186 169.196C288.461 169.199 289.716 168.884 290.838 168.28ZM282.193 171.885C281.138 171.391 280.247 170.605 279.626 169.619C278.985 168.593 278.654 167.404 278.672 166.194C278.643 165.203 278.859 164.221 279.301 163.334C279.742 162.447 280.395 161.682 281.203 161.107C282.881 159.841 285.356 159.209 288.602 159.209H293.813V158.86C293.813 156.963 293.345 155.598 292.408 154.764C291.473 153.923 290.011 153.509 288.029 153.509C287.05 153.497 286.072 153.586 285.111 153.774C284.156 153.975 283.214 154.233 282.29 154.546C282.108 154.594 281.921 154.623 281.733 154.632C281.521 154.629 281.313 154.585 281.118 154.501C280.924 154.417 280.748 154.296 280.601 154.144C280.454 153.993 280.338 153.813 280.26 153.617C280.182 153.42 280.144 153.21 280.147 152.999C280.134 152.64 280.238 152.286 280.442 151.99C280.646 151.695 280.94 151.472 281.28 151.356C283.641 150.336 286.184 149.807 288.756 149.8C290.739 149.8 292.416 150.202 293.786 151.007C295.076 151.731 296.126 152.817 296.806 154.132C297.456 155.422 297.79 156.849 297.78 158.294V170.508C297.785 170.766 297.736 171.022 297.634 171.259C297.533 171.497 297.383 171.71 297.193 171.885C297.008 172.067 296.789 172.21 296.547 172.306C296.306 172.402 296.048 172.448 295.789 172.442C295.281 172.449 294.791 172.254 294.426 171.901C294.061 171.547 293.851 171.063 293.843 170.555V169.393C291.71 171.583 289.005 172.675 285.727 172.669C284.504 172.682 283.295 172.414 282.193 171.885Z" fill="#494949"/>
<path d="M316 170.376C316 171.035 315.669 171.545 315.01 171.885C313.889 172.405 312.668 172.676 311.433 172.678C307.232 172.678 305.133 170.781 305.136 166.987V153.604H302.644C302.419 153.612 302.195 153.573 301.986 153.488C301.778 153.403 301.59 153.275 301.434 153.112C301.283 152.955 301.163 152.77 301.083 152.567C301.003 152.364 300.964 152.147 300.968 151.929C300.959 151.716 300.992 151.504 301.066 151.303C301.139 151.103 301.251 150.919 301.396 150.763C301.541 150.606 301.715 150.479 301.908 150.39C302.102 150.3 302.311 150.25 302.524 150.241H305.13V142.448C305.128 141.937 305.329 141.447 305.688 141.084C306.047 140.721 306.536 140.516 307.046 140.513H307.064C307.325 140.509 307.583 140.557 307.825 140.655C308.066 140.752 308.286 140.896 308.471 141.079C308.657 141.253 308.805 141.464 308.904 141.698C309.003 141.932 309.052 142.184 309.047 142.439V150.214H313.927C314.376 150.219 314.805 150.401 315.119 150.722C315.434 151.042 315.609 151.474 315.606 151.923C315.605 152.356 315.436 152.773 315.135 153.085C314.98 153.248 314.793 153.377 314.584 153.461C314.376 153.546 314.152 153.584 313.927 153.574H309.047V166.611C309.047 167.732 309.312 168.45 309.84 168.752C310.459 169.075 311.152 169.231 311.849 169.205C312.436 169.202 313.018 169.113 313.578 168.94L313.945 168.856C314.11 168.823 314.278 168.811 314.446 168.817C314.646 168.817 314.845 168.856 315.03 168.934C315.215 169.012 315.382 169.126 315.522 169.27C315.673 169.412 315.793 169.584 315.875 169.774C315.957 169.964 316 170.169 316 170.376Z" fill="#494949"/>
</g>
<defs>
<clipPath id="clip0_433_767">
<rect width="315" height="84.9969" fill="white" transform="translate(1 115)"/>
</clipPath>
</defs>
</svg>
