<svg width="316" height="315" viewBox="0 0 316 315" fill="none" xmlns="http://www.w3.org/2000/svg">
<path d="M108.598 146.704C103.38 146.704 100.24 149.253 100.24 153.451C100.24 156.7 102.012 158.949 107.737 160.948L109.611 161.598C113.156 162.848 114.22 163.897 114.22 165.647C114.22 167.846 112.295 169.195 109.053 169.195C106.419 169.195 104.343 168.396 102.367 166.546C101.557 165.746 100.493 165.746 99.6828 166.546L99.6319 166.596C98.9736 167.246 98.9736 168.545 99.6319 169.195C102.317 171.744 105.254 172.794 109.053 172.794C114.777 172.794 118.273 170.145 118.273 165.596C118.273 162.048 116.499 160.048 110.978 158.099L109.155 157.45C105.407 156.1 104.292 155.05 104.292 153.301C104.292 151.502 105.964 150.302 108.598 150.302C110.776 150.302 112.498 151.052 114.321 152.652C115.132 153.401 116.246 153.351 117.056 152.551L117.107 152.502C117.766 151.852 117.766 150.552 117.056 149.952C114.575 147.703 112.042 146.704 108.598 146.704ZM163.151 161.998V162.598C163.151 166.396 160.416 169.195 156.009 169.195C152.565 169.195 150.488 167.646 150.488 164.797C150.488 162.048 152.717 160.449 156.566 160.449H163.151V161.998ZM157.225 146.704C154.084 146.704 151.146 147.553 148.31 150.402C147.651 151.102 147.651 152.451 148.31 153.101L148.411 153.202C149.171 153.951 150.285 153.951 151.045 153.151C153.122 150.952 155.148 150.302 157.225 150.302C160.922 150.302 163.151 152.352 163.151 155.75V157H156.566C150.184 157 146.436 159.849 146.436 164.797C146.436 169.445 150.032 172.794 155.097 172.794C158.694 172.794 161.48 171.394 163.202 169.145V170.244C163.202 171.244 164.063 172.094 165.127 172.094H165.228C166.241 172.094 167.103 171.244 167.103 170.195V155.75C167.103 150.103 163.405 146.704 157.225 146.704ZM265.116 161.998V162.598C265.116 166.396 262.381 169.195 257.974 169.195C254.53 169.195 252.453 167.646 252.453 164.797C252.453 162.048 254.682 160.449 258.531 160.449H265.116V161.998ZM259.19 146.704C253.871 146.704 249.718 149.803 249.718 151.851C249.718 152.352 249.87 152.852 250.225 153.202L250.326 153.301C250.68 153.651 251.085 153.801 251.592 153.801C252.453 153.801 253.061 153.151 253.872 152.352C254.884 151.352 256.506 150.302 259.19 150.302C262.888 150.302 265.116 152.352 265.116 155.75V157H258.531C252.149 157 248.401 159.849 248.401 164.797C248.401 169.445 251.997 172.794 257.063 172.794C260.659 172.794 263.445 171.394 265.167 169.145V170.244C265.167 171.244 266.028 172.094 267.092 172.094H267.193C268.206 172.094 269.068 171.244 269.068 170.195V155.75C269.068 150.103 265.37 146.704 259.19 146.704ZM215.172 161.898C214.665 166.496 212.336 169.195 208.081 169.195C203.269 169.195 200.888 165.696 200.888 159.749C200.888 153.801 203.269 150.302 208.081 150.302C212.386 150.302 214.716 153.102 215.172 157.799V161.898ZM219.123 165.547V135.908C219.123 134.859 218.262 134.009 217.198 134.009H217.097C216.034 134.009 215.172 134.859 215.172 135.908V150.253C213.399 147.953 210.765 146.704 207.27 146.704C200.533 146.704 196.836 151.502 196.836 159.749C196.836 167.995 200.533 172.794 207.27 172.794C211.019 172.794 213.805 171.345 215.527 168.695C216.236 170.794 217.907 172.444 219.528 172.444C220.592 172.444 221.504 171.694 221.504 170.594C221.504 168.595 219.123 168.895 219.123 165.547ZM182.399 169.195C177.588 169.195 175.207 165.697 175.207 159.949V159.549C175.207 153.801 177.588 150.303 182.4 150.303C187.11 150.303 189.592 153.801 189.592 159.748C189.592 165.697 187.11 169.195 182.399 169.195ZM183.21 146.704C179.715 146.704 177.03 148.003 175.257 150.352V149.253C175.257 148.253 174.396 147.403 173.383 147.403H173.282C172.218 147.403 171.357 148.253 171.357 149.253V180.141C171.357 181.19 172.218 182.04 173.282 182.04H173.383C174.447 182.04 175.308 181.19 175.308 180.141V169.195C177.081 171.544 179.715 172.793 183.21 172.793C189.947 172.793 193.645 167.996 193.645 159.748C193.645 151.502 189.947 146.704 183.21 146.704ZM234.522 150.302C239.03 150.302 241.309 152.952 241.563 157.6H227.582C228.089 153.001 230.368 150.302 234.522 150.302ZM244.45 167.196C243.64 166.446 242.525 166.346 241.613 167.046C239.638 168.545 237.865 169.195 235.332 169.195C230.469 169.195 227.835 166.146 227.532 161.048H243.082C244.551 161.048 245.615 159.998 245.615 158.549C245.615 151.152 242.019 146.704 234.522 146.704C227.228 146.704 223.429 151.552 223.429 159.749C223.429 167.945 227.532 172.794 235.332 172.794C239.03 172.794 241.613 171.894 244.349 169.695C245.108 169.095 245.159 167.896 244.5 167.246L244.45 167.196ZM125.87 170.195V157.849C125.87 153.151 128.251 150.302 132.708 150.302C137.014 150.302 138.888 152.701 138.888 157.499V170.195C138.888 171.244 139.749 172.094 140.813 172.094H140.914C141.978 172.094 142.839 171.244 142.839 170.195V157.4C142.839 150.152 140.003 146.704 133.621 146.704C130.125 146.704 127.491 148.003 125.819 150.352V149.253C125.819 148.253 124.959 147.404 123.946 147.404H123.844C122.781 147.404 121.919 148.253 121.919 149.253V170.195C121.919 171.244 122.781 172.094 123.844 172.094H123.946C125.009 172.094 125.87 171.244 125.87 170.195ZM277.679 172.444C278.742 172.444 279.654 171.694 279.654 170.594C279.654 168.595 277.273 168.895 277.273 165.547V135.908C277.273 134.859 276.412 134.009 275.348 134.009H275.247C274.183 134.009 273.322 134.859 273.322 135.908V166.596C273.322 169.545 275.5 172.444 277.679 172.444Z" fill="#E40046"/>
<path d="M48.2703 180.791C48.8274 181.741 49.4355 182.091 50.5496 182.091H71.3174C72.432 182.091 73.0394 181.79 73.7488 180.891L89.4517 160.898C89.8058 160.449 89.4007 159.699 88.8438 159.699H63.6688C62.5547 159.699 61.9466 159.349 61.3896 158.4L48.7261 136.808C48.4223 136.308 47.6119 136.409 47.4088 136.908L37.6333 160.249C37.1774 161.299 37.2787 161.998 37.8358 162.948L48.2703 180.791Z" fill="#E40046"/>
<path d="M74.4075 155.001C74.9648 155.951 75.5728 156.301 76.687 156.301H88.8437C89.4516 156.301 89.9075 155.551 89.6039 155.001L78.0042 135.209C77.4471 134.259 76.8389 133.909 75.7248 133.909H52.5251C51.9177 133.909 51.4618 134.659 51.7656 135.209L57.7936 145.505C58.3507 146.454 58.9581 146.804 60.0729 146.804H69.6459L74.4075 155.001Z" fill="#E40046"/>
</svg>
