<svg width="315" height="90" viewBox="0 0 315 90" fill="none" xmlns="http://www.w3.org/2000/svg">
<path fill-rule="evenodd" clip-rule="evenodd" d="M0 12.8436C0 5.75017 5.76533 0 12.8437 0H77.1345C84.2288 0 89.9791 5.76515 89.9791 12.8436V77.1347C89.9791 84.2281 84.2137 89.9782 77.1354 89.9782H12.8437C5.75033 89.9791 0 84.213 0 77.1347V12.8436ZM27.8955 59.9857C37.3558 59.9857 41.7764 54.8176 41.7764 47.4851V29.9932H34.0841V47.2646C34.0841 50.7537 31.9619 53.2721 27.8946 53.2721C23.7832 53.2721 21.6611 50.7546 21.6611 47.2646V29.9932H13.9246V47.5295C13.9254 54.7736 18.4352 59.9857 27.8955 59.9857ZM63.6237 59.9857C70.5013 59.9857 74.2171 55.8994 76.0543 52.2052L69.7325 49.1623C68.7926 51.4658 66.3581 53.3786 63.6237 53.3786C58.9673 53.3786 55.679 49.727 55.679 44.9894C55.679 40.2077 58.9682 36.6003 63.6237 36.6003C66.3575 36.6003 68.7926 38.513 69.7325 40.8166L76.0543 37.7302C74.2171 33.9489 70.5013 29.9932 63.6237 29.9932C54.8667 29.9932 48.2033 36.0358 48.2033 44.9894C48.2033 53.8999 54.8667 59.9857 63.6237 59.9857ZM172.102 17.4814C169.065 17.4814 166.919 18.8176 165.38 20.5992V9.34283H159.671V40.1157H165.218V37.3624C166.757 39.2249 168.943 40.642 172.102 40.642C178.378 40.642 183.115 35.7021 183.115 29.1022C183.115 22.5023 178.378 17.4814 172.102 17.4814ZM171.211 35.4188C167.567 35.4188 165.137 32.544 165.137 29.0617C165.137 25.6201 167.567 22.7453 171.211 22.7453C174.855 22.7453 177.284 25.5796 177.284 29.0617C177.284 32.544 174.855 35.4188 171.211 35.4188ZM137.333 29.1832C137.333 37.0789 131.948 40.642 125.672 40.642C119.356 40.642 113.97 37.0789 113.97 29.1832V10.1931H120.004V28.7784C120.004 32.8678 122.311 34.8113 125.672 34.8113C128.993 34.8113 131.26 32.7868 131.26 28.7784V10.1931H137.333V29.1832ZM148.338 40.1157H142.629V18.0483H148.095V21.0041C149.472 18.5747 151.577 17.4409 154.168 17.4409C154.978 17.4409 155.95 17.6029 156.841 17.9268L156.355 23.393C155.464 23.1095 154.573 22.9478 153.723 22.9478C150.727 22.9478 148.338 24.8103 148.338 29.6287V40.1157ZM203.916 20.6802V18.0483H209.342V40.1157H203.916V37.5647C202.297 39.3059 199.989 40.642 196.871 40.642C190.474 40.642 185.939 35.5403 185.939 28.9807C185.939 22.3403 190.595 17.4814 196.871 17.4814C199.989 17.4814 202.256 18.8581 203.916 20.6802ZM191.648 29.0617C191.648 32.5845 194.158 35.4593 197.802 35.4593C201.447 35.4593 203.997 32.544 203.997 29.0617C203.997 25.6201 201.447 22.7047 197.802 22.7047C194.118 22.7047 191.648 25.6201 191.648 29.0617ZM214.476 40.1157H220.185V28.2924C220.185 24.9721 222.25 22.7047 225.245 22.7047C227.999 22.7047 229.903 24.6078 229.903 28.1709V40.1157H235.611V26.6324C235.611 20.3967 231.442 17.4409 226.987 17.4409C223.707 17.4409 221.197 19.0606 220.063 21.1256V18.0483H214.476V40.1157ZM141.18 74.6946C138.548 78.2982 133.73 81.0515 127.98 81.0515C119.437 81.0515 112.594 74.8971 112.594 65.7461C112.594 56.5144 119.639 50.1572 128.061 50.1572C133.608 50.1572 138.346 52.7083 140.937 56.3524L136.928 60.28C134.864 57.7291 131.908 55.9474 128.385 55.9474C123.04 55.9474 118.829 60.037 118.829 65.7461C118.829 71.2935 122.959 75.3019 128.344 75.3019C131.867 75.3019 134.944 73.5608 137.05 70.929L141.18 74.6946ZM154.938 81.173C161.984 81.173 166.761 75.9904 166.761 69.5522C166.761 63.1953 161.984 57.9314 154.938 57.9314C147.893 57.9314 143.115 63.1953 143.115 69.5522C143.115 75.9904 147.893 81.173 154.938 81.173ZM154.938 75.8689C151.497 75.8689 148.824 73.075 148.824 69.5522C148.824 66.0701 151.497 63.2763 154.938 63.2763C158.38 63.2763 161.052 66.0701 161.052 69.5522C161.052 73.075 158.38 75.8689 154.938 75.8689ZM189.57 61.8185C191.189 59.3487 194.226 57.9314 197.465 57.9314C202.486 57.9314 206.454 61.2112 206.454 67.2849V80.6063H200.745V68.3377C200.745 64.8553 198.883 63.1953 196.332 63.1953C193.538 63.1953 191.473 65.2199 191.473 68.4995V80.6063H185.764V68.3782C185.764 65.0579 183.982 63.1953 181.31 63.1953C178.597 63.1953 176.491 65.1389 176.491 68.54V80.6063H170.782V58.5389H176.37V61.697C177.625 59.3487 180.257 57.8909 183.091 57.9314C185.723 57.9314 188.315 59.1462 189.57 61.8185ZM224.025 57.9719C220.907 57.9719 218.64 59.3892 217.021 61.2517V58.5389H211.352V89.676H217.061V78.0552C218.681 79.7965 220.907 81.1325 223.985 81.1325C230.341 81.1325 234.877 75.9499 234.877 69.5522C234.877 63.1548 230.342 57.9719 224.025 57.9719ZM223.013 75.9094C219.369 75.9094 216.94 73.075 216.94 69.5927C216.94 66.1106 219.369 63.2763 223.013 63.2763C226.699 63.2763 229.126 66.1106 229.126 69.5927C229.126 73.075 226.699 75.9094 223.013 75.9094ZM255.715 61.1708V58.5389H261.142V80.6063H255.715V78.0552C254.097 79.7965 251.788 81.1325 248.67 81.1325C242.273 81.1325 237.737 76.0309 237.737 69.4712C237.737 62.8308 242.395 57.9719 248.67 57.9719C251.788 57.9719 254.057 59.3487 255.715 61.1708ZM243.448 69.5522C243.448 73.075 245.959 75.9499 249.601 75.9499C253.246 75.9499 255.796 73.0345 255.796 69.5522C255.796 66.1106 253.246 63.1953 249.601 63.1953C245.918 63.1953 243.448 66.1106 243.448 69.5522ZM266.274 80.6063H271.985V68.7829C271.985 65.4628 274.05 63.1953 277.045 63.1953C279.799 63.1953 281.702 65.0983 281.702 68.6614V80.6063H287.41V67.1229C287.41 60.8872 283.241 57.9314 278.786 57.9314C275.508 57.9314 272.997 59.5512 271.863 61.6163V58.5389H266.274V80.6063ZM301.426 72.913L306.445 58.5389H312.683L303.815 81.6995C301.709 87.1252 298.955 90 294.462 90C292.801 90 291.303 89.5952 290.209 88.9067L291.182 84.1288C292.032 84.5338 293.004 84.8576 294.016 84.8576C295.839 84.8576 297.173 83.8051 298.307 81.3755L298.753 80.3632L289.116 58.5389H295.717L301.426 72.913Z" fill="#0F0F0F"/>
</svg>
