<svg width="316" height="315" viewBox="0 0 316 315" fill="none" xmlns="http://www.w3.org/2000/svg">
<path fill-rule="evenodd" clip-rule="evenodd" d="M1 125.844C1 118.75 6.76533 113 13.8437 113H78.1345C85.2288 113 90.9791 118.765 90.9791 125.844V190.135C90.9791 197.228 85.2137 202.978 78.1354 202.978H13.8437C6.75033 202.979 1 197.213 1 190.135V125.844ZM28.8955 172.986C38.3558 172.986 42.7764 167.818 42.7764 160.485V142.993H35.0841V160.265C35.0841 163.754 32.9619 166.272 28.8946 166.272C24.7832 166.272 22.6611 163.755 22.6611 160.265V142.993H14.9246V160.529C14.9254 167.774 19.4352 172.986 28.8955 172.986ZM64.6237 172.986C71.5013 172.986 75.2171 168.899 77.0543 165.205L70.7325 162.162C69.7926 164.466 67.3581 166.379 64.6237 166.379C59.9673 166.379 56.679 162.727 56.679 157.989C56.679 153.208 59.9682 149.6 64.6237 149.6C67.3575 149.6 69.7926 151.513 70.7325 153.817L77.0543 150.73C75.2171 146.949 71.5013 142.993 64.6237 142.993C55.8667 142.993 49.2033 149.036 49.2033 157.989C49.2033 166.9 55.8667 172.986 64.6237 172.986ZM173.102 130.481C170.065 130.481 167.919 131.818 166.38 133.599V122.343H160.671V153.116H166.218V150.362C167.757 152.225 169.943 153.642 173.102 153.642C179.378 153.642 184.115 148.702 184.115 142.102C184.115 135.502 179.378 130.481 173.102 130.481ZM172.211 148.419C168.567 148.419 166.137 145.544 166.137 142.062C166.137 138.62 168.567 135.745 172.211 135.745C175.855 135.745 178.284 138.58 178.284 142.062C178.284 145.544 175.855 148.419 172.211 148.419ZM138.333 142.183C138.333 150.079 132.948 153.642 126.672 153.642C120.356 153.642 114.97 150.079 114.97 142.183V123.193H121.004V141.778C121.004 145.868 123.311 147.811 126.672 147.811C129.993 147.811 132.26 145.787 132.26 141.778V123.193H138.333V142.183ZM149.338 153.116H143.629V131.048H149.095V134.004C150.472 131.575 152.577 130.441 155.168 130.441C155.978 130.441 156.95 130.603 157.841 130.927L157.355 136.393C156.464 136.11 155.573 135.948 154.723 135.948C151.727 135.948 149.338 137.81 149.338 142.629V153.116ZM204.916 133.68V131.048H210.342V153.116H204.916V150.565C203.297 152.306 200.989 153.642 197.871 153.642C191.474 153.642 186.939 148.54 186.939 141.981C186.939 135.34 191.595 130.481 197.871 130.481C200.989 130.481 203.256 131.858 204.916 133.68ZM192.648 142.062C192.648 145.584 195.158 148.459 198.802 148.459C202.447 148.459 204.997 145.544 204.997 142.062C204.997 138.62 202.447 135.705 198.802 135.705C195.118 135.705 192.648 138.62 192.648 142.062ZM215.476 153.116H221.185V141.292C221.185 137.972 223.25 135.705 226.245 135.705C228.999 135.705 230.903 137.608 230.903 141.171V153.116H236.611V139.632C236.611 133.397 232.442 130.441 227.987 130.441C224.707 130.441 222.197 132.061 221.063 134.126V131.048H215.476V153.116ZM142.18 187.695C139.548 191.298 134.73 194.052 128.98 194.052C120.437 194.052 113.594 187.897 113.594 178.746C113.594 169.514 120.639 163.157 129.061 163.157C134.608 163.157 139.346 165.708 141.937 169.352L137.928 173.28C135.864 170.729 132.908 168.947 129.385 168.947C124.04 168.947 119.829 173.037 119.829 178.746C119.829 184.294 123.959 188.302 129.344 188.302C132.867 188.302 135.944 186.561 138.05 183.929L142.18 187.695ZM155.938 194.173C162.984 194.173 167.761 188.99 167.761 182.552C167.761 176.195 162.984 170.931 155.938 170.931C148.893 170.931 144.115 176.195 144.115 182.552C144.115 188.99 148.893 194.173 155.938 194.173ZM155.938 188.869C152.497 188.869 149.824 186.075 149.824 182.552C149.824 179.07 152.497 176.276 155.938 176.276C159.38 176.276 162.052 179.07 162.052 182.552C162.052 186.075 159.38 188.869 155.938 188.869ZM190.57 174.819C192.189 172.349 195.226 170.931 198.465 170.931C203.486 170.931 207.454 174.211 207.454 180.285V193.606H201.745V181.338C201.745 177.855 199.883 176.195 197.332 176.195C194.538 176.195 192.473 178.22 192.473 181.499V193.606H186.764V181.378C186.764 178.058 184.982 176.195 182.31 176.195C179.597 176.195 177.491 178.139 177.491 181.54V193.606H171.782V171.539H177.37V174.697C178.625 172.349 181.257 170.891 184.091 170.931C186.723 170.931 189.315 172.146 190.57 174.819ZM225.025 170.972C221.907 170.972 219.64 172.389 218.021 174.252V171.539H212.352V202.676H218.061V191.055C219.681 192.796 221.907 194.133 224.985 194.133C231.341 194.133 235.877 188.95 235.877 182.552C235.877 176.155 231.342 170.972 225.025 170.972ZM224.013 188.909C220.369 188.909 217.94 186.075 217.94 182.593C217.94 179.111 220.369 176.276 224.013 176.276C227.699 176.276 230.126 179.111 230.126 182.593C230.126 186.075 227.699 188.909 224.013 188.909ZM256.715 174.171V171.539H262.142V193.606H256.715V191.055C255.097 192.796 252.788 194.133 249.67 194.133C243.273 194.133 238.737 189.031 238.737 182.471C238.737 175.831 243.395 170.972 249.67 170.972C252.788 170.972 255.057 172.349 256.715 174.171ZM244.448 182.552C244.448 186.075 246.959 188.95 250.601 188.95C254.246 188.95 256.796 186.035 256.796 182.552C256.796 179.111 254.246 176.195 250.601 176.195C246.918 176.195 244.448 179.111 244.448 182.552ZM267.274 193.606H272.985V181.783C272.985 178.463 275.05 176.195 278.045 176.195C280.799 176.195 282.702 178.098 282.702 181.661V193.606H288.41V180.123C288.41 173.887 284.241 170.931 279.786 170.931C276.508 170.931 273.997 172.551 272.863 174.616V171.539H267.274V193.606ZM302.426 185.913L307.445 171.539H313.683L304.815 194.7C302.709 200.125 299.955 203 295.462 203C293.801 203 292.303 202.595 291.209 201.907L292.182 197.129C293.032 197.534 294.004 197.858 295.016 197.858C296.839 197.858 298.173 196.805 299.307 194.376L299.753 193.363L290.116 171.539H296.717L302.426 185.913Z" fill="#0F0F0F"/>
</svg>
