<svg width="316" height="315" viewBox="0 0 316 315" fill="none" xmlns="http://www.w3.org/2000/svg">
<path d="M186.384 179.654C188.914 179.213 191.415 181.426 191.97 184.618C192.524 187.809 190.928 190.786 188.399 191.228H188.325C185.671 191.724 182.978 191.986 180.277 192.009C174.646 192.009 170.091 190.656 166.582 187.94C162.054 184.465 159.666 178.992 159.666 172.127V108.646C159.666 106.083 162.298 104 165.54 104C168.783 104 171.415 106.083 171.415 108.646V172.15C171.415 175.274 172.196 177.453 173.741 178.641C175.133 179.711 178.517 181.075 186.282 179.677L186.384 179.654Z" fill="#EA2330"/>
<path d="M67.6302 186.461C65.5022 186.461 63.4875 183.337 62.4462 181.311C56.9849 170.705 52.8253 162.239 49.5032 155.436C42.712 141.542 39.0278 134.932 35.9717 132.578C32.9157 130.224 32.2932 127.162 33.7533 124.457C34.1224 123.793 34.6196 123.21 35.2161 122.741C35.8126 122.272 36.4964 121.925 37.2279 121.723C37.9593 121.52 38.7237 121.465 39.4767 121.56C40.2297 121.655 40.9562 121.899 41.6141 122.278C48.1563 125.996 51.5633 132.946 60.0523 150.275C63.346 156.998 67.4434 165.362 72.8141 175.793C74.1441 178.373 75.0779 183.574 72.7519 185.295L67.6302 186.461Z" fill="#EA2330"/>
<path d="M205.193 161.306C205.186 153.9 202.24 146.799 197.003 141.563C191.765 136.327 184.664 133.383 177.259 133.377H152.567C149.997 133.377 147.92 130.745 147.92 127.502C147.92 124.26 149.997 121.628 152.567 121.628H177.259C187.78 121.628 197.871 125.808 205.311 133.248C212.751 140.688 216.931 150.778 216.931 161.3V187.441C216.931 190.004 214.299 192.087 211.056 192.087C207.813 192.087 205.182 190.004 205.182 187.441L205.193 161.306Z" fill="#EA2330"/>
<path d="M134.753 168.698V169.326C134.753 176.021 129.32 180.356 120.814 180.356C112.308 180.356 106.819 176.032 106.819 169.337C106.819 162.642 112.314 158.296 120.814 158.296H121.329C130.192 158.296 145.5 162.376 146.553 162.722V151.55C140.894 149.558 131.839 146.559 121.329 146.559H120.814C105.07 146.559 95.0698 156.774 95.0698 169.343C95.0698 181.913 105.07 192.099 120.814 192.099C136.559 192.099 146.559 181.913 146.559 169.343V168.777L146.508 144.397C146.508 131.827 134.368 121.64 120.814 121.64L118.55 121.606C100.644 121.606 86.6204 126.451 76.377 150.096C75.5394 152.025 74.7471 153.944 73.9774 155.851L73.8642 156.123C71.4137 162.173 69.9762 166.621 66.4391 174.799C59.829 190.079 53.898 199.004 44.8713 199.524C39.976 199.807 38.7762 203.067 39.3874 206.316C39.9986 209.564 42.0247 211.534 44.8713 211.534C59.5856 211.534 68.7821 197.996 77.5937 178.709L77.7012 178.46C79.0425 175.325 80.3272 172.065 81.6628 168.687C83.4172 164.159 85.2338 159.451 87.2486 154.799C95.0755 136.734 103.938 133.395 118.579 133.395H120.843C127.119 133.395 134.782 137.719 134.782 144.402V168.63" fill="#EA2330"/>
<path d="M271.256 168.706V169.334C271.256 176.029 265.755 180.364 257.249 180.364C248.743 180.364 243.253 176.04 243.253 169.345C243.253 162.65 248.748 158.304 257.249 158.304H257.769C266.632 158.304 281.94 162.384 282.999 162.73V151.558C277.339 149.566 268.256 146.567 257.769 146.567H257.249C241.504 146.567 231.504 156.782 231.504 169.351C231.504 181.921 241.504 192.107 257.249 192.107C272.993 192.107 282.993 181.921 282.993 169.351V168.785L282.942 144.405C282.942 131.835 270.803 121.688 257.249 121.688C257.249 121.688 253.027 121.648 252.155 121.648C223.219 121.648 205.183 140.517 205.183 166.601H216.931C216.931 147.031 229.727 133.392 252.138 133.392C253.174 133.392 256.439 133.437 256.439 133.437C264.872 133.437 271.256 137.71 271.256 144.399V168.734V168.706Z" fill="#EA2330"/>
<g style="mix-blend-mode:multiply" opacity="0.7">
<path style="mix-blend-mode:multiply" d="M134.743 159.983V169.35C134.743 174.59 131.404 178.371 125.875 179.774V191.738C138.659 189.797 146.548 180.521 146.548 169.361V168.795V162.762C145.184 162.406 138.087 160.81 134.743 159.983Z" fill="url(#paint0_linear_449_2)"/>
<path style="mix-blend-mode:multiply" d="M271.257 159.983V169.35C271.257 174.59 267.862 178.405 262.327 179.791V191.744C275.111 189.803 283 180.527 283 169.367V168.801V162.768C281.631 162.406 274.59 160.81 271.257 159.983Z" fill="url(#paint1_linear_449_2)"/>
<path style="mix-blend-mode:multiply" d="M180.202 121.764V133.546C187.057 134.282 193.399 137.523 198.009 142.649C202.62 147.775 205.174 154.423 205.183 161.317V162.754H205.33C205.76 155.362 207.99 148.188 211.827 141.854C208.618 136.16 204.053 131.346 198.536 127.841C193.018 124.336 186.721 122.248 180.202 121.764Z" fill="url(#paint2_linear_449_2)"/>
<path style="mix-blend-mode:multiply" d="M171.423 133.383H159.668V163.185H171.423V133.383Z" fill="url(#paint3_linear_449_2)"/>
<path style="mix-blend-mode:multiply" d="M49.5015 155.473C52.8348 162.264 56.9831 170.753 62.4444 181.347C62.5972 181.647 62.7727 181.97 62.9707 182.304C64.1026 180.006 65.2741 177.499 66.4456 174.788C67.4756 172.417 68.3188 170.368 69.0715 168.495C65.4722 161.381 62.535 155.377 60.0505 150.312L49.5015 155.473Z" fill="url(#paint4_linear_449_2)"/>
</g>
<defs>
<linearGradient id="paint0_linear_449_2" x1="133.135" y1="193.028" x2="138.97" y2="159.932" gradientUnits="userSpaceOnUse">
<stop offset="0.02" stop-color="white" stop-opacity="0"/>
<stop offset="0.65" stop-color="white" stop-opacity="0"/>
<stop offset="0.71" stop-color="#DFDFE0" stop-opacity="0.17"/>
<stop offset="0.89" stop-color="#88898A" stop-opacity="0.62"/>
<stop offset="0.99" stop-color="#666769" stop-opacity="0.8"/>
</linearGradient>
<linearGradient id="paint1_linear_449_2" x1="269.588" y1="193.028" x2="275.439" y2="159.819" gradientUnits="userSpaceOnUse">
<stop offset="0.02" stop-color="white" stop-opacity="0"/>
<stop offset="0.65" stop-color="white" stop-opacity="0"/>
<stop offset="0.71" stop-color="#DFDFE0" stop-opacity="0.17"/>
<stop offset="0.91" stop-color="#88898A" stop-opacity="0.62"/>
<stop offset="1" stop-color="#666769" stop-opacity="0.8"/>
</linearGradient>
<linearGradient id="paint2_linear_449_2" x1="175.544" y1="136.087" x2="211.046" y2="147.621" gradientUnits="userSpaceOnUse">
<stop offset="0.02" stop-color="white" stop-opacity="0"/>
<stop offset="0.65" stop-color="white" stop-opacity="0"/>
<stop offset="0.71" stop-color="#DFDFE0" stop-opacity="0.17"/>
<stop offset="0.91" stop-color="#88898A" stop-opacity="0.62"/>
<stop offset="1" stop-color="#666769" stop-opacity="0.8"/>
</linearGradient>
<linearGradient id="paint3_linear_449_2" x1="165.543" y1="163.185" x2="165.543" y2="133.383" gradientUnits="userSpaceOnUse">
<stop offset="0.02" stop-color="white" stop-opacity="0"/>
<stop offset="0.65" stop-color="white" stop-opacity="0"/>
<stop offset="0.71" stop-color="#DFDFE0" stop-opacity="0.17"/>
<stop offset="0.91" stop-color="#88898A" stop-opacity="0.62"/>
<stop offset="1" stop-color="#666769" stop-opacity="0.8"/>
</linearGradient>
<linearGradient id="paint4_linear_449_2" x1="49.6712" y1="146.503" x2="67.4756" y2="176.277" gradientUnits="userSpaceOnUse">
<stop offset="0.02" stop-color="white" stop-opacity="0"/>
<stop offset="0.5" stop-color="white" stop-opacity="0"/>
<stop offset="0.54" stop-color="#F0F0F1" stop-opacity="0.07"/>
<stop offset="0.85" stop-color="#8D8D8F" stop-opacity="0.52"/>
<stop offset="1" stop-color="#666769" stop-opacity="0.7"/>
</linearGradient>
</defs>
</svg>
