<svg width="316" height="315" viewBox="0 0 316 315" fill="none" xmlns="http://www.w3.org/2000/svg">
<g clip-path="url(#clip0_433_793)">
<path d="M1.03564 200.265H316.036V129.688H1.03564V200.265Z" fill="white"/>
<path d="M3.20068 198.099H313.871V132.068H3.20068V198.099Z" fill="#2B61AB"/>
<path fill-rule="evenodd" clip-rule="evenodd" d="M31.1282 181.429H38.922V165.409L51.4787 148.306H43.2519L35.6746 158.697L28.7468 148.306H19.4375L31.1282 165.625V181.429Z" fill="white"/>
<path fill-rule="evenodd" clip-rule="evenodd" d="M54.9429 181.43H75.2934V174.502H62.5202V168.007H73.3449V161.296H62.5202V155.234H75.0769V148.522H54.9429V181.43Z" fill="white"/>
<path fill-rule="evenodd" clip-rule="evenodd" d="M82.4378 172.12L83.0874 180.996C84.8193 181.429 86.3348 181.862 87.6338 182.079C89.1492 182.295 90.4482 182.512 91.7472 182.512C95.4276 182.512 98.4585 181.429 100.407 179.481C102.572 177.532 103.438 174.934 103.654 171.687C103.654 169.089 102.788 167.141 101.273 165.625C99.7574 164.11 97.809 162.594 95.4275 161.512L91.5306 159.347C90.6647 158.914 90.2317 158.481 89.7987 158.048C89.3657 157.615 89.1492 156.965 89.1492 156.532C89.1492 155.666 89.5822 155.017 90.0152 154.584C90.6646 154.151 91.5306 153.934 92.6131 153.934C93.4791 153.934 94.5616 154.151 96.077 154.584C97.376 155.017 99.1079 155.883 100.84 156.965V149.171C99.3244 148.522 97.809 148.305 96.51 147.872C95.211 147.656 93.9121 147.439 92.6131 147.439C89.3657 147.439 86.7677 148.305 84.8193 150.037C82.8708 151.769 82.0049 153.934 82.0049 156.532C82.0049 158.481 82.4378 160.213 83.5203 161.728C84.6028 163.244 86.1183 164.759 88.2832 165.842L90.4482 167.141C92.1801 168.007 93.4791 168.872 94.345 169.522C95.211 170.171 95.8605 171.037 95.8605 172.336C95.8605 173.202 95.4276 174.068 94.7781 174.718C93.9121 175.367 92.8296 175.584 91.5306 175.584C90.0152 175.584 88.4997 175.367 86.9842 174.718C85.6853 174.068 84.1698 173.202 82.4378 172.12Z" fill="white"/>
<path fill-rule="evenodd" clip-rule="evenodd" d="M230.737 181.43H236.366V160.43L257.366 182.512H258.015V148.306H252.386V169.306L231.386 147.224H230.737V181.43Z" fill="white"/>
<path fill-rule="evenodd" clip-rule="evenodd" d="M268.407 181.43H274.036V166.059L288.757 181.43H296.118L279.664 164.327L294.603 148.522H287.891L274.036 163.244V148.522H268.407V181.43Z" fill="white"/>
<path fill-rule="evenodd" clip-rule="evenodd" d="M183.108 93.0996L111.448 222.997L86.7676 198.1H103.654L183.108 93.0996Z" fill="white"/>
<path fill-rule="evenodd" clip-rule="evenodd" d="M174.232 106.955L111.015 219.099L92.3965 200.264H104.953L174.232 106.955Z" fill="#D71C23"/>
<path fill-rule="evenodd" clip-rule="evenodd" d="M203.675 171.038L209.087 158.698L214.499 171.038H203.675ZM198.912 181.43L201.51 175.584H216.448L219.046 181.43H225.108L209.52 147.224H209.087L193.066 181.43H198.912Z" fill="white"/>
<path fill-rule="evenodd" clip-rule="evenodd" d="M173.582 162.161V152.852H176.829C178.994 152.852 180.51 153.285 181.592 153.934C182.675 154.584 183.108 155.883 183.108 157.398C183.108 158.914 182.458 159.996 181.592 160.862C180.51 161.728 178.994 162.161 177.046 162.161H173.582ZM173.582 176.883V166.491H177.695C179.644 166.491 181.159 166.924 182.242 167.79C183.324 168.656 183.757 169.955 183.757 171.471C183.757 173.203 183.108 174.502 182.242 175.368C181.159 176.234 179.644 176.666 177.695 176.666L173.582 176.883ZM167.953 181.429V148.306H177.695C180.293 148.306 183.757 148.739 185.922 150.471C187.654 151.986 188.737 153.934 188.737 156.749C188.737 158.481 188.304 159.78 187.438 161.079C186.572 162.161 185.273 163.244 183.541 163.893C185.489 164.326 186.788 165.409 187.871 166.708C188.953 168.007 189.386 169.739 189.386 171.904C189.386 175.151 188.304 177.532 186.355 179.264C184.19 180.78 181.159 181.646 177.046 181.646L167.953 181.429Z" fill="white"/>
</g>
<defs>
<clipPath id="clip0_433_793">
<rect width="315" height="129.897" fill="white" transform="translate(1 93)"/>
</clipPath>
</defs>
</svg>
