<svg width="64" height="64" viewBox="0 0 64 64" fill="none" xmlns="http://www.w3.org/2000/svg">
<g clip-path="url(#clip0_2233_33927)">
<g clip-path="url(#clip1_2233_33927)">
<path d="M5.12012 43.0081V56.3201C5.12012 57.7281 6.27212 58.8801 7.68012 58.8801H56.3201C57.7281 58.8801 58.8801 57.7281 58.8801 56.3201V43.0081H5.12012Z" fill="#AFEAE4"/>
<path d="M58.8801 16.384V7.98725C58.8801 6.57925 57.7281 5.42725 56.3201 5.42725H7.68012C6.27212 5.42725 5.12012 6.57925 5.12012 7.98725V16.384H58.8801Z" fill="#AFEAE4"/>
<path d="M5.12047 12.5056C4.76207 12.5056 4.48047 12.224 4.48047 11.8656V7.98723C4.48047 6.22083 5.91407 4.78723 7.68047 4.78723H8.23087C8.58927 4.78723 8.87087 5.06883 8.87087 5.42723C8.87087 5.78563 8.58927 6.06723 8.23087 6.06723H7.68047C6.61807 6.06723 5.76047 6.92483 5.76047 7.98723V11.8656C5.76047 12.2112 5.47887 12.5056 5.12047 12.5056Z" fill="#1C1D21"/>
<path d="M13.3129 6.06723H11.3929C11.0345 6.06723 10.7529 5.78563 10.7529 5.42723C10.7529 5.06883 11.0345 4.78723 11.3929 4.78723H13.3129C13.6713 4.78723 13.9529 5.06883 13.9529 5.42723C13.9529 5.77283 13.6713 6.06723 13.3129 6.06723Z" fill="#1C1D21"/>
<path d="M56.3213 59.52H55.7709C55.4125 59.52 55.1309 59.2384 55.1309 58.88C55.1309 58.5216 55.4125 58.24 55.7709 58.24H56.3213C57.3837 58.24 58.2413 57.3824 58.2413 56.32V52.4416C58.2413 52.0832 58.5229 51.8016 58.8813 51.8016C59.2397 51.8016 59.5213 52.0832 59.5213 52.4416V56.32C59.5213 58.0864 58.0877 59.52 56.3213 59.52Z" fill="#1C1D21"/>
<path d="M52.6088 59.52H50.6888C50.3304 59.52 50.0488 59.2384 50.0488 58.88C50.0488 58.5216 50.3304 58.24 50.6888 58.24H52.6088C52.9672 58.24 53.2488 58.5216 53.2488 58.88C53.2488 59.2384 52.9672 59.52 52.6088 59.52Z" fill="#1C1D21"/>
<path d="M59.52 64H4.48C2.0096 64 0 61.9904 0 59.52V4.48C0 2.0096 2.0096 0 4.48 0H59.52C61.9904 0 64 2.0096 64 4.48V59.52C64 61.9904 61.9904 64 59.52 64ZM4.48 1.28C2.7136 1.28 1.28 2.7136 1.28 4.48V59.52C1.28 61.2864 2.7136 62.72 4.48 62.72H59.52C61.2864 62.72 62.72 61.2864 62.72 59.52V4.48C62.72 2.7136 61.2864 1.28 59.52 1.28H4.48Z" fill="#1C1D21"/>
<path d="M16.4227 45.9904H10.2019C9.49787 45.9904 8.92188 46.5664 8.92188 47.2704V51.5328C8.92188 52.2368 9.49787 52.8128 10.2019 52.8128H16.4355C17.1395 52.8128 17.7155 52.2368 17.7155 51.5328V47.2704C17.7027 46.5664 17.1395 45.9904 16.4227 45.9904Z" fill="white"/>
<path d="M28.8896 45.9904H22.656C21.952 45.9904 21.376 46.5664 21.376 47.2704V51.5328C21.376 52.2368 21.952 52.8128 22.656 52.8128H28.8896C29.5936 52.8128 30.1696 52.2368 30.1696 51.5328V47.2704C30.1696 46.5664 29.5936 45.9904 28.8896 45.9904Z" fill="white"/>
<path d="M41.3447 45.9904H35.1111C34.4071 45.9904 33.8311 46.5664 33.8311 47.2704V51.5328C33.8311 52.2368 34.4071 52.8128 35.1111 52.8128H41.3447C42.0487 52.8128 42.6247 52.2368 42.6247 51.5328V47.2704C42.6247 46.5664 42.0487 45.9904 41.3447 45.9904Z" fill="white"/>
<path d="M53.7988 45.9904H47.5652C46.8612 45.9904 46.2852 46.5664 46.2852 47.2704V51.5328C46.2852 52.2368 46.8612 52.8128 47.5652 52.8128H53.7988C54.5028 52.8128 55.0788 52.2368 55.0788 51.5328V47.2704C55.0788 46.5664 54.5156 45.9904 53.7988 45.9904Z" fill="white"/>
<path d="M25.8559 49.8688C21.2351 47.6032 18.0479 42.8416 18.0479 37.3376C18.0479 29.632 24.2943 23.3984 31.9871 23.3984L25.8559 49.8688Z" fill="#FFE7BB"/>
<path d="M38.1439 49.8688C42.7647 47.6032 45.9519 42.8416 45.9519 37.3376C45.9519 29.632 39.7055 23.3984 32.0127 23.3984L38.1439 49.8688Z" fill="#FFE7BB"/>
<path d="M25.8552 50.5088C25.7528 50.5088 25.6632 50.4832 25.5736 50.4448C23.1672 49.2544 21.1192 47.4368 19.6728 45.1584C18.188 42.8288 17.4072 40.1152 17.4072 37.3376C17.4072 29.2992 23.948 22.7584 31.9864 22.7584C32.1784 22.7584 32.3704 22.848 32.4856 23.0016C32.6008 23.1552 32.652 23.36 32.6136 23.5392L26.4696 50.0096C26.4312 50.2016 26.3032 50.3552 26.124 50.4448C26.0472 50.496 25.9576 50.5088 25.8552 50.5088ZM31.1928 24.064C24.2296 24.4864 18.7 30.2848 18.7 37.3504C18.7 42.1888 21.26 46.5536 25.4328 48.9216L31.1928 24.064Z" fill="#1C1D21"/>
<path d="M38.1437 50.5088C38.0541 50.5088 37.9517 50.4832 37.8749 50.4448C37.6957 50.3552 37.5677 50.2016 37.5293 50.0096L31.3853 23.5392C31.3469 23.3472 31.3853 23.1552 31.5133 23.0016C31.6285 22.848 31.8205 22.7584 32.0125 22.7584C40.0509 22.7584 46.5917 29.2992 46.5917 37.3376C46.5917 40.1152 45.8109 42.816 44.3261 45.1584C42.8797 47.424 40.8445 49.2544 38.4253 50.4448C38.3357 50.496 38.2333 50.5088 38.1437 50.5088ZM32.8061 24.064L38.5661 48.9216C42.7389 46.5536 45.2989 42.1888 45.2989 37.3504C45.2989 30.2848 39.7693 24.4864 32.8061 24.064Z" fill="#1C1D21"/>
<path d="M38.6937 25.1136C39.2313 24.0768 39.5257 22.8992 39.5257 21.6576C39.5257 17.4976 36.1465 14.1184 31.9865 14.1184C27.8265 14.1184 24.4473 17.4976 24.4473 21.6576C24.4473 22.8992 24.7545 24.0768 25.2793 25.1136H38.6937Z" fill="#AAB1BA"/>
<path d="M38.6939 25.7536H25.2923C25.0491 25.7536 24.8315 25.6256 24.7291 25.408C24.1403 24.256 23.8203 22.9632 23.8203 21.6576C23.8203 17.152 27.4811 13.4784 31.9995 13.4784C36.5179 13.4784 40.1787 17.1392 40.1787 21.6576C40.1787 22.9632 39.8587 24.256 39.2699 25.408C39.1547 25.6256 38.9371 25.7536 38.6939 25.7536ZM25.7019 24.4736H38.2971C38.6939 23.5904 38.8987 22.6432 38.8987 21.6576C38.8987 17.856 35.8011 14.7584 31.9995 14.7584C28.1979 14.7584 25.1003 17.856 25.1003 21.6576C25.1003 22.6432 25.3051 23.5904 25.7019 24.4736Z" fill="#1C1D21"/>
<path d="M26.9053 45.376C30.1309 46.9248 33.8813 46.9248 37.0941 45.376L32.3965 25.1136H31.6029L26.9053 45.376Z" fill="#AAB1BA"/>
<path d="M31.9996 47.1808C30.1692 47.1808 28.3388 46.7712 26.6236 45.9392C26.3548 45.8112 26.214 45.504 26.278 45.2224L30.9756 24.9728C31.0396 24.6784 31.2956 24.4736 31.6028 24.4736H32.3964C32.6908 24.4736 32.9468 24.6784 33.0236 24.9728L37.7212 45.2352C37.7852 45.5296 37.6444 45.824 37.3756 45.952C35.6604 46.7712 33.83 47.1808 31.9996 47.1808ZM27.6476 45.0048C30.438 46.1952 33.5612 46.1952 36.3516 45.0048L31.9996 26.24L27.6476 45.0048Z" fill="#1C1D21"/>
<path d="M28.3131 18.7008C28.1467 18.7008 27.9803 18.6368 27.8651 18.5088L26.2779 16.9216C26.0219 16.6656 26.0219 16.2688 26.2779 16.0128C26.5339 15.7568 26.9307 15.7568 27.1867 16.0128L28.7739 17.6C29.0299 17.856 29.0299 18.2528 28.7739 18.5088C28.6331 18.6368 28.4667 18.7008 28.3131 18.7008Z" fill="#1C1D21"/>
<path d="M35.6859 18.7008C35.5195 18.7008 35.3531 18.6368 35.2379 18.5088C34.9819 18.2528 34.9819 17.856 35.2379 17.6L36.8251 16.0128C37.0811 15.7568 37.4779 15.7568 37.7339 16.0128C37.9899 16.2688 37.9899 16.6656 37.7339 16.9216L36.1467 18.5088C36.0187 18.6368 35.8523 18.7008 35.6859 18.7008Z" fill="#1C1D21"/>
<path d="M42.0219 28.3008C41.8171 28.3008 41.6123 28.1984 41.4843 28.0064C41.2923 27.712 41.3819 27.3152 41.6763 27.1232L44.6075 25.216C45.3499 24.7296 46.2203 24.4736 47.1163 24.4736H51.3275C51.6859 24.4736 51.9675 24.7552 51.9675 25.1136C51.9675 25.472 51.6859 25.7536 51.3275 25.7536H47.1163C46.4763 25.7536 45.8491 25.9328 45.3115 26.2912L42.3675 28.1984C42.2651 28.2624 42.1499 28.3008 42.0219 28.3008Z" fill="#1C1D21"/>
<path d="M21.9769 28.3008C21.8617 28.3008 21.7337 28.2624 21.6313 28.1984L18.6873 26.2912C18.1497 25.9456 17.5224 25.7536 16.8824 25.7536H12.6713C12.3129 25.7536 12.0312 25.472 12.0312 25.1136C12.0312 24.7552 12.3129 24.4736 12.6713 24.4736H16.8824C17.7784 24.4736 18.6361 24.7296 19.3913 25.216L22.3224 27.1232C22.6168 27.3152 22.7064 27.712 22.5145 28.0064C22.3864 28.1984 22.1817 28.3008 21.9769 28.3008Z" fill="#1C1D21"/>
<path d="M53.7337 47.1808H49.5225C48.6265 47.1808 47.7689 46.9247 47.0137 46.4383L44.0825 44.5312C43.7881 44.3392 43.6985 43.9424 43.8905 43.648C44.0825 43.3536 44.4793 43.264 44.7737 43.456L47.7049 45.3632C48.2425 45.7088 48.8697 45.9008 49.5097 45.9008H53.7209C54.0793 45.9008 54.3609 46.1824 54.3609 46.5408C54.3609 46.8992 54.0793 47.1808 53.7337 47.1808Z" fill="#1C1D21"/>
<path d="M17.9709 38.0928C17.8557 38.0928 17.7277 38.0544 17.6253 37.9904L14.6941 36.0832C14.1565 35.7376 13.5293 35.5456 12.8893 35.5456H8.67809C8.31969 35.5456 8.03809 35.264 8.03809 34.9056C8.03809 34.5472 8.31969 34.2656 8.67809 34.2656H12.8893C13.7853 34.2656 14.6429 34.5216 15.3981 35.008L18.3293 36.9152C18.6237 37.1072 18.7133 37.504 18.5213 37.7984C18.3933 37.9904 18.1885 38.0928 17.9709 38.0928Z" fill="#1C1D21"/>
<path d="M46.0287 38.0928C45.8239 38.0928 45.6191 37.9904 45.4911 37.7984C45.2991 37.504 45.3887 37.1072 45.6831 36.9152L48.6143 35.008C49.3567 34.5216 50.2271 34.2656 51.1231 34.2656H55.3343C55.6927 34.2656 55.9743 34.5472 55.9743 34.9056C55.9743 35.264 55.6927 35.5456 55.3343 35.5456H51.1231C50.4831 35.5456 49.8559 35.7248 49.3183 36.0832L46.3871 37.9904C46.2591 38.0544 46.1439 38.0928 46.0287 38.0928Z" fill="#1C1D21"/>
<path d="M14.4762 47.1808H10.265C9.9066 47.1808 9.625 46.8992 9.625 46.5408C9.625 46.1824 9.9066 45.9008 10.265 45.9008H14.4762C15.1162 45.9008 15.7434 45.7216 16.281 45.3632L19.2122 43.456C19.5066 43.264 19.9034 43.3536 20.0954 43.648C20.2874 43.9424 20.1978 44.3392 19.9034 44.5312L16.9722 46.4383C16.2298 46.9247 15.3722 47.1808 14.4762 47.1808Z" fill="#1C1D21"/>
</g>
</g>
<defs>
<clipPath id="clip0_2233_33927">
<rect width="64" height="64" fill="white"/>
</clipPath>
<clipPath id="clip1_2233_33927">
<rect width="64" height="64" fill="white"/>
</clipPath>
</defs>
</svg>
