<svg width="133" height="144" viewBox="0 0 133 144" fill="none" xmlns="http://www.w3.org/2000/svg">
<g filter="url(#filter0_d_2233_33170)">
<rect x="30" y="30" width="73" height="84" rx="8" fill="#FFE7BB"/>
<rect x="30.5" y="30.5" width="72" height="83" rx="7.5" stroke="#FFD166"/>
</g>
<g clip-path="url(#clip0_2233_33170)">
<path d="M108.405 30.0374H76.2441V55.9707H108.405C109.401 55.9707 110.209 55.2067 110.209 54.264L102.993 43.0023L110.209 31.7427C110.209 30.8007 109.401 30.0374 108.405 30.0374Z" fill="white"/>
<path d="M108.405 57.4061H76.2441C75.4506 57.4061 74.8086 56.7627 74.8086 55.9706V30.0373C74.8086 29.2446 75.4506 28.6018 76.2441 28.6018H108.405C110.19 28.6018 111.645 30.0114 111.645 31.744C111.645 32.0181 111.566 32.2865 111.418 32.5192L104.697 43.005L111.418 53.4915C111.566 53.7214 111.645 53.9898 111.645 54.2653C111.645 55.9966 110.19 57.4061 108.405 57.4061ZM77.6796 54.5351H108.405C108.496 54.5351 108.575 54.5092 108.636 54.4721L101.784 43.7774C101.481 43.305 101.481 42.7008 101.784 42.2284L108.637 31.5359C108.575 31.4973 108.496 31.4728 108.405 31.4728H77.6796V54.5351ZM110.209 31.744H110.223H110.209Z" fill="#024430"/>
<path d="M59.3633 7.43555H57.1322C54.7337 7.43555 52.79 9.3792 52.79 11.7777V89.2224C52.79 91.6209 54.7337 93.5646 57.1322 93.5646H59.3633C61.7618 93.5646 63.7055 91.6209 63.7055 89.2224V11.7777C63.7055 9.3792 61.7604 7.43555 59.3633 7.43555Z" fill="#D4DDE0"/>
<path d="M59.3632 95H57.1322C53.9472 95 51.3545 92.4073 51.3545 89.2223V11.7777C51.3545 8.5927 53.9472 6 57.1322 6H59.3632C62.5482 6 65.1395 8.5927 65.1395 11.7777V89.2223C65.1409 92.4073 62.5482 95 59.3632 95ZM57.1322 8.87097C55.5292 8.87097 54.2255 10.1747 54.2255 11.7777V89.2223C54.2255 90.8253 55.5292 92.129 57.1322 92.129H59.3632C60.9648 92.129 62.2685 90.8253 62.2685 89.2223V11.7777C62.2699 10.1747 60.9648 8.87097 59.3632 8.87097H57.1322Z" fill="#024430"/>
<path d="M85.3197 19.8003H52.79V45.7343H85.3197C86.1118 45.7343 86.7552 45.0909 86.7552 44.2988V21.2358C86.7552 20.4423 86.1118 19.8003 85.3197 19.8003Z" fill="white"/>
<path d="M85.3197 47.17H52.79C51.9958 47.17 51.3545 46.5266 51.3545 45.7345V19.8005C51.3545 19.0084 51.9958 18.365 52.79 18.365H85.3197C86.903 18.365 88.1906 19.6533 88.1906 21.236V44.299C88.1906 45.8824 86.903 47.17 85.3197 47.17ZM54.2255 44.299H85.3197V21.236H54.2255V44.299Z" fill="#024430"/>
<path d="M57.0967 24.1069H82.449V41.4281H57.0967V24.1069Z" fill="#06D6A0"/>
<path d="M62.2705 25.0903H65.1415V40.472H62.2705V25.0903Z" fill="white"/>
</g>
<defs>
<filter id="filter0_d_2233_33170" x="0" y="0" width="133" height="144" filterUnits="userSpaceOnUse" color-interpolation-filters="sRGB">
<feFlood flood-opacity="0" result="BackgroundImageFix"/>
<feColorMatrix in="SourceAlpha" type="matrix" values="0 0 0 0 0 0 0 0 0 0 0 0 0 0 0 0 0 0 127 0" result="hardAlpha"/>
<feOffset/>
<feGaussianBlur stdDeviation="15"/>
<feComposite in2="hardAlpha" operator="out"/>
<feColorMatrix type="matrix" values="0 0 0 0 0.0530382 0 0 0 0 0.161216 0 0 0 0 0.195833 0 0 0 0.08 0"/>
<feBlend mode="normal" in2="BackgroundImageFix" result="effect1_dropShadow_2233_33170"/>
<feBlend mode="normal" in="SourceGraphic" in2="effect1_dropShadow_2233_33170" result="shape"/>
</filter>
<clipPath id="clip0_2233_33170">
<rect width="89" height="89" fill="white" transform="translate(37 6)"/>
</clipPath>
</defs>
</svg>
