<svg width="64" height="64" viewBox="0 0 64 64" fill="none" xmlns="http://www.w3.org/2000/svg">
<g clip-path="url(#clip0_2233_34113)">
<g clip-path="url(#clip1_2233_34113)">
<path d="M50.7648 59.6352H59.9168C62.1696 59.6352 64 57.8048 64 55.552V52.224C64 49.4976 62.2848 47.0656 59.712 46.1568L54.4768 44.288C53.0816 43.7888 52.7872 41.9328 53.9776 41.0624C56.2432 39.3984 57.7152 36.7104 57.7152 33.6768C57.7152 28.608 53.6064 24.512 48.5504 24.512C46.464 24.512 44.544 25.2032 43.008 26.3808H20.992C19.456 25.216 17.536 24.512 15.4496 24.512C10.3808 24.512 6.2848 28.6208 6.2848 33.6768C6.2848 36.7104 7.7568 39.3984 10.0224 41.0624C11.2128 41.9328 10.9056 43.7888 9.5232 44.288L4.288 46.144C1.7152 47.0656 0 49.4976 0 52.224V55.552C0 57.8048 1.8304 59.6352 4.0832 59.6352H13.2352H50.7648Z" fill="#AAB1BA"/>
<path d="M50.7133 59.264V54.3745C50.7133 51.072 48.6397 48.128 45.5165 47.0144L39.1805 44.7617C37.5037 44.1601 37.1325 41.9201 38.5789 40.8577C41.3309 38.8353 43.1101 35.5841 43.1101 31.9104C43.1101 25.7792 38.1309 20.8 31.9997 20.8C25.8685 20.8 20.8893 25.7792 20.8893 31.9104C20.8893 35.5841 22.6685 38.8353 25.4205 40.8577C26.8541 41.9201 26.4957 44.1601 24.8189 44.7617L18.4829 47.0144C15.3725 48.1152 13.2861 51.072 13.2861 54.3745V59.264C13.2861 61.5168 15.1165 63.3473 17.3693 63.3473H46.6429C48.8829 63.3344 50.7133 61.5168 50.7133 59.264Z" fill="#06D6A0"/>
<path d="M46.6305 63.9743H17.3697C14.7713 63.9743 12.6465 61.8623 12.6465 59.2511V54.3615C12.6465 50.7903 14.8993 47.6031 18.2657 46.3999L24.6017 44.1471C25.1777 43.9423 25.5745 43.4559 25.6641 42.8543C25.7537 42.2655 25.5233 41.7023 25.0497 41.3567C22.4385 39.4367 20.7233 36.4927 20.3393 33.2927C20.3009 32.9471 20.5441 32.6271 20.9025 32.5759C21.2609 32.5375 21.5681 32.7807 21.6193 33.1391C21.9649 35.9935 23.4881 38.6047 25.8177 40.3199C26.6753 40.9599 27.0977 41.9711 26.9441 43.0335C26.7905 44.0959 26.0609 44.9791 25.0497 45.3375L18.6881 47.6159C15.8337 48.6271 13.9265 51.3407 13.9265 54.3615V59.2639C13.9265 61.1583 15.4753 62.7071 17.3697 62.7071H46.6433C48.5377 62.7071 50.0865 61.1583 50.0865 59.2639V54.3743C50.0865 51.3535 48.1665 48.6399 45.3249 47.6287L38.9889 45.3759C37.9777 45.0175 37.2481 44.1343 37.0945 43.0719C36.9409 42.0095 37.3633 40.9983 38.2209 40.3583C40.8961 38.3871 42.4833 35.2383 42.4833 31.9231C42.4833 26.1503 37.7857 21.4527 32.0129 21.4527C31.0785 21.4527 30.1441 21.5807 29.2481 21.8239C28.7361 21.9647 28.2369 22.1439 27.7505 22.3615C27.4305 22.5023 27.0465 22.3615 26.9057 22.0415C26.7649 21.7215 26.9057 21.3375 27.2257 21.1967C27.7633 20.9535 28.3265 20.7487 28.9025 20.5951C29.9137 20.3263 30.9505 20.1855 32.0001 20.1855C38.4769 20.1855 43.7505 25.4591 43.7505 31.9359C43.7505 35.6479 41.9585 39.1935 38.9633 41.3951C38.4897 41.7407 38.2593 42.3039 38.3489 42.8927C38.4385 43.4943 38.8353 43.9807 39.4113 44.1855L45.7473 46.4383C49.1137 47.6287 51.3665 50.8287 51.3665 54.3999V59.2639C51.3537 61.8623 49.2417 63.9743 46.6305 63.9743Z" fill="#1C1D21"/>
<path d="M21.4017 29.2223C21.3377 29.2223 21.2737 29.2095 21.2097 29.1967C20.8769 29.0943 20.6849 28.7359 20.7873 28.3903C21.3633 26.5599 22.3873 24.8831 23.7569 23.5263C24.0129 23.2831 24.4097 23.2831 24.6657 23.5391C24.9089 23.7951 24.9089 24.1919 24.6529 24.4479C23.4369 25.6511 22.5153 27.1487 22.0033 28.7743C21.9265 29.0559 21.6705 29.2223 21.4017 29.2223Z" fill="#1C1D21"/>
<path d="M46.0412 0.665527C44.1212 0.665527 42.5596 2.22713 42.5596 4.14713V17.7919V20.8255C42.5596 21.5807 43.4556 21.9775 44.0188 21.4783L47.142 18.6751C47.782 18.0991 48.614 17.7791 49.4716 17.7791H59.878C61.798 17.7791 63.3596 16.2175 63.3596 14.2975V4.14713C63.3596 2.22713 61.798 0.665527 59.878 0.665527H46.0412Z" fill="#AFEAE4"/>
<path d="M43.4431 22.3488C43.2383 22.3488 43.0207 22.3104 42.8159 22.208C42.2655 21.9648 41.9199 21.4272 41.9199 20.8256V4.14723C41.9199 1.86884 43.7759 0.0256348 46.0415 0.0256348H59.8655C62.1439 0.0256348 63.9871 1.88163 63.9871 4.14723V14.3104C63.9871 16.5888 62.1311 18.432 59.8655 18.432H49.4591C48.7551 18.432 48.0895 18.688 47.5647 19.1616L44.4415 21.9648C44.1599 22.2208 43.8143 22.3488 43.4431 22.3488ZM46.0415 1.30563C44.4671 1.30563 43.1999 2.58563 43.1999 4.14723V20.8384C43.1999 20.9664 43.2895 21.0304 43.3407 21.056C43.3919 21.0816 43.4943 21.1072 43.5967 21.0176L46.7199 18.2144C47.4751 17.536 48.4607 17.1648 49.4719 17.1648H59.8783C61.4527 17.1648 62.7199 15.8848 62.7199 14.3232V4.14723C62.7199 2.57283 61.4399 1.30563 59.8783 1.30563H46.0415Z" fill="#1C1D21"/>
</g>
</g>
<defs>
<clipPath id="clip0_2233_34113">
<rect width="64" height="64" fill="white"/>
</clipPath>
<clipPath id="clip1_2233_34113">
<rect width="64" height="64" fill="white"/>
</clipPath>
</defs>
</svg>
