<svg width="133" height="144" viewBox="0 0 133 144" fill="none" xmlns="http://www.w3.org/2000/svg">
<g filter="url(#filter0_d_2233_33013)">
<rect x="30" y="30" width="73" height="84" rx="8" fill="#FFE7BB"/>
<rect x="30.5" y="30.5" width="72" height="83" rx="7.5" stroke="#FFD166"/>
</g>
<path d="M74.855 14.5H72.875C72.455 14.5 72.125 14.17 72.125 13.75C72.125 13.33 72.455 13 72.875 13H74.84C75.26 13 75.59 13.33 75.59 13.75C75.605 14.155 75.26 14.5 74.855 14.5Z" fill="#1C1D21"/>
<path d="M97.7004 88H65.1504C62.2554 88 59.9004 85.645 59.9004 82.75V36.1C59.9004 35.68 60.2304 35.35 60.6504 35.35C61.0704 35.35 61.4004 35.68 61.4004 36.1V82.75C61.4004 84.82 63.0804 86.5 65.1504 86.5H97.7004C99.7704 86.5 101.45 84.82 101.45 82.75V18.25C101.45 16.18 99.7704 14.5 97.7004 14.5H78.5454C78.1254 14.5 77.7954 14.17 77.7954 13.75C77.7954 13.33 78.1254 13 78.5454 13H97.7004C100.595 13 102.95 15.355 102.95 18.25V82.75C102.95 85.645 100.595 88 97.7004 88Z" fill="#1C1D21"/>
<path d="M60.6504 30.64C60.2304 30.64 59.9004 30.31 59.9004 29.89V18.25C59.9004 15.355 62.2554 13 65.1504 13H67.7454C68.1654 13 68.4954 13.33 68.4954 13.75C68.4954 14.17 68.1654 14.5 67.7454 14.5H65.1504C63.0804 14.5 61.4004 16.18 61.4004 18.25V29.89C61.4004 30.31 61.0704 30.64 60.6504 30.64Z" fill="#1C1D21"/>
<path d="M65.9004 74.875V22C65.9004 20.35 67.2504 19 68.9004 19H93.9504C95.6004 19 96.9504 20.35 96.9504 22V74.875C96.9504 76.525 95.6004 77.875 93.9504 77.875H68.9004C67.2504 77.875 65.9004 76.525 65.9004 74.875Z" fill="#AFEAE4"/>
<path d="M93.9504 78.625H68.9004C66.8304 78.625 65.1504 76.945 65.1504 74.875V22C65.1504 19.93 66.8304 18.25 68.9004 18.25H93.9504C96.0204 18.25 97.7004 19.93 97.7004 22V74.875C97.7004 76.945 96.0204 78.625 93.9504 78.625ZM68.9004 19.75C67.6554 19.75 66.6504 20.755 66.6504 22V74.875C66.6504 76.12 67.6554 77.125 68.9004 77.125H93.9504C95.1954 77.125 96.2004 76.12 96.2004 74.875V22C96.2004 20.755 95.1954 19.75 93.9504 19.75H68.9004Z" fill="#1C1D21"/>
<path d="M81.4251 87.235C84.0098 87.235 86.1051 85.1397 86.1051 82.555C86.1051 79.9703 84.0098 77.875 81.4251 77.875C78.8404 77.875 76.7451 79.9703 76.7451 82.555C76.7451 85.1397 78.8404 87.235 81.4251 87.235Z" fill="#AAB1BA"/>
<path d="M81.4251 87.9999C78.4251 87.9999 75.9951 85.5549 75.9951 82.5699C75.9951 79.5849 78.4401 77.1399 81.4251 77.1399C84.4101 77.1399 86.8551 79.5849 86.8551 82.5699C86.8551 85.5549 84.4251 87.9999 81.4251 87.9999ZM81.4251 78.6249C79.2501 78.6249 77.4951 80.3949 77.4951 82.5549C77.4951 84.7299 79.2651 86.4849 81.4251 86.4849C83.6001 86.4849 85.3551 84.7149 85.3551 82.5549C85.3701 80.3949 83.6001 78.6249 81.4251 78.6249Z" fill="#1C1D21"/>
<defs>
<filter id="filter0_d_2233_33013" x="0" y="0" width="133" height="144" filterUnits="userSpaceOnUse" color-interpolation-filters="sRGB">
<feFlood flood-opacity="0" result="BackgroundImageFix"/>
<feColorMatrix in="SourceAlpha" type="matrix" values="0 0 0 0 0 0 0 0 0 0 0 0 0 0 0 0 0 0 127 0" result="hardAlpha"/>
<feOffset/>
<feGaussianBlur stdDeviation="15"/>
<feComposite in2="hardAlpha" operator="out"/>
<feColorMatrix type="matrix" values="0 0 0 0 0.0530382 0 0 0 0 0.161216 0 0 0 0 0.195833 0 0 0 0.08 0"/>
<feBlend mode="normal" in2="BackgroundImageFix" result="effect1_dropShadow_2233_33013"/>
<feBlend mode="normal" in="SourceGraphic" in2="effect1_dropShadow_2233_33013" result="shape"/>
</filter>
</defs>
</svg>
