<svg width="64" height="64" viewBox="0 0 64 64" fill="none" xmlns="http://www.w3.org/2000/svg">
<g clip-path="url(#clip0_2233_33855)">
<rect width="64" height="64" fill="#FFE7BB"/>
<g clip-path="url(#clip1_2233_33855)">
<path d="M37.2093 28.1471L33.7533 21.6447C33.0109 20.2367 30.9885 20.2367 30.2461 21.6447L26.7901 28.1471C26.0861 29.4655 27.0461 31.0655 28.5437 31.0655H35.4557C36.9533 31.0655 37.9133 29.4655 37.2093 28.1471Z" fill="#06D6A0"/>
<path d="M22.1312 35.3536L18.6752 28.8512C17.9328 27.4432 15.9104 27.4432 15.168 28.8512L11.712 35.3536C11.008 36.672 11.968 38.272 13.4656 38.272H20.3648C21.8752 38.272 22.8352 36.672 22.1312 35.3536Z" fill="#06D6A0"/>
<path d="M52.2884 35.3536L48.8324 28.8512C48.09 27.4432 46.0676 27.4432 45.3252 28.8512L41.8692 35.3536C41.1652 36.672 42.1252 38.272 43.6228 38.272H50.522C52.0324 38.272 52.9924 36.672 52.2884 35.3536Z" fill="#06D6A0"/>
<path d="M5.12012 43.0081V56.3201C5.12012 57.7281 6.27212 58.8801 7.68012 58.8801H56.3201C57.7281 58.8801 58.8801 57.7281 58.8801 56.3201V43.0081H5.12012Z" fill="#AFEAE4"/>
<path d="M58.8801 16.384V7.98725C58.8801 6.57925 57.7281 5.42725 56.3201 5.42725H7.68012C6.27212 5.42725 5.12012 6.57925 5.12012 7.98725V16.384H58.8801Z" fill="#AFEAE4"/>
<path d="M59.52 64H4.48C2.0096 64 0 61.9904 0 59.52V4.48C0 2.0096 2.0096 0 4.48 0H59.52C61.9904 0 64 2.0096 64 4.48V59.52C64 61.9904 61.9904 64 59.52 64ZM4.48 1.28C2.7136 1.28 1.28 2.7136 1.28 4.48V59.52C1.28 61.2864 2.7136 62.72 4.48 62.72H59.52C61.2864 62.72 62.72 61.2864 62.72 59.52V4.48C62.72 2.7136 61.2864 1.28 59.52 1.28H4.48Z" fill="#1C1D21"/>
<path d="M5.12047 12.5056C4.76207 12.5056 4.48047 12.224 4.48047 11.8656V7.98723C4.48047 6.22083 5.91407 4.78723 7.68047 4.78723H8.23087C8.58927 4.78723 8.87087 5.06883 8.87087 5.42723C8.87087 5.78563 8.58927 6.06723 8.23087 6.06723H7.68047C6.61807 6.06723 5.76047 6.92483 5.76047 7.98723V11.8656C5.76047 12.2112 5.47887 12.5056 5.12047 12.5056Z" fill="#1C1D21"/>
<path d="M13.3129 6.06723H11.3929C11.0345 6.06723 10.7529 5.78563 10.7529 5.42723C10.7529 5.06883 11.0345 4.78723 11.3929 4.78723H13.3129C13.6713 4.78723 13.9529 5.06883 13.9529 5.42723C13.9529 5.78563 13.6713 6.06723 13.3129 6.06723Z" fill="#1C1D21"/>
<path d="M56.3203 59.52H55.7699C55.4115 59.52 55.1299 59.2384 55.1299 58.88C55.1299 58.5216 55.4115 58.24 55.7699 58.24H56.3203C57.3827 58.24 58.2403 57.3824 58.2403 56.32V52.4416C58.2403 52.0832 58.5219 51.8016 58.8803 51.8016C59.2387 51.8016 59.5203 52.0832 59.5203 52.4416V56.32C59.5203 58.0864 58.0867 59.52 56.3203 59.52Z" fill="#1C1D21"/>
<path d="M52.6079 59.52H50.6879C50.3295 59.52 50.0479 59.2384 50.0479 58.88C50.0479 58.5216 50.3295 58.24 50.6879 58.24H52.6079C52.9663 58.24 53.2479 58.5216 53.2479 58.88C53.2479 59.2384 52.9663 59.52 52.6079 59.52Z" fill="#1C1D21"/>
<path d="M16.4227 47.1425H10.2019C9.49787 47.1425 8.92188 47.7185 8.92188 48.4225V52.6849C8.92188 53.3889 9.49787 53.9649 10.2019 53.9649H16.4355C17.1395 53.9649 17.7155 53.3889 17.7155 52.6849V48.4225C17.7027 47.7185 17.1395 47.1425 16.4227 47.1425Z" fill="white"/>
<path d="M28.8896 47.1425H22.656C21.952 47.1425 21.376 47.7185 21.376 48.4225V52.6849C21.376 53.3889 21.952 53.9649 22.656 53.9649H28.8896C29.5936 53.9649 30.1696 53.3889 30.1696 52.6849V48.4225C30.1696 47.7185 29.5936 47.1425 28.8896 47.1425Z" fill="white"/>
<path d="M41.3447 47.1425H35.1111C34.4071 47.1425 33.8311 47.7185 33.8311 48.4225V52.6849C33.8311 53.3889 34.4071 53.9649 35.1111 53.9649H41.3447C42.0487 53.9649 42.6247 53.3889 42.6247 52.6849V48.4225C42.6247 47.7185 42.0487 47.1425 41.3447 47.1425Z" fill="white"/>
<path d="M53.7988 47.1425H47.5652C46.8612 47.1425 46.2852 47.7185 46.2852 48.4225V52.6849C46.2852 53.3889 46.8612 53.9649 47.5652 53.9649H53.7988C54.5028 53.9649 55.0788 53.3889 55.0788 52.6849V48.4225C55.0788 47.7185 54.5156 47.1425 53.7988 47.1425Z" fill="white"/>
<path d="M35.4564 31.7056H28.5444C27.61 31.7056 26.7652 31.232 26.2916 30.4256C25.818 29.632 25.7924 28.6592 26.2276 27.84L29.6836 21.3376C30.1444 20.48 31.0276 19.9424 32.0004 19.9424C32.9732 19.9424 33.8692 20.48 34.3172 21.3376L37.7732 27.84C38.2084 28.6592 38.1828 29.632 37.7092 30.4256C37.2228 31.232 36.378 31.7056 35.4564 31.7056ZM32.0004 21.2352C31.4884 21.2352 31.0532 21.504 30.81 21.952L27.354 28.4544C27.1236 28.8768 27.1492 29.376 27.3924 29.7856C27.6356 30.1952 28.0708 30.4384 28.5444 30.4384H35.4564C35.93 30.4384 36.3652 30.1952 36.6084 29.7856C36.8516 29.376 36.8644 28.8768 36.6468 28.4544L33.1908 21.952C32.9476 21.4912 32.5124 21.2352 32.0004 21.2352Z" fill="#1C1D21"/>
<path d="M32.0004 63.9999C31.642 63.9999 31.3604 63.7183 31.3604 63.3599V31.0655C31.3604 30.7071 31.642 30.4255 32.0004 30.4255C32.3588 30.4255 32.6404 30.7071 32.6404 31.0655V63.3599C32.6404 63.7183 32.3588 63.9999 32.0004 63.9999Z" fill="#1C1D21"/>
<path d="M20.3772 38.912H13.478C12.5436 38.912 11.6988 38.4384 11.2252 37.632C10.7516 36.8384 10.726 35.8656 11.1612 35.0464L14.6172 28.544C15.078 27.6864 15.9612 27.1488 16.934 27.1488C17.9068 27.1488 18.8028 27.6864 19.2508 28.544L22.7068 35.0464C23.142 35.8656 23.1164 36.8384 22.6428 37.632C22.1436 38.4384 21.2988 38.912 20.3772 38.912ZM16.9212 28.4416C16.4092 28.4416 15.974 28.7104 15.7308 29.1584L12.2748 35.6608C12.0444 36.0832 12.07 36.5824 12.3132 36.992C12.5564 37.4016 12.9916 37.6448 13.4652 37.6448H20.3644C20.838 37.6448 21.2732 37.4016 21.5164 36.992C21.7596 36.5824 21.7724 36.0832 21.5548 35.6608L18.0988 29.1584C17.8684 28.7104 17.4332 28.4416 16.9212 28.4416Z" fill="#1C1D21"/>
<path d="M16.9212 64C16.5628 64 16.2812 63.7184 16.2812 63.36V38.272C16.2812 37.9136 16.5628 37.632 16.9212 37.632C17.2796 37.632 17.5612 37.9136 17.5612 38.272V63.36C17.5612 63.7184 17.2668 64 16.9212 64Z" fill="#1C1D21"/>
<path d="M50.5344 38.912H43.6352C42.7008 38.912 41.856 38.4384 41.3824 37.632C40.9088 36.8384 40.8832 35.8656 41.3184 35.0464L44.7744 28.544C45.2352 27.6864 46.1184 27.1488 47.0912 27.1488C48.064 27.1488 48.96 27.6864 49.408 28.544L52.864 35.0464C53.2992 35.8656 53.2736 36.8384 52.8 37.632C52.3008 38.4384 51.4688 38.912 50.5344 38.912ZM47.0784 28.4416C46.5664 28.4416 46.1312 28.7104 45.888 29.1584L42.432 35.6608C42.2016 36.0832 42.2272 36.5824 42.4704 36.992C42.7136 37.4016 43.1488 37.6448 43.6224 37.6448H50.5216C50.9952 37.6448 51.4304 37.4016 51.6736 36.992C51.9168 36.5824 51.9296 36.0832 51.712 35.6608L48.256 29.1584C48.0384 28.7104 47.5904 28.4416 47.0784 28.4416Z" fill="#1C1D21"/>
<path d="M47.0785 64C46.7201 64 46.4385 63.7184 46.4385 63.36V38.272C46.4385 37.9136 46.7201 37.632 47.0785 37.632C47.4369 37.632 47.7185 37.9136 47.7185 38.272V63.36C47.7185 63.7184 47.4369 64 47.0785 64Z" fill="#1C1D21"/>
</g>
</g>
<defs>
<clipPath id="clip0_2233_33855">
<rect width="64" height="64" fill="white"/>
</clipPath>
<clipPath id="clip1_2233_33855">
<rect width="64" height="64" fill="white"/>
</clipPath>
</defs>
</svg>
