<svg width="100" height="100" viewBox="0 0 100 100" fill="none" xmlns="http://www.w3.org/2000/svg">
<path d="M38.2952 20.5572C38.753 19.12 39 17.5889 39 16C39 7.71573 32.2843 1 24 1C15.7157 1 9 7.71573 9 16C9 20.7104 11.1712 24.9137 14.5675 27.6637C17.9776 31.8414 21.7498 39.8898 21.5045 50C21.7498 60.1102 17.9776 68.1586 14.5675 72.3363C11.1712 75.0863 9 79.2896 9 84C9 92.2843 15.7157 99 24 99C32.2843 99 39 92.2843 39 84C39 79.2896 36.8288 75.0863 33.4325 72.3363C30.0224 68.1586 26.2502 60.1102 26.4955 50C26.3633 44.5517 27.3979 39.7021 28.9137 35.7344C34.6504 38.6264 41.7578 43.7694 48.0882 51.6041C57.2386 62.1076 62.4633 74.4134 61.7045 79.4436C61.2469 80.8805 61 82.4114 61 84C61 92.2843 67.7157 99 76 99C84.2843 99 91 92.2843 91 84C91 79.2896 88.8288 75.0863 85.4325 72.3363C82.0224 68.1586 78.2502 60.1102 78.4955 50C78.2502 39.8898 82.0224 31.8414 85.4325 27.6637C88.8288 24.9137 91 20.7104 91 16C91 7.71573 84.2843 1 76 1C67.7157 1 61 7.71573 61 16C61 20.7104 63.1712 24.9137 66.5675 27.6637C69.9776 31.8414 73.7498 39.8898 73.5045 50C73.6367 55.4483 72.6021 60.2979 71.0863 64.2657C65.3496 61.3736 58.2421 56.2306 51.9117 48.3959C42.7618 37.893 37.5372 25.5879 38.2952 20.5572Z" fill="#054E58"/>
</svg>
