<svg width="600" height="444" viewBox="0 0 600 444" fill="none" xmlns="http://www.w3.org/2000/svg">
<g clip-path="url(#clip0_2233_32933)">
<path d="M599.76 26.7469V416.84C599.76 431.618 588.29 443.594 574.138 443.594H25.6266C11.4746 443.594 0.00390625 431.618 0.00390625 416.84V26.7547C0.00390625 11.9768 11.4746 0 25.6266 0H574.146C588.294 0 599.76 11.973 599.76 26.7469Z" fill="#F5F8FF"/>
<path d="M540.529 212.148V280.1C540.529 285.091 536.484 289.14 531.493 289.14H451.878C450.054 289.14 448.354 288.599 446.936 287.668C444.471 286.053 442.841 283.268 442.841 280.1V212.148C442.841 207.157 446.89 203.108 451.881 203.108H531.496C536.484 203.108 540.529 207.157 540.529 212.148Z" fill="#AFEAE4"/>
<path d="M461.262 268.938H522.104L508.86 248.554L498.51 262.42L482.059 234.792L461.262 268.938Z" fill="#06D6A0"/>
<path d="M505.65 238.207C509.765 238.207 513.099 234.872 513.099 230.759C513.099 226.645 509.765 223.31 505.65 223.31C501.535 223.31 498.201 226.645 498.201 230.759C498.201 234.872 501.535 238.207 505.65 238.207Z" fill="white"/>
<path d="M382.293 408.039H48.8078C39.8483 408.039 32.5889 400.775 32.5889 391.82V213.713C32.5889 204.753 39.8522 197.494 48.8078 197.494H382.293C391.252 197.494 398.512 204.757 398.512 213.713V391.82C398.512 400.775 391.252 408.039 382.293 408.039Z" fill="#AFEAE4"/>
<path opacity="0.5" d="M54.085 345.902V265.491C54.085 265.491 79.669 297.944 113.563 296.669C147.458 295.394 150.12 276.726 170.384 271.472C193.41 265.499 218.646 306.015 262.551 289.139C306.317 272.318 296.094 256.771 322.47 256.771C339.126 256.771 344.148 294.792 374.654 294.792V345.902H54.085Z" fill="#06D6A0"/>
<path opacity="0.5" d="M54.085 345.902V315.751C54.085 315.751 73.7115 280.118 106.088 278.948C135.164 277.897 135.995 311.359 160.914 311.602C185.834 311.845 201.701 279.902 224.214 269.478C276.05 245.478 293.44 283.429 321.906 283.932C350.055 284.43 374.658 263.791 374.658 263.791V345.902H54.085Z" fill="#06D6A0"/>
<path opacity="0.5" d="M54.085 345.902V324.486C54.085 324.486 73.1899 290.75 122.036 315.751C170.882 340.752 187.329 315.662 199.789 306.525C212.249 297.388 231.404 292.385 258.603 313.336C295.487 341.748 289.657 299.918 321.902 296.669C341.536 294.687 356.643 327.496 374.654 305.698V345.902H54.085Z" fill="#06D6A0"/>
<path d="M374.658 381.083H54.085V382.74H374.658V381.083Z" fill="#024430"/>
<path d="M374.658 346.729H53.2578V265.487H54.9152V345.071H374.658V346.729Z" fill="#024430"/>
<path d="M196.93 181.727H43.4761C37.4646 181.727 32.5889 176.851 32.5889 170.84V80.9826C32.5889 74.971 37.4646 70.0953 43.4761 70.0953H196.93C202.942 70.0953 207.817 74.971 207.817 80.9826V170.84C207.817 176.851 202.942 181.727 196.93 181.727Z" fill="#AFEAE4"/>
<path d="M86.5001 95.0608H51.806C51.1376 95.0608 50.6006 94.5199 50.6006 93.8554V90.1155C50.6006 89.4471 51.1415 88.9101 51.806 88.9101H86.5001C87.1685 88.9101 87.7055 89.451 87.7055 90.1155V93.8554C87.7094 94.5199 87.1685 95.0608 86.5001 95.0608Z" fill="#06D6A0"/>
<path opacity="0.5" d="M121.438 102.305H51.806C51.1376 102.305 50.6006 101.764 50.6006 101.1V100.435C50.6006 99.7669 51.1415 99.2299 51.806 99.2299H121.438C122.106 99.2299 122.643 99.7707 122.643 100.435V101.1C122.647 101.764 122.106 102.305 121.438 102.305Z" fill="#06D6A0"/>
<path d="M189.806 95.6059C189.806 97.8583 188.956 99.9137 187.557 101.467C185.954 103.256 183.62 104.384 181.024 104.384C178.424 104.384 176.094 103.256 174.487 101.467C173.092 99.9137 172.242 97.8583 172.242 95.6059C172.242 90.7534 176.171 86.8242 181.024 86.8242C185.876 86.8242 189.806 90.7573 189.806 95.6059Z" fill="#06D6A0"/>
<path d="M181.027 95.3591C182.534 95.3591 183.755 94.1378 183.755 92.6314C183.755 91.1251 182.534 89.9038 181.027 89.9038C179.521 89.9038 178.3 91.1251 178.3 92.6314C178.3 94.1378 179.521 95.3591 181.027 95.3591Z" fill="#F5F8FF"/>
<path d="M187.56 101.471C185.957 103.26 183.624 104.388 181.027 104.388C178.427 104.388 176.097 103.26 174.49 101.471C175.599 98.9637 178.11 97.2174 181.027 97.2174C183.944 97.2174 186.448 98.9637 187.56 101.471Z" fill="#F5F8FF"/>
<path d="M94.8796 131.521L90.5177 134.152C91.445 136.238 91.9627 138.552 91.9627 140.983C91.9627 146.318 89.4746 151.082 85.5918 154.173L88.2383 158.531C93.5738 154.532 97.0277 148.153 97.0277 140.979C97.0316 137.594 96.255 134.384 94.8796 131.521Z" fill="#06D6A0"/>
<path d="M75.0949 119.045C72.0659 119.045 69.1799 119.664 66.5527 120.776L68.9829 125.258C70.8798 124.52 72.9391 124.114 75.0949 124.114C80.4536 124.114 85.2366 126.629 88.3274 130.535L92.6931 127.904C88.6905 122.53 82.2926 119.045 75.0949 119.045Z" fill="#F5F8FF"/>
<path d="M75.0951 157.847C65.7996 157.847 58.2349 150.282 58.2349 140.983C58.2349 135.35 61.0127 130.346 65.2741 127.283L62.844 122.797H62.8401C57.0063 126.742 53.1621 133.426 53.1621 140.983C53.1621 153.079 62.9986 162.916 75.0913 162.916C78.5066 162.916 81.7442 162.131 84.6302 160.733L81.9837 156.379C79.882 157.321 77.5485 157.847 75.0951 157.847Z" fill="#06D6A0"/>
<path d="M126.796 128.627H123.871C123.203 128.627 122.666 128.086 122.666 127.422V126.487C122.666 125.818 123.207 125.281 123.871 125.281H126.796C127.464 125.281 128.001 125.822 128.001 126.487V127.422C128.001 128.086 127.461 128.627 126.796 128.627Z" fill="#F5F8FF"/>
<path d="M169.696 129.172H136.628C135.96 129.172 135.423 128.631 135.423 127.966V125.946C135.423 125.277 135.964 124.74 136.628 124.74H169.696C170.364 124.74 170.901 125.281 170.901 125.946V127.966C170.905 128.631 170.364 129.172 169.696 129.172Z" fill="#06D6A0"/>
<path d="M126.796 142.655H123.871C123.203 142.655 122.666 142.114 122.666 141.449V140.514C122.666 139.846 123.207 139.309 123.871 139.309H126.796C127.464 139.309 128.001 139.85 128.001 140.514V141.449C128.001 142.114 127.461 142.655 126.796 142.655Z" fill="#F5F8FF"/>
<path d="M180.56 143.2H136.632C135.964 143.2 135.427 142.659 135.427 141.995V139.974C135.427 139.306 135.968 138.769 136.632 138.769H180.56C181.228 138.769 181.765 139.31 181.765 139.974V141.995C181.765 142.659 181.225 143.2 180.56 143.2Z" fill="#06D6A0"/>
<path d="M126.796 156.687H123.871C123.203 156.687 122.666 156.146 122.666 155.482V154.547C122.666 153.878 123.207 153.341 123.871 153.341H126.796C127.464 153.341 128.001 153.882 128.001 154.547V155.482C128.001 156.146 127.461 156.687 126.796 156.687Z" fill="#F5F8FF"/>
<path d="M156.12 157.228H136.628C135.96 157.228 135.423 156.687 135.423 156.022V154.002C135.423 153.333 135.964 152.796 136.628 152.796H156.12C156.788 152.796 157.325 153.337 157.325 154.002V156.022C157.329 156.687 156.788 157.228 156.12 157.228Z" fill="#06D6A0"/>
<path d="M388.729 181.727H235.275C229.263 181.727 224.388 176.851 224.388 170.84V80.9826C224.388 74.971 229.263 70.0953 235.275 70.0953H388.729C394.741 70.0953 399.616 74.971 399.616 80.9826V170.84C399.62 176.851 394.744 181.727 388.729 181.727Z" fill="#AFEAE4"/>
<path d="M260.002 145.789H248.241V167.849H260.002V145.789Z" fill="#06D6A0"/>
<path opacity="0.5" d="M283.155 133.719H271.395V167.853H283.155V133.719Z" fill="white"/>
<path d="M306.305 122.754H294.545V167.849H306.305V122.754Z" fill="#06D6A0"/>
<path opacity="0.5" d="M329.459 114.568H317.698V167.849H329.459V114.568Z" fill="white"/>
<path d="M352.613 103.329H340.853V167.849H352.613V103.329Z" fill="#06D6A0"/>
<path opacity="0.5" d="M375.767 92.4838H364.007V167.853H375.767V92.4838Z" fill="white"/>
<path d="M425.59 70.0953H557.772C562.964 70.0953 567.176 74.3065 567.176 79.499V172.323C567.176 177.516 562.964 181.727 557.772 181.727H425.59C420.398 181.727 416.187 177.516 416.187 172.323V79.499C416.187 74.3065 420.398 70.0953 425.59 70.0953Z" fill="#AFEAE4"/>
<path d="M476.991 160.365C471.195 160.365 467.772 151.912 463.816 142.126C460.119 132.985 455.927 122.623 450.29 122.264C446.716 122.04 440.736 125.694 432.584 144.421C432.217 145.259 431.243 145.642 430.405 145.278C429.566 144.911 429.18 143.938 429.547 143.099C436.81 126.421 443.672 118.528 450.503 118.956C458.222 119.447 462.63 130.346 466.891 140.882C469.955 148.462 473.432 157.05 476.998 157.05C477.01 157.05 477.018 157.05 477.029 157.05C481.561 156.989 485.718 144.104 489.385 132.738C494.28 117.558 498.904 103.22 507.246 102.846C507.358 102.842 507.47 102.838 507.578 102.838C513.439 102.838 517.731 109.842 521.888 116.623C524.624 121.081 528.012 126.633 530.233 126.15C532.946 125.555 534.36 116.897 535.495 109.939C537.284 98.9745 539.313 86.5495 547.094 84.4052C548.879 83.9146 550.807 84.0034 552.827 84.668C553.696 84.9539 554.168 85.8927 553.882 86.762C553.596 87.6313 552.657 88.1026 551.788 87.8167C550.401 87.3608 549.118 87.2874 547.975 87.6004C542.241 89.1805 540.394 100.493 538.768 110.472C537.141 120.436 535.859 128.31 530.944 129.388C526.428 130.381 523.016 124.806 519.064 118.354C515.556 112.628 511.584 106.149 507.562 106.149C507.508 106.149 507.45 106.149 507.396 106.153C501.354 106.427 496.671 120.942 492.541 133.75C487.951 147.979 483.987 160.265 477.08 160.358C477.045 160.365 477.018 160.365 476.991 160.365Z" fill="#06D6A0"/>
<path opacity="0.4" d="M520.064 107.56C521.725 100.53 517.371 93.4864 510.343 91.8267C503.312 90.1669 496.269 94.5199 494.611 101.549C492.95 108.578 497.304 115.622 504.332 117.282C511.36 118.941 518.407 114.589 520.064 107.56Z" fill="#F5F8FF"/>
<path d="M513.937 106.112C514.794 102.467 512.538 98.8153 508.895 97.9549C505.252 97.0941 501.601 99.3512 500.739 102.995C499.878 106.64 502.134 110.292 505.777 111.152C509.424 112.013 513.075 109.756 513.937 106.112Z" fill="#F5F8FF"/>
<path d="M540.529 315.373V391.785C540.529 397.661 535.765 402.425 529.889 402.425H453.477C447.601 402.425 442.837 397.661 442.837 391.785V315.373C442.837 309.496 447.601 304.733 453.477 304.733H529.889C535.762 304.733 540.529 309.496 540.529 315.373Z" fill="#AFEAE4"/>
<path d="M518.886 353.575C518.886 368.6 506.705 380.782 491.679 380.782C476.658 380.782 464.477 368.6 464.477 353.575C464.477 338.554 476.658 326.372 491.679 326.372V336.981C482.515 336.981 475.09 344.411 475.09 353.571C475.09 362.739 482.519 370.165 491.679 370.165C500.847 370.165 508.273 362.735 508.273 353.571H518.886V353.575Z" fill="#06D6A0"/>
<path d="M518.886 353.575H508.277C508.277 344.411 500.848 336.985 491.684 336.985V326.376C506.705 326.376 518.886 338.554 518.886 353.575Z" fill="white"/>
<path d="M573.585 0H26.179C11.7218 0 0 11.7218 0 26.179V34.1494H599.76V26.179C599.76 11.718 588.042 0 573.585 0Z" fill="#0E2932"/>
<path d="M40.7672 21.4269C43.1719 21.4269 45.1214 19.4775 45.1214 17.0727C45.1214 14.668 43.1719 12.7186 40.7672 12.7186C38.3625 12.7186 36.4131 14.668 36.4131 17.0727C36.4131 19.4775 38.3625 21.4269 40.7672 21.4269Z" fill="white"/>
<path opacity="0.5" d="M57.5661 21.4269C59.9707 21.4269 61.9202 19.4775 61.9202 17.0727C61.9202 14.668 59.9707 12.7186 57.5661 12.7186C55.1614 12.7186 53.2119 14.668 53.2119 17.0727C53.2119 19.4775 55.1614 21.4269 57.5661 21.4269Z" fill="white"/>
<path opacity="0.5" d="M74.3649 21.4269C76.7695 21.4269 78.719 19.4775 78.719 17.0727C78.719 14.668 76.7695 12.7186 74.3649 12.7186C71.9603 12.7186 70.0107 14.668 70.0107 17.0727C70.0107 19.4775 71.9603 21.4269 74.3649 21.4269Z" fill="white"/>
</g>
<defs>
<clipPath id="clip0_2233_32933">
<rect width="600" height="443.915" fill="white"/>
</clipPath>
</defs>
</svg>
