<svg width="133" height="144" viewBox="0 0 133 144" fill="none" xmlns="http://www.w3.org/2000/svg">
<g filter="url(#filter0_d_2233_33049)">
<rect x="30" y="30" width="73" height="84" rx="8" fill="#FFE7BB"/>
<rect x="30.5" y="30.5" width="72" height="83" rx="7.5" stroke="#FFD166"/>
</g>
<path d="M46.8154 72.593V28.0698C46.8154 26.2791 48.2805 24.814 50.0712 24.814H111.932C113.722 24.814 115.188 26.2791 115.188 28.0698V72.593C115.188 74.3837 113.722 75.8489 111.932 75.8489H50.0712C48.2805 75.8489 46.8154 74.3837 46.8154 72.593Z" fill="#06D6A0"/>
<path d="M60.3068 56.9326C58.0277 56.9326 56.1719 58.7884 56.1719 61.0675V67.5628H64.4416V61.0675C64.4416 58.7884 62.6021 56.9326 60.3068 56.9326Z" fill="#FFE7BB"/>
<path d="M68.59 45.3254C66.3109 45.3254 64.4551 47.1813 64.4551 49.4603V67.5627H72.7248V49.4603C72.7248 47.1813 70.869 45.3254 68.59 45.3254Z" fill="#FFE7BB"/>
<path d="M76.8624 52.3096C74.5834 52.3096 72.7275 54.1654 72.7275 56.4445V67.5631H80.9973V56.4445C80.9973 54.1654 79.1415 52.3096 76.8624 52.3096Z" fill="#FFE7BB"/>
<path d="M85.1349 41.6953C82.8558 41.6953 81 43.5511 81 45.8302V67.5628H89.2698V45.8302C89.2698 43.5511 87.414 41.6953 85.1349 41.6953Z" fill="#FFE7BB"/>
<path d="M93.4073 39.8721C91.1283 39.8721 89.2725 41.7279 89.2725 44.007V67.5628H97.5422V44.007C97.5585 41.7279 95.7027 39.8721 93.4073 39.8721Z" fill="#FFE7BB"/>
<path d="M101.691 31.9768C99.4115 31.9768 97.5557 33.8326 97.5557 36.1117V67.5629H105.825V36.1117C105.825 33.8163 103.97 31.9768 101.691 31.9768Z" fill="#FFE7BB"/>
<path d="M64.445 68.3768H56.1753C55.7195 68.3768 55.3613 68.0187 55.3613 67.5628V61.0675C55.3613 58.3326 57.5753 56.1187 60.3102 56.1187C63.045 56.1187 65.259 58.3326 65.259 61.0675V67.5628C65.259 68.0187 64.9009 68.3768 64.445 68.3768ZM56.9892 66.7489H63.6311V61.0675C63.6311 59.228 62.1334 57.7466 60.3102 57.7466C58.4706 57.7466 56.9892 59.2442 56.9892 61.0675V66.7489Z" fill="#1C1D21"/>
<path d="M72.7331 68.3768H64.4634C64.0076 68.3768 63.6494 68.0187 63.6494 67.5629V49.4606C63.6494 46.7257 65.8634 44.5117 68.5983 44.5117C71.3331 44.5117 73.5471 46.7257 73.5471 49.4606V67.5629C73.5471 68.0187 73.1727 68.3768 72.7331 68.3768ZM65.261 66.7489H71.9029V49.4606C71.9029 47.621 70.4052 46.1396 68.582 46.1396C66.7424 46.1396 65.261 47.6373 65.261 49.4606V66.7489Z" fill="#1C1D21"/>
<path d="M81.0007 68.3767H72.7309C72.2751 68.3767 71.917 68.0186 71.917 67.5628V55.7767C71.917 53.0418 74.1309 50.8279 76.8658 50.8279C79.6007 50.8279 81.8147 53.0418 81.8147 55.7767V67.5628C81.8147 68.0186 81.4565 68.3767 81.0007 68.3767ZM73.5449 66.7488H80.1868V55.7767C80.1868 53.9372 78.6891 52.4558 76.8658 52.4558C75.0263 52.4558 73.5449 53.9535 73.5449 55.7767V66.7488Z" fill="#1C1D21"/>
<path d="M89.2683 68.3765H80.9985C80.5427 68.3765 80.1846 68.0183 80.1846 67.5625V45.8299C80.1846 43.0951 82.3985 40.8811 85.1334 40.8811C87.8683 40.8811 90.0822 43.0951 90.0822 45.8299V67.5625C90.0822 68.0183 89.7241 68.3765 89.2683 68.3765ZM81.8125 66.7485H88.4543V45.8299C88.4543 43.9904 86.9567 42.509 85.1334 42.509C83.2939 42.509 81.8125 44.0067 81.8125 45.8299V66.7485Z" fill="#1C1D21"/>
<path d="M97.5515 68.3767H89.2817C88.8259 68.3767 88.4678 68.0186 88.4678 67.5628V44.0069C88.4678 41.2721 90.6817 39.0581 93.4166 39.0581C96.1515 39.0581 98.3655 41.2721 98.3655 44.0069V67.5628C98.3655 68.0186 97.991 68.3767 97.5515 68.3767ZM90.0794 66.7488H96.7213V44.0069C96.7213 42.1674 95.2236 40.686 93.4003 40.686C91.5608 40.686 90.0794 42.1837 90.0794 44.0069V66.7488Z" fill="#1C1D21"/>
<path d="M105.819 68.3768H97.5493C97.0935 68.3768 96.7354 68.0187 96.7354 67.5628V36.1117C96.7354 33.3768 98.9493 31.1628 101.684 31.1628C104.419 31.1628 106.633 33.3768 106.633 36.1117V67.5628C106.633 68.0187 106.259 68.3768 105.819 68.3768ZM98.3633 66.7489H105.005V36.1117C105.005 34.2721 103.507 32.7907 101.684 32.7907C99.8447 32.7907 98.3633 34.2884 98.3633 36.1117V66.7489Z" fill="#1C1D21"/>
<path d="M46.814 28.8837C46.3581 28.8837 46 28.5256 46 28.0698C46 25.8233 47.8233 24 50.0698 24H52.886C53.3419 24 53.7 24.3581 53.7 24.814C53.7 25.2698 53.3419 25.6279 52.886 25.6279H50.0698C48.7186 25.6279 47.6279 26.7186 47.6279 28.0698C47.6279 28.5256 47.2698 28.8837 46.814 28.8837Z" fill="#1C1D21"/>
<path d="M46.814 45.2767C46.3581 45.2767 46 44.9186 46 44.4628V32.4162C46 31.9604 46.3581 31.6023 46.814 31.6023C47.2698 31.6023 47.6279 31.9604 47.6279 32.4162V44.4628C47.6279 44.9023 47.2698 45.2767 46.814 45.2767Z" fill="#1C1D21"/>
<path d="M57.7195 25.6279H56.4985C56.0427 25.6279 55.6846 25.2698 55.6846 24.814C55.6846 24.3581 56.0427 24 56.4985 24H57.7195C58.1753 24 58.5334 24.3581 58.5334 24.814C58.5334 25.2698 58.1753 25.6279 57.7195 25.6279Z" fill="#1C1D21"/>
<path d="M111.928 76.6628H109.112C108.656 76.6628 108.298 76.3046 108.298 75.8488C108.298 75.393 108.656 75.0349 109.112 75.0349H111.928C113.279 75.0349 114.37 73.9442 114.37 72.593C114.37 72.1372 114.728 71.7791 115.184 71.7791C115.64 71.7791 115.998 72.1372 115.998 72.593C115.998 74.8395 114.175 76.6628 111.928 76.6628Z" fill="#1C1D21"/>
<path d="M115.187 69.0606C114.731 69.0606 114.373 68.7025 114.373 68.2467V56.2002C114.373 55.7444 114.731 55.3862 115.187 55.3862C115.643 55.3862 116.001 55.7444 116.001 56.2002V68.2467C116.001 68.7025 115.643 69.0606 115.187 69.0606Z" fill="#1C1D21"/>
<path d="M105.496 76.6628H104.275C103.819 76.6628 103.461 76.3047 103.461 75.8489C103.461 75.3931 103.819 75.0349 104.275 75.0349H105.496C105.952 75.0349 106.31 75.3931 106.31 75.8489C106.31 76.3047 105.952 76.6628 105.496 76.6628Z" fill="#1C1D21"/>
<path d="M101.938 30.2182L100.938 30.7449C100.845 30.7937 100.737 30.7145 100.754 30.6115L100.946 29.4974C100.952 29.4565 100.939 29.4143 100.91 29.3865L100.101 28.5972C100.026 28.5246 100.068 28.3978 100.171 28.382L101.29 28.2196C101.331 28.213 101.367 28.1879 101.385 28.151L101.885 27.1372C101.932 27.0435 102.065 27.0435 102.111 27.1372L102.611 28.151C102.63 28.1879 102.666 28.2143 102.707 28.2196L103.826 28.382C103.929 28.3965 103.971 28.5246 103.896 28.5972L103.087 29.3865C103.058 29.4156 103.043 29.4578 103.051 29.4974L103.242 30.6115C103.26 30.7145 103.153 30.7924 103.059 30.7449L102.058 30.2182C102.019 30.1997 101.974 30.1997 101.938 30.2182Z" fill="#FFE7BB"/>
<path d="M103.118 30.8255C103.088 30.8255 103.057 30.8176 103.028 30.8031L102.028 30.2764C102.011 30.2671 101.989 30.2671 101.972 30.2764L100.972 30.8031C100.907 30.8374 100.829 30.8321 100.77 30.7885C100.71 30.745 100.681 30.6737 100.693 30.6011L100.885 29.487C100.889 29.4672 100.882 29.4474 100.867 29.4342L100.058 28.6448C100.005 28.5933 99.9869 28.5181 100.009 28.4481C100.032 28.3781 100.091 28.328 100.164 28.3174L101.283 28.155C101.303 28.1524 101.32 28.1405 101.328 28.122L101.828 27.1069C101.861 27.0409 101.927 27 102 27C102.074 27 102.14 27.0409 102.172 27.1069L102.672 28.1207C102.681 28.1379 102.697 28.1511 102.717 28.1537L103.836 28.3161C103.909 28.3266 103.968 28.3768 103.991 28.4468C104.013 28.5167 103.995 28.592 103.942 28.6435L103.133 29.4328C103.118 29.446 103.111 29.4658 103.115 29.4856L103.307 30.5998C103.319 30.6724 103.29 30.7437 103.23 30.7872C103.197 30.8136 103.158 30.8255 103.118 30.8255ZM102 30.1377C102.03 30.1377 102.061 30.1457 102.09 30.1602L103.09 30.6869C103.121 30.7027 103.147 30.6869 103.154 30.6829C103.16 30.6776 103.184 30.6578 103.177 30.6248L102.986 29.5094C102.976 29.4474 102.997 29.384 103.042 29.3391L103.851 28.5497C103.876 28.526 103.869 28.4969 103.867 28.4877C103.864 28.4798 103.852 28.4521 103.818 28.4468L102.698 28.2844C102.636 28.2752 102.582 28.2356 102.553 28.1788L102.053 27.165C102.037 27.1333 102.008 27.132 101.999 27.132C101.989 27.132 101.96 27.1346 101.945 27.165L101.446 28.1801C101.418 28.2369 101.364 28.2765 101.3 28.2857L100.181 28.4481C100.147 28.4534 100.135 28.4811 100.132 28.489C100.129 28.4969 100.123 28.526 100.148 28.5511L100.957 29.3404C101.002 29.384 101.023 29.4487 101.013 29.5107L100.821 30.6248C100.816 30.6592 100.838 30.679 100.845 30.6829C100.852 30.6882 100.878 30.704 100.908 30.6869L101.909 30.1602C101.939 30.1457 101.97 30.1377 102 30.1377Z" fill="#1C1D21"/>
<path d="M54.75 77.75C55.9926 76.5074 55.9926 74.4926 54.75 73.25C53.5074 72.0074 51.4926 72.0074 50.25 73.25C49.0074 74.4926 49.0074 76.5074 50.25 77.75C51.4926 78.9926 53.5074 78.9926 54.75 77.75Z" fill="#FDDF7F"/>
<path d="M52.4942 78.866C51.594 78.866 50.7494 78.5141 50.1123 77.8807C49.4752 77.2436 49.127 76.399 49.127 75.4988C49.127 74.5987 49.4789 73.7541 50.1123 73.1169C50.7494 72.4798 51.594 72.1316 52.4942 72.1316C53.3943 72.1316 54.2389 72.4835 54.8761 73.1169C56.1874 74.4283 56.1874 76.5657 54.8761 77.877C54.2389 78.5141 53.3943 78.866 52.4942 78.866ZM52.4942 72.5057C51.694 72.5057 50.9421 72.8169 50.3753 73.3837C49.8085 73.9504 49.4974 74.7024 49.4974 75.5025C49.4974 76.3027 49.8085 77.0546 50.3753 77.6214C50.9421 78.1882 51.694 78.4993 52.4942 78.4993C53.2943 78.4993 54.0463 78.1882 54.613 77.6214C55.7799 76.4545 55.7799 74.5542 54.613 73.3837C54.0463 72.8169 53.2943 72.5057 52.4942 72.5057Z" fill="#1C1D21"/>
<path d="M52.664 75.6842H52.1268C51.7897 75.6842 51.5156 75.41 51.5156 75.0729V74.5321C51.5156 74.195 51.7897 73.9209 52.1268 73.9209H53.3159C53.4196 73.9209 53.5011 74.0024 53.5011 74.1061C53.5011 74.2098 53.4196 74.2913 53.3159 74.2913H52.1268C51.9935 74.2913 51.8861 74.3988 51.8861 74.5321V75.0729C51.8861 75.2063 51.9935 75.3137 52.1268 75.3137H52.664C52.7677 75.3137 52.8492 75.3952 52.8492 75.4989C52.8492 75.6027 52.764 75.6842 52.664 75.6842Z" fill="#1C1D21"/>
<path d="M52.8899 77.0772H51.7008C51.5971 77.0772 51.5156 76.9957 51.5156 76.892C51.5156 76.7883 51.5971 76.7068 51.7008 76.7068H52.8899C53.0233 76.7068 53.1307 76.5994 53.1307 76.466V75.9252C53.1307 75.7918 53.0233 75.6844 52.8899 75.6844H52.3343C52.2306 75.6844 52.1491 75.6029 52.1491 75.4992C52.1491 75.3955 52.2306 75.314 52.3343 75.314H52.8899C53.227 75.314 53.5011 75.5881 53.5011 75.9252V76.466C53.5011 76.8031 53.227 77.0772 52.8899 77.0772Z" fill="#1C1D21"/>
<path d="M52.5016 77.7102C52.3979 77.7102 52.3164 77.6287 52.3164 77.525V76.8879C52.3164 76.7841 52.3979 76.7026 52.5016 76.7026C52.6053 76.7026 52.6868 76.7841 52.6868 76.8879V77.525C52.6868 77.6287 52.6053 77.7102 52.5016 77.7102Z" fill="#1C1D21"/>
<path d="M52.5016 74.2949C52.3979 74.2949 52.3164 74.2134 52.3164 74.1097V73.4726C52.3164 73.3688 52.3979 73.2874 52.5016 73.2874C52.6053 73.2874 52.6868 73.3688 52.6868 73.4726V74.1097C52.6868 74.2134 52.6053 74.2949 52.5016 74.2949Z" fill="#1C1D21"/>
<path d="M75.25 38.25C77.3211 36.1789 77.3211 32.8211 75.25 30.75C73.1789 28.6789 69.8211 28.6789 67.75 30.75C65.6789 32.8211 65.6789 36.1789 67.75 38.25C69.8211 40.3211 73.1789 40.3211 75.25 38.25Z" fill="#FDDF7F"/>
<path d="M71.5007 40.1106C70.0005 40.1106 68.5928 39.524 67.5309 38.4683C66.469 37.4064 65.8887 35.9988 65.8887 34.4985C65.8887 32.9983 66.4752 31.5906 67.5309 30.5287C68.5928 29.4668 70.0005 28.8865 71.5007 28.8865C73.001 28.8865 74.4086 29.473 75.4705 30.5287C77.6561 32.7143 77.6561 36.2766 75.4705 38.4621C74.4086 39.524 73.001 40.1106 71.5007 40.1106ZM71.5007 29.51C70.1672 29.51 68.9139 30.0286 67.9693 30.9732C67.0247 31.9178 66.5061 33.1711 66.5061 34.5047C66.5061 35.8382 67.0247 37.0915 67.9693 38.0361C68.9139 38.9807 70.1672 39.4994 71.5007 39.4994C72.8343 39.4994 74.0876 38.9807 75.0322 38.0361C76.9769 36.0914 76.9769 32.9242 75.0322 30.9732C74.0876 30.0286 72.8343 29.51 71.5007 29.51Z" fill="#1C1D21"/>
<path d="M71.7576 34.8069H70.8624C70.3006 34.8069 69.8438 34.3501 69.8438 33.7882V32.8869C69.8438 32.325 70.3006 31.8682 70.8624 31.8682H72.8443C73.0171 31.8682 73.1529 32.004 73.1529 32.1769C73.1529 32.3497 73.0171 32.4856 72.8443 32.4856H70.8624C70.6402 32.4856 70.4611 32.6646 70.4611 32.8869V33.7882C70.4611 34.0105 70.6402 34.1895 70.8624 34.1895H71.7576C71.9305 34.1895 72.0663 34.3254 72.0663 34.4982C72.0663 34.6711 71.9243 34.8069 71.7576 34.8069Z" fill="#1C1D21"/>
<path d="M72.1343 37.1282H70.1524C69.9796 37.1282 69.8438 36.9924 69.8438 36.8195C69.8438 36.6467 69.9796 36.5108 70.1524 36.5108H72.1343C72.3565 36.5108 72.5356 36.3318 72.5356 36.1095V35.2081C72.5356 34.9859 72.3565 34.8068 72.1343 34.8068H71.2082C71.0353 34.8068 70.8995 34.671 70.8995 34.4981C70.8995 34.3253 71.0353 34.1895 71.2082 34.1895H72.1343C72.6961 34.1895 73.1529 34.6463 73.1529 35.2081V36.1095C73.1529 36.6713 72.6961 37.1282 72.1343 37.1282Z" fill="#1C1D21"/>
<path d="M71.5079 38.1842C71.335 38.1842 71.1992 38.0483 71.1992 37.8755V36.8136C71.1992 36.6407 71.335 36.5049 71.5079 36.5049C71.6808 36.5049 71.8166 36.6407 71.8166 36.8136V37.8755C71.8166 38.0483 71.6808 38.1842 71.5079 38.1842Z" fill="#1C1D21"/>
<path d="M71.5079 32.492C71.335 32.492 71.1992 32.3562 71.1992 32.1833V31.1214C71.1992 30.9486 71.335 30.8127 71.5079 30.8127C71.6808 30.8127 71.8166 30.9486 71.8166 31.1214V32.1833C71.8166 32.3562 71.6808 32.492 71.5079 32.492Z" fill="#1C1D21"/>
<defs>
<filter id="filter0_d_2233_33049" x="0" y="0" width="133" height="144" filterUnits="userSpaceOnUse" color-interpolation-filters="sRGB">
<feFlood flood-opacity="0" result="BackgroundImageFix"/>
<feColorMatrix in="SourceAlpha" type="matrix" values="0 0 0 0 0 0 0 0 0 0 0 0 0 0 0 0 0 0 127 0" result="hardAlpha"/>
<feOffset/>
<feGaussianBlur stdDeviation="15"/>
<feComposite in2="hardAlpha" operator="out"/>
<feColorMatrix type="matrix" values="0 0 0 0 0.0530382 0 0 0 0 0.161216 0 0 0 0 0.195833 0 0 0 0.08 0"/>
<feBlend mode="normal" in2="BackgroundImageFix" result="effect1_dropShadow_2233_33049"/>
<feBlend mode="normal" in="SourceGraphic" in2="effect1_dropShadow_2233_33049" result="shape"/>
</filter>
</defs>
</svg>
