<svg width="64" height="64" viewBox="0 0 64 64" fill="none" xmlns="http://www.w3.org/2000/svg">
<g clip-path="url(#clip0_2233_34026)">
<g clip-path="url(#clip1_2233_34026)">
<path d="M51.6477 63.3856H12.3517C10.2269 63.3856 8.51172 61.6704 8.51172 59.5456V8.01285C8.51172 5.88805 10.2269 4.17285 12.3517 4.17285H51.6477C53.7725 4.17285 55.4877 5.88805 55.4877 8.01285V59.5456C55.4877 61.6704 53.7725 63.3856 51.6477 63.3856Z" fill="#ECF4F7"/>
<path d="M8.51176 10.4449C8.17896 10.4449 7.91016 10.1761 7.91016 9.84325V7.78245C7.91016 5.45285 9.80456 3.54565 12.147 3.54565H17.3822C17.715 3.54565 17.9838 3.81445 17.9838 4.14725C17.9838 4.48005 17.715 4.74885 17.3822 4.74885H12.1342C10.4702 4.74885 9.11336 6.10565 9.11336 7.76965V9.83045C9.11336 10.1761 8.84456 10.4449 8.51176 10.4449Z" fill="#1C1D21"/>
<path d="M8.51176 17.6898C8.17896 17.6898 7.91016 17.421 7.91016 17.0882V15.4114C7.91016 15.0786 8.17896 14.8098 8.51176 14.8098C8.84456 14.8098 9.11336 15.0786 9.11336 15.4114V17.0882C9.11336 17.421 8.84456 17.6898 8.51176 17.6898Z" fill="#1C1D21"/>
<path d="M8.51176 34.381C8.17896 34.381 7.91016 34.1122 7.91016 33.7794V21.0818C7.91016 20.749 8.17896 20.4802 8.51176 20.4802C8.84456 20.4802 9.11336 20.749 9.11336 21.0818V33.7794C9.11336 34.1122 8.84456 34.381 8.51176 34.381Z" fill="#1C1D21"/>
<path d="M12.1343 64.0002C11.0079 64.0002 9.94546 63.565 9.13906 62.7586C8.34546 61.965 7.89746 60.9026 7.89746 59.7634V39.3858C7.89746 39.053 8.16626 38.7842 8.49906 38.7842C8.83186 38.7842 9.10066 39.053 9.10066 39.3858V59.7634C9.10066 60.5698 9.42066 61.325 9.98386 61.901C10.5599 62.477 11.3151 62.7842 12.1215 62.7842L51.8399 62.7714C53.5039 62.7714 54.8607 61.4146 54.8607 59.7506V7.78259C54.8607 6.11859 53.5039 4.76179 51.8399 4.76179H21.3247C20.9919 4.76179 20.7231 4.49299 20.7231 4.16019C20.7231 3.82739 20.9919 3.55859 21.3247 3.55859H51.8655C54.1951 3.55859 56.1023 5.45299 56.1023 7.79539V59.7634C56.1023 62.093 54.2079 64.0002 51.8783 64.0002H12.1343Z" fill="#1C1D21"/>
<path d="M24.3451 48.0129C22.9371 48.0129 21.7979 49.1521 21.7979 50.5601V54.5665H26.9051V50.5601C26.8923 49.1521 25.7531 48.0129 24.3451 48.0129Z" fill="#FFE7BB"/>
<path d="M29.4525 40.8579C28.0445 40.8579 26.9053 41.9971 26.9053 43.4051V54.5667H31.9997V43.4051C31.9997 41.9971 30.8605 40.8579 29.4525 40.8579Z" fill="#FFE7BB"/>
<path d="M34.5472 45.1587C33.1392 45.1587 32 46.2979 32 47.7059V54.5667H37.1072V47.7059C37.1072 46.3107 35.9552 45.1587 34.5472 45.1587Z" fill="#FFE7BB"/>
<path d="M39.6536 38.6179C38.2456 38.6179 37.1064 39.7571 37.1064 41.1651V54.5667H42.2136V41.1651C42.2008 39.7571 41.0616 38.6179 39.6536 38.6179Z" fill="#FFE7BB"/>
<path d="M26.8924 55.1811H21.7852C21.4524 55.1811 21.1836 54.9123 21.1836 54.5795V50.5603C21.1836 48.8195 22.6044 47.3987 24.3452 47.3987C26.086 47.3987 27.5068 48.8195 27.5068 50.5603V54.5667C27.5068 54.9123 27.2252 55.1811 26.8924 55.1811ZM22.3996 53.9651H26.2908V50.5603C26.2908 49.4851 25.4204 48.6147 24.3452 48.6147C23.27 48.6147 22.3996 49.4851 22.3996 50.5603V53.9651Z" fill="#1C1D21"/>
<path d="M31.9998 55.1809H26.8926C26.5598 55.1809 26.291 54.9121 26.291 54.5793V43.4177C26.291 41.6769 27.7118 40.2561 29.4526 40.2561C31.1934 40.2561 32.6142 41.6769 32.6142 43.4177V54.5793C32.6014 54.9121 32.3326 55.1809 31.9998 55.1809ZM27.507 53.9649H31.3982V43.4049C31.3982 42.3297 30.5278 41.4593 29.4526 41.4593C28.3774 41.4593 27.507 42.3297 27.507 43.4049V53.9649Z" fill="#1C1D21"/>
<path d="M37.1072 55.1811H32C31.6672 55.1811 31.3984 54.9123 31.3984 54.5795V47.3091C31.3984 45.5683 32.8192 44.1475 34.56 44.1475C36.3008 44.1475 37.7216 45.5683 37.7216 47.3091V54.5795C37.7088 54.9123 37.44 55.1811 37.1072 55.1811ZM32.6016 53.9651H36.4928V47.3091C36.4928 46.2339 35.6224 45.3635 34.5472 45.3635C33.472 45.3635 32.6016 46.2339 32.6016 47.3091V53.9651Z" fill="#1C1D21"/>
<path d="M42.201 55.181H37.0938C36.761 55.181 36.4922 54.9122 36.4922 54.5794V41.165C36.4922 39.4242 37.913 38.0034 39.6538 38.0034C41.3946 38.0034 42.8154 39.4242 42.8154 41.165V54.5666C42.8154 54.9122 42.5338 55.181 42.201 55.181ZM37.7082 53.965H41.5994V41.165C41.5994 40.0898 40.729 39.2194 39.6538 39.2194C38.5786 39.2194 37.7082 40.0898 37.7082 41.165V53.965Z" fill="#1C1D21"/>
<path d="M36.0831 7.7313H27.9295C25.9583 7.7313 24.3711 6.1313 24.3711 4.1729C24.3711 2.2017 25.9711 0.614502 27.9295 0.614502H36.0831C38.0543 0.614502 39.6415 2.2145 39.6415 4.1729C39.6415 6.1441 38.0415 7.7313 36.0831 7.7313Z" fill="#AFEAE4"/>
<path d="M36.0832 8.3329H27.9296C25.6256 8.3329 23.7568 6.4641 23.7568 4.1601C23.7568 1.8561 25.6256 -0.0126953 27.9296 -0.0126953H36.0832C38.3872 -0.0126953 40.256 1.8561 40.256 4.1601C40.2432 6.4641 38.3744 8.3329 36.0832 8.3329ZM27.9168 1.2033C26.2784 1.2033 24.96 2.5345 24.96 4.1601C24.96 5.7985 26.2912 7.1169 27.9168 7.1169H36.0704C37.7088 7.1169 39.0272 5.7857 39.0272 4.1601C39.0272 2.5217 37.696 1.2033 36.0704 1.2033H27.9168Z" fill="#1C1D21"/>
<path d="M32 33.2929C37.2736 33.2929 41.5488 29.0178 41.5488 23.7441C41.5488 18.4705 37.2736 14.1953 32 14.1953C26.7263 14.1953 22.4512 18.4705 22.4512 23.7441C22.4512 29.0178 26.7263 33.2929 32 33.2929Z" fill="#FFE7BB"/>
<path d="M32.0001 33.8945C26.3937 33.8945 21.8369 29.3377 21.8369 23.7313C21.8369 18.1249 26.3937 13.5681 32.0001 13.5681C37.6065 13.5681 42.1633 18.1249 42.1633 23.7313C42.1633 29.3377 37.6065 33.8945 32.0001 33.8945ZM32.0001 14.7841C27.0593 14.7841 23.0529 18.8033 23.0529 23.7313C23.0529 28.6721 27.0721 32.6785 32.0001 32.6785C36.9281 32.6785 40.9473 28.6593 40.9473 23.7313C40.9473 18.8033 36.9409 14.7841 32.0001 14.7841Z" fill="#1C1D21"/>
<path d="M32 14.1826V23.7314H41.5488C41.5488 18.4578 37.2736 14.1826 32 14.1826Z" fill="#AAB1BA"/>
<path d="M41.5488 24.3457H32C31.6672 24.3457 31.3984 24.077 31.3984 23.7442V14.1954C31.3984 13.8626 31.6672 13.5938 32 13.5938C37.6064 13.5938 42.1632 18.1506 42.1632 23.757C42.1632 24.077 41.8944 24.3457 41.5488 24.3457ZM32.6016 23.1297H40.9216C40.6272 18.6753 37.056 15.1041 32.6016 14.8097V23.1297Z" fill="#1C1D21"/>
<path d="M22.4512 23.7441C22.4512 26.3809 23.5136 28.7745 25.2416 30.5025L32 23.7441V14.1953C26.7264 14.1825 22.4512 18.4577 22.4512 23.7441Z" fill="#AFEAE4"/>
<path d="M25.2417 31.0913C25.0753 31.0913 24.9217 31.0273 24.8065 30.9121C22.8865 28.9921 21.8369 26.4449 21.8369 23.7313C21.8369 18.1249 26.3937 13.5681 32.0001 13.5681C32.3329 13.5681 32.6017 13.8369 32.6017 14.1697V23.7185C32.6017 23.8849 32.5377 24.0385 32.4225 24.1409L25.6641 30.8993C25.5617 31.0273 25.4081 31.0913 25.2417 31.0913ZM31.3985 14.8097C26.7393 15.1169 23.0529 19.0081 23.0529 23.7441C23.0529 25.9329 23.8337 28.0065 25.2673 29.6321L31.3985 23.5009V14.8097Z" fill="#1C1D21"/>
<path d="M26.8927 55.181H17.6895C17.3567 55.181 17.0879 54.9122 17.0879 54.5794C17.0879 54.2466 17.3567 53.9778 17.6895 53.9778H26.8927C27.2255 53.9778 27.4943 54.2466 27.4943 54.5794C27.5071 54.9122 27.2255 55.181 26.8927 55.181Z" fill="#1C1D21"/>
<path d="M15.0275 55.181H13.9395C13.6067 55.181 13.3379 54.9122 13.3379 54.5794C13.3379 54.2466 13.6067 53.9778 13.9395 53.9778H15.0275C15.3603 53.9778 15.6291 54.2466 15.6291 54.5794C15.6291 54.9122 15.3603 55.181 15.0275 55.181Z" fill="#1C1D21"/>
<path d="M46.3107 55.181H37.1075C36.7747 55.181 36.5059 54.9122 36.5059 54.5794C36.5059 54.2466 36.7747 53.9778 37.1075 53.9778H46.3107C46.6435 53.9778 46.9123 54.2466 46.9123 54.5794C46.9123 54.9122 46.6435 55.181 46.3107 55.181Z" fill="#1C1D21"/>
<path d="M50.0607 55.181H48.9727C48.6399 55.181 48.3711 54.9122 48.3711 54.5794C48.3711 54.2466 48.6399 53.9778 48.9727 53.9778H50.0607C50.3935 53.9778 50.6623 54.2466 50.6623 54.5794C50.6623 54.9122 50.3935 55.181 50.0607 55.181Z" fill="#1C1D21"/>
</g>
</g>
<defs>
<clipPath id="clip0_2233_34026">
<rect width="64" height="64" fill="white"/>
</clipPath>
<clipPath id="clip1_2233_34026">
<rect width="64" height="64" fill="white"/>
</clipPath>
</defs>
</svg>
